<svg xmlns="http://www.w3.org/2000/svg" viewBox="0 0 192 64">
  <defs>
    <style>
               .cls-1 {
      fill: #fff;
     }
     
     .cls-2 {
       fill: #f48135;
      }
      
      .cls-10,
      .cls-11,
      .cls-3,
      .cls-4,
      .cls-5,
      .cls-6,
      .cls-7,
      .cls-8,
      .cls-9 {
        fill: none;
       }
       
       .cls-3,
       .cls-5 {
         stroke: #0069b2;
        }
        
        .cls-3,
        .cls-6,
        .cls-9 {
          stroke-linecap: round;
         }
         
         .cls-10,
         .cls-3,
         .cls-4,
         .cls-6,
         .cls-7,
         .cls-9 {
           stroke-linejoin: round;
          }
          
          .cls-4 {
            stroke: #f48135;
           }
           
           .cls-11,
           .cls-5,
           .cls-8 {
             stroke-miterlimit: 10;
            }
            
            .cls-6,
            .cls-8 {
              stroke: #54595e;
             }
             
             .cls-7 {
               stroke: #aab2bd;
              }
              
              .cls-10,
              .cls-11,
              .cls-9 {
                stroke: #fff;
               }
    </style>
  </defs>
  <title>Restyle Icone sito Wind_DEF CONVERTITO</title>
  <!--<g id="INGOMBRI">
    <rect class="cls-1" width="64" height="64" />
    <rect class="cls-1" x="64" width="64" height="64" />
    <rect class="cls-2" x="128" width="64" height="64" />
  </g>-->
  <g id="Livello_1" data-name="Livello 1">
    <g id="">
      <path class="cls-3" d="M6,24.77V5A4.47,4.47,0,0,1,10.41.5H53.59A4.47,4.47,0,0,1,58,5V24.77" />
      <line class="cls-4" x1="13" y1="7.61" x2="34" y2="7.61" />
      <line class="cls-4" x1="13" y1="14.73" x2="45" y2="14.73" />
      <line class="cls-4" x1="13" y1="20.82" x2="40" y2="20.82" />
      <line class="cls-4" x1="23" y1="27.94" x2="43" y2="27.94" />
      <path class="cls-5" d="M5.94,24.73a4.53,4.53,0,0,0-4.45,4.61V58.89a4.68,4.68,0,0,0,1.11,3L28.26,42Z" />
      <path class="cls-5" d="M62.51,58.89V29.35a4.53,4.53,0,0,0-4.45-4.61L35.73,42,61.4,61.93A4.68,4.68,0,0,0,62.51,58.89Z" />
      <path class="cls-5" d="M35.73,42,32,44.93,28.26,42,2.6,61.93A4.4,4.4,0,0,0,6,63.5H58a4.4,4.4,0,0,0,3.36-1.57Z" />
      <path class="cls-6" d="M70,24.77V5A4.47,4.47,0,0,1,74.41.5h43.18A4.47,4.47,0,0,1,122,5V24.77" />
    </g>
    <g id="">
      <line class="cls-7" x1="77" y1="7.61" x2="98" y2="7.61" />
      <line class="cls-7" x1="77" y1="14.73" x2="109" y2="14.73" />
      <line class="cls-7" x1="77" y1="20.82" x2="104" y2="20.82" />
      <line class="cls-7" x1="87" y1="27.94" x2="107" y2="27.94" />
      <path class="cls-8" d="M69.94,24.73a4.53,4.53,0,0,0-4.45,4.61V58.89a4.68,4.68,0,0,0,1.11,3L92.26,42Z" />
      <path class="cls-8" d="M126.51,58.89V29.35a4.53,4.53,0,0,0-4.45-4.61L99.73,42,125.4,61.93A4.68,4.68,0,0,0,126.51,58.89Z" />
      <path class="cls-8" d="M99.73,42,96,44.93,92.26,42,66.6,61.93A4.4,4.4,0,0,0,70,63.5H122a4.4,4.4,0,0,0,3.36-1.57Z" />
      <path class="cls-9" d="M134,24.77V5A4.47,4.47,0,0,1,138.41.5h43.18A4.47,4.47,0,0,1,186,5V24.77" />
    </g>
    <g id="">
      <line class="cls-10" x1="141" y1="7.61" x2="162" y2="7.61" />
      <line class="cls-10" x1="141" y1="14.73" x2="173" y2="14.73" />
      <line class="cls-10" x1="141" y1="20.82" x2="168" y2="20.82" />
      <line class="cls-10" x1="151" y1="27.94" x2="171" y2="27.94" />
      <path class="cls-11" d="M133.94,24.73a4.53,4.53,0,0,0-4.45,4.61V58.89a4.68,4.68,0,0,0,1.11,3L156.26,42Z" />
      <path class="cls-11" d="M190.51,58.89V29.35a4.53,4.53,0,0,0-4.45-4.61L163.73,42,189.4,61.93A4.68,4.68,0,0,0,190.51,58.89Z" />
      <path class="cls-11" d="M163.73,42,160,44.93,156.26,42,130.6,61.93A4.4,4.4,0,0,0,134,63.5H186a4.4,4.4,0,0,0,3.36-1.57Z" />
    </g>
  </g>
</svg>
