<svg id="search_icon" data-name="icon_search" xmlns="http://www.w3.org/2000/svg" viewBox="0 0 16 16">
    <defs>
        <style>
            .cls-1 {
                fill: #fff;
            }
            .cls-2 {
                fill: #eee;
            }

        </style>
    </defs>
    <path class="cls-1" d="M13.39,7.32a3.7,3.7,0,0,1-2.48,1.4h0a.28.28,0,0,1,0-.56A3.16,3.16,0,0,0,13.6,4.64a.28.28,0,0,1,.56-.07A3.7,3.7,0,0,1,13.39,7.32Z"/>
    <path class="cls-2" d="M10.78.5a4.71,4.71,0,0,0-3.5,7.88L6.61,9,6.55,9A1.19,1.19,0,0,0,4.9,9L.84,13a1.17,1.17,0,0,0,0,1.65l.46.46h0a1.16,1.16,0,0,0,1.65,0L7,11.1A1.17,1.17,0,0,0,7,9.45L7,9.39l.67-.67A4.72,4.72,0,1,0,10.78.5ZM6.68,10.77,2.62,14.83a.72.72,0,0,1-1,0l-.46-.46a.7.7,0,0,1,0-1L5.23,9.32a.7.7,0,0,1,1,0l.46.46A.7.7,0,0,1,6.68,10.77Zm4.1-1.31A4.24,4.24,0,1,1,15,5.22,4.24,4.24,0,0,1,10.78,9.46Z"/>
</svg>
