<svg xmlns="http://www.w3.org/2000/svg" viewBox="0 0 38 38"><title>bolli_robin_outline</title><g id="Livello_2" data-name="Livello 2"><path d="M34.81,37.41H3.19A2.78,2.78,0,0,1,.5,34.55V3.36A2.78,2.78,0,0,1,3.19.5H34.81A2.78,2.78,0,0,1,37.5,3.36V34.55A2.78,2.78,0,0,1,34.81,37.41Z" style="fill:#fff"/><path d="M34.81,37.41H3.19A2.78,2.78,0,0,1,.5,34.55V3.36A2.78,2.78,0,0,1,3.19.5H34.81A2.78,2.78,0,0,1,37.5,3.36V34.55A2.78,2.78,0,0,1,34.81,37.41Z" style="fill:none;stroke:#009bbe;stroke-miterlimit:10"/></g><g id="Livello_1" data-name="Livello 1"><path d="M13.78,16.91H8.67V14.74L13.64,4h2.84V14.74H18v2.17H16.47V21h-2.7Zm0-2.17V8.09h0l-2.86,6.65Z" style="fill:#009bbe"/><path d="M23.66,12.38h4.8V21H27l-.54-1.27a3.41,3.41,0,0,1-3,1.51c-2.32,0-3.93-1.65-3.93-4.36V8.11a4,4,0,0,1,4.3-4.36c2.93,0,4.4,2.12,4.4,4.67V9.5H25.53c0-2.55-.52-3.21-1.68-3.21-.71,0-1.3.42-1.3,1.86v8.75c0,1.08.35,1.79,1.37,1.79,1.18,0,1.61-.66,1.61-2.36V14.69H23.66Z" style="fill:#009bbe"/><path d="M9,33.55V24.61h4.29v1.34H10.54v2.3H12.6v1.34H10.54v4Z" style="fill:#009bbe"/><path d="M15.74,33.55H14.2V24.61h2.16c1.72,0,2.61.73,2.61,2.64,0,1.44-.56,2-1.08,2.25l1.3,4H17.62l-1.09-3.7a7.52,7.52,0,0,1-.79,0Zm0-4.92h.55c.83,0,1.14-.31,1.14-1.37s-.31-1.37-1.14-1.37h-.55Z" style="fill:#009bbe"/><path d="M20.09,33.55V24.61h4.12v1.34H21.63v2.3h2v1.34h-2v2.62h2.75v1.34Z" style="fill:#009bbe"/><path d="M25.29,33.55V24.61h4.12v1.34H26.83v2.3h2v1.34h-2v2.62h2.75v1.34Z" style="fill:#009bbe"/></g></svg>