<svg xmlns="http://www.w3.org/2000/svg" viewBox="0 0 38 38"><title>bolli_robin_outline</title><g id="Livello_1" data-name="Livello 1"><path d="M34.81,37.51H3.19A2.78,2.78,0,0,1,.5,34.65V3.37A2.79,2.79,0,0,1,3.19.5H34.81A2.79,2.79,0,0,1,37.5,3.37V34.65A2.78,2.78,0,0,1,34.81,37.51Z" style="fill:#fff"/><path d="M34.81,37.51H3.19A2.78,2.78,0,0,1,.5,34.65V3.37A2.79,2.79,0,0,1,3.19.5H34.81A2.79,2.79,0,0,1,37.5,3.37V34.65A2.78,2.78,0,0,1,34.81,37.51Z" style="fill:none;stroke:#009bbe;stroke-miterlimit:10"/><path d="M13,17.66V7.53h1.61l2.12,5.8h0V7.53h1.57V17.66H16.83l-2.22-6.33h0v6.33Z" style="fill:#009bbe"/><path d="M19.68,10a2.43,2.43,0,0,1,2.67-2.6A2.43,2.43,0,0,1,25,10v5.22a2.44,2.44,0,0,1-2.67,2.6,2.44,2.44,0,0,1-2.67-2.6Zm1.74,5.18c0,.76.22,1.12.93,1.12s.93-.36.93-1.12V10c0-.76-.22-1.12-.93-1.12s-.93.37-.93,1.12Z" style="fill:#009bbe"/><path d="M12.38,22H10.7V20.49h5.11V22H14.12v8.62H12.38Z" style="fill:#009bbe"/><path d="M17.24,30.62H15.55l1.87-10.14h2.16l1.87,10.14H19.77l-.31-2.25H17.55Zm.56-3.76h1.4l-.69-4.35h0Z" style="fill:#009bbe"/><path d="M23.46,25.32,21.6,20.49h1.71l1.07,3.21h0l1-3.21h1.71l-1.75,4.83,2,5.31H25.59l-1.18-3.69h0l-1.21,3.69H21.46Z" style="fill:#009bbe"/></g></svg>