<?xml version="1.0" encoding="utf-8"?>
<!-- Generator: Adobe Illustrator 21.1.0, SVG Export Plug-In . SVG Version: 6.00 Build 0)  -->
<svg version="1.1" id="Livello_1" xmlns="http://www.w3.org/2000/svg" xmlns:xlink="http://www.w3.org/1999/xlink" x="0px" y="0px"
	 viewBox="0 0 595.3 105" style="enable-background:new 0 0 595.3 105;" xml:space="preserve">
<style type="text/css">
	.st0{fill:#0040A3;}
	.st1{fill-rule:evenodd;clip-rule:evenodd;fill:#0040A3;}
</style>
<g>
	<rect x="43.7" y="34.3" class="st0" width="12.2" height="45.2"/>
	<polyline class="st0" points="65.9,79.5 77.8,79.5 77.8,45.7 77.9,45.7 101.5,79.5 116.5,79.5 116.5,34.3 104.7,34.3 104.7,68.1 
		104.5,68.1 81.1,34.3 65.9,34.3 65.9,79.5 	"/>
	<polyline class="st0" points="127,79.5 139.4,79.5 139.4,59.6 160.2,59.6 160.2,52.5 139.4,52.5 139.4,41.4 161.2,41.4 161.2,34.2 
		127,34.2 127,79.5 	"/>
	<path class="st1" d="M180.4,56.7c0-8,5-16.1,17.3-16.1c12.3,0,17.3,8.2,17.3,16.1c0,8.2-4.7,16.4-17.3,16.4
		C185,73.1,180.4,64.9,180.4,56.7 M167.5,56.7c0,13.9,10.4,23.5,30.1,23.5c19.5,0,30.2-9.8,30.2-23.5c0-13.7-10.8-23.3-30.2-23.3
		C178,33.5,167.5,42.9,167.5,56.7z"/>
	<path class="st0" d="M270,35.1c-4.5-1.1-9.4-1.6-14.7-1.6c-10.8,0-21.5,3.7-21.5,13.8c0,15,27,11.4,27,20c0,4.1-6.3,5.8-10.9,5.8
		c-4.9,0-9.7-1.1-13.9-2.8l-1.1,8.2c6.1,1.1,9.1,1.8,15.8,1.8c12.4,0,23.1-3.8,23.1-13.7c0-15.2-27-11.9-27-19.7
		c0-4.9,5.5-6.3,9.7-6.3c4.3,0,8.6,0.7,12.5,1.9L270,35.1"/>
	<polyline class="st0" points="293.6,79.5 305.9,79.5 305.9,41.4 323.6,41.4 323.6,34.2 276,34.2 276,41.4 293.6,41.4 293.6,79.5 	
		"/>
	<path class="st1" d="M329.7,79.5H342V60.7h4c5.2,0,6.8,1.3,8.6,4.7l7.4,14.1h13.8l-9.9-17.7c-1.2-2-3.2-4.5-6.5-4.7V57
		c7.8-0.8,12.7-5.2,12.7-10.5c0-12.6-15.8-12.3-29-12.3h-13.3V79.5 M342,41.4h4c6.2,0,13.1,0.5,13.1,5.9c0,5.6-7,6.3-13.1,6.3h-4
		V41.4z"/>
	<path class="st1" d="M379.3,79.5h12.8l5.4-10.4h24.9l5.3,10.4h13.7l-24.1-45.3h-13.9L379.3,79.5 M419,62h-18l8.9-18.7h0.2L419,62z"
		/>
	<path class="st1" d="M457.4,41.4h6.9c10.3,0,20.3,5.6,20.3,15.5c0,9.9-10,15.5-20.3,15.5h-6.9V41.4 M445.1,79.5h16.8
		c18.9,0,35.5-4.7,35.5-22.6c0-17.9-16.7-22.6-35.5-22.6h-16.8V79.5z"/>
	<path class="st1" d="M495.6,79.5h12.8l5.4-10.4h24.9l5.3,10.4h13.7l-24.1-45.3h-13.9L495.6,79.5 M535.3,62h-18l8.9-18.7h0.2
		L535.3,62z"/>
</g>
</svg>
