<?xml version="1.0" encoding="utf-8"?>
<!-- Generator: Adobe Illustrator 21.1.0, SVG Export Plug-In . SVG Version: 6.00 Build 0)  -->
<svg version="1.1" id="Livello_1" xmlns="http://www.w3.org/2000/svg" xmlns:xlink="http://www.w3.org/1999/xlink" x="0px" y="0px"
	 viewBox="0 0 427.6 302.3" style="enable-background:new 0 0 427.6 302.3;" xml:space="preserve">
<style type="text/css">
	.st0{fill:#FFFFFF;}
</style>
<g>
	<g>
		<g>
			<path class="st0" d="M127.4,28.2c0,0,15.5,20.6,21,27c5.5,6.4,11.6,14.7,18.3,15.1c7.5,0.5,17.2-11.9,19.8-13.8
				c5.5-3.9,8.3-3.5,11-3.7c9.1-0.6,28.2,10.6,40.2,10.4c32.4-0.6,58.5-24.7,71-36.2c12.5-11.6,20.7-18.3,20.7-18.3s4.3,0.6,1.4,6.8
				c-2.4,5.2-35.9,58.6-92,60.1c-24.5,0.7-28.7-12.2-43-11.1c-9,0.6-17.8,18.6-34.8,18.7c-13.6,0.1-34.7-42.8-34.7-42.8
				S120,28.6,127.4,28.2L127.4,28.2z"/>
			<path class="st0" d="M188,42.3c6.7-2,10.9-7.7,9.4-12.8c-1.5-5.1-8.2-7.5-14.9-5.5c-6.7,2-10.9,7.7-9.4,12.8
				C174.6,41.9,181.3,44.3,188,42.3L188,42.3z"/>
			<polygon class="st0" points="174.8,108.3 195.5,108.3 195.5,183.4 174.8,183.4 174.8,108.3 			"/>
			<polygon class="st0" points="212.5,108.3 237.8,108.3 277,164.5 277.3,164.5 277.3,108.3 297.1,108.3 297.1,183.4 271.9,183.4 
				232.5,127.2 232.2,127.2 232.2,183.4 212.5,183.4 212.5,108.3 			"/>
			<path class="st0" d="M313.4,108.3h28.1c31.5,0,59.4,7.8,59.4,37.6c0,29.8-27.9,37.6-59.4,37.6h-28.1V108.3L313.4,108.3z
				 M334.1,171.6h11.5c17.2,0,33.9-9.4,33.9-25.7c0-16.4-16.7-25.7-33.9-25.7h-11.5V171.6L334.1,171.6z"/>
			<polygon class="st0" points="144.5,108.3 125.2,168.3 124.9,168.3 106.8,108.3 86.3,108.3 68.8,168.3 68.5,168.3 49.3,108.3 
				27.7,108.3 54.9,183.4 81.6,183.4 96.3,135.2 111.2,183.4 137.7,183.4 164.6,108.3 144.5,108.3 			"/>
		</g>
		<path class="st0" d="M96.8,255.9v-45.5h12.5c10.7,0,15.9,5,15.9,13.6c0,8.6-5.2,13.6-15.9,13.6h-3.8v18.3H96.8z M105.5,230.4h4.7
			c4.3,0,6.4-2.1,6.4-6.4c0-4.3-2.1-6.4-6.4-6.4h-4.7V230.4z"/>
		<path class="st0" d="M131.2,215.7v-7.2h7.9v7.2H131.2z M139.2,221.6v34.3h-7.9v-34.3H139.2z"/>
		<path class="st0" d="M171,221.6v34.3h-7.7V252c-2.9,2.5-5.6,4.5-8.9,4.5c-4.8,0-7.4-2.5-7.4-8.8v-26.1h7.9v25.2
			c0,2.3,0.8,3.8,2.9,3.8c1.6,0,3.5-1.6,5.2-3.1v-25.9H171z M158,208.3l5.9,9.2h-6.4l-9.3-9.2H158z"/>
		<path class="st0" d="M208.7,243.7h0.1l5.2-22.1h7.9l-9.3,34.3h-7.8l-9.3-34.3h7.9L208.7,243.7z"/>
		<path class="st0" d="M228.6,215.7v-7.2h7.9v7.2H228.6z M236.6,221.6v34.3h-7.9v-34.3H236.6z"/>
		<path class="st0" d="M261.1,233.5V232c0-2.7-1.9-4-4.7-4c-2.8,0-4.7,1.4-4.7,4v13.6c0,2.6,1.9,4,4.7,4c2.8,0,4.7-1.4,4.7-4v-2.2
			h7.9v0.1c0,9.1-4.7,13-12.6,13c-7.9,0-12.6-3.9-12.6-13V234c0-9.1,4.7-13,12.6-13c7.8,0,12.4,3.8,12.5,12.5H261.1z"/>
		<path class="st0" d="M276.1,215.7v-7.2h7.9v7.2H276.1z M284,221.6v34.3h-7.9v-34.3H284z"/>
		<path class="st0" d="M292.6,255.9v-34.3h7.7v3.9c2.9-2.5,5.6-4.5,8.9-4.5c4.9,0,7.4,2.5,7.4,8.8v26.1h-7.9v-25.2
			c0-2.3-0.8-3.8-2.9-3.8c-1.6,0-3.5,1.6-5.2,3.1v25.9H292.6z"/>
		<path class="st0" d="M324.8,215.7v-7.2h7.9v7.2H324.8z M332.7,221.6v34.3h-7.9v-34.3H332.7z"/>
		<path class="st0" d="M339.4,255.9v-7.2h7.9v7.2H339.4z"/>
	</g>
</g>
</svg>
