<svg xmlns="http://www.w3.org/2000/svg" viewBox="0 0 38 38"><title>bolli_fisso</title><g id="Livello_2" data-name="Livello 2"><path d="M34.78,37.5H3.19A2.78,2.78,0,0,1,.5,34.64V3.37A2.78,2.78,0,0,1,3.19.5H34.78a2.78,2.78,0,0,1,2.69,2.87V34.64A2.78,2.78,0,0,1,34.78,37.5Z" style="fill:#0069b3"/><path d="M34.78,37.5H3.19A2.78,2.78,0,0,1,.5,34.64V3.37A2.78,2.78,0,0,1,3.19.5H34.78a2.78,2.78,0,0,1,2.69,2.87V34.64A2.78,2.78,0,0,1,34.78,37.5Z" style="fill:none;stroke:#fff;stroke-miterlimit:10"/></g><g id="Livello_1" data-name="Livello 1"><path d="M5.73,11.63H4.4v-.91a10.21,10.21,0,0,0,2-1.26h.85v9.92H5.73Z" style="fill:#fff"/><path d="M14.8,14.42h2.75v5h-.81l-.31-.73a2,2,0,0,1-1.69.87A2.24,2.24,0,0,1,12.48,17V12a2.32,2.32,0,0,1,2.46-2.51,2.44,2.44,0,0,1,2.52,2.68v.62h-1.6c0-1.46-.3-1.84-1-1.84-.41,0-.74.24-.74,1.07v5c0,.62.2,1,.79,1s.92-.38.92-1.36v-.95H14.8Z" style="fill:#fff"/><path d="M19.14,19.38V9.59h1.68v9.78Z" style="fill:#fff"/><path d="M24.65,14.42H27.4v5h-.81l-.31-.73a2,2,0,0,1-1.69.87A2.24,2.24,0,0,1,22.33,17V12A2.32,2.32,0,0,1,24.8,9.46a2.44,2.44,0,0,1,2.52,2.68v.62h-1.6c0-1.46-.3-1.84-1-1.84-.41,0-.74.24-.74,1.07v5c0,.62.2,1,.79,1s.92-.38.92-1.36v-.95H24.65Z" style="fill:#fff"/><path d="M29.74,19.38H28.11l1.8-9.78H32l1.8,9.78H32.17l-.3-2.17H30Zm.54-3.63h1.35L31,11.54h0Z" style="fill:#fff"/><path d="M4.78,21.91H5.89v4.87c0,.47.19.71.59.71s.59-.23.59-.71V21.91H8.17v4.83a1.56,1.56,0,0,1-1.7,1.72,1.56,1.56,0,0,1-1.7-1.72Z" style="fill:#fff"/><path d="M9,28.37V21.91h1l1.35,3.69h0V21.91h1v6.46h-1l-1.41-4h0v4Z" style="fill:#fff"/><path d="M13.26,21.91h1.64c1.14,0,1.75.63,1.75,1.95v2.56c0,1.32-.61,1.95-1.75,1.95H13.26Zm1.11,5.54h.38c.59,0,.79-.22.79-.9V23.73c0-.68-.21-.9-.79-.9h-.38Z" style="fill:#fff"/><path d="M17.5,28.37V21.91h3v1H18.61v1.66H20v1H18.61v1.9h2v1Z" style="fill:#fff"/><path d="M22.35,28.37H21.25V21.91H22.8c1.24,0,1.87.53,1.87,1.9,0,1-.4,1.46-.78,1.63l.94,2.92H23.71l-.79-2.67a5.42,5.42,0,0,1-.57,0Zm0-3.56h.39c.6,0,.82-.22.82-1s-.22-1-.82-1h-.39Z" style="fill:#fff"/><path d="M28.12,26.5v.44c0,.4.16.64.5.64s.53-.22.53-.76v-.49c0-.7-.27-.91-.95-.91v-.88c.65,0,.9-.21.9-1,0-.61-.12-.86-.45-.86s-.5.15-.5.66v.27h-1v-.3a1.41,1.41,0,0,1,1.51-1.5,1.49,1.49,0,0,1,1.44,1.65c0,.75-.12,1.17-.7,1.48.65.34.79.72.79,1.6,0,1.29-.51,1.9-1.61,1.9-.92,0-1.47-.46-1.47-1.57V26.5Z" style="fill:#fff"/><path d="M30.86,23.6c0-1.22.46-1.77,1.57-1.77S34,22.38,34,23.6v3.09c0,1.22-.46,1.77-1.57,1.77s-1.57-.55-1.57-1.77Zm2.09-.28c0-.42-.19-.62-.52-.62s-.52.2-.52.62V27c0,.42.19.62.52.62s.52-.2.52-.62Z" style="fill:#fff"/></g></svg>