<svg xmlns="http://www.w3.org/2000/svg" viewBox="0 0 38 38"><title>bolli_robin_outline</title><g id="Livello_2" data-name="Livello 2"><path d="M34.81,37.41H3.19A2.78,2.78,0,0,1,.5,34.55V3.36A2.78,2.78,0,0,1,3.19.5H34.81A2.78,2.78,0,0,1,37.5,3.36V34.55A2.78,2.78,0,0,1,34.81,37.41Z" style="fill:#fff"/><path d="M34.81,37.41H3.19A2.78,2.78,0,0,1,.5,34.55V3.36A2.78,2.78,0,0,1,3.19.5H34.81A2.78,2.78,0,0,1,37.5,3.36V34.55A2.78,2.78,0,0,1,34.81,37.41Z" style="fill:none;stroke:#009bbe;stroke-miterlimit:10"/></g><g id="Livello_1" data-name="Livello 1"><path d="M3.25,27.46v-5.1H4.51c1.08,0,1.59.42,1.59,1.5s-.5,1.5-1.59,1.5H4.13v2.09Zm.88-2.81h.34c.57,0,.75-.18.75-.78s-.18-.78-.75-.78H4.13Z" style="fill:#009bbe"/><path d="M6.62,27.46v-5.1H9v.76H7.49v1.31H8.63v.76H7.49v1.5H9.06v.76Z" style="fill:#009bbe"/><path d="M10.46,27.46H9.58v-5.1h1.23c1,0,1.49.42,1.49,1.5,0,.82-.32,1.15-.62,1.29l.74,2.31h-.89l-.62-2.11-.45,0Zm0-2.81h.31c.47,0,.65-.18.65-.78s-.18-.78-.65-.78h-.31Z" style="fill:#009bbe"/><path d="M14.33,22.36h.88v3.85c0,.37.15.56.47.56s.47-.18.47-.56V22.36H17v3.81a1.23,1.23,0,0,1-1.35,1.36,1.23,1.23,0,0,1-1.35-1.36Z" style="fill:#009bbe"/><path d="M17.7,27.46v-5.1h.81l1.07,2.92h0V22.36h.79v5.1h-.76L18.5,24.27h0v3.19Z" style="fill:#009bbe"/><path d="M26,22.36v5.1H25.2v-4h0l-.79,4H24l-.79-4h0v4H22.4v-5.1h1.15l.62,3h0l.62-3Z" style="fill:#009bbe"/><path d="M26.6,27.46v-5.1h2.35v.76H27.47v1.31h1.13v.76H27.47v1.5H29v.76Z" style="fill:#009bbe"/><path d="M31.16,23.62c0-.44-.27-.56-.47-.56s-.44.18-.44.5c0,.87,1.78,1.29,1.78,2.67a1.25,1.25,0,0,1-1.39,1.31,1.34,1.34,0,0,1-1.32-1.41l.84-.12c0,.52.24.77.52.77a.45.45,0,0,0,.51-.47c0-1-1.78-1.28-1.78-2.74a1.2,1.2,0,0,1,1.36-1.27A1.23,1.23,0,0,1,32,23.52Z" style="fill:#009bbe"/><path d="M32.53,27.46v-5.1h2.35v.76H33.4v1.31h1.13v.76H33.4v1.5H35v.76Z" style="fill:#009bbe"/><path d="M9.77,17.43v.78a.75.75,0,0,0,.74.85c.53,0,.83-.31.83-1.19V15.67c0-.63-.32-.89-.7-.89a.94.94,0,0,0-.91.74H8.43c.05-1.51.12-2.7.12-5h4.08l-.05,1.38H9.93L9.84,14l0,0a1.42,1.42,0,0,1,1.29-.57c1.29,0,1.79.93,1.79,2.56v1.35c0,2.05-.65,3-2.27,3-1.35,0-2.41-.59-2.41-2.21v-.74Z" style="fill:#009bbe"/><path d="M17.69,15.32h2.75v4.94h-.81l-.31-.73a2,2,0,0,1-1.69.86,2.23,2.23,0,0,1-2.25-2.5v-5a2.31,2.31,0,0,1,2.46-2.5A2.44,2.44,0,0,1,20.36,13v.62h-1.6c0-1.46-.3-1.84-1-1.84-.41,0-.74.24-.74,1.07v5c0,.62.2,1,.79,1s.92-.38.92-1.35v-.94H17.69Z" style="fill:#009bbe"/><path d="M21.36,20.26V10.51H23v9.74Z" style="fill:#009bbe"/><path d="M26.19,15.32h2.75v4.94h-.81l-.31-.73a2,2,0,0,1-1.69.86,2.23,2.23,0,0,1-2.25-2.5v-5a2.31,2.31,0,0,1,2.46-2.5A2.44,2.44,0,0,1,28.86,13v.62h-1.6c0-1.46-.3-1.84-1-1.84-.41,0-.74.24-.74,1.07v5c0,.62.2,1,.79,1s.92-.38.92-1.35v-.94H26.19Z" style="fill:#009bbe"/><path d="M30.94,20.26H29.31l1.8-9.74H33.2L35,20.26H33.38l-.3-2.16H31.24Zm.54-3.62h1.35l-.66-4.18h0Z" style="fill:#009bbe"/><polygon points="5.94 14.62 5.94 12.97 4.66 12.97 4.66 14.62 3 14.62 3 15.9 4.66 15.9 4.66 17.56 5.94 17.56 5.94 15.9 7.6 15.9 7.6 14.62 5.94 14.62" style="fill:#009bbe"/></g></svg>