<svg id="Livello_1" data-name="Livello 1" xmlns="http://www.w3.org/2000/svg" viewBox="0 0 116 116"><title>infografica_autoricarica_elementi_singoli</title><path d="M93.57,34.84h0l-.14-.14L66.14,6.36c-.05-.06-.09-.13-.15-.19a4.73,4.73,0,0,0-3.35-1.46l-36.81,0a4.76,4.76,0,0,0-4.67,4.84v96.92a4.76,4.76,0,0,0,4.67,4.85H90.16a4.76,4.76,0,0,0,4.67-4.84V38.14A4.73,4.73,0,0,0,93.57,34.84Z" style="fill:#fff"/><path d="M25.84,5.19a4.26,4.26,0,0,0-4.17,4.34h0v96.93a4.26,4.26,0,0,0,4.17,4.34H90.15a4.26,4.26,0,0,0,4.17-4.34h0V38.13a4.26,4.26,0,0,0-4.17-4.34H71a4.26,4.26,0,0,1-4.17-4.33V9.55a4.26,4.26,0,0,0-4.17-4.34h0Z" style="fill:#fff;stroke:#009bbe;stroke-miterlimit:10"/><polyline points="52.3 38.67 27.91 38.67 41.02 38.67" style="fill:none;stroke:#009bbe;stroke-linecap:round;stroke-miterlimit:10"/><polyline points="49.08 45.38 27.91 45.38 41.02 45.38" style="fill:none;stroke:#009bbe;stroke-linecap:round;stroke-miterlimit:10"/><line x1="80.36" y1="55.45" x2="28.75" y2="55.45" style="fill:none;stroke:#009bbe;stroke-linecap:round;stroke-miterlimit:10"/><line x1="28.75" y1="64.18" x2="85.21" y2="64.18" style="fill:none;stroke:#009bbe;stroke-linecap:round;stroke-miterlimit:10"/><line x1="29.72" y1="90.35" x2="81.34" y2="90.35" style="fill:none;stroke:#009bbe;stroke-linecap:round;stroke-miterlimit:10"/><line x1="29.72" y1="99.07" x2="70.05" y2="99.07" style="fill:none;stroke:#009bbe;stroke-linecap:round;stroke-miterlimit:10"/><line x1="29.72" y1="72.9" x2="81.34" y2="72.9" style="fill:none;stroke:#009bbe;stroke-linecap:round;stroke-miterlimit:10"/><line x1="29.72" y1="81.63" x2="70.05" y2="81.63" style="fill:none;stroke:#009bbe;stroke-linecap:round;stroke-miterlimit:10"/><polyline points="41.02 31.96 27.91 31.96 41.02 31.96" style="fill:none;stroke:#009bbe;stroke-linecap:round;stroke-miterlimit:10"/><rect x="27.44" y="11.6" width="24.23" height="12.52" rx="2.8" ry="2.8" style="fill:none;stroke:#009bbe;stroke-linecap:round;stroke-linejoin:round;stroke-width:0.5px"/><path d="M30.66,15.74h0l-1,.53-.14-.58L30.76,15h.65v5.65h-.72Z" style="fill:#f48135"/><path d="M32.73,20.67V20.2l.6-.58c1.45-1.37,2.09-2.1,2.1-3a1,1,0,0,0-.9-1.1h-.22a1.92,1.92,0,0,0-1.2.48l-.25-.54a2.48,2.48,0,0,1,1.6-.57,1.59,1.59,0,0,1,1.73,1.64c0,1-.72,1.88-1.95,3L33.8,20h2.54v.64Z" style="fill:#f48135"/><path d="M37.38,19.79a2.56,2.56,0,0,0,1.25.35c1,0,1.29-.62,1.27-1.09,0-.79-.72-1.13-1.45-1.13H38v-.57h.43c.56,0,1.26-.29,1.26-1,0-.45-.29-.85-1-.85a2.08,2.08,0,0,0-1.13.38l-.2-.56a2.68,2.68,0,0,1,1.45-.43c1.12,0,1.62.66,1.62,1.35a1.41,1.41,0,0,1-1,1.33h0A1.45,1.45,0,0,1,40.67,19c0,.91-.72,1.7-2.06,1.7a2.9,2.9,0,0,1-1.45-.38Z" style="fill:#f48135"/><path d="M44,20.67V19.13H41.4v-.51L43.92,15h.83V18.5h.79v.6h-.79v1.57Zm0-2.17V15.73h0c-.17.33-.31.57-.47.83L42.19,18.5H44Z" style="fill:#f48135"/><path d="M49.48,15.66H47.31l-.22,1.45a3,3,0,0,1,.46,0,2.38,2.38,0,0,1,1.22.3,1.61,1.61,0,0,1,.81,1.45,2,2,0,0,1-2,1.93h-.12a2.77,2.77,0,0,1-1.41-.35l.19-.58a2.53,2.53,0,0,0,1.21.31A1.25,1.25,0,0,0,48.81,19s0-.05,0-.08c0-.72-.49-1.25-1.62-1.25a5.79,5.79,0,0,0-.78.06L46.77,15h2.7Z" style="fill:#f48135"/><path d="M65.68,6.6,93.21,35.18Z" style="fill:none;stroke:#009bbe;stroke-miterlimit:10"/></svg>