<svg id="Livello_1" data-name="Livello 1" xmlns="http://www.w3.org/2000/svg" viewBox="0 0 116 116"><title>infografica_autoricarica_elementi_singoli</title><path d="M108.66,69.37a5.42,5.42,0,0,0-3.23-4.91,5.44,5.44,0,0,0,3.2-5V58a5.38,5.38,0,0,0-3.22-4.91,5.44,5.44,0,0,0,3.19-4.94V46.75A5.38,5.38,0,0,0,107,42.93a5.51,5.51,0,0,0-1.68-1.15,5.44,5.44,0,0,0,3.26-5V35.34A5.42,5.42,0,0,0,103.14,30h0l-7.31,0-.05-17a4.86,4.86,0,0,0-4.86-4.86l-51.77.16a4.88,4.88,0,0,0-4.82,4.91l.05,17H30a5.56,5.56,0,0,0-3.45,1.24L7.33,43.93,7.4,66.24c0,.19,0,4.77,3,7.81a9.36,9.36,0,0,0,6.91,2.59h0l17.1-.05.08,26.49a4.86,4.86,0,0,0,4.86,4.86l51.78-.16A4.86,4.86,0,0,0,96,102.86L95.94,76.3l7.3,0h0a5.43,5.43,0,0,0,5.43-5.43Z" style="fill:#fff"/><g id="icon_configurazione_manuale--color"><path d="M103.22,64.65a4.93,4.93,0,0,0,4.95-4.92V58.26a4.92,4.92,0,0,0-4.93-4.9" style="fill:none;stroke:#f48135;stroke-miterlimit:10"/><path d="M103.23,64.69a4.92,4.92,0,0,1,4.93,4.9v1.46A4.93,4.93,0,0,1,103.22,76H95.41" style="fill:none;stroke:#f48135;stroke-miterlimit:10"/><path d="M103.22,41.94A4.93,4.93,0,0,0,108.17,37V35.56a4.92,4.92,0,0,0-4.93-4.9H95.41" style="fill:none;stroke:#f48135;stroke-miterlimit:10"/><path d="M103.22,53.33a4.93,4.93,0,0,0,4.95-4.92V47a4.92,4.92,0,0,0-4.93-4.9" style="fill:none;stroke:#f48135;stroke-miterlimit:10"/><path d="M67.06,31.89a24.67,24.67,0,1,1-26.54,24.6q0-.8.05-1.59" style="fill:#fff;stroke:#009bbe;stroke-linecap:round;stroke-linejoin:round"/><path d="M62.44,48.87H54.69l-.45,5.77a5.28,5.28,0,0,1,3.7-1.47c3,0,5.77,2,5.77,6.1,0,2.75-1.65,6.35-6.25,6.35-3.07,0-4.62-1.7-5.75-3.45l1.62-.85a4.7,4.7,0,0,0,4.17,2.75c2.37,0,4.3-1.4,4.3-4.8,0-2.65-1.55-4.55-4-4.55A4.09,4.09,0,0,0,54,57.44l-1.57-.35.8-9.77h9.25Z" style="fill:#f48135"/><path d="M78.64,51.72c-.47-.9-1.87-3.1-4.52-3.1-3.22,0-4.32,3-4.37,5.45h8.1l-.52,1.55H69.79v2.2h6.77L76,59.36H69.79a4.54,4.54,0,0,0,4.4,4.7,5.18,5.18,0,0,0,4.45-2.4v2.07a5.59,5.59,0,0,1-4.42,1.87c-3.72,0-6-2.77-6.3-6.25H65.84l.53-1.55h1.55v-2.2H65.84l.53-1.55h1.55c0-3.75,2.3-7,6.2-7a6,6,0,0,1,5.22,2.6Z" style="fill:#f48135"/><path d="M35,30.23V13.12a4.38,4.38,0,0,1,4.34-4.39H91.08a4.36,4.36,0,0,1,4.34,4.38V103a4.36,4.36,0,0,1-4.33,4.39H39.31A4.36,4.36,0,0,1,35,103.06v-41" style="fill:none;stroke:#009bbe;stroke-linecap:round;stroke-linejoin:round"/><ellipse cx="65.2" cy="100.4" rx="3.98" ry="3.91" style="fill:none;stroke:#f48135;stroke-linecap:round;stroke-linejoin:round;stroke-width:0.75px"/><line x1="95.48" y1="93.35" x2="34.92" y2="93.35" style="fill:none;stroke:#009bbe;stroke-linecap:round;stroke-linejoin:round"/><line x1="34.95" y1="18.15" x2="95.44" y2="18.15" style="fill:none;stroke:#009bbe;stroke-linecap:round;stroke-linejoin:round"/><line x1="69.98" y1="13.45" x2="60.43" y2="13.45" style="fill:none;stroke:#f48135;stroke-linecap:round;stroke-linejoin:round"/><line x1="95.47" y1="41.97" x2="103.27" y2="41.97" style="fill:none;stroke:#f48135;stroke-miterlimit:10"/><line x1="103.27" y1="53.3" x2="95.47" y2="53.3" style="fill:none;stroke:#f48135;stroke-miterlimit:10"/><line x1="103.27" y1="64.63" x2="95.47" y2="64.63" style="fill:none;stroke:#f48135;stroke-miterlimit:10"/><path d="M18.1,66.89c24.79,0,25.63-25.28,25.63-25.28h1.59" style="fill:none;stroke:#f48135;stroke-miterlimit:10"/><path d="M43.72,41.6H63.41a4.92,4.92,0,0,0,5-4.85h0V35.49a4.92,4.92,0,0,0-5-4.85H30.15A5.11,5.11,0,0,0,27,31.79L7.92,44.1v22s-.11,9.93,9.45,9.93h17.5" style="fill:none;stroke:#f48135;stroke-miterlimit:10"/></g></svg>