<svg id="Livello_1" data-name="Livello 1" xmlns="http://www.w3.org/2000/svg" viewBox="0 0 116 116"><title>infografica_autoricarica_elementi_singoli</title><rect x="7.54" y="25.89" width="100.91" height="64.22" rx="8.56" ry="8.56" style="fill:#fff;stroke:#009bbe;stroke-miterlimit:10"/><path d="M82.16,50a23,23,0,0,0-5.16.83l-.4,3.28A14.06,14.06,0,0,1,81,53.21c1.7-.05,2.71.31,2.36,1.77-5.06,0-8.47,1-9.17,4.32-1,5.62,5.16,5.46,7.62,3l-.3,1.35H86l2-8.94C88.78,50.92,85.32,50,82.16,50Zm.3,9.15A2.26,2.26,0,0,1,80.11,61c-1,.05-1.91-.83-1.25-1.87.5-.88,1.91-1.09,2.76-1.09h1.1C82.61,58.41,82.56,58.77,82.46,59.19Z" style="fill:#107db0;fill-rule:evenodd"/><polygon points="91.84 46.5 88.1 63.66 92.69 63.66 96.47 46.5 91.84 46.5 91.84 46.5 91.84 46.5" style="fill:#107db0;fill-rule:evenodd"/><path d="M70.78,46.55H62.39L58.67,63.66h4.87L64.8,58h3.47a6.88,6.88,0,0,0,7-5.62C76.11,48.37,73.19,46.55,70.78,46.55Zm-.15,5.82a3.13,3.13,0,0,1-2.87,2.34H65.5l1-4.68h2.41A1.76,1.76,0,0,1,70.63,52.38Z" style="fill:#107db0;fill-rule:evenodd"/><path d="M38.22,50a21.5,21.5,0,0,0-5.05.83l-.4,3.28a13.06,13.06,0,0,1,4.31-.94c1.68-.05,2.67.31,2.38,1.77-5,0-8.37,1-9.06,4.32-1,5.62,5.1,5.46,7.48,3l-.3,1.35h4.51L44,54.72C44.81,50.92,41.34,50,38.22,50Zm.35,9.15A2.29,2.29,0,0,1,36.19,61,1.2,1.2,0,0,1,35,59.09C35.5,58.2,36.88,58,37.67,58h1.14A10.35,10.35,0,0,0,38.57,59.19Z" style="fill:#1b557d;fill-rule:evenodd"/><polygon points="45.98 50.28 50.48 50.28 51.21 58.25 55.62 50.28 60.27 50.28 49.56 69.35 44.52 69.35 47.82 63.75 45.98 50.28 45.98 50.28 45.98 50.28" style="fill:#1b557d;fill-rule:evenodd"/><path d="M27,46.55H18.6L14.87,63.66h4.94L21,58h3.53a6.88,6.88,0,0,0,7-5.62C32.35,48.37,29.48,46.55,27,46.55Zm-.15,5.82A3.08,3.08,0,0,1,24,54.72H21.72L22.78,50H25.2A1.73,1.73,0,0,1,26.86,52.38Z" style="fill:#1b557d;fill-rule:evenodd"/><path d="M97.45,48.72v-2H96.7v-.27h1.82v.27h-.76v2Z" style="fill:#1b557d"/><path d="M98.82,48.72V46.42h.45L99.82,48l.11.34L100,48l.55-1.6H101v2.29h-.29V46.8L100,48.72h-.27l-.66-2v2Z" style="fill:#1b557d"/></svg>