<svg id="Livello_1" data-name="Livello 1" xmlns="http://www.w3.org/2000/svg" viewBox="0 0 116 116"><title>infografica_autoricarica_elementi_singoli</title><rect x="7.71" y="25.99" width="100.59" height="64.01" rx="8.53" ry="8.53" style="fill:#fff;stroke:#fff;stroke-miterlimit:10"/><rect x="7.71" y="25.99" width="100.59" height="64.01" rx="8.53" ry="8.53" style="fill:#fff;stroke:#009bbe;stroke-miterlimit:10"/><polyline points="7.39 50.38 108.29 50.38 108.29 35.14 7.39 35.14" style="fill:none;stroke:#009bbe;stroke-miterlimit:10"/><line x1="42.75" y1="59.52" x2="12.28" y2="59.52" style="fill:none;stroke:#f48135;stroke-linecap:round;stroke-linejoin:round"/><line x1="12.28" y1="68.67" x2="47.58" y2="68.67" style="fill:none;stroke:#f48135;stroke-linecap:round;stroke-linejoin:round"/><line x1="39.12" y1="77.81" x2="12.28" y2="77.81" style="fill:none;stroke:#f48135;stroke-linecap:round;stroke-linejoin:round"/><path d="M90.07,68.71a11.25,11.25,0,0,1-5,9.39,10.82,10.82,0,0,0,11.06.55,11.31,11.31,0,0,0,1.16-19.2,10.85,10.85,0,0,0-12.19,0" style="fill:none;stroke:#009bbe;stroke-miterlimit:10"/><path d="M85.07,59.41h.21a11.34,11.34,0,0,1-.21,18.65l-.94.55a10.78,10.78,0,0,1-5.06,1.25,11.22,11.22,0,0,1,0-22.43A10.82,10.82,0,0,1,85.07,59.41Z" style="fill:none;stroke:#009bbe;stroke-miterlimit:10"/></svg>