<svg id="Livello_1" data-name="Livello 1" xmlns="http://www.w3.org/2000/svg" viewBox="0 0 192 64">
    <defs>
        <style>
            .cls-1,
            .cls-2,
            .cls-3,
            .cls-4,
            .cls-5,
            .cls-6,
            .cls-7,
            .cls-8 {
                fill: none;
            }
            .cls-1,
            .cls-2 {
                stroke: #0069b2;
            }
            .cls-1,
            .cls-4,
            .cls-7 {
                stroke-miterlimit: 10;
            }
            .cls-2,
            .cls-3,
            .cls-5,
            .cls-6,
            .cls-8 {
                stroke-linecap: round;
                stroke-linejoin: round;
            }
            .cls-3 {
                stroke: #f48135;
            }
            .cls-4,
            .cls-5 {
                stroke: #54595e;
            }
            .cls-6 {
                stroke: #aab2bd;
            }
            .cls-7,
            .cls-8 {
                stroke: #fff;
            }
        </style>
        <view id="color" viewBox="0 0 64 64"/>
        <view id="grey" viewBox="64 0 64 64"/>
        <view id="white" viewBox="128 0 64 64"/>
    </defs><path class="cls-1" d="M57.28,28.78a2.35,2.35,0,1,1-2.72-1.92A2.37,2.37,0,0,1,57.28,28.78Z"/><line class="cls-2" x1="46.33" y1="13.89" x2="52.06" y2="46.54"/><ellipse class="cls-3" cx="27.56" cy="26.55" rx="3.81" ry="3.84" transform="translate(-0.71 0.76) rotate(-1.56)"/><ellipse class="cls-3" cx="37.63" cy="39.37" rx="3.81" ry="3.84" transform="translate(-1.06 1.04) rotate(-1.56)"/><path class="cls-3" d="M24.17,41.91,41,24,24.17,41.91"/><path class="cls-2" d="M12.16,31.94,15.5,51a2,2,0,0,0,2.37,1.67L55.38,46A2,2,0,0,0,56.74,45l6.43-15.86a2.07,2.07,0,0,0-.55-2.81L51.21,13.63a2,2,0,0,0-1.52-.33L19.53,18.66"/><ellipse class="cls-3" cx="10.59" cy="22.08" rx="2.88" ry="2.9"/><path
        class="cls-2"
        d="M12.51,15.39l2.63-2.61a.59.59,0,0,1,1,.59L15.23,17a.6.6,0,0,0,.65.75l3.57-.52a.61.61,0,0,1,.45,1.08L17.14,20.8a.63.63,0,0,0,.09,1l3.14,1.77a.63.63,0,0,1-.25,1.16l-3.59.32a.63.63,0,0,0-.5.89l1.52,3.38a.61.61,0,0,1-.85.8l-3-1.95a.59.59,0,0,0-.9.42l-.69,3.7a.59.59,0,0,1-1.13.13L9.62,29a.57.57,0,0,0-1-.21L6,31.38a.59.59,0,0,1-1-.59l.88-3.66a.6.6,0,0,0-.65-.75l-3.57.52a.61.61,0,0,1-.45-1.08L4,23.36a.63.63,0,0,0-.09-1L.81,20.58a.63.63,0,0,1,.25-1.16l3.59-.32a.63.63,0,0,0,.5-.89L3.62,14.83a.61.61,0,0,1,.85-.8l3,1.95a.59.59,0,0,0,.9-.42l.69-3.7a.59.59,0,0,1,1.13-.13l1.34,3.47A.57.57,0,0,0,12.51,15.39Z"/><path class="cls-4" d="M121.28,28.78a2.35,2.35,0,1,1-2.72-1.92A2.37,2.37,0,0,1,121.28,28.78Z"/><line class="cls-5" x1="110.33" y1="13.89" x2="116.06" y2="46.54"/><ellipse class="cls-6" cx="91.56" cy="26.55" rx="3.81" ry="3.84" transform="translate(-0.69 2.51) rotate(-1.56)"/><ellipse class="cls-6" cx="101.63" cy="39.37" rx="3.81" ry="3.84" transform="translate(-1.04 2.79) rotate(-1.56)"/><path class="cls-6" d="M88.17,41.91,105,24,88.17,41.91"/><path class="cls-5" d="M76.16,31.94,79.5,51a2,2,0,0,0,2.37,1.67L119.38,46a2,2,0,0,0,1.36-.91l6.43-15.86a2.07,2.07,0,0,0-.55-2.81L115.21,13.63a2,2,0,0,0-1.52-.33L83.53,18.66"/><ellipse class="cls-6" cx="74.59" cy="22.08" rx="2.88" ry="2.9"/><path
        class="cls-5"
        d="M76.51,15.39l2.63-2.61a.59.59,0,0,1,1,.59L79.23,17a.6.6,0,0,0,.65.75l3.57-.52a.61.61,0,0,1,.45,1.08L81.14,20.8a.63.63,0,0,0,.09,1l3.14,1.77a.63.63,0,0,1-.25,1.16l-3.59.32a.63.63,0,0,0-.5.89l1.52,3.38a.61.61,0,0,1-.85.8l-3-1.95a.59.59,0,0,0-.9.42l-.69,3.7a.59.59,0,0,1-1.13.13L73.62,29a.57.57,0,0,0-1-.21L70,31.38a.59.59,0,0,1-1-.59l.88-3.66a.6.6,0,0,0-.65-.75l-3.57.52a.61.61,0,0,1-.45-1.08L68,23.36a.63.63,0,0,0-.09-1l-3.14-1.77a.63.63,0,0,1,.25-1.16l3.59-.32a.63.63,0,0,0,.5-.89l-1.52-3.38a.61.61,0,0,1,.85-.8l3,1.95a.59.59,0,0,0,.9-.42l.69-3.7a.59.59,0,0,1,1.13-.13l1.34,3.47A.57.57,0,0,0,76.51,15.39Z"/><path class="cls-7" d="M185.28,28.78a2.35,2.35,0,1,1-2.72-1.92A2.37,2.37,0,0,1,185.28,28.78Z"/><line class="cls-8" x1="174.33" y1="13.89" x2="180.06" y2="46.54"/><ellipse class="cls-8" cx="155.56" cy="26.55" rx="3.81" ry="3.84" transform="translate(-0.67 4.26) rotate(-1.56)"/><ellipse class="cls-8" cx="165.63" cy="39.37" rx="3.81" ry="3.84" transform="translate(-1.01 4.54) rotate(-1.56)"/><path class="cls-8" d="M152.17,41.91,169,24,152.17,41.91"/><path class="cls-8" d="M140.16,31.94l3.34,19a2,2,0,0,0,2.37,1.67L183.38,46a2,2,0,0,0,1.36-.91l6.43-15.86a2.07,2.07,0,0,0-.55-2.81L179.21,13.63a2,2,0,0,0-1.52-.33l-30.16,5.37"/><ellipse class="cls-8" cx="138.59" cy="22.08" rx="2.88" ry="2.9"/><path
        class="cls-8"
        d="M140.51,15.39l2.63-2.61a.59.59,0,0,1,1,.59L143.23,17a.6.6,0,0,0,.65.75l3.57-.52a.61.61,0,0,1,.45,1.08l-2.76,2.46a.63.63,0,0,0,.09,1l3.14,1.77a.63.63,0,0,1-.25,1.16l-3.59.32a.63.63,0,0,0-.5.89l1.52,3.38a.61.61,0,0,1-.85.8l-3-1.95a.59.59,0,0,0-.9.42l-.69,3.7a.59.59,0,0,1-1.13.13L137.62,29a.57.57,0,0,0-1-.21L134,31.38a.59.59,0,0,1-1-.59l.88-3.66a.6.6,0,0,0-.65-.75l-3.57.52a.61.61,0,0,1-.45-1.08L132,23.36a.63.63,0,0,0-.09-1l-3.14-1.77a.63.63,0,0,1,.25-1.16l3.59-.32a.63.63,0,0,0,.5-.89l-1.52-3.38a.61.61,0,0,1,.85-.8l3,1.95a.59.59,0,0,0,.9-.42l.69-3.7a.59.59,0,0,1,1.13-.13l1.34,3.47A.57.57,0,0,0,140.51,15.39Z"/></svg>
