<svg id="Livello_1" data-name="Livello 1" xmlns="http://www.w3.org/2000/svg" viewBox="0 0 192 64">
    <defs>
        <style>
            .cls-1,
            .cls-10,
            .cls-13,
            .cls-15,
            .cls-2,
            .cls-4,
            .cls-7,
            .cls-8 {
                fill: none;
            }
            .cls-1 {
                stroke: #f48135;
            }
            .cls-1,
            .cls-10,
            .cls-11,
            .cls-12,
            .cls-13,
            .cls-15,
            .cls-16,
            .cls-17,
            .cls-2,
            .cls-4,
            .cls-5,
            .cls-6,
            .cls-7,
            .cls-8 {
                stroke-miterlimit: 10;
            }
            .cls-2,
            .cls-4,
            .cls-5,
            .cls-6 {
                stroke: #0069b2;
            }
            .cls-3 {
                fill: #f48135;
            }
            .cls-10,
            .cls-12,
            .cls-15,
            .cls-17,
            .cls-4,
            .cls-6 {
                stroke-linecap: round;
            }
            .cls-11,
            .cls-12,
            .cls-14,
            .cls-16,
            .cls-17,
            .cls-5,
            .cls-6 {
                fill: #fff;
            }
            .cls-11,
            .cls-16,
            .cls-5 {
                stroke-linecap: square;
            }
            .cls-7 {
                stroke: #aab2bd;
            }
            .cls-10,
            .cls-11,
            .cls-12,
            .cls-8 {
                stroke: #54595e;
            }
            .cls-9 {
                fill: #aab2bd;
            }
            .cls-13,
            .cls-15,
            .cls-16,
            .cls-17 {
                stroke: #fff;
            }
        </style>
        <view id="color" viewBox="0 0 64 64"/>
        <view id="grey" viewBox="64 0 64 64"/>
        <view id="white" viewBox="128 0 64 64"/>
    </defs><line class="cls-1" x1="52.19" y1="60" x2="52.19" y2="36"/><path class="cls-2" d="M5.32,27.88V56.35a4.12,4.12,0,0,0,4,4.19l45.28.07a4.12,4.12,0,0,0,4-4.19V27.88"/><line class="cls-2" x1="32.81" y1="60" x2="32.81" y2="36"/><line class="cls-1" x1="11.81" y1="60" x2="11.81" y2="36"/><ellipse class="cls-3" cx="40.88" cy="47.48" rx="2.42" ry="2.45"/><ellipse class="cls-3" cx="24.73" cy="47.48" rx="2.42" ry="2.45"/><path
        class="cls-4"
        d="M52.19,22.33v1.8a3.73,3.73,0,0,1-3.71,3.75H46.22a3.74,3.74,0,0,1-3.72-3.76v0a3.73,3.73,0,0,1-3.71,3.75H36.52a3.74,3.74,0,0,1-3.72-3.76v0a3.73,3.73,0,0,1-3.71,3.75H25.22a3.74,3.74,0,0,1-3.72-3.76v0a3.73,3.73,0,0,1-3.71,3.75h-2a3.91,3.91,0,0,1-4-3.81v0a3.91,3.91,0,0,1-4,3.81H4.5a3.91,3.91,0,0,1-4-3.81V17.76L4,5.54a4,4,0,0,1,3.6-2.16H56.39A4,4,0,0,1,60,5.54L63.5,17.76v6.31a3.91,3.91,0,0,1-4,3.81H56.19a3.91,3.91,0,0,1-4-3.81Z"/><line class="cls-5" x1="5.35" y1="36.05" x2="58.65" y2="36.05"/><line class="cls-6" x1="0.5" y1="18.08" x2="63.5" y2="18.08"/><line class="cls-7" x1="116.19" y1="60" x2="116.19" y2="36"/><line class="cls-7" x1="75.81" y1="60" x2="75.81" y2="36"/><path class="cls-8" d="M69.32,27.88V56.35a4.12,4.12,0,0,0,4,4.19l45.28.07a4.12,4.12,0,0,0,4-4.19V27.88"/><line class="cls-8" x1="96.81" y1="60" x2="96.81" y2="36"/><ellipse class="cls-9" cx="104.88" cy="47.48" rx="2.42" ry="2.45"/><ellipse class="cls-9" cx="88.73" cy="47.48" rx="2.42" ry="2.45"/><path
        class="cls-10"
        d="M116.19,22.33v1.8a3.73,3.73,0,0,1-3.71,3.75h-2.26a3.74,3.74,0,0,1-3.72-3.76v0a3.73,3.73,0,0,1-3.71,3.75h-2.26a3.74,3.74,0,0,1-3.72-3.76v0a3.73,3.73,0,0,1-3.71,3.75H89.22a3.74,3.74,0,0,1-3.72-3.76v0a3.73,3.73,0,0,1-3.71,3.75h-2a3.91,3.91,0,0,1-4-3.81v0a3.91,3.91,0,0,1-4,3.81H68.5a3.91,3.91,0,0,1-4-3.81V17.76L68,5.54a4,4,0,0,1,3.6-2.16h48.78A4,4,0,0,1,124,5.54l3.51,12.21v6.31a3.91,3.91,0,0,1-4,3.81h-3.31a3.91,3.91,0,0,1-4-3.81Z"/><line class="cls-11" x1="69.35" y1="36.05" x2="122.65" y2="36.05"/><line class="cls-12" x1="64.5" y1="18.08" x2="127.5" y2="18.08"/><path class="cls-13" d="M133.32,27.88V56.35a4.12,4.12,0,0,0,4,4.19l45.28.07a4.12,4.12,0,0,0,4-4.19V27.88"/><line class="cls-13" x1="160.81" y1="60" x2="160.81" y2="36"/><ellipse class="cls-14" cx="168.88" cy="47.48" rx="2.42" ry="2.45"/><ellipse class="cls-14" cx="152.73" cy="47.48" rx="2.42" ry="2.45"/><path
        class="cls-15"
        d="M180.19,22.33v1.8a3.73,3.73,0,0,1-3.71,3.75h-2.26a3.74,3.74,0,0,1-3.72-3.76v0a3.73,3.73,0,0,1-3.71,3.75h-2.26a3.74,3.74,0,0,1-3.72-3.76v0a3.73,3.73,0,0,1-3.71,3.75h-3.88a3.74,3.74,0,0,1-3.72-3.76v0a3.73,3.73,0,0,1-3.71,3.75h-2a3.91,3.91,0,0,1-4-3.81v0a3.91,3.91,0,0,1-4,3.81H132.5a3.91,3.91,0,0,1-4-3.81V17.76L132,5.54a4,4,0,0,1,3.6-2.16h48.78A4,4,0,0,1,188,5.54l3.51,12.21v6.31a3.91,3.91,0,0,1-4,3.81h-3.31a3.91,3.91,0,0,1-4-3.81Z"/><line class="cls-16" x1="133.35" y1="36.05" x2="186.65" y2="36.05"/><line class="cls-17" x1="128.5" y1="18.08" x2="191.5" y2="18.08"/></svg>
