<svg id="Livello_1" data-name="Livello 1" xmlns="http://www.w3.org/2000/svg" viewBox="0 0 192 64">
    <defs>
        <style>
            .cls-1 {
                fill: #0069b2;
            }
            .cls-2 {
                fill: #f48135;
            }
            .cls-3 {
                fill: #54595e;
            }
            .cls-4 {
                fill: #aab2bd;
            }
            .cls-5 {
                fill: #fff;
            }
        </style>
        <view id="color" viewBox="0 0 64 64"/>
        <view id="grey" viewBox="64 0 64 64"/>
        <view id="white" viewBox="128 0 64 64"/>
    </defs><path class="cls-1" d="M32,1A31,31,0,1,1,1,32,31,31,0,0,1,32,1m0-1A32,32,0,1,0,64,32,32,32,0,0,0,32,0Z"/><path class="cls-2" d="M22.69,18.2c1.55-4.26,4.61-7.08,9.5-7.08s9.5,3.23,9.5,9.39c0,7.66-9.79,10.2-9.79,17.34V40.6H28.8V36.46c0-5.93,9.1-9.56,9.1-16.7,0-3.57-2.53-5.53-5.76-5.53-3.8,0-5.64,3.05-6.57,5.41Zm5,35.07V48.09h5v5.18Z"/><path class="cls-3" d="M96,1A31,31,0,1,1,65,32,31,31,0,0,1,96,1m0-1a32,32,0,1,0,32,32A32,32,0,0,0,96,0Z"/><path class="cls-4" d="M86.69,18.2c1.55-4.26,4.61-7.08,9.5-7.08s9.5,3.23,9.5,9.39c0,7.66-9.79,10.2-9.79,17.34V40.6H92.8V36.46c0-5.93,9.1-9.56,9.1-16.7,0-3.57-2.53-5.53-5.76-5.53-3.8,0-5.64,3.05-6.57,5.41Zm5,35.07V48.09h5v5.18Z"/><path class="cls-5" d="M160,1a31,31,0,1,1-31,31A31,31,0,0,1,160,1m0-1a32,32,0,1,0,32,32A32,32,0,0,0,160,0Z"/><path class="cls-5" d="M150.69,18.2c1.55-4.26,4.61-7.08,9.5-7.08s9.5,3.23,9.5,9.39c0,7.66-9.79,10.2-9.79,17.34V40.6H156.8V36.46c0-5.93,9.1-9.56,9.1-16.7,0-3.57-2.53-5.53-5.76-5.53-3.8,0-5.64,3.05-6.57,5.41Zm5,35.07V48.09h5v5.18Z"/></svg>
