<svg id="Livello_1" data-name="Livello 1" xmlns="http://www.w3.org/2000/svg" viewBox="0 0 192 64">
    <defs>
        <style>
            .cls-1,
            .cls-3,
            .cls-4,
            .cls-6,
            .cls-7 {
                fill: none;
                stroke-miterlimit: 10;
            }
            .cls-1 {
                stroke: #0069b2;
            }
            .cls-2 {
                fill: #0069b2;
            }
            .cls-3 {
                stroke: #f48135;
            }
            .cls-4 {
                stroke: #54595e;
            }
            .cls-5 {
                fill: #54595e;
            }
            .cls-6 {
                stroke: #aab2bd;
            }
            .cls-7 {
                stroke: #fff;
            }
            .cls-8 {
                fill: #fff;
            }
        </style>
        <view id="color" viewBox="0 0 64 64"/>
        <view id="grey" viewBox="64 0 64 64"/>
        <view id="white" viewBox="128 0 64 64"/>
    </defs><path class="cls-1" d="M.5,53.5.56,21.44A3.17,3.17,0,0,1,3.93,18.5H60.38c1.74,0,3.14,1.88,3.12,3.62V53.5Z"/><path class="cls-2" d="M14,19l.05-6.8A2,2,0,0,1,16,10H48a2.28,2.28,0,0,1,2,2.45L49.95,19,47,19l0-4.61c0-.74-.29-1.35-1-1.35H18c-.74,0-1,.38-1,1.13L17,19Z"/><line class="cls-1" x1="1" y1="30.5" x2="11" y2="30.5"/><line class="cls-1" x1="18" y1="30.5" x2="28" y2="30.55"/><line class="cls-1" x1="36" y1="30.5" x2="48" y2="30.5"/><line class="cls-1" x1="55" y1="30.5" x2="64" y2="30.5"/><polygon class="cls-1" points="17.47 36.5 10.5 36.5 10.5 24.5 17.5 24.5 17.47 36.5"/><polygon class="cls-1" points="54.42 36.5 47.5 36.5 47.58 24.5 54.5 24.5 54.42 36.5"/><circle class="cls-3" cx="32" cy="30.5" r="4" transform="translate(1.25 62.26) rotate(-89.54)"/><line class="cls-1" x1="64" y1="48.5" y2="48.5"/><path class="cls-4" d="M64.5,53.5l.06-32.06a3.17,3.17,0,0,1,3.37-2.94h56.44c1.74,0,3.14,1.88,3.12,3.62V53.5Z"/><path class="cls-5" d="M78,19l.05-6.8A2,2,0,0,1,80,10h32a2.28,2.28,0,0,1,2,2.45L113.95,19,111,19l0-4.61c0-.74-.29-1.35-1-1.35H82c-.74,0-1,.38-1,1.13L81,19Z"/><line class="cls-4" x1="65" y1="30.5" x2="75" y2="30.5"/><line class="cls-4" x1="82" y1="30.5" x2="92" y2="30.55"/><line class="cls-4" x1="100" y1="30.5" x2="112" y2="30.5"/><line class="cls-4" x1="119" y1="30.5" x2="128" y2="30.5"/><polygon class="cls-4" points="81.47 36.5 74.5 36.5 74.5 24.5 81.5 24.5 81.47 36.5"/><polygon class="cls-4" points="118.42 36.5 111.5 36.5 111.58 24.5 118.5 24.5 118.42 36.5"/><circle class="cls-6" cx="96" cy="30.5" r="4" transform="translate(64.73 126.25) rotate(-89.54)"/><line class="cls-4" x1="128" y1="48.5" x2="64" y2="48.5"/><path class="cls-7" d="M128.5,53.5l.06-32.06a3.17,3.17,0,0,1,3.37-2.94h56.44c1.74,0,3.14,1.88,3.12,3.62V53.5Z"/><path class="cls-8" d="M142,19l.05-6.8A2,2,0,0,1,144,10h32a2.28,2.28,0,0,1,2,2.45L177.95,19,175,19l0-4.61c0-.74-.29-1.35-1-1.35H146c-.74,0-1,.38-1,1.13L145,19Z"/><line class="cls-7" x1="129" y1="30.5" x2="139" y2="30.5"/><line class="cls-7" x1="146" y1="30.5" x2="156" y2="30.55"/><line class="cls-7" x1="164" y1="30.5" x2="176" y2="30.5"/><line class="cls-7" x1="183" y1="30.5" x2="192" y2="30.5"/><polygon class="cls-7" points="145.47 36.5 138.5 36.5 138.5 24.5 145.5 24.5 145.47 36.5"/><polygon class="cls-7" points="182.42 36.5 175.5 36.5 175.58 24.5 182.5 24.5 182.42 36.5"/><circle class="cls-7" cx="160" cy="30.5" r="4" transform="translate(128.22 190.25) rotate(-89.54)"/><line class="cls-7" x1="192" y1="48.5" x2="128" y2="48.5"/></svg>
