<svg id="Livello_1" data-name="Livello 1" xmlns="http://www.w3.org/2000/svg" viewBox="0 0 192 64">
    <defs>
        <style>
            .cls-1,
            .cls-2,
            .cls-3,
            .cls-4,
            .cls-5,
            .cls-6,
            .cls-7,
            .cls-8,
            .cls-9 {
                fill: none;
            }
            .cls-1 {
                stroke: #0069b2;
            }
            .cls-1,
            .cls-2,
            .cls-4,
            .cls-5,
            .cls-7,
            .cls-8 {
                stroke-linecap: round;
                stroke-linejoin: round;
            }
            .cls-2,
            .cls-3 {
                stroke: #f48135;
            }
            .cls-2,
            .cls-5,
            .cls-8 {
                stroke-width: 0.75px;
            }
            .cls-3,
            .cls-6,
            .cls-9 {
                stroke-miterlimit: 10;
            }
            .cls-4 {
                stroke: #54595e;
            }
            .cls-5,
            .cls-6 {
                stroke: #aab2bd;
            }
            .cls-7,
            .cls-8,
            .cls-9 {
                stroke: #fff;
            }
        </style>
        <view id="color" viewBox="0 0 64 64"/>
        <view id="grey" viewBox="64 0 64 64"/>
        <view id="white" viewBox="128 0 64 64"/>
    </defs>
    <path class="cls-1" d="M45.5,12.5V3.3A2.8,2.8,0,0,0,42.7.5H9.3A2.8,2.8,0,0,0,6.5,3.3V60.7a2.8,2.8,0,0,0,2.8,2.8H42.7a2.8,2.8,0,0,0,2.8-2.8V44.5"/><polyline class="cls-1" points="41.5 11.5 41.5 4.5 10.5 4.5 10.5 53.5 41.5 53.5 41.5 44.5"/><circle class="cls-2" cx="26" cy="58.5" r="3"/>
    <path class="cls-3" d="M35.63,37.1A20.62,20.62,0,0,0,30.22,39a15.94,15.94,0,0,1-4.15-10.75h8.28A29.36,29.36,0,0,0,35.63,37.1Z"/>
    <path class="cls-3" d="M35.6,19.52a20.5,20.5,0,0,1-5.44-1.94,15.94,15.94,0,0,0-4.1,10.69h8.28A29.44,29.44,0,0,1,35.6,19.52Z"/>
    <path class="cls-3" d="M42.06,12.27a16,16,0,0,0-11.9,5.31,20.5,20.5,0,0,0,5.44,1.94C37,15.15,39.36,12.27,42.06,12.27Z"/>
    <path class="cls-3" d="M35.63,37.1A20.62,20.62,0,0,0,30.22,39a16,16,0,0,0,11.85,5.25C39.38,44.27,37,41.42,35.63,37.1Z"/>
    <path class="cls-3" d="M49.78,28.27A29.36,29.36,0,0,1,48.5,37.1,20.62,20.62,0,0,1,53.91,39a15.94,15.94,0,0,0,4.15-10.75Z"/>
    <path class="cls-3" d="M42.06,44.27A16,16,0,0,0,53.91,39,20.62,20.62,0,0,0,48.5,37.1C47.12,41.42,44.75,44.27,42.06,44.27Z"/>
    <path class="cls-3" d="M49.78,28.27h8.28A15.94,15.94,0,0,0,54,17.57a20.5,20.5,0,0,1-5.44,1.94A29.44,29.44,0,0,1,49.78,28.27Z"/>
    <path class="cls-3" d="M48.53,19.52A20.5,20.5,0,0,0,54,17.57a16,16,0,0,0-11.9-5.31C44.77,12.27,47.15,15.15,48.53,19.52Z"/>
    <path class="cls-3" d="M42.06,20.19a30.59,30.59,0,0,1-6.46-.67,29.44,29.44,0,0,0-1.26,8.75h7.72Z"/>
    <path class="cls-3" d="M42.06,36.44a30.61,30.61,0,0,1,6.44.66,29.36,29.36,0,0,0,1.28-8.84H42.06Z"/>
    <path class="cls-3" d="M34.34,28.27a29.36,29.36,0,0,0,1.28,8.84,30.61,30.61,0,0,1,6.44-.66V28.27Z"/>
    <path class="cls-3" d="M42.06,20.19v8.08h7.72a29.44,29.44,0,0,0-1.26-8.75A30.59,30.59,0,0,1,42.06,20.19Z"/>
    <path class="cls-3" d="M35.63,37.1c1.38,4.32,3.75,7.16,6.44,7.16V36.44A30.61,30.61,0,0,0,35.63,37.1Z"/>
    <path class="cls-3" d="M48.5,37.1a30.61,30.61,0,0,0-6.44-.66v7.83C44.75,44.27,47.12,41.42,48.5,37.1Z"/>
    <path class="cls-3" d="M48.53,19.52c-1.38-4.37-3.76-7.25-6.46-7.25v7.92A30.59,30.59,0,0,0,48.53,19.52Z"/>
    <path class="cls-3" d="M35.6,19.52a30.59,30.59,0,0,0,6.46.67V12.27C39.36,12.27,37,15.15,35.6,19.52Z"/>
    <path class="cls-4" d="M109.5,12.5V3.3A2.8,2.8,0,0,0,106.7.5H73.3a2.8,2.8,0,0,0-2.8,2.8V60.7a2.8,2.8,0,0,0,2.8,2.8h33.4a2.8,2.8,0,0,0,2.8-2.8V44.5"/><polyline class="cls-4" points="105.5 11.5 105.5 4.5 74.5 4.5 74.5 53.5 105.5 53.5 105.5 44.5"/><circle class="cls-5" cx="90" cy="58.5" r="3"/>
    <path class="cls-6" d="M99.63,37.1A20.62,20.62,0,0,0,94.22,39a15.94,15.94,0,0,1-4.15-10.75h8.28A29.36,29.36,0,0,0,99.63,37.1Z"/>
    <path class="cls-6" d="M99.6,19.52a20.5,20.5,0,0,1-5.44-1.94,15.94,15.94,0,0,0-4.1,10.69h8.28A29.44,29.44,0,0,1,99.6,19.52Z"/>
    <path class="cls-6" d="M106.06,12.27a16,16,0,0,0-11.9,5.31,20.5,20.5,0,0,0,5.44,1.94C101,15.15,103.36,12.27,106.06,12.27Z"/>
    <path class="cls-6" d="M99.63,37.1A20.62,20.62,0,0,0,94.22,39a16,16,0,0,0,11.85,5.25C103.38,44.27,101,41.42,99.63,37.1Z"/>
    <path class="cls-6" d="M113.78,28.27a29.36,29.36,0,0,1-1.28,8.84A20.62,20.62,0,0,1,117.91,39a15.94,15.94,0,0,0,4.15-10.75Z"/>
    <path class="cls-6" d="M106.06,44.27A16,16,0,0,0,117.91,39a20.62,20.62,0,0,0-5.41-1.92C111.12,41.42,108.75,44.27,106.06,44.27Z"/>
    <path class="cls-6" d="M113.78,28.27h8.28A15.94,15.94,0,0,0,118,17.57a20.5,20.5,0,0,1-5.44,1.94A29.44,29.44,0,0,1,113.78,28.27Z"/>
    <path class="cls-6" d="M112.53,19.52A20.5,20.5,0,0,0,118,17.57a16,16,0,0,0-11.9-5.31C108.77,12.27,111.15,15.15,112.53,19.52Z"/>
    <path class="cls-6" d="M106.06,20.19a30.59,30.59,0,0,1-6.46-.67,29.44,29.44,0,0,0-1.26,8.75h7.72Z"/>
    <path class="cls-6" d="M106.06,36.44a30.61,30.61,0,0,1,6.44.66,29.36,29.36,0,0,0,1.28-8.84h-7.72Z"/>
    <path class="cls-6" d="M98.34,28.27a29.36,29.36,0,0,0,1.28,8.84,30.61,30.61,0,0,1,6.44-.66V28.27Z"/>
    <path class="cls-6" d="M106.06,20.19v8.08h7.72a29.44,29.44,0,0,0-1.26-8.75A30.59,30.59,0,0,1,106.06,20.19Z"/>
    <path class="cls-6" d="M99.63,37.1c1.38,4.32,3.75,7.16,6.44,7.16V36.44A30.61,30.61,0,0,0,99.63,37.1Z"/>
    <path class="cls-6" d="M112.5,37.1a30.61,30.61,0,0,0-6.44-.66v7.83C108.75,44.27,111.12,41.42,112.5,37.1Z"/>
    <path class="cls-6" d="M112.53,19.52c-1.38-4.37-3.76-7.25-6.46-7.25v7.92A30.59,30.59,0,0,0,112.53,19.52Z"/>
    <path class="cls-6" d="M99.6,19.52a30.59,30.59,0,0,0,6.46.67V12.27C103.36,12.27,101,15.15,99.6,19.52Z"/>
    <path class="cls-7" d="M173.5,12.5V3.3A2.8,2.8,0,0,0,170.7.5H137.3a2.8,2.8,0,0,0-2.8,2.8V60.7a2.8,2.8,0,0,0,2.8,2.8h33.4a2.8,2.8,0,0,0,2.8-2.8V44.5"/><polyline class="cls-7" points="169.5 11.5 169.5 4.5 138.5 4.5 138.5 53.5 169.5 53.5 169.5 44.5"/><circle class="cls-8" cx="154" cy="58.5" r="3"/>
    <path class="cls-9" d="M163.63,37.1A20.62,20.62,0,0,0,158.22,39a15.94,15.94,0,0,1-4.15-10.75h8.28A29.36,29.36,0,0,0,163.63,37.1Z"/>
    <path class="cls-9" d="M163.6,19.52a20.5,20.5,0,0,1-5.44-1.94,15.94,15.94,0,0,0-4.1,10.69h8.28A29.44,29.44,0,0,1,163.6,19.52Z"/>
    <path class="cls-9" d="M170.06,12.27a16,16,0,0,0-11.9,5.31,20.5,20.5,0,0,0,5.44,1.94C165,15.15,167.36,12.27,170.06,12.27Z"/>
    <path class="cls-9" d="M163.63,37.1A20.62,20.62,0,0,0,158.22,39a16,16,0,0,0,11.85,5.25C167.38,44.27,165,41.42,163.63,37.1Z"/>
    <path class="cls-9" d="M177.78,28.27a29.36,29.36,0,0,1-1.28,8.84A20.62,20.62,0,0,1,181.91,39a15.94,15.94,0,0,0,4.15-10.75Z"/>
    <path class="cls-9" d="M170.06,44.27A16,16,0,0,0,181.91,39a20.62,20.62,0,0,0-5.41-1.92C175.12,41.42,172.75,44.27,170.06,44.27Z"/>
    <path class="cls-9" d="M177.78,28.27h8.28A15.94,15.94,0,0,0,182,17.57a20.5,20.5,0,0,1-5.44,1.94A29.44,29.44,0,0,1,177.78,28.27Z"/>
    <path class="cls-9" d="M176.53,19.52A20.5,20.5,0,0,0,182,17.57a16,16,0,0,0-11.9-5.31C172.77,12.27,175.15,15.15,176.53,19.52Z"/>
    <path class="cls-9" d="M170.06,20.19a30.59,30.59,0,0,1-6.46-.67,29.44,29.44,0,0,0-1.26,8.75h7.72Z"/>
    <path class="cls-9" d="M170.06,36.44a30.61,30.61,0,0,1,6.44.66,29.36,29.36,0,0,0,1.28-8.84h-7.72Z"/>
    <path class="cls-9" d="M162.34,28.27a29.36,29.36,0,0,0,1.28,8.84,30.61,30.61,0,0,1,6.44-.66V28.27Z"/>
    <path class="cls-9" d="M170.06,20.19v8.08h7.72a29.44,29.44,0,0,0-1.26-8.75A30.59,30.59,0,0,1,170.06,20.19Z"/>
    <path class="cls-9" d="M163.63,37.1c1.38,4.32,3.75,7.16,6.44,7.16V36.44A30.61,30.61,0,0,0,163.63,37.1Z"/>
    <path class="cls-9" d="M176.5,37.1a30.61,30.61,0,0,0-6.44-.66v7.83C172.75,44.27,175.12,41.42,176.5,37.1Z"/>
    <path class="cls-9" d="M176.53,19.52c-1.38-4.37-3.76-7.25-6.46-7.25v7.92A30.59,30.59,0,0,0,176.53,19.52Z"/>
    <path class="cls-9" d="M163.6,19.52a30.59,30.59,0,0,0,6.46.67V12.27C167.36,12.27,165,15.15,163.6,19.52Z"/></svg>
