<svg id="Livello_1" data-name="Livello 1" xmlns="http://www.w3.org/2000/svg" viewBox="0 0 192 64">
    <defs>
        <style>
            .cls-1,
            .cls-2,
            .cls-3 {
                fill: none;
                stroke-miterlimit: 10;
            }
            .cls-1 {
                stroke: #0069b2;
            }
            .cls-2 {
                stroke: #54595e;
            }
            .cls-3 {
                stroke: #fff;
            }
            .cls-4 {
                fill: #f48135;
            }
            .cls-5 {
                fill: #aab2bd;
            }
            .cls-6 {
                fill: #fff;
            }
        </style>
        <view id="color" viewBox="0 0 64 64"/>
        <view id="grey" viewBox="64 0 64 64"/>
        <view id="white" viewBox="128 0 64 64"/>
    </defs><path class="cls-1" d="M12.82.5a2.54,2.54,0,0,0-2.49,2.59V60.91a2.54,2.54,0,0,0,2.49,2.59H51.18a2.54,2.54,0,0,0,2.49-2.59V20.15a2.54,2.54,0,0,0-2.49-2.59H39.75A2.54,2.54,0,0,1,37.26,15l0-11.88A2.54,2.54,0,0,0,34.74.5Z"/><path class="cls-1" d="M36.58,1.34,53,18.39Z"/><path class="cls-2" d="M76.82.5a2.54,2.54,0,0,0-2.49,2.59V60.91a2.54,2.54,0,0,0,2.49,2.59h38.36a2.54,2.54,0,0,0,2.49-2.59V20.15a2.54,2.54,0,0,0-2.49-2.59H103.75A2.54,2.54,0,0,1,101.26,15l0-11.88A2.54,2.54,0,0,0,98.74.5Z"/><path class="cls-2" d="M100.58,1.34,117,18.39Z"/><path class="cls-3" d="M140.82.5a2.54,2.54,0,0,0-2.49,2.59V60.91a2.54,2.54,0,0,0,2.49,2.59h38.36a2.54,2.54,0,0,0,2.49-2.59V20.15a2.54,2.54,0,0,0-2.49-2.59H167.75A2.54,2.54,0,0,1,165.26,15l0-11.88A2.54,2.54,0,0,0,162.74.5Z"/><path class="cls-3" d="M164.58,1.34,181,18.39Z"/><path class="cls-4" d="M18.81,58.13H17.16L21,51.34l-3.64-6.21h1.66l2.79,4.77,2.74-4.77h1.66L22.7,51.34l4,6.79H25l-3.13-5.37Z"/><path class="cls-4" d="M28.86,58.13v-13H30.3V56.9h6.16v1.22Z"/><path
        class="cls-4"
        d="M45,48.44a3,3,0,0,0-3-2.27c-1.51,0-2.41.72-2.43,2,0,2.85,7.31,2.13,7.31,6.3,0,1.89-1.06,3.82-4.37,3.82-2.84,0-4-1.84-4.65-3.38l1.31-.47a3.55,3.55,0,0,0,3.4,2.63c1.91,0,2.86-1,2.86-2.34,0-3.31-7.31-2.34-7.31-6.45,0-1.87,1.57-3.35,3.91-3.35a4.27,4.27,0,0,1,4.29,3.21Z"/><path class="cls-5" d="M82.81,58.13H81.16L85,51.34l-3.64-6.21h1.66l2.79,4.77,2.74-4.77h1.66L86.7,51.34l4,6.79H89l-3.13-5.37Z"/><path class="cls-5" d="M92.86,58.13v-13H94.3V56.9h6.16v1.22Z"/><path
        class="cls-5"
        d="M109,48.44a3,3,0,0,0-3-2.27c-1.51,0-2.41.72-2.43,2,0,2.85,7.31,2.13,7.31,6.3,0,1.89-1.06,3.82-4.37,3.82-2.84,0-4-1.84-4.65-3.38l1.31-.47a3.55,3.55,0,0,0,3.4,2.63c1.91,0,2.86-1,2.86-2.34,0-3.31-7.31-2.34-7.31-6.45,0-1.87,1.57-3.35,3.91-3.35a4.27,4.27,0,0,1,4.29,3.21Z"/><path class="cls-6" d="M146.81,58.13h-1.66L149,51.34l-3.64-6.21h1.66l2.79,4.77,2.74-4.77h1.66l-3.55,6.21,4,6.79H153l-3.13-5.37Z"/><path class="cls-6" d="M156.86,58.13v-13h1.44V56.9h6.16v1.22Z"/><path
        class="cls-6"
        d="M173,48.44a3,3,0,0,0-3-2.27c-1.51,0-2.41.72-2.43,2,0,2.85,7.31,2.13,7.31,6.3,0,1.89-1.06,3.82-4.37,3.82-2.84,0-4-1.84-4.65-3.38l1.31-.47a3.55,3.55,0,0,0,3.4,2.63c1.91,0,2.86-1,2.86-2.34,0-3.31-7.31-2.34-7.31-6.45,0-1.87,1.57-3.35,3.91-3.35a4.27,4.27,0,0,1,4.29,3.21Z"/></svg>
