<svg id="Livello_1" data-name="Livello 1" xmlns="http://www.w3.org/2000/svg" viewBox="0 0 192 64">
    <defs>
        <style>
            .cls-1,
            .cls-2,
            .cls-3,
            .cls-4,
            .cls-5,
            .cls-6,
            .cls-7,
            .cls-8,
            .cls-9 {
                fill: none;
            }
            .cls-1,
            .cls-2 {
                stroke: #aab2bd;
            }
            .cls-1,
            .cls-2,
            .cls-4,
            .cls-5,
            .cls-7,
            .cls-8 {
                stroke-linecap: round;
            }
            .cls-1,
            .cls-4,
            .cls-7 {
                stroke-linejoin: round;
            }
            .cls-2,
            .cls-3,
            .cls-5,
            .cls-6,
            .cls-8,
            .cls-9 {
                stroke-miterlimit: 10;
            }
            .cls-3 {
                stroke: #54595e;
            }
            .cls-4,
            .cls-5 {
                stroke: #f48135;
            }
            .cls-6 {
                stroke: #0069b2;
            }
            .cls-7,
            .cls-8,
            .cls-9 {
                stroke: #fff;
            }
        </style>
        <view id="color" viewBox="0 0 64 64"/>
        <view id="grey" viewBox="64 0 64 64"/>
        <view id="white" viewBox="128 0 64 64"/>
    </defs><path class="cls-1" d="M67.5,18.34A18,18,0,0,0,85.35,36.5l26.39.19"/><polyline class="cls-2" points="95.62 46.74 112.73 36.47 95.62 26.2"/><path class="cls-3" d="M90.5,41l-.19,12.7a2.8,2.8,0,0,0,2.8,2.8H121.7a2.8,2.8,0,0,0,2.8-2.8V10.3a2.8,2.8,0,0,0-2.8-2.8H93.3a2.8,2.8,0,0,0-2.8,2.8V31"/><path class="cls-4" d="M3.5,18.34A18,18,0,0,0,21.35,36.5l26.39.19"/><polyline class="cls-5" points="31.62 46.74 48.73 36.47 31.62 26.2"/><path class="cls-6" d="M26.5,41l-.19,12.7a2.8,2.8,0,0,0,2.8,2.8H57.7a2.8,2.8,0,0,0,2.8-2.8V10.3a2.8,2.8,0,0,0-2.8-2.8H29.3a2.8,2.8,0,0,0-2.8,2.8V31"/><path class="cls-7" d="M131.5,18.34A18,18,0,0,0,149.35,36.5l26.39.19"/><polyline class="cls-8" points="159.62 46.74 176.74 36.47 159.62 26.2"/><path class="cls-9" d="M154.5,41l-.19,12.7a2.8,2.8,0,0,0,2.8,2.8H185.7a2.8,2.8,0,0,0,2.8-2.8V10.3a2.8,2.8,0,0,0-2.8-2.8H157.3a2.8,2.8,0,0,0-2.8,2.8V31"/></svg>
