<svg id="Livello_1" data-name="Livello 1" xmlns="http://www.w3.org/2000/svg" viewBox="0 0 192 64">
    <defs>
        <style>
            .cls-1,
            .cls-2,
            .cls-4,
            .cls-5,
            .cls-6 {
                fill: none;
                stroke-linecap: round;
                stroke-linejoin: round;
            }
            .cls-1 {
                stroke: #0069b2;
            }
            .cls-2 {
                stroke: #f48135;
            }
            .cls-3 {
                fill: #0069b2;
            }
            .cls-4 {
                stroke: #54595e;
            }
            .cls-5 {
                stroke: #aab2bd;
            }
            .cls-6 {
                stroke: #fff;
            }
            .cls-7 {
                fill: #54595e;
            }
            .cls-8 {
                fill: #fff;
            }
        </style>
        <view id="color" viewBox="0 0 64 64"/>
        <view id="grey" viewBox="64 0 64 64"/>
        <view id="white" viewBox="128 0 64 64"/>
    </defs><path class="cls-1" d="M45.5,15.5V4.6A4.1,4.1,0,0,0,41.4.5H8.6A4.1,4.1,0,0,0,4.5,4.6V59.4a4.1,4.1,0,0,0,4.1,4.1H41.4a4.1,4.1,0,0,0,4.1-4.1V37.5"/><polyline class="cls-1" points="39.5 15.5 39.5 6.5 10.5 6.5 10.5 51.5 39.5 51.5 39.5 37.5"/><ellipse class="cls-2" cx="24.62" cy="57.64" rx="2.95" ry="2.93"/><path class="cls-2" d="M18.49,15.5H47.3a3.22,3.22,0,0,1,3.2,3.24V34.26a3.22,3.22,0,0,1-3.2,3.24H30.1l-5.6,7.62V37.5h-6a3.12,3.12,0,0,1-3-3.24V18.74A3.12,3.12,0,0,1,18.49,15.5Z"/><path class="cls-3" d="M21.08,23.19h0l-1.36.73-.2-.8,1.7-.91h.9V30h-1Z"/><path class="cls-3" d="M23.94,30v-.65l.83-.8c2-1.89,2.89-2.9,2.9-4.08a1.39,1.39,0,0,0-1.55-1.52,2.65,2.65,0,0,0-1.66.66l-.34-.74a3.42,3.42,0,0,1,2.21-.79,2.19,2.19,0,0,1,2.39,2.27c0,1.44-1,2.6-2.69,4.19l-.62.58v0h3.5V30Z"/><path
        class="cls-3"
        d="M30.35,28.79a3.53,3.53,0,0,0,1.73.49c1.36,0,1.78-.86,1.76-1.51,0-1.09-1-1.56-2-1.56h-.59v-.79h.59c.77,0,1.74-.4,1.74-1.32,0-.62-.4-1.18-1.37-1.18a2.87,2.87,0,0,0-1.56.52l-.28-.77a3.7,3.7,0,0,1,2-.6c1.54,0,2.23.91,2.23,1.86a1.94,1.94,0,0,1-1.44,1.83v0a2,2,0,0,1,1.74,2c0,1.25-1,2.34-2.84,2.34a4,4,0,0,1-2-.53Z"/><path class="cls-3" d="M39.52,30V27.88H35.9v-.7l3.48-5h1.14V27H41.6v.83H40.51V30Zm0-3v-2.6q0-.61,0-1.22h0c-.24.46-.43.79-.65,1.15L37,27v0Z"/><path
        class="cls-3"
        d="M47.06,23.09h-3l-.3,2a4.11,4.11,0,0,1,.64,0,3.29,3.29,0,0,1,1.68.42,2.22,2.22,0,0,1,1.12,2,2.7,2.7,0,0,1-2.9,2.66,3.82,3.82,0,0,1-1.94-.48l.26-.8a3.49,3.49,0,0,0,1.67.43,1.72,1.72,0,0,0,1.85-1.69c0-1-.68-1.73-2.24-1.73a8,8,0,0,0-1.08.08l.5-3.74h3.73Z"/><path class="cls-4" d="M114,15.5V4.6A4.1,4.1,0,0,0,109.9.5H77.1A4.1,4.1,0,0,0,73,4.6V59.4a4.1,4.1,0,0,0,4.1,4.1h32.8a4.1,4.1,0,0,0,4.1-4.1V37.5"/><polyline class="cls-4" points="108 15.5 108 6.5 79 6.5 79 51.5 108 51.5 108 37.5"/><ellipse class="cls-5" cx="93.12" cy="57.64" rx="2.95" ry="2.93"/><path class="cls-5" d="M87,15.5H115.8a3.22,3.22,0,0,1,3.2,3.24V34.26a3.22,3.22,0,0,1-3.2,3.24H98.6L93,45.12V37.5H87a3.12,3.12,0,0,1-3-3.24V18.74A3.12,3.12,0,0,1,87,15.5Z"/><path class="cls-6" d="M178,15.5V4.6A4.1,4.1,0,0,0,173.9.5H141.1A4.1,4.1,0,0,0,137,4.6V59.4a4.1,4.1,0,0,0,4.1,4.1h32.8a4.1,4.1,0,0,0,4.1-4.1V37.5"/><polyline class="cls-6" points="172 15.5 172 6.5 143 6.5 143 51.5 172 51.5 172 37.5"/><ellipse class="cls-6" cx="157.12" cy="57.64" rx="2.95" ry="2.93"/><path class="cls-6" d="M151,15.5H179.8a3.22,3.22,0,0,1,3.2,3.24V34.26a3.22,3.22,0,0,1-3.2,3.24H162.6L157,45.12V37.5h-6a3.12,3.12,0,0,1-3-3.24V18.74A3.12,3.12,0,0,1,151,15.5Z"/><path class="cls-7" d="M88.78,23.19h0l-1.36.73-.2-.8,1.7-.91h.9V30h-1Z"/><path class="cls-7" d="M91.64,30v-.65l.83-.8c2-1.89,2.89-2.9,2.9-4.08a1.39,1.39,0,0,0-1.55-1.52,2.65,2.65,0,0,0-1.66.66l-.34-.74A3.42,3.42,0,0,1,94,22.07a2.19,2.19,0,0,1,2.39,2.27c0,1.44-1,2.6-2.69,4.19l-.62.58v0h3.5V30Z"/><path
        class="cls-7"
        d="M98.05,28.79a3.53,3.53,0,0,0,1.73.49c1.36,0,1.78-.86,1.76-1.51,0-1.09-1-1.56-2-1.56h-.59v-.79h.59c.77,0,1.74-.4,1.74-1.32,0-.62-.4-1.18-1.37-1.18a2.87,2.87,0,0,0-1.56.52l-.28-.77a3.7,3.7,0,0,1,2-.6c1.54,0,2.23.91,2.23,1.86a1.94,1.94,0,0,1-1.44,1.83v0a2,2,0,0,1,1.74,2c0,1.25-1,2.34-2.84,2.34a4,4,0,0,1-2-.53Z"/><path class="cls-7" d="M107.22,30V27.88H103.6v-.7l3.48-5h1.14V27h1.09v.83h-1.09V30Zm0-3v-2.6q0-.61,0-1.22h0c-.24.46-.43.79-.65,1.15L104.66,27v0Z"/><path
        class="cls-7"
        d="M114.76,23.09h-3l-.3,2a4.11,4.11,0,0,1,.64,0,3.29,3.29,0,0,1,1.68.42,2.22,2.22,0,0,1,1.12,2,2.7,2.7,0,0,1-2.9,2.66,3.82,3.82,0,0,1-1.94-.48l.26-.8a3.49,3.49,0,0,0,1.67.43,1.72,1.72,0,0,0,1.85-1.69c0-1-.68-1.73-2.24-1.73a8,8,0,0,0-1.08.08l.5-3.74h3.73Z"/><path class="cls-8" d="M153.58,23.19h0l-1.36.73-.2-.8,1.7-.91h.9V30h-1Z"/><path class="cls-8" d="M156.44,30v-.65l.83-.8c2-1.89,2.89-2.9,2.9-4.08a1.39,1.39,0,0,0-1.55-1.52,2.65,2.65,0,0,0-1.66.66l-.34-.74a3.42,3.42,0,0,1,2.21-.79,2.19,2.19,0,0,1,2.39,2.27c0,1.44-1,2.6-2.69,4.19l-.62.58v0h3.5V30Z"/><path
        class="cls-8"
        d="M162.85,28.79a3.53,3.53,0,0,0,1.73.49c1.36,0,1.78-.86,1.76-1.51,0-1.09-1-1.56-2-1.56h-.59v-.79h.59c.77,0,1.74-.4,1.74-1.32,0-.62-.4-1.18-1.37-1.18a2.87,2.87,0,0,0-1.56.52l-.28-.77a3.7,3.7,0,0,1,2-.6c1.54,0,2.23.91,2.23,1.86a1.94,1.94,0,0,1-1.44,1.83v0a2,2,0,0,1,1.74,2c0,1.25-1,2.34-2.84,2.34a4,4,0,0,1-2-.53Z"/><path class="cls-8" d="M172,30V27.88H168.4v-.7l3.48-5H173V27h1.09v.83H173V30Zm0-3v-2.6q0-.61,0-1.22h0c-.24.46-.43.79-.65,1.15L169.46,27v0Z"/><path
        class="cls-8"
        d="M179.56,23.09h-3l-.3,2a4.11,4.11,0,0,1,.64,0,3.29,3.29,0,0,1,1.68.42,2.22,2.22,0,0,1,1.12,2,2.7,2.7,0,0,1-2.9,2.66,3.82,3.82,0,0,1-1.94-.48l.26-.8a3.49,3.49,0,0,0,1.67.43,1.72,1.72,0,0,0,1.85-1.69c0-1-.68-1.73-2.24-1.73a8,8,0,0,0-1.08.08l.5-3.74h3.73Z"/></svg>
