<svg id="Livello_1" data-name="Livello 1" xmlns="http://www.w3.org/2000/svg" viewBox="0 0 192 64">
    <defs>
        <style>
            .cls-1,
            .cls-10,
            .cls-2,
            .cls-3,
            .cls-4,
            .cls-5,
            .cls-6,
            .cls-7,
            .cls-8,
            .cls-9 {
                fill: none;
            }
            .cls-1,
            .cls-4 {
                stroke: #f48135;
            }
            .cls-1,
            .cls-2,
            .cls-5,
            .cls-6,
            .cls-9 {
                stroke-linecap: round;
                stroke-linejoin: round;
            }
            .cls-2,
            .cls-3 {
                stroke: #0069b2;
            }
            .cls-10,
            .cls-3,
            .cls-4,
            .cls-7,
            .cls-8 {
                stroke-miterlimit: 10;
            }
            .cls-5,
            .cls-8 {
                stroke: #aab2bd;
            }
            .cls-6,
            .cls-7 {
                stroke: #54595e;
            }
            .cls-10,
            .cls-9 {
                stroke: #fff;
            }
        </style>
        <view id="color" viewBox="0 0 64 64"/>
        <view id="grey" viewBox="64 0 64 64"/>
        <view id="white" viewBox="128 0 64 64"/>
    </defs><circle class="cls-1" cx="46.15" cy="24.72" r="2.97" transform="translate(-0.65 1.26) rotate(-1.55)"/><circle class="cls-1" cx="54.01" cy="34.65" r="2.97" transform="translate(-0.92 1.48) rotate(-1.55)"/><path class="cls-1" d="M43.5,36.63,56.65,22.75,43.5,36.63"/><rect class="cls-2" x="29" y="19" width="42" height="27" rx="2.8" ry="2.8" transform="translate(82.5 -17.5) rotate(90)"/><rect class="cls-2" x="39.5" y="14.5" width="21" height="32"/><ellipse class="cls-1" cx="50.55" cy="50.21" rx="1.85" ry="1.79"/><path class="cls-3" d="M25.37,23.24A78,78,0,0,1,36.7,24.52"/><path class="cls-3" d="M25.65,16.92c3.47.08,7.62.39,11.05.79"/><path class="cls-3" d="M25.65,16.92A110.12,110.12,0,0,0,7.08,18.68,8,8,0,0,0,.56,26.49h0a1.29,1.29,0,0,0,1.3,1.27H7.69A1.36,1.36,0,0,0,9,27a3.37,3.37,0,0,1,2.3-2,69.22,69.22,0,0,1,14.12-1.8"/><ellipse class="cls-3" cx="24.84" cy="38.15" rx="9.03" ry="8.91"/><ellipse class="cls-4" cx="24.84" cy="38.15" rx="4.84" ry="4.78"/><path class="cls-3" d="M36.7,49.59H8a3.42,3.42,0,0,1-3.4-4l6.27-16.51a3.44,3.44,0,0,1,3.4-2.81H36.7"/><circle class="cls-1" cx="46.15" cy="24.72" r="2.97" transform="translate(-0.65 1.26) rotate(-1.55)"/><circle class="cls-1" cx="54.01" cy="34.65" r="2.97" transform="translate(-0.92 1.48) rotate(-1.55)"/><path class="cls-1" d="M43.5,36.63,56.65,22.75,43.5,36.63"/><rect class="cls-2" x="29" y="19" width="42" height="27" rx="2.8" ry="2.8" transform="translate(82.5 -17.5) rotate(90)"/><rect class="cls-2" x="39.5" y="14.5" width="21" height="32"/><ellipse class="cls-1" cx="50.55" cy="50.21" rx="1.85" ry="1.79"/><path class="cls-3" d="M25.37,23.24A78,78,0,0,1,36.7,24.52"/><path class="cls-3" d="M25.65,16.92c3.47.08,7.62.39,11.05.79"/><path class="cls-3" d="M25.65,16.92A110.12,110.12,0,0,0,7.08,18.68,8,8,0,0,0,.56,26.49h0a1.29,1.29,0,0,0,1.3,1.27H7.69A1.36,1.36,0,0,0,9,27a3.37,3.37,0,0,1,2.3-2,69.22,69.22,0,0,1,14.12-1.8"/><ellipse class="cls-3" cx="24.84" cy="38.15" rx="9.03" ry="8.91"/><ellipse class="cls-4" cx="24.84" cy="38.15" rx="4.84" ry="4.78"/><path class="cls-3" d="M36.7,49.59H8a3.42,3.42,0,0,1-3.4-4l6.27-16.51a3.44,3.44,0,0,1,3.4-2.81H36.7"/><circle class="cls-5" cx="110.12" cy="24.72" r="2.97" transform="translate(-0.63 3) rotate(-1.55)"/><circle class="cls-5" cx="117.98" cy="34.65" r="2.97" transform="translate(-0.9 3.21) rotate(-1.55)"/><path class="cls-5" d="M107.47,36.63l13.15-13.88L107.47,36.63"/><rect class="cls-6" x="92.97" y="19" width="42" height="27" rx="2.8" ry="2.8" transform="translate(146.47 -81.47) rotate(90)"/><rect class="cls-6" x="103.47" y="14.5" width="21" height="32"/><ellipse class="cls-5" cx="114.52" cy="50.21" rx="1.85" ry="1.79"/><path class="cls-7" d="M89.34,23.24a78,78,0,0,1,11.33,1.28"/><path class="cls-7" d="M89.62,16.92c3.47.08,7.62.39,11.05.79"/><path class="cls-7" d="M89.62,16.92a110.12,110.12,0,0,0-18.56,1.77,8,8,0,0,0-6.52,7.81h0a1.29,1.29,0,0,0,1.3,1.27h5.83A1.36,1.36,0,0,0,72.92,27a3.37,3.37,0,0,1,2.3-2,69.22,69.22,0,0,1,14.12-1.8"/><ellipse class="cls-7" cx="88.81" cy="38.15" rx="9.03" ry="8.91"/><ellipse class="cls-8" cx="88.81" cy="38.15" rx="4.84" ry="4.78"/><path class="cls-7" d="M100.67,49.59H72a3.42,3.42,0,0,1-3.4-4l6.27-16.51a3.44,3.44,0,0,1,3.4-2.81h22.45"/><circle class="cls-9" cx="174.12" cy="24.72" r="2.97" transform="translate(-0.61 4.73) rotate(-1.55)"/><circle class="cls-9" cx="181.98" cy="34.65" r="2.97" transform="translate(-0.87 4.95) rotate(-1.55)"/><path class="cls-9" d="M171.47,36.63l13.15-13.88L171.47,36.63"/><rect class="cls-9" x="156.97" y="19" width="42" height="27" rx="2.8" ry="2.8" transform="translate(210.47 -145.47) rotate(90)"/><rect class="cls-9" x="167.47" y="14.5" width="21" height="32"/><ellipse class="cls-9" cx="178.52" cy="50.21" rx="1.85" ry="1.79"/><path class="cls-10" d="M153.34,23.24a78,78,0,0,1,11.33,1.28"/><path class="cls-10" d="M153.62,16.92c3.47.08,7.62.39,11.05.79"/><path class="cls-10" d="M153.62,16.92a110.12,110.12,0,0,0-18.56,1.77,8,8,0,0,0-6.52,7.81h0a1.29,1.29,0,0,0,1.3,1.27h5.83a1.36,1.36,0,0,0,1.26-.77,3.37,3.37,0,0,1,2.3-2,69.22,69.22,0,0,1,14.12-1.8"/><ellipse class="cls-10" cx="152.81" cy="38.15" rx="9.03" ry="8.91"/><ellipse class="cls-10" cx="152.81" cy="38.15" rx="4.84" ry="4.78"/><path class="cls-10" d="M164.67,49.59H136a3.42,3.42,0,0,1-3.4-4l6.27-16.51a3.44,3.44,0,0,1,3.4-2.81h22.45"/></svg>
