<svg id="Livello_1" data-name="Livello 1" xmlns="http://www.w3.org/2000/svg" viewBox="0 0 192 64">
    <defs>
        <style>
            .cls-1,
            .cls-2,
            .cls-3,
            .cls-4,
            .cls-5,
            .cls-6 {
                fill: none;
            }
            .cls-1 {
                stroke: #f48135;
            }
            .cls-1,
            .cls-3,
            .cls-5 {
                stroke-miterlimit: 10;
                stroke-width: 1.5px;
            }
            .cls-2 {
                stroke: #0069b2;
            }
            .cls-2,
            .cls-4,
            .cls-6 {
                stroke-linecap: round;
                stroke-linejoin: round;
            }
            .cls-3 {
                stroke: #aab2bd;
            }
            .cls-4 {
                stroke: #54595e;
            }
            .cls-5,
            .cls-6 {
                stroke: #fff;
            }
        </style>
        <view id="color" viewBox="0 0 64 64"/>
        <view id="grey" viewBox="64 0 64 64"/>
        <view id="white" viewBox="128 0 64 64"/>
    </defs><path class="cls-1" d="M14.55,29.77V18.87C14,8.86,22.17.75,32.29.75a18.2,18.2,0,0,1,18.32,18"/><path class="cls-2" d="M58.17,33.74V60.32a2.94,2.94,0,0,1-2.62,3.18H8.45a2.94,2.94,0,0,1-2.62-3.18V33.74a2.94,2.94,0,0,1,2.62-3.18h47.1A2.94,2.94,0,0,1,58.17,33.74Z"/><path class="cls-2" d="M35.27,44.79a4.39,4.39,0,0,0,1.61-3.44,4.54,4.54,0,0,0-2-3.75,4.64,4.64,0,0,0-6.91,2,4.51,4.51,0,0,0,1.29,5.16.46.46,0,0,0-.11.28l-1.32,9.28a.56.56,0,0,0,.6.52H36.1a.56.56,0,0,0,.6-.52l-1.32-9.28A.46.46,0,0,0,35.27,44.79Z"/><path class="cls-3" d="M78.55,29.77V18.87C78,8.86,86.17.75,96.29.75a18.2,18.2,0,0,1,18.32,18"/><path class="cls-4" d="M122.17,33.74V60.32a2.94,2.94,0,0,1-2.62,3.18H72.45a2.94,2.94,0,0,1-2.62-3.18V33.74a2.94,2.94,0,0,1,2.62-3.18h47.1A2.94,2.94,0,0,1,122.17,33.74Z"/><path class="cls-4" d="M99.27,44.79a4.39,4.39,0,0,0,1.61-3.44,4.54,4.54,0,0,0-2-3.75,4.64,4.64,0,0,0-6.91,2,4.51,4.51,0,0,0,1.29,5.16.46.46,0,0,0-.11.28l-1.32,9.28a.56.56,0,0,0,.6.52h7.63a.56.56,0,0,0,.6-.52l-1.32-9.28A.46.46,0,0,0,99.27,44.79Z"/><path class="cls-5" d="M142.55,29.77V18.87C142,8.86,150.17.75,160.29.75a18.2,18.2,0,0,1,18.32,18"/><path class="cls-6" d="M186.17,33.74V60.32a2.94,2.94,0,0,1-2.62,3.18h-47.1a2.94,2.94,0,0,1-2.62-3.18V33.74a2.94,2.94,0,0,1,2.62-3.18h47.1A2.94,2.94,0,0,1,186.17,33.74Z"/><path class="cls-6" d="M163.27,44.79a4.39,4.39,0,0,0,1.61-3.44,4.54,4.54,0,0,0-2-3.75,4.64,4.64,0,0,0-6.91,2,4.51,4.51,0,0,0,1.29,5.16.46.46,0,0,0-.11.28l-1.32,9.28a.56.56,0,0,0,.6.52h7.63a.56.56,0,0,0,.6-.52l-1.32-9.28A.46.46,0,0,0,163.27,44.79Z"/></svg>
