<svg id="Livello_1" data-name="Livello 1" xmlns="http://www.w3.org/2000/svg" viewBox="0 0 192 64">
    <defs>
        <style>
            .cls-1,
            .cls-2,
            .cls-3,
            .cls-4,
            .cls-5,
            .cls-6,
            .cls-7,
            .cls-8,
            .cls-9 {
                fill: none;
            }
            .cls-1 {
                stroke: #0069b2;
            }
            .cls-1,
            .cls-3,
            .cls-4,
            .cls-6,
            .cls-7,
            .cls-9 {
                stroke-miterlimit: 10;
            }
            .cls-2,
            .cls-3 {
                stroke: #f48135;
            }
            .cls-2,
            .cls-3,
            .cls-5,
            .cls-6,
            .cls-8,
            .cls-9 {
                stroke-linecap: round;
            }
            .cls-2,
            .cls-5,
            .cls-8 {
                stroke-linejoin: round;
            }
            .cls-4 {
                stroke: #54595e;
            }
            .cls-5,
            .cls-6 {
                stroke: #aab2bd;
            }
            .cls-7,
            .cls-8,
            .cls-9 {
                stroke: #fff;
            }
        </style>
        <view id="color" viewBox="0 0 64 64"/>
        <view id="grey" viewBox="64 0 64 64"/>
        <view id="white" viewBox="128 0 64 64"/>
    </defs>
    <path class="cls-1" d="M42.87,13V4.47a4,4,0,0,0-4-4"/>
    <path class="cls-1" d="M42.87,3.9v9.49a4,4,0,0,0,4,4h9.51"/>
    <path class="cls-1" d="M13.43,28.17V3.7A3.21,3.21,0,0,1,16.64.5H38.88"/>
    <path class="cls-1" d="M59.28,21V60.3a3.21,3.21,0,0,1-3.21,3.2H16.64a3.21,3.21,0,0,1-3.21-3.2v-18"/>
    <path class="cls-1" d="M59.28,23.93V20.57a3.21,3.21,0,0,0-3.21-3.2H53.23"/>
    <line class="cls-2" x1="4.72" y1="34.51" x2="41.67" y2="34.73"/>
    <polyline class="cls-3" points="22.67 46.47 42.29 34.73 22.67 22.99"/>
    <path class="cls-1" d="M58.33,18.29s3,3.16-6.68-6.6L41.93,1.92"/>
    <path class="cls-4" d="M106.87,13V4.47a4,4,0,0,0-4-4"/>
    <path class="cls-4" d="M106.87,3.9v9.49a4,4,0,0,0,4,4h9.51"/>
    <path class="cls-4" d="M77.43,28.17V3.7A3.21,3.21,0,0,1,80.64.5h22.24"/>
    <path class="cls-4" d="M123.28,21V60.3a3.21,3.21,0,0,1-3.21,3.2H80.64a3.21,3.21,0,0,1-3.21-3.2v-18"/>
    <path class="cls-4" d="M123.28,23.93V20.57a3.21,3.21,0,0,0-3.21-3.2h-2.84"/>
    <line class="cls-5" x1="68.72" y1="34.51" x2="105.67" y2="34.73"/>
    <polyline class="cls-6" points="86.67 46.47 106.29 34.73 86.67 22.99"/>
    <path class="cls-4" d="M122.33,18.29s3,3.16-6.68-6.6l-9.71-9.77"/>
    <path class="cls-7" d="M170.87,13V4.47a4,4,0,0,0-4-4"/>
    <path class="cls-7" d="M170.87,3.9v9.49a4,4,0,0,0,4,4h9.51"/>
    <path class="cls-7" d="M141.43,28.17V3.7A3.21,3.21,0,0,1,144.64.5h22.24"/>
    <path class="cls-7" d="M187.28,21V60.3a3.21,3.21,0,0,1-3.21,3.2H144.64a3.21,3.21,0,0,1-3.21-3.2v-18"/>
    <path class="cls-7" d="M187.28,23.93V20.57a3.21,3.21,0,0,0-3.21-3.2h-2.84"/>
    <line class="cls-8" x1="132.72" y1="34.51" x2="169.67" y2="34.73"/>
    <polyline class="cls-9" points="150.67 46.47 170.29 34.73 150.67 22.99"/>
    <path class="cls-7" d="M186.33,18.29s3,3.16-6.68-6.6l-9.71-9.77"/>
  </svg>
