<svg id="Livello_1" data-name="Livello 1" xmlns="http://www.w3.org/2000/svg" viewBox="0 0 192 64">
    <defs>
        <style>
            .cls-1 {
                fill: #f48135;
            }
            .cls-2,
            .cls-3,
            .cls-5,
            .cls-6,
            .cls-8 {
                fill: none;
                stroke-linecap: round;
                stroke-linejoin: round;
            }
            .cls-2 {
                stroke: #f48135;
            }
            .cls-3 {
                stroke: #0069b2;
            }
            .cls-4 {
                fill: #aab2bd;
            }
            .cls-5 {
                stroke: #aab2bd;
            }
            .cls-6 {
                stroke: #54595e;
            }
            .cls-7 {
                fill: #fff;
            }
            .cls-8 {
                stroke: #fff;
            }
        </style>
        <view id="color" viewBox="0 0 64 64"/>
        <view id="grey" viewBox="64 0 64 64"/>
        <view id="white" viewBox="128 0 64 64"/>
    </defs><path class="cls-1" d="M33.16,21.6a2.5,2.5,0,1,1-2.46,2.49A2.48,2.48,0,0,1,33.16,21.6Z"/><path class="cls-1" d="M41,21.6a2.5,2.5,0,1,1-2.46,2.49A2.48,2.48,0,0,1,41,21.6Z"/><path class="cls-1" d="M48.82,21.6a2.5,2.5,0,1,1-2.46,2.49A2.48,2.48,0,0,1,48.82,21.6Z"/><path class="cls-2" d="M42.76,43.84a4.2,4.2,0,0,1-2.63.91H20L12.5,54.25V44.75h-8a4,4,0,0,1-4-4.06V22.81a4,4,0,0,1,4-4.06h10"/><path class="cls-3" d="M59.52,9.75h-37a4.1,4.1,0,0,0-4.07,4.13V33.63a4.1,4.1,0,0,0,4.07,4.13H44l7.47,9.69V37.75h8a4.06,4.06,0,0,0,4-4.13V13.88A4.06,4.06,0,0,0,59.52,9.75Z"/><path class="cls-4" d="M97.16,21.6a2.5,2.5,0,1,1-2.46,2.49A2.48,2.48,0,0,1,97.16,21.6Z"/><path class="cls-4" d="M105,21.6a2.5,2.5,0,1,1-2.46,2.49A2.48,2.48,0,0,1,105,21.6Z"/><path class="cls-4" d="M112.82,21.6a2.5,2.5,0,1,1-2.46,2.49A2.48,2.48,0,0,1,112.82,21.6Z"/><path class="cls-5" d="M106.76,43.84a4.2,4.2,0,0,1-2.63.91H84L76.5,54.25V44.75h-8a4,4,0,0,1-4-4.06V22.81a4,4,0,0,1,4-4.06h10"/><path class="cls-6" d="M123.52,9.75h-37a4.1,4.1,0,0,0-4.07,4.13V33.63a4.1,4.1,0,0,0,4.07,4.13H108l7.47,9.69V37.75h8a4.06,4.06,0,0,0,4-4.13V13.88A4.06,4.06,0,0,0,123.52,9.75Z"/><path class="cls-7" d="M161.16,21.6a2.5,2.5,0,1,1-2.46,2.49A2.48,2.48,0,0,1,161.16,21.6Z"/><path class="cls-7" d="M169,21.6a2.5,2.5,0,1,1-2.46,2.49A2.48,2.48,0,0,1,169,21.6Z"/><path class="cls-7" d="M176.82,21.6a2.5,2.5,0,1,1-2.46,2.49A2.48,2.48,0,0,1,176.82,21.6Z"/><path class="cls-8" d="M170.76,43.84a4.2,4.2,0,0,1-2.63.91H148l-7.47,9.49V44.75h-8a4,4,0,0,1-4-4.06V22.81a4,4,0,0,1,4-4.06h10"/><path class="cls-8" d="M187.52,9.75h-37a4.1,4.1,0,0,0-4.07,4.13V33.63a4.1,4.1,0,0,0,4.07,4.13H172l7.47,9.69V37.75h8a4.06,4.06,0,0,0,4-4.13V13.88A4.06,4.06,0,0,0,187.52,9.75Z"/></svg>
