<svg id="Livello_1" data-name="Livello 1" xmlns="http://www.w3.org/2000/svg" viewBox="0 0 192 64">
    <defs>
        <style>
            .cls-1,
            .cls-2,
            .cls-3,
            .cls-4,
            .cls-5,
            .cls-6 {
                fill: none;
            }
            .cls-1 {
                stroke: #0069b2;
            }
            .cls-1,
            .cls-3,
            .cls-5 {
                stroke-miterlimit: 10;
            }
            .cls-2 {
                stroke: #f48135;
            }
            .cls-2,
            .cls-4,
            .cls-6 {
                stroke-linejoin: round;
            }
            .cls-3 {
                stroke: #54595e;
            }
            .cls-4 {
                stroke: #aab2bd;
            }
            .cls-5,
            .cls-6 {
                stroke: #fff;
            }
        </style>
        <view id="color" viewBox="0 0 64 64"/>
        <view id="grey" viewBox="64 0 64 64"/>
        <view id="white" viewBox="128 0 64 64"/>
    </defs><path class="cls-1" d="M4.5,15V59.22A4.28,4.28,0,0,0,8.78,63.5H55.22a4.28,4.28,0,0,0,4.28-4.28V15"/><path
        class="cls-1"
        d="M55.1,10.5H53.5v1.33a1.65,1.65,0,0,1-1.62,1.67H48.12a1.65,1.65,0,0,1-1.62-1.67V10.5h-29v1.33a1.65,1.65,0,0,1-1.62,1.67H12.12a1.65,1.65,0,0,1-1.62-1.67V10.5H8.9a4.3,4.3,0,0,0-4.4,4.2v.6a4.3,4.3,0,0,0,4.4,4.2H55.1a4.3,4.3,0,0,0,4.4-4.2v-.6A4.3,4.3,0,0,0,55.1,10.5Z"/><path class="cls-1" d="M53.5,11V2.11A1.62,1.62,0,0,0,51.88.5H48.12A1.62,1.62,0,0,0,46.5,2.11V10.5h-29V2.11A1.62,1.62,0,0,0,15.88.5H12.12A1.62,1.62,0,0,0,10.5,2.11V11"/><line class="cls-2" x1="11" y1="34.5" x2="19" y2="34.5"/><line class="cls-2" x1="11" y1="41.5" x2="19" y2="41.5"/><line class="cls-2" x1="11" y1="48.5" x2="19" y2="48.5"/><line class="cls-2" x1="11" y1="55.5" x2="19" y2="55.5"/><line class="cls-2" x1="22" y1="34.5" x2="30" y2="34.5"/><line class="cls-2" x1="22" y1="41.5" x2="30" y2="41.5"/><line class="cls-2" x1="22" y1="48.5" x2="30" y2="48.5"/><line class="cls-2" x1="22" y1="55.5" x2="30" y2="55.5"/><line class="cls-2" x1="33" y1="34.5" x2="41" y2="34.5"/><line class="cls-2" x1="33" y1="41.5" x2="41" y2="41.5"/><line class="cls-2" x1="33" y1="48.5" x2="41" y2="48.5"/><line class="cls-2" x1="33" y1="55.5" x2="41" y2="55.5"/><line class="cls-2" x1="44" y1="34.5" x2="52" y2="34.5"/><line class="cls-2" x1="22" y1="27.5" x2="30" y2="27.5"/><line class="cls-2" x1="33" y1="27.5" x2="41" y2="27.5"/><line class="cls-2" x1="44" y1="27.5" x2="52" y2="27.5"/><line class="cls-2" x1="44" y1="41.5" x2="52" y2="41.5"/><line class="cls-2" x1="44" y1="48.5" x2="52" y2="48.5"/><line class="cls-2" x1="44" y1="55.5" x2="52" y2="55.5"/><path class="cls-3" d="M68.5,15V59.22a4.28,4.28,0,0,0,4.28,4.28h46.44a4.28,4.28,0,0,0,4.28-4.28V15"/><path
        class="cls-3"
        d="M119.1,10.5h-1.6v1.33a1.65,1.65,0,0,1-1.62,1.67h-3.75a1.65,1.65,0,0,1-1.62-1.67V10.5h-29v1.33a1.65,1.65,0,0,1-1.62,1.67H76.12a1.65,1.65,0,0,1-1.62-1.67V10.5H72.9a4.3,4.3,0,0,0-4.4,4.2v.6a4.3,4.3,0,0,0,4.4,4.2h46.2a4.3,4.3,0,0,0,4.4-4.2v-.6A4.3,4.3,0,0,0,119.1,10.5Z"/><path class="cls-3" d="M117.5,11V2.11A1.62,1.62,0,0,0,115.88.5h-3.75a1.62,1.62,0,0,0-1.62,1.61V10.5h-29V2.11A1.62,1.62,0,0,0,79.88.5H76.12A1.62,1.62,0,0,0,74.5,2.11V11"/><line class="cls-4" x1="75" y1="34.5" x2="83" y2="34.5"/><line class="cls-4" x1="75" y1="41.5" x2="83" y2="41.5"/><line class="cls-4" x1="75" y1="48.5" x2="83" y2="48.5"/><line class="cls-4" x1="75" y1="55.5" x2="83" y2="55.5"/><line class="cls-4" x1="86" y1="34.5" x2="94" y2="34.5"/><line class="cls-4" x1="86" y1="41.5" x2="94" y2="41.5"/><line class="cls-4" x1="86" y1="48.5" x2="94" y2="48.5"/><line class="cls-4" x1="86" y1="55.5" x2="94" y2="55.5"/><line class="cls-4" x1="97" y1="34.5" x2="105" y2="34.5"/><line class="cls-4" x1="97" y1="41.5" x2="105" y2="41.5"/><line class="cls-4" x1="97" y1="48.5" x2="105" y2="48.5"/><line class="cls-4" x1="97" y1="55.5" x2="105" y2="55.5"/><line class="cls-4" x1="108" y1="34.5" x2="116" y2="34.5"/><line class="cls-4" x1="86" y1="27.5" x2="94" y2="27.5"/><line class="cls-4" x1="97" y1="27.5" x2="105" y2="27.5"/><line class="cls-4" x1="108" y1="27.5" x2="116" y2="27.5"/><line class="cls-4" x1="108" y1="41.5" x2="116" y2="41.5"/><line class="cls-4" x1="108" y1="48.5" x2="116" y2="48.5"/><line class="cls-4" x1="108" y1="55.5" x2="116" y2="55.5"/><path class="cls-5" d="M132.5,15V59.22a4.28,4.28,0,0,0,4.28,4.28h46.44a4.28,4.28,0,0,0,4.28-4.28V15"/><path
        class="cls-5"
        d="M183.1,10.5h-1.6v1.33a1.65,1.65,0,0,1-1.62,1.67h-3.75a1.65,1.65,0,0,1-1.62-1.67V10.5h-29v1.33a1.65,1.65,0,0,1-1.62,1.67h-3.75a1.65,1.65,0,0,1-1.62-1.67V10.5h-1.6a4.3,4.3,0,0,0-4.4,4.2v.6a4.3,4.3,0,0,0,4.4,4.2h46.2a4.3,4.3,0,0,0,4.4-4.2v-.6A4.3,4.3,0,0,0,183.1,10.5Z"/><path class="cls-5" d="M181.5,11V2.11A1.62,1.62,0,0,0,179.88.5h-3.75a1.62,1.62,0,0,0-1.62,1.61V10.5h-29V2.11A1.62,1.62,0,0,0,143.88.5h-3.75a1.62,1.62,0,0,0-1.62,1.61V11"/><line class="cls-6" x1="139" y1="34.5" x2="147" y2="34.5"/><line class="cls-6" x1="139" y1="41.5" x2="147" y2="41.5"/><line class="cls-6" x1="139" y1="48.5" x2="147" y2="48.5"/><line class="cls-6" x1="139" y1="55.5" x2="147" y2="55.5"/><line class="cls-6" x1="150" y1="34.5" x2="158" y2="34.5"/><line class="cls-6" x1="150" y1="41.5" x2="158" y2="41.5"/><line class="cls-6" x1="150" y1="48.5" x2="158" y2="48.5"/><line class="cls-6" x1="150" y1="55.5" x2="158" y2="55.5"/><line class="cls-6" x1="161" y1="34.5" x2="169" y2="34.5"/><line class="cls-6" x1="161" y1="41.5" x2="169" y2="41.5"/><line class="cls-6" x1="161" y1="48.5" x2="169" y2="48.5"/><line class="cls-6" x1="161" y1="55.5" x2="169" y2="55.5"/><line class="cls-6" x1="172" y1="34.5" x2="180" y2="34.5"/><line class="cls-6" x1="150" y1="27.5" x2="158" y2="27.5"/><line class="cls-6" x1="161" y1="27.5" x2="169" y2="27.5"/><line class="cls-6" x1="172" y1="27.5" x2="180" y2="27.5"/><line class="cls-6" x1="172" y1="41.5" x2="180" y2="41.5"/><line class="cls-6" x1="172" y1="48.5" x2="180" y2="48.5"/><line class="cls-6" x1="172" y1="55.5" x2="180" y2="55.5"/></svg>
