<svg id="Livello_1" data-name="Livello 1" xmlns="http://www.w3.org/2000/svg" viewBox="0 0 192 64">
    <defs>
        <style>
            .cls-1 {
                fill: #0069b2;
            }
            .cls-2 {
                fill: #f48135;
            }
            .cls-3 {
                fill: #54595e;
            }
            .cls-4 {
                fill: #aab2bd;
            }
            .cls-5 {
                fill: #fff;
            }
        </style>
        <view id="color" viewBox="0 0 64 64"/>
        <view id="grey" viewBox="64 0 64 64"/>
        <view id="white" viewBox="128 0 64 64"/>
    </defs><path
        class="cls-1"
        d="M47.52,1A4.41,4.41,0,0,1,52,5.34V58.66A4.41,4.41,0,0,1,47.52,63h-31A4.41,4.41,0,0,1,12,58.66V5.34A4.41,4.41,0,0,1,16.48,1H48m-.48-1h-31A5.42,5.42,0,0,0,11,5.34V58.66A5.42,5.42,0,0,0,16.48,64h31A5.42,5.42,0,0,0,53,58.66V5.34A5.42,5.42,0,0,0,47.52,0Z"/><path
        class="cls-1"
        d="M40.77,24.57c0-3.19-3.28-5.65-6.38-6.52,1.29-1.79,3.24-4.46,3.35-6.65a5.66,5.66,0,0,0-11.32,0c.12,2.19,1.89,4.86,3.18,6.65-3.09.88-6.26,3.11-6.28,6.3V25.8H40.77ZM32.13,7.46a4.15,4.15,0,0,1,3.72,3.68c0,2.14-2.39,6.39-3.79,6.39s-3.72-4.12-3.72-6.26A4.35,4.35,0,0,1,32.13,7.46ZM24.83,24.25A6.23,6.23,0,0,1,31.2,19.6H32.8c4.78,0,6.38,3.1,6.38,4.65Z"/><path
        class="cls-1"
        d="M28.33,58.59a.5.5,0,0,1-.48-.64,10.42,10.42,0,0,0,0-5.63,18.19,18.19,0,0,0-2.79,2c-.42.35-.85.7-1.28,1-2.07,1.58-3.93,2.23-5.69,2a.5.5,0,0,1-.41-.33c-.45-1.26.15-2.73,1.65-4a13.64,13.64,0,0,1,5.92-3,.5.5,0,1,1,.22,1A12.64,12.64,0,0,0,20,53.77c-.4.35-1.6,1.5-1.44,2.65a7.32,7.32,0,0,0,4.62-1.83c.42-.32.84-.67,1.25-1A16.38,16.38,0,0,1,28,51.16a.5.5,0,0,1,.68.29,11.44,11.44,0,0,1,.37,6,8.64,8.64,0,0,0,3-2c1.36-1.18,2.77-2.41,4.65-2.29a6.73,6.73,0,0,1,2.21.65,9,9,0,0,0,1.32.48c1.82.45,3.75-.34,5.73-1.27a.5.5,0,1,1,.42.91C44.2,55,42.1,55.82,40,55.29a9.84,9.84,0,0,1-1.47-.53,5.9,5.9,0,0,0-1.88-.57c-1.46-.1-2.66.95-3.93,2s-2.59,2.24-4.3,2.35Z"/><rect class="cls-2" x="18" y="31" width="27" height="1"/><rect class="cls-2" x="18" y="37" width="27" height="1"/><rect class="cls-2" x="18" y="43" width="27" height="1"/><path
        class="cls-3"
        d="M111.52,1A4.41,4.41,0,0,1,116,5.34V58.66A4.41,4.41,0,0,1,111.52,63h-31A4.41,4.41,0,0,1,76,58.66V5.34A4.41,4.41,0,0,1,80.48,1H112m-.48-1h-31A5.42,5.42,0,0,0,75,5.34V58.66A5.42,5.42,0,0,0,80.48,64h31A5.42,5.42,0,0,0,117,58.66V5.34A5.42,5.42,0,0,0,111.52,0Z"/><path
        class="cls-3"
        d="M104.77,24.57c0-3.19-3.28-5.65-6.38-6.52,1.29-1.79,3.24-4.46,3.35-6.65a5.66,5.66,0,0,0-11.32,0c.12,2.19,1.89,4.86,3.18,6.65-3.09.88-6.26,3.11-6.28,6.3V25.8h17.43ZM96.13,7.46a4.15,4.15,0,0,1,3.72,3.68c0,2.14-2.39,6.39-3.79,6.39s-3.72-4.12-3.72-6.26A4.35,4.35,0,0,1,96.13,7.46ZM88.83,24.25A6.23,6.23,0,0,1,95.2,19.6H96.8c4.78,0,6.38,3.1,6.38,4.65Z"/><path
        class="cls-3"
        d="M92.33,58.59a.5.5,0,0,1-.48-.64,10.42,10.42,0,0,0,0-5.63,18.19,18.19,0,0,0-2.79,2c-.42.35-.85.7-1.28,1-2.07,1.58-3.93,2.23-5.69,2a.5.5,0,0,1-.41-.33c-.45-1.26.15-2.73,1.65-4a13.64,13.64,0,0,1,5.92-3,.5.5,0,1,1,.22,1A12.64,12.64,0,0,0,84,53.77c-.4.35-1.6,1.5-1.44,2.65a7.33,7.33,0,0,0,4.62-1.83c.42-.32.84-.67,1.25-1A16.38,16.38,0,0,1,92,51.16a.5.5,0,0,1,.68.29,11.44,11.44,0,0,1,.37,6,8.64,8.64,0,0,0,3-2c1.36-1.18,2.78-2.41,4.65-2.29a6.73,6.73,0,0,1,2.21.65,9,9,0,0,0,1.32.48c1.82.45,3.75-.34,5.73-1.27a.5.5,0,1,1,.42.91c-2.15,1-4.25,1.86-6.39,1.33a9.84,9.84,0,0,1-1.47-.53,5.9,5.9,0,0,0-1.88-.57c-1.47-.1-2.66.95-3.93,2s-2.59,2.24-4.3,2.35Z"/><rect class="cls-4" x="82" y="31" width="27" height="1"/><rect class="cls-4" x="82" y="37" width="27" height="1"/><rect class="cls-4" x="82" y="43" width="27" height="1"/><path
        class="cls-5"
        d="M175.52,1A4.41,4.41,0,0,1,180,5.34V58.66A4.41,4.41,0,0,1,175.52,63h-31A4.41,4.41,0,0,1,140,58.66V5.34A4.41,4.41,0,0,1,144.48,1H176m-.48-1h-31A5.42,5.42,0,0,0,139,5.34V58.66A5.42,5.42,0,0,0,144.48,64h31A5.42,5.42,0,0,0,181,58.66V5.34A5.42,5.42,0,0,0,175.52,0Z"/><path
        class="cls-5"
        d="M168.77,24.57c0-3.19-3.28-5.65-6.38-6.52,1.29-1.79,3.24-4.46,3.35-6.65a5.66,5.66,0,0,0-11.32,0c.12,2.19,1.89,4.86,3.18,6.65-3.09.88-6.26,3.11-6.28,6.3V25.8h17.43ZM160.13,7.46a4.15,4.15,0,0,1,3.72,3.68c0,2.14-2.39,6.39-3.79,6.39s-3.72-4.12-3.72-6.26A4.35,4.35,0,0,1,160.13,7.46Zm-7.31,16.79a6.23,6.23,0,0,1,6.38-4.65h1.59c4.78,0,6.38,3.1,6.38,4.65Z"/><path
        class="cls-5"
        d="M156.33,58.59a.5.5,0,0,1-.48-.64,10.42,10.42,0,0,0,0-5.63,18.19,18.19,0,0,0-2.79,2c-.42.35-.85.7-1.28,1-2.07,1.58-3.93,2.23-5.69,2a.5.5,0,0,1-.41-.33c-.45-1.26.15-2.73,1.65-4a13.64,13.64,0,0,1,5.92-3,.5.5,0,1,1,.22,1A12.64,12.64,0,0,0,148,53.77c-.4.35-1.6,1.5-1.44,2.65a7.33,7.33,0,0,0,4.62-1.83c.42-.32.84-.67,1.25-1A16.38,16.38,0,0,1,156,51.16a.5.5,0,0,1,.68.29,11.44,11.44,0,0,1,.37,6,8.64,8.64,0,0,0,3-2c1.36-1.18,2.77-2.41,4.65-2.29a6.73,6.73,0,0,1,2.21.65,9,9,0,0,0,1.32.48c1.82.45,3.75-.34,5.73-1.27a.5.5,0,1,1,.42.91c-2.15,1-4.25,1.86-6.39,1.33a9.84,9.84,0,0,1-1.47-.53,5.9,5.9,0,0,0-1.88-.57c-1.46-.1-2.66.95-3.93,2s-2.59,2.24-4.3,2.35Z"/><rect class="cls-5" x="146" y="31" width="27" height="1"/><rect class="cls-5" x="146" y="37" width="27" height="1"/><rect class="cls-5" x="146" y="43" width="27" height="1"/></svg>
