<svg id="Livello_1" data-name="Livello 1" xmlns="http://www.w3.org/2000/svg" viewBox="0 0 192 64">
    <defs>
        <style>
            .cls-1,
            .cls-2,
            .cls-3,
            .cls-5,
            .cls-6,
            .cls-7,
            .cls-8,
            .cls-9 {
                fill: none;
                stroke-linejoin: round;
            }
            .cls-1,
            .cls-2 {
                stroke: #0069b2;
            }
            .cls-2,
            .cls-3,
            .cls-6,
            .cls-7,
            .cls-9 {
                stroke-linecap: round;
            }
            .cls-3 {
                stroke: #f48135;
            }
            .cls-4 {
                fill: #fff;
            }
            .cls-5,
            .cls-6 {
                stroke: #54595e;
            }
            .cls-7 {
                stroke: #aab2bd;
            }
            .cls-8,
            .cls-9 {
                stroke: #fff;
            }
        </style>
        <view id="color" viewBox="0 0 64 64"/>
        <view id="grey" viewBox="64 0 64 64"/>
        <view id="white" viewBox="128 0 64 64"/>
    </defs><path class="cls-1" d="M29,61.5H59.41a3.09,3.09,0,0,0,3.09-3.09V5.6a3.1,3.1,0,0,0-3.1-3.1H21.59A3.09,3.09,0,0,0,18.5,5.59V14"/><polyline class="cls-2" points="31.76 50.5 58.49 50.5 58.49 7.5 22.51 7.5 22.51 13.5"/><rect class="cls-1" x="-7.5" y="22.5" width="48" height="30" rx="2.82" ry="2.82" transform="translate(54 21) rotate(90)"/><rect class="cls-2" x="5.52" y="18.5" width="21.95" height="32"/><circle class="cls-3" cx="15.5" cy="55.5" r="2"/><circle class="cls-4" cx="15.5" cy="55.5" r="1.5"/><circle class="cls-3" cx="40.5" cy="55.5" r="2"/><circle class="cls-4" cx="40.5" cy="55.5" r="1.5"/><path class="cls-5" d="M93,61.5h30.41a3.09,3.09,0,0,0,3.09-3.09V5.6a3.1,3.1,0,0,0-3.1-3.1H85.59A3.09,3.09,0,0,0,82.5,5.59V14"/><polyline class="cls-6" points="95.76 50.5 122.49 50.5 122.49 7.5 86.51 7.5 86.51 13.5"/><rect class="cls-5" x="56.5" y="22.5" width="48" height="30" rx="2.82" ry="2.82" transform="translate(118 -43) rotate(90)"/><rect class="cls-6" x="69.52" y="18.5" width="21.95" height="32"/><circle class="cls-7" cx="79.5" cy="55.5" r="2"/><circle class="cls-4" cx="79.5" cy="55.5" r="1.5"/><circle class="cls-7" cx="104.5" cy="55.5" r="2"/><circle class="cls-4" cx="104.5" cy="55.5" r="1.5"/><path class="cls-8" d="M157,61.5h30.41a3.09,3.09,0,0,0,3.09-3.09V5.6a3.1,3.1,0,0,0-3.1-3.1h-37.8a3.09,3.09,0,0,0-3.09,3.09V14"/><polyline class="cls-9" points="159.76 50.5 186.49 50.5 186.49 7.5 150.51 7.5 150.51 13.5"/><rect class="cls-8" x="120.5" y="22.5" width="48" height="30" rx="2.82" ry="2.82" transform="translate(182 -107) rotate(90)"/><rect class="cls-9" x="133.52" y="18.5" width="21.95" height="32"/><circle class="cls-9" cx="143.5" cy="55.5" r="2"/><circle class="cls-9" cx="168.5" cy="55.5" r="2"/></svg>
