<svg id="Livello_1" data-name="Livello 1" xmlns="http://www.w3.org/2000/svg" viewBox="0 0 192 64">
    <defs>
        <style>
            .cls-1,
            .cls-11,
            .cls-3,
            .cls-5,
            .cls-7,
            .cls-9 {
                fill: none;
            }
            .cls-1,
            .cls-2 {
                stroke: #0069b2;
            }
            .cls-1,
            .cls-10,
            .cls-2,
            .cls-5,
            .cls-6,
            .cls-9 {
                stroke-miterlimit: 10;
            }
            .cls-2,
            .cls-4 {
                fill: #0069b2;
            }
            .cls-3 {
                stroke: #f48135;
            }
            .cls-11,
            .cls-3,
            .cls-7 {
                stroke-linecap: round;
                stroke-linejoin: round;
            }
            .cls-5,
            .cls-6 {
                stroke: #54595e;
            }
            .cls-6,
            .cls-8 {
                fill: #54595e;
            }
            .cls-7 {
                stroke: #aab2bd;
            }
            .cls-10,
            .cls-11,
            .cls-9 {
                stroke: #fff;
            }
            .cls-10,
            .cls-12 {
                fill: #fff;
            }
        </style>
        <view id="color" viewBox="0 0 64 64"/>
        <view id="grey" viewBox="64 0 64 64"/>
        <view id="white" viewBox="128 0 64 64"/>
    </defs><path class="cls-1" d="M48.59,20.41H40V18.29a2.66,2.66,0,0,0-2.67-2.65H26.63A2.66,2.66,0,0,0,24,18.29v2.13H15.38a2.66,2.66,0,0,0-2.67,2.65V41.63a2.66,2.66,0,0,0,2.67,2.65H48.59a2.66,2.66,0,0,0,2.67-2.65V23.06A2.66,2.66,0,0,0,48.59,20.41Z"/><ellipse class="cls-2" cx="31.99" cy="31.55" rx="1.61" ry="1.59"/><ellipse class="cls-3" cx="31.99" cy="31.55" rx="8.03" ry="7.96"/><path class="cls-1" d="M41.15,61.74a31.35,31.35,0,1,0-17.4.26"/><polygon class="cls-4" points="44.95 64.13 45.31 63.35 41.45 61.59 43.48 57.87 42.73 57.46 40.25 61.99 44.95 64.13"/><path class="cls-5" d="M112.59,20.41H104V18.29a2.66,2.66,0,0,0-2.67-2.65H90.63A2.66,2.66,0,0,0,88,18.29v2.13H79.38a2.66,2.66,0,0,0-2.67,2.65V41.63a2.66,2.66,0,0,0,2.67,2.65h33.21a2.66,2.66,0,0,0,2.67-2.65V23.06A2.66,2.66,0,0,0,112.59,20.41Z"/><ellipse class="cls-6" cx="95.99" cy="31.55" rx="1.61" ry="1.59"/><ellipse class="cls-7" cx="95.99" cy="31.55" rx="8.03" ry="7.96"/><path class="cls-5" d="M105.15,61.74a31.35,31.35,0,1,0-17.4.26"/><polygon class="cls-8" points="108.95 64.13 109.31 63.35 105.45 61.59 107.48 57.87 106.72 57.46 104.25 61.99 108.95 64.13"/><path class="cls-9" d="M176.59,20.41H168V18.29a2.66,2.66,0,0,0-2.67-2.65H154.63A2.66,2.66,0,0,0,152,18.29v2.13h-8.57a2.66,2.66,0,0,0-2.67,2.65V41.63a2.66,2.66,0,0,0,2.67,2.65h33.21a2.66,2.66,0,0,0,2.67-2.65V23.06A2.66,2.66,0,0,0,176.59,20.41Z"/><ellipse class="cls-10" cx="159.99" cy="31.55" rx="1.61" ry="1.59"/><ellipse class="cls-11" cx="159.99" cy="31.55" rx="8.03" ry="7.96"/><path class="cls-9" d="M169.15,61.74a31.35,31.35,0,1,0-17.4.26"/><polygon class="cls-12" points="172.95 64.13 173.31 63.35 169.45 61.59 171.48 57.87 170.72 57.46 168.25 61.99 172.95 64.13"/></svg>
