<svg id="Livello_1" data-name="Livello 1" xmlns="http://www.w3.org/2000/svg" viewBox="0 0 192 64">
    <defs>
        <style>
            .cls-1 {
                fill: #0069b2;
            }
            .cls-2 {
                fill: #f48135;
            }
            .cls-3 {
                fill: #aab2bd;
            }
            .cls-4 {
                fill: #54595e;
            }
            .cls-5 {
                fill: #fff;
            }
        </style>
        <view id="color" viewBox="0 0 64 64"/>
        <view id="grey" viewBox="64 0 64 64"/>
        <view id="white" viewBox="128 0 64 64"/>
    </defs>
    <path class="cls-1" d="M32,1A31,31,0,1,1,1,32,31,31,0,0,1,32,1m0-1A32,32,0,1,0,64,32,32,32,0,0,0,32,0Z"/>
    <path class="cls-2" d="M38.26,32.21,28,38.21v-12Zm9.55,5.57V26.61s0-5.38-5.38-5.38H22s-5.38,0-5.38,5.38V37.78s0,5.38,5.38,5.38H42.42s5.38,0,5.38-5.38"/>
    <path class="cls-3" d="M96,1A31,31,0,1,1,65,32,31,31,0,0,1,96,1m0-1a32,32,0,1,0,32,32A32,32,0,0,0,96,0Z"/>
    <path class="cls-4" d="M102.26,32.21,92,38.21v-12Zm9.55,5.57V26.61s0-5.38-5.38-5.38H86s-5.38,0-5.38,5.38V37.78s0,5.38,5.38,5.38h20.46s5.38,0,5.38-5.38"/>
    <path class="cls-5" d="M160,1a31,31,0,1,1-31,31A31,31,0,0,1,160,1m0-1a32,32,0,1,0,32,32A32,32,0,0,0,160,0Z"/>
    <path class="cls-5" d="M166.26,32.21l-10.22,6v-12Zm9.55,5.57V26.61s0-5.38-5.38-5.38H150s-5.38,0-5.38,5.38V37.78s0,5.38,5.38,5.38h20.46s5.38,0,5.38-5.38"/>
  </svg>
