<svg id="Livello_1" data-name="Livello 1" xmlns="http://www.w3.org/2000/svg" viewBox="0 0 192 64">
    <defs>
        <style>
            .cls-1,
            .cls-2,
            .cls-4,
            .cls-5,
            .cls-7 {
                fill: none;
                stroke-linecap: round;
                stroke-linejoin: round;
            }
            .cls-1 {
                stroke: #f48135;
            }
            .cls-2 {
                stroke: #0069b2;
            }
            .cls-3 {
                fill: #0069b2;
            }
            .cls-4 {
                stroke: #aab2bd;
            }
            .cls-5 {
                stroke: #54595e;
            }
            .cls-6 {
                fill: #54595e;
            }
            .cls-7 {
                stroke: #fff;
            }
            .cls-8 {
                fill: #fff;
            }
        </style>
        <view id="color" viewBox="0 0 64 64"/>
        <view id="grey" viewBox="64 0 64 64"/>
        <view id="white" viewBox="128 0 64 64"/>
    </defs><line class="cls-1" x1="18.7" y1="40.6" x2="5.39" y2="54.01"/><line class="cls-1" x1="26.09" y1="40.6" x2="6.42" y2="60.42"/><line class="cls-1" x1="4.32" y1="47.63" x2="11.3" y2="40.6"/><line class="cls-1" x1="33.48" y1="40.6" x2="11.31" y2="62.94"/><line class="cls-1" x1="40.88" y1="40.6" x2="18.71" y2="62.94"/><line class="cls-1" x1="48.27" y1="40.6" x2="26.1" y2="62.94"/><line class="cls-1" x1="33.49" y1="62.94" x2="55.66" y2="40.6"/><line class="cls-1" x1="40.89" y1="62.94" x2="60.42" y2="43.25"/><line class="cls-1" x1="58.92" y1="52.21" x2="48.28" y2="62.94"/><path class="cls-2" d="M6.55,60.19,1,27.81C1,26,2.24,24.5,3.71,24.5H60.29C61.76,24.5,63,26,63,27.81L57.45,60.19c0,1.83-1.19,3.31-2.66,3.31H9.21C7.74,63.5,6.55,62,6.55,60.19Z"/><path class="cls-2" d="M17.5,27.5v-12C17.5,8,24.11.88,31.71.6,40.48.27,47.5,6.91,47.5,15V27.5"/><path class="cls-3" d="M18.29,26.49a4.72,4.72,0,1,0,4.77,4.72A4.75,4.75,0,0,0,18.29,26.49Zm0,7.87a3.15,3.15,0,1,1,3.18-3.15A3.16,3.16,0,0,1,18.29,34.37Z"/><path class="cls-3" d="M46.9,26.49a4.72,4.72,0,1,0,4.77,4.72A4.75,4.75,0,0,0,46.9,26.49Zm0,7.87a3.15,3.15,0,1,1,3.18-3.15A3.16,3.16,0,0,1,46.9,34.37Z"/><line class="cls-4" x1="82.7" y1="40.6" x2="69.39" y2="54.01"/><line class="cls-4" x1="90.09" y1="40.6" x2="70.42" y2="60.42"/><line class="cls-4" x1="68.32" y1="47.63" x2="75.3" y2="40.6"/><line class="cls-4" x1="97.48" y1="40.6" x2="75.31" y2="62.94"/><line class="cls-4" x1="104.88" y1="40.6" x2="82.71" y2="62.94"/><line class="cls-4" x1="112.27" y1="40.6" x2="90.1" y2="62.94"/><line class="cls-4" x1="97.49" y1="62.94" x2="119.66" y2="40.6"/><line class="cls-4" x1="104.89" y1="62.94" x2="124.42" y2="43.25"/><line class="cls-4" x1="122.92" y1="52.21" x2="112.28" y2="62.94"/><path class="cls-5" d="M70.55,60.19,65,27.81c0-1.83,1.19-3.31,2.66-3.31h56.59c1.47,0,2.66,1.48,2.66,3.31l-5.51,32.39c0,1.83-1.19,3.31-2.66,3.31H73.21C71.74,63.5,70.55,62,70.55,60.19Z"/><path class="cls-5" d="M81.5,27.5v-12C81.5,8,88.11.88,95.71.6,104.48.27,111.5,6.91,111.5,15V27.5"/><path class="cls-6" d="M82.29,26.49a4.72,4.72,0,1,0,4.77,4.72A4.75,4.75,0,0,0,82.29,26.49Zm0,7.87a3.15,3.15,0,1,1,3.18-3.15A3.16,3.16,0,0,1,82.29,34.37Z"/><path class="cls-6" d="M110.9,26.49a4.72,4.72,0,1,0,4.77,4.72A4.75,4.75,0,0,0,110.9,26.49Zm0,7.87a3.15,3.15,0,1,1,3.18-3.15A3.16,3.16,0,0,1,110.9,34.37Z"/><line class="cls-7" x1="146.7" y1="40.6" x2="133.39" y2="54.01"/><line class="cls-7" x1="154.09" y1="40.6" x2="134.42" y2="60.42"/><line class="cls-7" x1="132.32" y1="47.63" x2="139.3" y2="40.6"/><line class="cls-7" x1="161.48" y1="40.6" x2="139.31" y2="62.94"/><line class="cls-7" x1="168.88" y1="40.6" x2="146.71" y2="62.94"/><line class="cls-7" x1="176.27" y1="40.6" x2="154.1" y2="62.94"/><line class="cls-7" x1="161.49" y1="62.94" x2="183.66" y2="40.6"/><line class="cls-7" x1="168.89" y1="62.94" x2="188.42" y2="43.25"/><line class="cls-7" x1="186.92" y1="52.21" x2="176.28" y2="62.94"/><path class="cls-7" d="M134.55,60.19,129,27.81c0-1.83,1.19-3.31,2.66-3.31h56.59c1.47,0,2.66,1.48,2.66,3.31l-5.51,32.39c0,1.83-1.19,3.31-2.66,3.31H137.21C135.74,63.5,134.55,62,134.55,60.19Z"/><path class="cls-7" d="M145.5,27.5v-12C145.5,8,152.11.88,159.71.6,168.48.27,175.5,6.91,175.5,15V27.5"/><path class="cls-8" d="M146.29,26.49a4.72,4.72,0,1,0,4.77,4.72A4.75,4.75,0,0,0,146.29,26.49Zm0,7.87a3.15,3.15,0,1,1,3.18-3.15A3.16,3.16,0,0,1,146.29,34.37Z"/><path class="cls-8" d="M174.9,26.49a4.72,4.72,0,1,0,4.77,4.72A4.75,4.75,0,0,0,174.9,26.49Zm0,7.87a3.15,3.15,0,1,1,3.18-3.15A3.16,3.16,0,0,1,174.9,34.37Z"/></svg>
