<svg id="Livello_1" data-name="Livello 1" xmlns="http://www.w3.org/2000/svg" viewBox="0 0 192 64">
    <defs>
        <style>
            .cls-1,
            .cls-10,
            .cls-2,
            .cls-3,
            .cls-5,
            .cls-6,
            .cls-7,
            .cls-9 {
                fill: none;
                stroke-linejoin: round;
            }
            .cls-1,
            .cls-2 {
                stroke: #0069b2;
            }
            .cls-10,
            .cls-2,
            .cls-3,
            .cls-6,
            .cls-7 {
                stroke-linecap: round;
            }
            .cls-3 {
                stroke: #f48135;
            }
            .cls-4 {
                fill: #0069b2;
            }
            .cls-5,
            .cls-6 {
                stroke: #54595e;
            }
            .cls-7 {
                stroke: #aab2bd;
            }
            .cls-8 {
                fill: #54595e;
            }
            .cls-10,
            .cls-9 {
                stroke: #fff;
            }
            .cls-11 {
                fill: #fff;
            }
        </style>
        <view id="color" viewBox="0 0 64 64"/>
        <view id="grey" viewBox="64 0 64 64"/>
        <view id="white" viewBox="128 0 64 64"/>
    </defs><path class="cls-1" d="M55.86,55.18V3.83A3.33,3.33,0,0,0,52.52.5h-41A3.33,3.33,0,0,0,8.14,3.83V60.17a3.33,3.33,0,0,0,3.34,3.33h41a3.33,3.33,0,0,0,3.34-3.33V3.83A3.33,3.33,0,0,0,52.52.5h-41A3.33,3.33,0,0,0,8.14,3.83V55.18"/><rect class="cls-2" x="12.91" y="5.25" width="38.18" height="46.36"/><ellipse class="cls-3" cx="32" cy="57.56" rx="2.39" ry="2.38"/><path class="cls-2" d="M21,41.06l-2.38-14a1.31,1.31,0,0,1,1.15-1.43H44.25a1.31,1.31,0,0,1,1.15,1.43L43,41.06a1.31,1.31,0,0,1-1.15,1.43H22.14A1.31,1.31,0,0,1,21,41.06Z"/><path class="cls-2" d="M25.78,27V22a6.65,6.65,0,0,1,6.13-6.42,6.39,6.39,0,0,1,6.81,6.18V27"/><path class="cls-4" d="M26.12,26.68a2,2,0,1,0,2,2A2,2,0,0,0,26.12,26.68Zm0,3.36a1.35,1.35,0,1,1,1.36-1.35A1.35,1.35,0,0,1,26.12,30Z"/><path class="cls-4" d="M38.39,26.68a2,2,0,1,0,2,2A2,2,0,0,0,38.39,26.68Zm0,3.36a1.35,1.35,0,1,1,1.36-1.35A1.35,1.35,0,0,1,38.39,30Z"/><path class="cls-5" d="M119.86,55.18V3.83A3.33,3.33,0,0,0,116.52.5h-41a3.33,3.33,0,0,0-3.34,3.33V60.17a3.33,3.33,0,0,0,3.34,3.33h41a3.33,3.33,0,0,0,3.34-3.33V3.83A3.33,3.33,0,0,0,116.52.5h-41a3.33,3.33,0,0,0-3.34,3.33V55.18"/><rect class="cls-6" x="76.91" y="5.25" width="38.18" height="46.36"/><ellipse class="cls-7" cx="96" cy="57.56" rx="2.39" ry="2.38"/><path class="cls-6" d="M85,41.06l-2.38-14a1.31,1.31,0,0,1,1.15-1.43h24.49a1.31,1.31,0,0,1,1.15,1.43l-2.38,14a1.31,1.31,0,0,1-1.15,1.43H86.14A1.31,1.31,0,0,1,85,41.06Z"/><path class="cls-6" d="M89.78,27V22a6.65,6.65,0,0,1,6.13-6.42,6.39,6.39,0,0,1,6.81,6.18V27"/><path class="cls-8" d="M90.12,26.68a2,2,0,1,0,2,2A2,2,0,0,0,90.12,26.68Zm0,3.36a1.35,1.35,0,1,1,1.36-1.35A1.35,1.35,0,0,1,90.12,30Z"/><path class="cls-8" d="M102.39,26.68a2,2,0,1,0,2,2A2,2,0,0,0,102.39,26.68Zm0,3.36a1.35,1.35,0,1,1,1.36-1.35A1.35,1.35,0,0,1,102.39,30Z"/><path class="cls-9" d="M183.86,55.18V3.83A3.33,3.33,0,0,0,180.52.5h-41a3.33,3.33,0,0,0-3.34,3.33V60.17a3.33,3.33,0,0,0,3.34,3.33h41a3.33,3.33,0,0,0,3.34-3.33V3.83A3.33,3.33,0,0,0,180.52.5h-41a3.33,3.33,0,0,0-3.34,3.33V55.18"/><rect class="cls-10" x="140.91" y="5.25" width="38.18" height="46.36"/><ellipse class="cls-10" cx="160" cy="57.56" rx="2.39" ry="2.38"/><path class="cls-10" d="M149,41.06l-2.38-14a1.31,1.31,0,0,1,1.15-1.43h24.49a1.31,1.31,0,0,1,1.15,1.43l-2.38,14a1.31,1.31,0,0,1-1.15,1.43H150.14A1.31,1.31,0,0,1,149,41.06Z"/><path class="cls-10" d="M153.78,27V22a6.65,6.65,0,0,1,6.13-6.42,6.39,6.39,0,0,1,6.81,6.18V27"/><path class="cls-11" d="M154.12,26.68a2,2,0,1,0,2,2A2,2,0,0,0,154.12,26.68Zm0,3.36a1.35,1.35,0,1,1,1.36-1.35A1.35,1.35,0,0,1,154.12,30Z"/><path class="cls-11" d="M166.39,26.68a2,2,0,1,0,2,2A2,2,0,0,0,166.39,26.68Zm0,3.36a1.35,1.35,0,1,1,1.36-1.35A1.35,1.35,0,0,1,166.39,30Z"/></svg>
