<svg id="Livello_1" data-name="Livello 1" xmlns="http://www.w3.org/2000/svg" viewBox="0 0 192 64">
    <defs>
        <style>
            .cls-1 {
                fill: #0369b2;
            }
            .cls-10,
            .cls-11,
            .cls-2,
            .cls-4,
            .cls-6,
            .cls-8 {
                fill: none;
            }
            .cls-2 {
                stroke: #0369b2;
            }
            .cls-10,
            .cls-2,
            .cls-6 {
                stroke-linecap: round;
                stroke-linejoin: round;
            }
            .cls-3 {
                fill: #ef8038;
            }
            .cls-4 {
                stroke: #0069b2;
            }
            .cls-11,
            .cls-4,
            .cls-8 {
                stroke-miterlimit: 10;
            }
            .cls-5 {
                fill: #54595e;
            }
            .cls-6,
            .cls-8 {
                stroke: #54595e;
            }
            .cls-7 {
                fill: #aab2bd;
            }
            .cls-9 {
                fill: #fff;
            }
            .cls-10,
            .cls-11 {
                stroke: #fff;
            }
        </style>
        <view id="color" viewBox="0 0 64 64"/>
        <view id="grey" viewBox="64 0 64 64"/>
        <view id="white" viewBox="128 0 64 64"/>
    </defs><path
        class="cls-1"
        d="M48.76,1a1.8,1.8,0,0,1,1.8,1.8V61.2a1.8,1.8,0,0,1-1.8,1.8H15.24a1.8,1.8,0,0,1-1.8-1.8V2.8A1.8,1.8,0,0,1,15.24,1H48.76m0-1H15.24a2.8,2.8,0,0,0-2.8,2.8V61.2a2.8,2.8,0,0,0,2.8,2.8H48.76a2.8,2.8,0,0,0,2.8-2.8V2.8A2.8,2.8,0,0,0,48.76,0Z"/><rect class="cls-2" x="17.78" y="5.33" width="28.44" height="45.04"/><path class="cls-3" d="M31.8,53a4,4,0,1,0,4,4A4,4,0,0,0,31.8,53Zm0,6.38A2.39,2.39,0,1,1,34.19,57,2.39,2.39,0,0,1,31.8,59.38Z"/><rect class="cls-4" x="21.33" y="8.89" width="8.3" height="8.3" rx="1.65" ry="1.65"/><rect class="cls-4" x="20.15" y="19.56" width="10.67" height="10.67" rx="1.65" ry="1.65"/><rect class="cls-4" x="33.19" y="19.56" width="10.67" height="10.67" rx="1.65" ry="1.65"/><rect class="cls-4" x="28.44" y="32.59" width="10.67" height="10.67" rx="1.65" ry="1.65"/><path
        class="cls-5"
        d="M112.76,1a1.8,1.8,0,0,1,1.8,1.8V61.2a1.8,1.8,0,0,1-1.8,1.8H79.24a1.8,1.8,0,0,1-1.8-1.8V2.8A1.8,1.8,0,0,1,79.24,1h33.51m0-1H79.24a2.8,2.8,0,0,0-2.8,2.8V61.2a2.8,2.8,0,0,0,2.8,2.8h33.51a2.8,2.8,0,0,0,2.8-2.8V2.8a2.8,2.8,0,0,0-2.8-2.8Z"/><rect class="cls-6" x="81.78" y="5.33" width="28.44" height="45.04"/><path class="cls-7" d="M95.8,53a4,4,0,1,0,4,4A4,4,0,0,0,95.8,53Zm0,6.38A2.39,2.39,0,1,1,98.19,57,2.39,2.39,0,0,1,95.8,59.38Z"/><rect class="cls-8" x="85.33" y="8.89" width="8.3" height="8.3" rx="1.65" ry="1.65"/><rect class="cls-8" x="84.15" y="19.56" width="10.67" height="10.67" rx="1.65" ry="1.65"/><rect class="cls-8" x="97.19" y="19.56" width="10.67" height="10.67" rx="1.65" ry="1.65"/><rect class="cls-8" x="92.44" y="32.59" width="10.67" height="10.67" rx="1.65" ry="1.65"/><path
        class="cls-9"
        d="M176.76,1a1.8,1.8,0,0,1,1.8,1.8V61.2a1.8,1.8,0,0,1-1.8,1.8H143.24a1.8,1.8,0,0,1-1.8-1.8V2.8a1.8,1.8,0,0,1,1.8-1.8h33.51m0-1H143.24a2.8,2.8,0,0,0-2.8,2.8V61.2a2.8,2.8,0,0,0,2.8,2.8h33.51a2.8,2.8,0,0,0,2.8-2.8V2.8a2.8,2.8,0,0,0-2.8-2.8Z"/><rect class="cls-10" x="145.78" y="5.33" width="28.44" height="45.04"/><path class="cls-9" d="M159.8,53a4,4,0,1,0,4,4A4,4,0,0,0,159.8,53Zm0,6.38A2.39,2.39,0,1,1,162.19,57,2.39,2.39,0,0,1,159.8,59.38Z"/><rect class="cls-11" x="149.33" y="8.89" width="8.3" height="8.3" rx="1.65" ry="1.65"/><rect class="cls-11" x="148.15" y="19.56" width="10.67" height="10.67" rx="1.65" ry="1.65"/><rect class="cls-11" x="161.19" y="19.56" width="10.67" height="10.67" rx="1.65" ry="1.65"/><rect class="cls-11" x="156.44" y="32.59" width="10.67" height="10.67" rx="1.65" ry="1.65"/></svg>
