<svg id="Livello_1" data-name="Livello 1" xmlns="http://www.w3.org/2000/svg" viewBox="0 0 64 64">
    <defs>
        <style>
            .cls-1 {
                fill: #f9f9f9;
            }
            .cls-2 {
                fill: #fff;
            }
            .cls-3 {
                fill: #0073a5;
            }
        </style>
        <view id="color" viewBox="0 0 64 64"/>
        <view id="grey" viewBox="64 0 64 64"/>
        <view id="white" viewBox="128 0 64 64"/>
    </defs><rect class="cls-1" y="12" width="64" height="40" rx="2.13" ry="2.13"/><path
        class="cls-2"
        d="M19.86,31.07v-.64l-.31.64H16.9l-.33-.69v.69h-5L11,29.68H10l-.62,1.39H6.85V26.89l1.88-4.26h3.6l.51,1.21v-1.2h4.41l1,2,.95-2H33.09A2.37,2.37,0,0,1,34.3,23v-.33H37.8v.46a2.85,2.85,0,0,1,1.56-.46h6.19l.54,1.22V22.63h4l.72,1.22V22.63h3.79v8.45H50.67l-.91-1.47v1.46H44.92l-.68-1.51h-.95l-.64,1.51H39.72a3.79,3.79,0,0,1-1.91-.6v.6H32v-2c0-.29-.22-.27-.22-.27h-.21v2.24Z"/><path
        class="cls-2"
        d="M16.95,32.9h7.66l1.1,1.25,1.13-1.25h5.89a2.71,2.71,0,0,1,1.08.29V32.9h5.25a2.68,2.68,0,0,1,1.23.33V32.9H47v.31a2.28,2.28,0,0,1,1.13-.31h4.39v.31a2.68,2.68,0,0,1,1.14-.31h3.45v8a1.9,1.9,0,0,1-1.39.51H51.2v-.25a2.33,2.33,0,0,1-1.09.25H38V39.32c0-.2-.09-.24-.27-.24h-.17v2.3H33.82V39.09a2.54,2.54,0,0,1-1.12.23H31.34v2.06H26.69l-1.06-1.29L24.5,41.37H16.95Z"/><polygon class="cls-3" points="41.1 34.17 45.9 34.17 45.9 35.46 42.57 35.46 42.57 36.58 45.81 36.58 45.81 37.72 42.57 37.72 42.57 38.9 45.9 38.9 45.9 40.16 41.1 40.16 41.1 34.17"/><path
        class="cls-3"
        d="M55.19,36.5c1.81.09,2,1,2,2a1.75,1.75,0,0,1-1.88,1.73H52.18V38.9h2.41c.41,0,1,0,1-.58,0-.27-.11-.45-.54-.49-.19,0-.91-.07-1-.07-1.63,0-2-.86-2-1.84a1.65,1.65,0,0,1,1.75-1.74h3.09v1.28H54.61c-.51,0-1.07-.06-1.07.52,0,.37.27.44.62.48Z"/><path
        class="cls-3"
        d="M49.66,36.5c1.81.09,2,1,2,2a1.75,1.75,0,0,1-1.89,1.73H46.64V38.9H49c.41,0,1,0,1-.58,0-.27-.11-.45-.54-.49-.19,0-.91-.07-1-.07-1.63,0-2-.86-2-1.84a1.65,1.65,0,0,1,1.75-1.74h3.09v1.28H49.07c-.52,0-1.07-.06-1.07.52,0,.37.27.44.62.48Z"/><path
        class="cls-3"
        d="M32.22,34.18H27.06L25.37,36l-1.63-1.87h-5.8v6h5.61l1.76-2,1.73,2h2.82v-2h2c.76,0,2.15,0,2.15-2.13A1.66,1.66,0,0,0,32.22,34.18ZM22.78,38.9H19.39V37.72h3.24V36.58H19.39V35.46H23L24.4,37.1Zm5.62.7-2.11-2.5,2.11-2.34Zm3.32-2.69H29.89V35.47h1.84a.72.72,0,1,1,0,1.44Z"/><path
        class="cls-3"
        d="M39.32,37.44a1.64,1.64,0,0,0,1-1.66,1.58,1.58,0,0,0-1.77-1.6H34.75v6h1.47V38.06h1.93c.51,0,.71.51.72,1l0,1.1h1.43l-.05-1.23C40.28,38,40,37.52,39.32,37.44Zm-1.27-.62H36.22V35.47h1.84a.71.71,0,0,1,.81.69C38.87,36.56,38.65,36.82,38.05,36.82Z"/><rect class="cls-3" x="35.34" y="23.83" width="1.47" height="6"/><polygon class="cls-3" points="23.3 23.84 28.11 23.84 28.11 25.12 24.77 25.12 24.77 26.25 28.01 26.25 28.01 27.38 24.77 27.38 24.77 28.57 28.11 28.57 28.11 29.82 23.3 29.82 23.3 23.84"/><path
        class="cls-3"
        d="M33.55,27.1a1.63,1.63,0,0,0,1-1.66,1.58,1.58,0,0,0-1.77-1.6H29v6h1.47V27.71h1.92c.51,0,.71.51.72,1l0,1.1h1.43l-.05-1.23C34.51,27.63,34.25,27.18,33.55,27.1Zm-1.27-.62H30.45V25.12h1.84a.71.71,0,0,1,.81.69C33.1,26.21,32.88,26.48,32.28,26.48Z"/><path class="cls-3" d="M19.91,23.83l-1.8,4-1.8-4H14V29.6l-2.57-5.77H9.48l-2.62,6H8.41L9,28.49h2.94l.58,1.34h3V25.38l2,4.45h1.34l2-4.37v4.37h1.47v-6ZM9.54,27.2l.88-2.09.91,2.09Z"/><path
        class="cls-3"
        d="M52,23.83V28l-2.48-4.15H47.33v5.63l-2.51-5.62H42.88l-2,4.64s-.86,0-.94,0c-.36-.07-.91-.32-.92-1.38v-.43c0-1.4.76-1.51,1.74-1.51h.91v-1.3H39.72c-.67,0-2.12.51-2.17,3,0,1.66.69,3,2.32,3h1.94l.57-1.34h2.94l.58,1.34h2.9V25.44l2.65,4.39h2v-6ZM43,27.2l.88-2.09.92,2.09Z"/></svg>
