<svg id="Livello_1" data-name="Livello 1" xmlns="http://www.w3.org/2000/svg" viewBox="0 0 192 64">
    <defs>
        <style>
            .cls-1,
            .cls-11,
            .cls-12,
            .cls-13,
            .cls-15,
            .cls-17,
            .cls-18,
            .cls-3,
            .cls-5,
            .cls-6,
            .cls-7,
            .cls-9 {
                fill: none;
            }
            .cls-1,
            .cls-4,
            .cls-5,
            .cls-6 {
                stroke: #0069b2;
            }
            .cls-1,
            .cls-10,
            .cls-11,
            .cls-13,
            .cls-16,
            .cls-17,
            .cls-4,
            .cls-5,
            .cls-7 {
                stroke-miterlimit: 10;
            }
            .cls-2 {
                fill: #f48135;
            }
            .cls-3 {
                stroke: #f48135;
            }
            .cls-12,
            .cls-15,
            .cls-18,
            .cls-3,
            .cls-6,
            .cls-9 {
                stroke-linejoin: round;
            }
            .cls-4 {
                fill: #0069b2;
            }
            .cls-10,
            .cls-16,
            .cls-4 {
                stroke-width: 2px;
            }
            .cls-11,
            .cls-12,
            .cls-17,
            .cls-18,
            .cls-5,
            .cls-6 {
                stroke-linecap: round;
            }
            .cls-10,
            .cls-11,
            .cls-12,
            .cls-7 {
                stroke: #54595e;
            }
            .cls-8 {
                fill: #aab2bd;
            }
            .cls-9 {
                stroke: #aab2bd;
            }
            .cls-10 {
                fill: #54595e;
            }
            .cls-13,
            .cls-15,
            .cls-16,
            .cls-17,
            .cls-18 {
                stroke: #fff;
            }
            .cls-14,
            .cls-16 {
                fill: #fff;
            }
        </style>
        <view id="color" viewBox="0 0 64 64"/>
        <view id="grey" viewBox="64 0 64 64"/>
        <view id="white" viewBox="128 0 64 64"/>
    </defs><path class="cls-1" d="M5,40.06H57.33a6.17,6.17,0,0,1,6.17,6.17V56.74A4.55,4.55,0,0,1,59,61.28H5A4.55,4.55,0,0,1,.5,56.74V44.61A4.55,4.55,0,0,1,5,40.06Z"/><ellipse class="cls-2" cx="49.77" cy="50.67" rx="3.23" ry="3.27"/><line class="cls-3" x1="9.38" y1="48.22" x2="35.23" y2="48.22"/><line class="cls-3" x1="9.38" y1="53.12" x2="35.23" y2="53.12"/><ellipse class="cls-4" cx="21.5" cy="13.94" rx="2.42" ry="2.45"/><line class="cls-1" x1="21.5" y1="21.29" x2="21.5" y2="40"/><path class="cls-5" d="M33.21,2.72a13.37,13.37,0,0,1,6,10.94,13.51,13.51,0,0,1-6.81,11.46"/><path class="cls-6" d="M8.5,2.72a13.37,13.37,0,0,0-6,10.94A13.51,13.51,0,0,0,9.29,25.12"/><path class="cls-6" d="M30.77,8.92a7.91,7.91,0,0,1,0,9.47"/><path class="cls-6" d="M11.85,18.4a7.91,7.91,0,0,1,0-9.49"/><path class="cls-7" d="M69,40.06h52.28a6.17,6.17,0,0,1,6.17,6.17V56.74A4.55,4.55,0,0,1,123,61.28H69a4.55,4.55,0,0,1-4.55-4.55V44.61A4.55,4.55,0,0,1,69,40.06Z"/><ellipse class="cls-8" cx="113.77" cy="50.67" rx="3.23" ry="3.27"/><line class="cls-9" x1="73.38" y1="48.22" x2="99.23" y2="48.22"/><line class="cls-9" x1="73.38" y1="53.12" x2="99.23" y2="53.12"/><ellipse class="cls-10" cx="85.5" cy="13.94" rx="2.42" ry="2.45"/><line class="cls-7" x1="85.5" y1="21.29" x2="85.5" y2="40"/><path class="cls-11" d="M97.21,2.72a13.37,13.37,0,0,1,6,10.94,13.51,13.51,0,0,1-6.81,11.46"/><path class="cls-12" d="M72.5,2.72a13.37,13.37,0,0,0-6,10.94,13.51,13.51,0,0,0,6.81,11.46"/><path class="cls-12" d="M94.77,8.92a7.91,7.91,0,0,1,0,9.47"/><path class="cls-12" d="M75.85,18.4a7.91,7.91,0,0,1,0-9.49"/><path class="cls-13" d="M133,40.06h52.28a6.17,6.17,0,0,1,6.17,6.17V56.74A4.55,4.55,0,0,1,187,61.28H133a4.55,4.55,0,0,1-4.55-4.55V44.61A4.55,4.55,0,0,1,133,40.06Z"/><ellipse class="cls-14" cx="177.77" cy="50.67" rx="3.23" ry="3.27"/><line class="cls-15" x1="137.38" y1="48.22" x2="163.23" y2="48.22"/><line class="cls-15" x1="137.38" y1="53.12" x2="163.23" y2="53.12"/><ellipse class="cls-16" cx="149.5" cy="13.94" rx="2.42" ry="2.45"/><line class="cls-13" x1="149.5" y1="21.29" x2="149.5" y2="40"/><path class="cls-17" d="M161.21,2.72a13.37,13.37,0,0,1,6,10.94,13.51,13.51,0,0,1-6.81,11.46"/><path class="cls-18" d="M136.5,2.72a13.37,13.37,0,0,0-6,10.94,13.51,13.51,0,0,0,6.81,11.46"/><path class="cls-18" d="M158.77,8.92a7.91,7.91,0,0,1,0,9.47"/><path class="cls-18" d="M139.85,18.4a7.91,7.91,0,0,1,0-9.49"/></svg>
