<svg id="Livello_1" data-name="Livello 1" xmlns="http://www.w3.org/2000/svg" viewBox="0 0 192 64">
    <defs>
        <style>
            .cls-1,
            .cls-10,
            .cls-2,
            .cls-3,
            .cls-5,
            .cls-6,
            .cls-7,
            .cls-9 {
                fill: none;
            }
            .cls-1 {
                stroke: #0069b2;
            }
            .cls-1,
            .cls-3,
            .cls-5,
            .cls-7,
            .cls-9 {
                stroke-miterlimit: 10;
            }
            .cls-2,
            .cls-3 {
                stroke: #f48135;
            }
            .cls-10,
            .cls-2,
            .cls-6 {
                stroke-linecap: round;
                stroke-linejoin: round;
            }
            .cls-4 {
                fill: #f48135;
            }
            .cls-5 {
                stroke: #54595e;
            }
            .cls-6,
            .cls-7 {
                stroke: #aab2bd;
            }
            .cls-8 {
                fill: #aab2bd;
            }
            .cls-10,
            .cls-9 {
                stroke: #fff;
            }
            .cls-11 {
                fill: #fff;
            }
        </style>
        <view id="color" viewBox="0 0 64 64"/>
        <view id="grey" viewBox="64 0 64 64"/>
        <view id="white" viewBox="128 0 64 64"/>
    </defs><path class="cls-1" d="M46.5,17V4.6A4.1,4.1,0,0,0,42.4.5H9.6A4.1,4.1,0,0,0,5.5,4.6V59.4a4.1,4.1,0,0,0,4.1,4.1H42.4a4.1,4.1,0,0,0,4.1-4.1V41.24"/><polyline class="cls-1" points="40.5 11 40.5 6.5 11.5 6.5 11.5 51.5 40.5 51.5 40.5 48"/><circle class="cls-2" cx="26.5" cy="57.5" r="3"/><path
        class="cls-1"
        d="M53.84,25.95a1.65,1.65,0,0,1-1.54-1.09L52,23.62a1.68,1.68,0,0,1,.33-1.87l1.88-1.92a1.7,1.7,0,0,0,0-2.37l-2.6-2.65a1.65,1.65,0,0,0-2.36,0l-1.85,1.89a1.64,1.64,0,0,1-1.87.34l-1.28-.29a1.67,1.67,0,0,1-1.07-1.56V12.69A1.67,1.67,0,0,0,41.53,11l-4.06,0a1.67,1.67,0,0,0-1.67,1.69v3.13a1.59,1.59,0,0,1-1.08,1.5l-.75.3a1.69,1.69,0,0,1-1.86-.32l-1.87-1.82a1.65,1.65,0,0,0-2.31,0l-2.52,2.45a1.7,1.7,0,0,0,0,2.43l1.78,1.74a1.54,1.54,0,0,1,.33,1.78l-.7,1.07a1.64,1.64,0,0,1-1.55,1H22.67A1.67,1.67,0,0,0,21,27.66V31a1.67,1.67,0,0,0,1.66,1.68H24.6a1.73,1.73,0,0,1,1.62,1.07l.71,1.06a1.58,1.58,0,0,1-.35,1.85l-1.93,1.84a1.7,1.7,0,0,0,0,2.45l2.78,2.66a1.65,1.65,0,0,0,2.29,0l2-2a1.8,1.8,0,0,1,2-.34l.93.45a1.65,1.65,0,0,1,1.13,1.54V46a1.67,1.67,0,0,0,1.66,1.68l4.06,0A1.67,1.67,0,0,0,43.2,46V42.88a1.59,1.59,0,0,1,1.08-1.5l1.16-.46a1.69,1.69,0,0,1,1.86.32l1.87,1.82a1.65,1.65,0,0,0,2.31,0L54,40.6a1.7,1.7,0,0,0,0-2.43L52.2,36.44a1.54,1.54,0,0,1-.33-1.78l.3-.91a1.64,1.64,0,0,1,1.55-1h2.61A1.67,1.67,0,0,0,58,31V27.66A1.67,1.67,0,0,0,56.33,26H53.56"/><path class="cls-3" d="M47.32,24.67A9.42,9.42,0,0,0,34.56,21.3a9.15,9.15,0,0,0-3.42,12.58,9.26,9.26,0,0,0,5.67,4.29,9.49,9.49,0,0,0,2.43.32,9.38,9.38,0,0,0,4.66-1.24,9.17,9.17,0,0,0,4.35-5.59A9,9,0,0,0,47.32,24.67Z"/><path class="cls-4" d="M43.82,25.73a.92.92,0,0,0-1.41,0l-4.24,4.72-2.11-2.36a.93.93,0,0,0-1.41,0,1.21,1.21,0,0,0,0,1.58l2.82,3.14h0a.92.92,0,0,0,1.41,0l4.95-5.51A1.2,1.2,0,0,0,43.82,25.73Z"/><path class="cls-5" d="M110.5,17V4.6A4.1,4.1,0,0,0,106.4.5H73.6a4.1,4.1,0,0,0-4.1,4.1V59.4a4.1,4.1,0,0,0,4.1,4.1h32.8a4.1,4.1,0,0,0,4.1-4.1V41"/><polyline class="cls-5" points="104.5 11 104.5 6.5 75.5 6.5 75.5 51.5 104.5 51.5 104.5 48"/><circle class="cls-6" cx="90.5" cy="57.5" r="3"/><path
        class="cls-5"
        d="M118.34,25.95a1.65,1.65,0,0,1-1.54-1.09l-.27-1.24a1.68,1.68,0,0,1,.33-1.87l1.88-1.92a1.7,1.7,0,0,0,0-2.37l-2.6-2.65a1.65,1.65,0,0,0-2.36,0l-1.85,1.89a1.64,1.64,0,0,1-1.87.34l-1.28-.29a1.67,1.67,0,0,1-1.07-1.56V12.69A1.67,1.67,0,0,0,106,11L102,11a1.67,1.67,0,0,0-1.67,1.69v3.13a1.59,1.59,0,0,1-1.08,1.5l-.75.3a1.69,1.69,0,0,1-1.86-.32l-1.87-1.82a1.65,1.65,0,0,0-2.31,0l-2.52,2.45a1.7,1.7,0,0,0,0,2.43l1.78,1.74A1.54,1.54,0,0,1,92,23.88l-.7,1.07a1.64,1.64,0,0,1-1.55,1H87.17a1.67,1.67,0,0,0-1.67,1.69V31a1.67,1.67,0,0,0,1.66,1.68H89.1a1.73,1.73,0,0,1,1.62,1.07l.71,1.06a1.58,1.58,0,0,1-.35,1.85l-1.93,1.84a1.7,1.7,0,0,0,0,2.45l2.78,2.66a1.65,1.65,0,0,0,2.29,0l2-2a1.8,1.8,0,0,1,2-.34l.93.45a1.65,1.65,0,0,1,1.13,1.54V46A1.67,1.67,0,0,0,102,47.69l4.06,0A1.67,1.67,0,0,0,107.7,46V42.88a1.59,1.59,0,0,1,1.08-1.5l1.16-.46a1.69,1.69,0,0,1,1.86.32l1.87,1.82a1.65,1.65,0,0,0,2.31,0l2.52-2.45a1.7,1.7,0,0,0,0-2.43l-1.78-1.74a1.54,1.54,0,0,1-.33-1.78l.3-.91a1.64,1.64,0,0,1,1.55-1h2.61A1.67,1.67,0,0,0,122.5,31V27.66A1.67,1.67,0,0,0,120.83,26h-2.77"/><path class="cls-7" d="M111.82,24.67A9.42,9.42,0,0,0,99.06,21.3a9.15,9.15,0,0,0-3.42,12.58,9.26,9.26,0,0,0,5.67,4.29,9.49,9.49,0,0,0,2.43.32,9.38,9.38,0,0,0,4.66-1.24,9.17,9.17,0,0,0,4.35-5.59A9,9,0,0,0,111.82,24.67Z"/><path class="cls-8" d="M108.32,25.73a.92.92,0,0,0-1.41,0l-4.24,4.72-2.11-2.36a.93.93,0,0,0-1.41,0,1.21,1.21,0,0,0,0,1.58L102,32.81h0a.92.92,0,0,0,1.41,0l4.95-5.51A1.2,1.2,0,0,0,108.32,25.73Z"/><path class="cls-9" d="M174.5,17V4.6A4.1,4.1,0,0,0,170.4.5H137.6a4.1,4.1,0,0,0-4.1,4.1V59.4a4.1,4.1,0,0,0,4.1,4.1h32.8a4.1,4.1,0,0,0,4.1-4.1V41"/><polyline class="cls-9" points="168.5 11 168.5 6.5 139.5 6.5 139.5 51.5 168.5 51.5 168.5 48"/><circle class="cls-10" cx="154.5" cy="57.5" r="3"/><path
        class="cls-9"
        d="M182.34,25.95a1.65,1.65,0,0,1-1.54-1.09l-.27-1.24a1.68,1.68,0,0,1,.33-1.87l1.88-1.92a1.7,1.7,0,0,0,0-2.37l-2.6-2.65a1.65,1.65,0,0,0-2.36,0l-1.85,1.89a1.64,1.64,0,0,1-1.87.34l-1.28-.29a1.67,1.67,0,0,1-1.07-1.56V12.69A1.67,1.67,0,0,0,170,11L166,11a1.67,1.67,0,0,0-1.67,1.69v3.13a1.59,1.59,0,0,1-1.08,1.5l-.75.3a1.69,1.69,0,0,1-1.86-.32l-1.87-1.82a1.65,1.65,0,0,0-2.31,0l-2.52,2.45a1.7,1.7,0,0,0,0,2.43l1.78,1.74a1.54,1.54,0,0,1,.33,1.78l-.7,1.07a1.64,1.64,0,0,1-1.55,1h-2.61a1.67,1.67,0,0,0-1.67,1.69V31a1.67,1.67,0,0,0,1.66,1.68h1.93a1.73,1.73,0,0,1,1.62,1.07l.71,1.06a1.58,1.58,0,0,1-.35,1.85l-1.93,1.84a1.7,1.7,0,0,0,0,2.45l2.78,2.66a1.65,1.65,0,0,0,2.29,0l2-2a1.8,1.8,0,0,1,2-.34l.93.45a1.65,1.65,0,0,1,1.13,1.54V46A1.67,1.67,0,0,0,166,47.69l4.06,0A1.67,1.67,0,0,0,171.7,46V42.88a1.59,1.59,0,0,1,1.08-1.5l1.16-.46a1.69,1.69,0,0,1,1.86.32l1.87,1.82a1.65,1.65,0,0,0,2.31,0l2.52-2.45a1.7,1.7,0,0,0,0-2.43l-1.78-1.74a1.54,1.54,0,0,1-.33-1.78l.3-.91a1.64,1.64,0,0,1,1.55-1h2.61A1.67,1.67,0,0,0,186.5,31V27.66A1.67,1.67,0,0,0,184.83,26h-2.77"/><path class="cls-9" d="M175.82,24.67a9.42,9.42,0,0,0-12.76-3.37,9.15,9.15,0,0,0-3.42,12.58,9.26,9.26,0,0,0,5.67,4.29,9.49,9.49,0,0,0,2.43.32,9.38,9.38,0,0,0,4.66-1.24,9.17,9.17,0,0,0,4.35-5.59A9,9,0,0,0,175.82,24.67Z"/><path class="cls-11" d="M172.32,25.73a.92.92,0,0,0-1.41,0l-4.24,4.72-2.11-2.36a.93.93,0,0,0-1.41,0,1.21,1.21,0,0,0,0,1.58L166,32.81h0a.92.92,0,0,0,1.41,0l4.95-5.51A1.2,1.2,0,0,0,172.32,25.73Z"/></svg>
