<svg id="Livello_1" data-name="Livello 1" xmlns="http://www.w3.org/2000/svg" viewBox="0 0 192 64">
    <defs>
        <style>
            .cls-1 {
                fill: #0069b2;
            }
            .cls-1,
            .cls-4 {
                stroke: #0069b2;
            }
            .cls-1,
            .cls-10,
            .cls-2,
            .cls-4,
            .cls-5,
            .cls-7 {
                stroke-linecap: round;
                stroke-linejoin: round;
            }
            .cls-2,
            .cls-8 {
                fill: #fff;
            }
            .cls-10,
            .cls-2,
            .cls-9 {
                stroke: #fff;
            }
            .cls-10,
            .cls-3,
            .cls-4,
            .cls-6,
            .cls-7,
            .cls-9 {
                fill: none;
            }
            .cls-3 {
                stroke: #f48135;
            }
            .cls-3,
            .cls-6,
            .cls-9 {
                stroke-miterlimit: 10;
                stroke-width: 1.5px;
            }
            .cls-5 {
                fill: #54595e;
            }
            .cls-5,
            .cls-7 {
                stroke: #54595e;
            }
            .cls-6 {
                stroke: #aab2bd;
            }
        </style>
        <view id="color" viewBox="0 0 64 64"/>
        <view id="grey" viewBox="64 0 64 64"/>
        <view id="white" viewBox="128 0 64 64"/>
    </defs><path class="cls-1" d="M44.5,33V46a1.42,1.42,0,0,1-1.25,1.55H20.75A1.42,1.42,0,0,1,19.5,46V33a1.42,1.42,0,0,1,1.25-1.55h22.5A1.42,1.42,0,0,1,44.5,33Z"/><path class="cls-2" d="M33.57,38.66a2.14,2.14,0,0,0,.76-2,2,2,0,0,0-.67-1.3,2.24,2.24,0,0,0-3.58.78,2.17,2.17,0,0,0,.62,2.48.22.22,0,0,0-.05.13L30,43.25a.27.27,0,0,0,.29.25H34a.27.27,0,0,0,.29-.25l-.63-4.46A.22.22,0,0,0,33.57,38.66Z"/><path class="cls-3" d="M41,31V28a9,9,0,0,0-18,0v3"/><path class="cls-4" d="M9.06,11.92S32,7.47,32,.5c0,7,22.94,11.42,22.94,11.42L52.43,51.5,32,63.5l-19-12Z"/><path class="cls-5" d="M108.5,33V46a1.42,1.42,0,0,1-1.25,1.55H84.75A1.42,1.42,0,0,1,83.5,46V33a1.42,1.42,0,0,1,1.25-1.55h22.5A1.42,1.42,0,0,1,108.5,33Z"/><path class="cls-2" d="M97.57,38.66a2.14,2.14,0,0,0,.76-2,2,2,0,0,0-.67-1.3,2.24,2.24,0,0,0-3.58.78,2.17,2.17,0,0,0,.62,2.48.22.22,0,0,0-.05.13L94,43.25a.27.27,0,0,0,.29.25H98a.27.27,0,0,0,.29-.25l-.63-4.46A.22.22,0,0,0,97.57,38.66Z"/><path class="cls-6" d="M105,31V28a9,9,0,0,0-18,0v3"/><path class="cls-7" d="M73.06,11.92S96,7.47,96,.5c0,7,22.94,11.42,22.94,11.42L116.43,51.5,96,63.5l-19-12Z"/><path
        class="cls-8"
        d="M171.25,31h-22.5A1.92,1.92,0,0,0,147,33V46a1.92,1.92,0,0,0,1.75,2h22.5A1.92,1.92,0,0,0,173,46V33A1.92,1.92,0,0,0,171.25,31Zm-8.5,12.18A.78.78,0,0,1,162,44H158.3a.77.77,0,0,1-.79-.75l.63-4.44a2.66,2.66,0,0,1-.52-2.82,2.72,2.72,0,0,1,1.89-1.61A2.77,2.77,0,0,1,162,35a2.55,2.55,0,0,1,.83,1.62,2.61,2.61,0,0,1-.7,2.18Z"/><path class="cls-9" d="M169,31V28a9,9,0,0,0-18,0v3"/><path class="cls-10" d="M137.06,11.92S160,7.47,160,.5c0,7,22.94,11.42,22.94,11.42L180.43,51.5,160,63.5l-19-12Z"/></svg>
