<svg id="Livello_1" data-name="Livello 1" xmlns="http://www.w3.org/2000/svg" viewBox="0 0 192 64">
    <defs>
        <style>
            .cls-1,
            .cls-2,
            .cls-3,
            .cls-4,
            .cls-5 {
                fill: none;
                stroke-linecap: round;
                stroke-linejoin: round;
            }
            .cls-1 {
                stroke: #f48135;
            }
            .cls-2 {
                stroke: #0069b2;
            }
            .cls-3 {
                stroke: #aab2bd;
            }
            .cls-4 {
                stroke: #fff;
            }
            .cls-5 {
                stroke: #54595e;
            }
        </style>
        <view id="color" viewBox="0 0 64 64"/>
        <view id="grey" viewBox="64 0 64 64"/>
        <view id="white" viewBox="128 0 64 64"/>
    </defs>
    <ellipse class="cls-1" cx="26.25" cy="24.8" rx="4.35" ry="4.31" transform="translate(-0.66 0.71) rotate(-1.54)"/>
    <ellipse class="cls-1" cx="37.75" cy="39.2" rx="4.35" ry="4.31" transform="translate(-1.04 1.03) rotate(-1.54)"/>
    <path class="cls-1" d="M22.39,42.06,41.61,21.94,22.39,42.06"/>
    <path class="cls-2" d="M38,12.69,46.2,5.14a1.82,1.82,0,0,1,3,1.69L46.5,17.41a1.78,1.78,0,0,0,2,2.18l11.14-1.51a1.77,1.77,0,0,1,1.41,3.12l-8.62,7.1a1.75,1.75,0,0,0,.29,2.93l9.82,5.1a1.78,1.78,0,0,1-.77,3.36l-11.2.91A1.81,1.81,0,0,0,49,43.17l4.74,9.77a1.85,1.85,0,0,1-2.66,2.31l-9.5-5.63a1.88,1.88,0,0,0-2.79,1.22l-2.14,10.7a1.87,1.87,0,0,1-3.53.38L29,51.91a1.86,1.86,0,0,0-3-.59L17.8,58.86a1.82,1.82,0,0,1-3-1.69L17.5,46.59a1.78,1.78,0,0,0-2-2.18L4.34,45.92A1.77,1.77,0,0,1,2.94,42.8l8.62-7.1a1.75,1.75,0,0,0-.29-2.93l-9.82-5.1a1.78,1.78,0,0,1,.77-3.36l11.2-.91A1.81,1.81,0,0,0,15,20.83l-4.74-9.77a1.85,1.85,0,0,1,2.66-2.31l9.5,5.63a1.88,1.88,0,0,0,2.79-1.22l2.14-10.7a1.87,1.87,0,0,1,3.53-.38l4.17,10A1.86,1.86,0,0,0,38,12.69Z"/>
        <path class="cls-2" d="M38,12.69,46.2,5.14a1.82,1.82,0,0,1,3,1.69L46.5,17.41a1.78,1.78,0,0,0,2,2.18l11.14-1.51a1.77,1.77,0,0,1,1.41,3.12l-8.62,7.1a1.75,1.75,0,0,0,.29,2.93l9.82,5.1a1.78,1.78,0,0,1-.77,3.36l-11.2.91A1.81,1.81,0,0,0,49,43.17l4.74,9.77a1.85,1.85,0,0,1-2.66,2.31l-9.5-5.63a1.88,1.88,0,0,0-2.79,1.22l-2.14,10.7a1.87,1.87,0,0,1-3.53.38L29,51.91a1.86,1.86,0,0,0-3-.59L17.8,58.86a1.82,1.82,0,0,1-3-1.69L17.5,46.59a1.78,1.78,0,0,0-2-2.18L4.34,45.92A1.77,1.77,0,0,1,2.94,42.8l8.62-7.1a1.75,1.75,0,0,0-.29-2.93l-9.82-5.1a1.78,1.78,0,0,1,.77-3.36l11.2-.91A1.81,1.81,0,0,0,15,20.83l-4.74-9.77a1.85,1.85,0,0,1,2.66-2.31l9.5,5.63a1.88,1.88,0,0,0,2.79-1.22l2.14-10.7a1.87,1.87,0,0,1,3.53-.38l4.17,10A1.86,1.86,0,0,0,38,12.69Z"/>
        <ellipse class="cls-3" cx="90.25" cy="24.8" rx="4.35" ry="4.31" transform="translate(-0.63 2.44) rotate(-1.54)"/>
        <ellipse class="cls-3" cx="101.75" cy="39.2" rx="4.35" ry="4.31" transform="translate(-1.02 2.75) rotate(-1.54)"/>
        <path class="cls-3" d="M86.39,42.06l19.23-20.13L86.39,42.06"/>
        <ellipse class="cls-4" cx="154.25" cy="24.8" rx="4.35" ry="4.31" transform="translate(-0.61 4.16) rotate(-1.54)"/>
        <ellipse class="cls-4" cx="165.75" cy="39.2" rx="4.35" ry="4.31" transform="translate(-0.99 4.47) rotate(-1.54)"/>
        <path class="cls-4" d="M150.39,42.06l19.23-20.13L150.39,42.06"/>
        <path class="cls-4" d="M166,12.69l8.21-7.55a1.82,1.82,0,0,1,3,1.69L174.5,17.41a1.78,1.78,0,0,0,2,2.18l11.14-1.51a1.77,1.77,0,0,1,1.41,3.12l-8.62,7.1a1.75,1.75,0,0,0,.29,2.93l9.82,5.1a1.78,1.78,0,0,1-.77,3.36l-11.2.91A1.81,1.81,0,0,0,177,43.17l4.74,9.77a1.85,1.85,0,0,1-2.66,2.31l-9.5-5.63a1.88,1.88,0,0,0-2.79,1.22l-2.14,10.7a1.87,1.87,0,0,1-3.53.38l-4.17-10a1.86,1.86,0,0,0-3-.59l-8.21,7.55a1.82,1.82,0,0,1-3-1.69l2.75-10.58a1.78,1.78,0,0,0-2-2.18l-11.14,1.51a1.77,1.77,0,0,1-1.41-3.12l8.62-7.1a1.75,1.75,0,0,0-.29-2.93l-9.82-5.1a1.78,1.78,0,0,1,.77-3.36l11.2-.91A1.81,1.81,0,0,0,143,20.83l-4.74-9.77a1.85,1.85,0,0,1,2.66-2.31l9.5,5.63a1.88,1.88,0,0,0,2.79-1.22l2.14-10.7a1.87,1.87,0,0,1,3.53-.38l4.17,10A1.86,1.86,0,0,0,166,12.69Z"/>
        <path class="cls-4" d="M166,12.69l8.21-7.55a1.82,1.82,0,0,1,3,1.69L174.5,17.41a1.78,1.78,0,0,0,2,2.18l11.14-1.51a1.77,1.77,0,0,1,1.41,3.12l-8.62,7.1a1.75,1.75,0,0,0,.29,2.93l9.82,5.1a1.78,1.78,0,0,1-.77,3.36l-11.2.91A1.81,1.81,0,0,0,177,43.17l4.74,9.77a1.85,1.85,0,0,1-2.66,2.31l-9.5-5.63a1.88,1.88,0,0,0-2.79,1.22l-2.14,10.7a1.87,1.87,0,0,1-3.53.38l-4.17-10a1.86,1.86,0,0,0-3-.59l-8.21,7.55a1.82,1.82,0,0,1-3-1.69l2.75-10.58a1.78,1.78,0,0,0-2-2.18l-11.14,1.51a1.77,1.77,0,0,1-1.41-3.12l8.62-7.1a1.75,1.75,0,0,0-.29-2.93l-9.82-5.1a1.78,1.78,0,0,1,.77-3.36l11.2-.91A1.81,1.81,0,0,0,143,20.83l-4.74-9.77a1.85,1.85,0,0,1,2.66-2.31l9.5,5.63a1.88,1.88,0,0,0,2.79-1.22l2.14-10.7a1.87,1.87,0,0,1,3.53-.38l4.17,10A1.86,1.86,0,0,0,166,12.69Z"/>
        <path class="cls-5" d="M102,12.69l8.21-7.55a1.82,1.82,0,0,1,3,1.69L110.5,17.41a1.78,1.78,0,0,0,2,2.18l11.14-1.51a1.77,1.77,0,0,1,1.41,3.12l-8.62,7.1a1.75,1.75,0,0,0,.29,2.93l9.82,5.1a1.78,1.78,0,0,1-.77,3.36l-11.2.91A1.81,1.81,0,0,0,113,43.17l4.74,9.77a1.85,1.85,0,0,1-2.66,2.31l-9.5-5.63a1.88,1.88,0,0,0-2.79,1.22l-2.14,10.7a1.87,1.87,0,0,1-3.53.38L93,51.91a1.86,1.86,0,0,0-3-.59L81.8,58.86a1.82,1.82,0,0,1-3-1.69L81.5,46.59a1.78,1.78,0,0,0-2-2.18L68.34,45.92a1.77,1.77,0,0,1-1.41-3.12l8.62-7.1a1.75,1.75,0,0,0-.29-2.93l-9.82-5.1a1.78,1.78,0,0,1,.77-3.36l11.2-.91A1.81,1.81,0,0,0,79,20.83l-4.74-9.77a1.85,1.85,0,0,1,2.66-2.31l9.5,5.63a1.88,1.88,0,0,0,2.79-1.22l2.14-10.7a1.87,1.87,0,0,1,3.53-.38l4.17,10A1.86,1.86,0,0,0,102,12.69Z"/>
      </svg>
