<svg id="Livello_1" data-name="Livello 1" xmlns="http://www.w3.org/2000/svg" viewBox="0 0 192 64">
    <defs>
        <style>
            .cls-1,
            .cls-11,
            .cls-12,
            .cls-13,
            .cls-2,
            .cls-3,
            .cls-4,
            .cls-6,
            .cls-7,
            .cls-8,
            .cls-9 {
                fill: none;
            }
            .cls-1,
            .cls-2,
            .cls-3 {
                stroke: #0069b2;
            }
            .cls-1,
            .cls-11,
            .cls-6 {
                stroke-linecap: round;
            }
            .cls-1,
            .cls-11,
            .cls-13,
            .cls-3,
            .cls-6,
            .cls-8 {
                stroke-linejoin: round;
            }
            .cls-12,
            .cls-2,
            .cls-4,
            .cls-7,
            .cls-9 {
                stroke-miterlimit: 10;
            }
            .cls-4 {
                stroke: #f48135;
            }
            .cls-5 {
                fill: #f48135;
            }
            .cls-6,
            .cls-7,
            .cls-8 {
                stroke: #54595e;
            }
            .cls-9 {
                stroke: #aab2bd;
            }
            .cls-10 {
                fill: #aab2bd;
            }
            .cls-11,
            .cls-12,
            .cls-13 {
                stroke: #fff;
            }
            .cls-14 {
                fill: #fff;
            }
        </style>
        <view id="color" viewBox="0 0 64 64"/>
        <view id="grey" viewBox="64 0 64 64"/>
        <view id="white" viewBox="128 0 64 64"/>
    </defs><path class="cls-1" d="M53,42.34V50.5A3.5,3.5,0,0,1,49.47,54H4A3.5,3.5,0,0,1,.5,50.5V26.42a4.8,4.8,0,0,1,4.84-4.77H11"/><path class="cls-2" d="M11,26.83H9.43a3.65,3.65,0,0,0-3.68,3.62V45.19a3.65,3.65,0,0,0,3.68,3.62H21.76a3.65,3.65,0,0,0,3.68-3.62V42.34"/><line class="cls-3" x1="48.41" y1="47.51" x2="36.59" y2="47.51"/><line class="cls-3" x1="35.28" y1="47.51" x2="31.34" y2="47.51"/><line class="cls-3" x1="31.34" y1="44.93" x2="43.16" y2="44.93"/><line class="cls-3" x1="44.47" y1="44.93" x2="48.41" y2="44.93"/><path class="cls-1" d="M11,14.79V38.87a3.5,3.5,0,0,0,3.53,3.47H60a3.5,3.5,0,0,0,3.53-3.47V21.6L51.7,10H14.53C12.58,10,11,12.87,11,14.79Z"/><path class="cls-2" d="M19.93,37.17H32.26a3.65,3.65,0,0,0,3.67-3.62V18.81a3.65,3.65,0,0,0-3.67-3.62H19.93a3.65,3.65,0,0,0-3.68,3.62V33.55A3.65,3.65,0,0,0,19.93,37.17Z"/><line class="cls-4" x1="34.02" y1="22.98" x2="18.17" y2="22.98"/><line class="cls-4" x1="29.32" y1="17.16" x2="29.32" y2="22.98"/><line class="cls-4" x1="22.76" y1="17.16" x2="22.76" y2="22.98"/><line class="cls-4" x1="34.02" y1="29.39" x2="18.17" y2="29.39"/><line class="cls-4" x1="29.32" y1="35.21" x2="29.32" y2="29.39"/><line class="cls-4" x1="22.76" y1="35.21" x2="22.76" y2="29.39"/><path
        class="cls-5"
        d="M39.39,27.79s1.68,2.2,2.28,2.88,1.26,1.57,2,1.61S45.51,31,45.8,30.81A1.79,1.79,0,0,1,47,30.42c1-.06,3.06,1.13,4.36,1.11,3.52-.06,6.34-2.63,7.69-3.87s2.24-2,2.24-2,.46.06.15.73-3.89,6.26-10,6.42c-2.66.07-3.11-1.31-4.66-1.18-1,.06-1.92,2-3.77,2-1.47,0-3.76-4.57-3.76-4.57s-.67-1.28.13-1.32Z"/><path class="cls-5" d="M46,29.29c.72-.21,1.18-.83,1-1.37a1.25,1.25,0,0,0-1.61-.59c-.72.21-1.18.83-1,1.37a1.25,1.25,0,0,0,1.61.59Z"/><path class="cls-6" d="M117,42.34V50.5A3.5,3.5,0,0,1,113.47,54H68A3.5,3.5,0,0,1,64.5,50.5V26.42a4.8,4.8,0,0,1,4.84-4.77H75"/><path class="cls-7" d="M75,26.83H73.43a3.65,3.65,0,0,0-3.67,3.62V45.19a3.65,3.65,0,0,0,3.67,3.62H85.76a3.65,3.65,0,0,0,3.67-3.62V42.34"/><line class="cls-8" x1="112.41" y1="47.51" x2="100.59" y2="47.51"/><line class="cls-8" x1="99.28" y1="47.51" x2="95.34" y2="47.51"/><line class="cls-8" x1="95.34" y1="44.93" x2="107.16" y2="44.93"/><line class="cls-8" x1="108.47" y1="44.93" x2="112.41" y2="44.93"/><path class="cls-6" d="M75,14.79V38.87a3.5,3.5,0,0,0,3.53,3.47H124a3.5,3.5,0,0,0,3.53-3.47V21.6L115.7,10H78.53C76.58,10,75,12.87,75,14.79Z"/><path class="cls-7" d="M83.93,37.17H96.26a3.65,3.65,0,0,0,3.67-3.62V18.81a3.65,3.65,0,0,0-3.67-3.62H83.93a3.65,3.65,0,0,0-3.67,3.62V33.55A3.65,3.65,0,0,0,83.93,37.17Z"/><line class="cls-9" x1="98.02" y1="22.98" x2="82.17" y2="22.98"/><line class="cls-9" x1="93.32" y1="17.16" x2="93.32" y2="22.98"/><line class="cls-9" x1="86.76" y1="17.16" x2="86.76" y2="22.98"/><line class="cls-9" x1="98.02" y1="29.39" x2="82.17" y2="29.39"/><line class="cls-9" x1="93.32" y1="35.21" x2="93.32" y2="29.39"/><line class="cls-9" x1="86.76" y1="35.21" x2="86.76" y2="29.39"/><path
        class="cls-10"
        d="M103.39,27.79s1.68,2.2,2.28,2.88,1.26,1.57,2,1.61,1.86-1.27,2.15-1.47a1.79,1.79,0,0,1,1.19-.39c1-.06,3.06,1.13,4.36,1.11,3.52-.06,6.34-2.63,7.69-3.87s2.24-2,2.24-2,.46.06.15.73-3.89,6.26-10,6.42c-2.66.07-3.11-1.31-4.66-1.18-1,.06-1.92,2-3.77,2-1.47,0-3.76-4.57-3.76-4.57s-.67-1.28.13-1.32Z"/><path class="cls-10" d="M110,29.29c.72-.21,1.18-.83,1-1.37a1.25,1.25,0,0,0-1.61-.59c-.72.21-1.18.83-1,1.37a1.25,1.25,0,0,0,1.61.59Z"/><path class="cls-11" d="M181,42.34V50.5A3.5,3.5,0,0,1,177.47,54H132a3.5,3.5,0,0,1-3.53-3.47V26.42a4.8,4.8,0,0,1,4.84-4.77H139"/><path class="cls-12" d="M139,26.83h-1.59a3.65,3.65,0,0,0-3.68,3.62V45.19a3.65,3.65,0,0,0,3.68,3.62h12.34a3.65,3.65,0,0,0,3.68-3.62V42.34"/><line class="cls-13" x1="176.41" y1="47.51" x2="164.59" y2="47.51"/><line class="cls-13" x1="163.28" y1="47.51" x2="159.34" y2="47.51"/><line class="cls-13" x1="159.34" y1="44.93" x2="171.16" y2="44.93"/><line class="cls-13" x1="172.47" y1="44.93" x2="176.41" y2="44.93"/><path class="cls-11" d="M139,14.79V38.87a3.5,3.5,0,0,0,3.53,3.47H188a3.5,3.5,0,0,0,3.53-3.47V21.6L179.7,10H142.53C140.58,10,139,12.87,139,14.79Z"/><path class="cls-12" d="M147.93,37.17h12.34a3.65,3.65,0,0,0,3.68-3.62V18.81a3.65,3.65,0,0,0-3.68-3.62H147.93a3.65,3.65,0,0,0-3.68,3.62V33.55A3.65,3.65,0,0,0,147.93,37.17Z"/><line class="cls-12" x1="162.02" y1="22.98" x2="146.17" y2="22.98"/><line class="cls-12" x1="157.32" y1="17.16" x2="157.32" y2="22.98"/><line class="cls-12" x1="150.76" y1="17.16" x2="150.76" y2="22.98"/><line class="cls-12" x1="162.02" y1="29.39" x2="146.17" y2="29.39"/><line class="cls-12" x1="157.32" y1="35.21" x2="157.32" y2="29.39"/><line class="cls-12" x1="150.76" y1="35.21" x2="150.76" y2="29.39"/><path
        class="cls-14"
        d="M167.39,27.79s1.68,2.2,2.28,2.88,1.26,1.57,2,1.61,1.86-1.27,2.15-1.47a1.79,1.79,0,0,1,1.19-.39c1-.06,3.06,1.13,4.36,1.11,3.52-.06,6.34-2.63,7.69-3.87s2.24-2,2.24-2,.46.06.15.73-3.89,6.26-10,6.42c-2.66.07-3.11-1.31-4.66-1.18-1,.06-1.92,2-3.77,2-1.47,0-3.76-4.57-3.76-4.57s-.67-1.28.13-1.32Z"/><path class="cls-14" d="M174,29.29c.72-.21,1.18-.83,1-1.37a1.25,1.25,0,0,0-1.61-.59c-.72.21-1.18.83-1,1.37a1.25,1.25,0,0,0,1.61.59Z"/></svg>
