<svg id="Livello_1" data-name="Livello 1" xmlns="http://www.w3.org/2000/svg" viewBox="0 0 64 64">
    <defs>
        <style>
            .cls-1 {
                fill: #f9f9f9;
            }
            .cls-2 {
                fill: #369;
            }
            .cls-3 {
                fill: #036;
            }
        </style>
    </defs>
    <rect class="cls-1" y="12" width="64" height="40" rx="2.13" ry="2.13"/>
    <path class="cls-2" d="M44.33,29.84a4.07,4.07,0,0,0-1.9-.34,8.37,8.37,0,0,0-1.29.1l-.55.1a.63.63,0,0,0-.47.49l-.13.54c-.07.34.12.33.21.3a5.53,5.53,0,0,1,.63-.19,4.7,4.7,0,0,1,1-.13,2.64,2.64,0,0,1,1,.14.49.49,0,0,1,.32.48.36.36,0,0,1,0,.15s-.05.08-.15.1c-.61,0-1,.09-1.57.17a4.92,4.92,0,0,0-1.35.37,2.11,2.11,0,0,0-.92.72A2,2,0,0,0,38.8,34a1.31,1.31,0,0,0,.43,1,1.63,1.63,0,0,0,1.12.38,3,3,0,0,0,.67-.06,3.39,3.39,0,0,0,.51-.18,2.67,2.67,0,0,0,.44-.24l.4-.27h0l0,.17h0a.32.32,0,0,0,.28.4h1a.56.56,0,0,0,.46-.4l.78-3.36a2,2,0,0,0,0-.28,2.2,2.2,0,0,0,0-.26A1.12,1.12,0,0,0,44.33,29.84Zm-1.89,4a2.9,2.9,0,0,1-.42.22,1.51,1.51,0,0,1-.56.12,1.24,1.24,0,0,1-.61-.12.41.41,0,0,1-.21-.4.82.82,0,0,1,.15-.52,1.11,1.11,0,0,1,.45-.31,3.9,3.9,0,0,1,.7-.16l.79-.09c.06,0,.1,0,.08.13s-.15.64-.22.9A.51.51,0,0,1,42.44,33.84Z"/>
    <path class="cls-3" d="M30.94,29.57a.91.91,0,0,0-.67.41l-1.68,2.88c-.08.14-.16.05-.18,0L27.94,30a.59.59,0,0,0-.58-.42h-1a.32.32,0,0,0-.32.41s.73,4.12.87,5.09c.07.54,0,.63,0,.63L26,37.36c-.14.22-.06.41.17.41h1.1a.9.9,0,0,0,.67-.41l4.24-7.18s.41-.61,0-.61H30.94"/>
    <path class="cls-3" d="M17.54,31a2.24,2.24,0,0,1-1.34.35h-.26a.32.32,0,0,1-.32-.41l.32-1.38a.54.54,0,0,1,.51-.41h.35a1.68,1.68,0,0,1,.93.21A.69.69,0,0,1,18,30a1.15,1.15,0,0,1-.48,1m2.3-2.13a1.59,1.59,0,0,0-.58-.63,2.68,2.68,0,0,0-.92-.34,7.72,7.72,0,0,0-1.26-.1H14.85a.56.56,0,0,0-.51.41l-1.5,6.52a.32.32,0,0,0,.32.41h1.07a.54.54,0,0,0,.51-.41l.37-1.58a.54.54,0,0,1,.51-.4h.3a5.05,5.05,0,0,0,3-.8A2.49,2.49,0,0,0,20,29.86a2,2,0,0,0-.2-1"/>
    <path class="cls-2" d="M36.89,31.06a2.25,2.25,0,0,1-1.34.35h-.26A.32.32,0,0,1,35,31l.32-1.38a.54.54,0,0,1,.51-.4h.35a1.74,1.74,0,0,1,.93.21.71.71,0,0,1,.31.64,1.17,1.17,0,0,1-.48,1m2.3-2.13a1.63,1.63,0,0,0-.59-.63,2.64,2.64,0,0,0-.93-.34,7.4,7.4,0,0,0-1.25-.1H34.19a.56.56,0,0,0-.51.41l-1.5,6.52a.31.31,0,0,0,.32.41h1.07a.56.56,0,0,0,.51-.4l.36-1.58a.55.55,0,0,1,.51-.4h.3a5,5,0,0,0,3-.8,2.51,2.51,0,0,0,1.09-2.11,2.06,2.06,0,0,0-.2-1"/>
    <path class="cls-3" d="M25,29.83a4.06,4.06,0,0,0-1.9-.34,8.41,8.41,0,0,0-1.29.1l-.55.1a.62.62,0,0,0-.47.49l-.13.53c-.07.34.12.33.21.3a5.69,5.69,0,0,1,.63-.19,4.66,4.66,0,0,1,1-.13,2.64,2.64,0,0,1,1,.14.49.49,0,0,1,.32.48.34.34,0,0,1,0,.15s-.05.08-.15.1c-.61,0-1,.09-1.57.17a4.91,4.91,0,0,0-1.35.37,2.11,2.11,0,0,0-.92.72,2,2,0,0,0-.31,1.11,1.31,1.31,0,0,0,.43,1,1.63,1.63,0,0,0,1.12.39,3,3,0,0,0,.67-.06,3.41,3.41,0,0,0,.51-.18,2.69,2.69,0,0,0,.44-.24l.4-.27h0l0,.17h0a.31.31,0,0,0,.28.4h1a.56.56,0,0,0,.46-.4l.78-3.36a1.85,1.85,0,0,0,0-.27,2,2,0,0,0,0-.26A1.12,1.12,0,0,0,25,29.83Zm-1.88,4a2.74,2.74,0,0,1-.42.22,1.51,1.51,0,0,1-.56.12,1.24,1.24,0,0,1-.61-.12.41.41,0,0,1-.21-.4.81.81,0,0,1,.16-.52,1.09,1.09,0,0,1,.45-.31,4,4,0,0,1,.7-.16l.79-.09c.06,0,.1,0,.07.13s-.15.64-.21.9A.51.51,0,0,1,23.09,33.84Z"/>
    <path class="cls-2" d="M48,27.91H47a.55.55,0,0,0-.49.37l0,0-.06.26-1.31,5.93-.06.27h0a.31.31,0,0,0,.28.39h1a.55.55,0,0,0,.5-.37v0l1.43-6.46h0A.32.32,0,0,0,48,27.91Z"/>
    <path class="cls-2" d="M49.44,29.23l-.11,0h-.1a.32.32,0,0,1-.24-.09.39.39,0,0,1-.08-.27v-.55h-.12V28.2h.12v-.3h.17v.3h.36v.15h-.36v.47c0,.05,0,.1,0,.13a.22.22,0,0,0,0,.09.12.12,0,0,0,.06.05l.11,0h.09l.07,0h0Z"/>
    <path class="cls-2" d="M51.17,29.24H51v-.59a1.22,1.22,0,0,0,0-.13.27.27,0,0,0,0-.1.14.14,0,0,0-.06-.06l-.11,0a.32.32,0,0,0-.15,0l-.15.09v0s0,0,0,.06v.66h-.17v-.59s0-.09,0-.13a.27.27,0,0,0,0-.1.14.14,0,0,0-.06-.06l-.11,0a.32.32,0,0,0-.14,0l-.14.09v.77h-.17v-1h.17v.11a.79.79,0,0,1,.16-.11.4.4,0,0,1,.17,0,.34.34,0,0,1,.18,0,.28.28,0,0,1,.11.12.84.84,0,0,1,.19-.13.45.45,0,0,1,.19,0,.3.3,0,0,1,.25.1.46.46,0,0,1,.08.29Z"/>
  </svg>
