<svg id="Livello_1" data-name="Livello 1" xmlns="http://www.w3.org/2000/svg" viewBox="0 0 192 64">
    <defs>
        <style>
            .cls-1,
            .cls-10,
            .cls-11,
            .cls-2,
            .cls-3,
            .cls-4,
            .cls-5,
            .cls-6,
            .cls-7,
            .cls-8,
            .cls-9 {
                fill: none;
            }
            .cls-1,
            .cls-2,
            .cls-4 {
                stroke: #0069b2;
            }
            .cls-1,
            .cls-5,
            .cls-9 {
                stroke-linecap: round;
            }
            .cls-1,
            .cls-11,
            .cls-3,
            .cls-4,
            .cls-5,
            .cls-7,
            .cls-8,
            .cls-9 {
                stroke-linejoin: round;
            }
            .cls-10,
            .cls-2,
            .cls-6 {
                stroke-miterlimit: 10;
            }
            .cls-3 {
                stroke: #f48135;
            }
            .cls-5,
            .cls-6,
            .cls-8 {
                stroke: #54595e;
            }
            .cls-7 {
                stroke: #aab2bd;
            }
            .cls-10,
            .cls-11,
            .cls-9 {
                stroke: #fff;
            }
        </style>
        <view id="color" viewBox="0 0 64 64"/>
        <view id="grey" viewBox="64 0 64 64"/>
        <view id="white" viewBox="128 0 64 64"/>
    </defs><path class="cls-1" d="M.5,17.4V47.2a4.27,4.27,0,0,0,4.23,4.3H59.27a4.27,4.27,0,0,0,4.23-4.3V25.83L49.34,11.5H4.73C2.4,11.5.5,15,.5,17.4Z"/><path class="cls-2" d="M11,45.5H26a4.46,4.46,0,0,0,4.48-4.45V22.95A4.46,4.46,0,0,0,26,18.5H11A4.46,4.46,0,0,0,6.5,22.95V41.05A4.46,4.46,0,0,0,11,45.5Z"/><line class="cls-3" x1="9" y1="28.5" x2="28" y2="28.5"/><line class="cls-3" x1="9" y1="34.5" x2="28" y2="34.5"/><line class="cls-3" x1="22.5" y1="29" x2="22.5" y2="21"/><line class="cls-3" x1="14.5" y1="29" x2="14.5" y2="21"/><line class="cls-3" x1="22.5" y1="43" x2="22.5" y2="35"/><line class="cls-3" x1="14.5" y1="43" x2="14.5" y2="35"/><line class="cls-4" x1="38" y1="31.5" x2="52" y2="31.5"/><line class="cls-4" x1="53" y1="31.5" x2="58" y2="31.5"/><line class="cls-4" x1="58" y1="35.5" x2="44" y2="35.5"/><line class="cls-4" x1="42" y1="35.5" x2="38" y2="35.5"/><line class="cls-4" x1="38" y1="40.5" x2="52" y2="40.5"/><line class="cls-4" x1="53" y1="40.5" x2="58" y2="40.5"/><path class="cls-5" d="M64.5,17.4V47.2a4.27,4.27,0,0,0,4.23,4.3h54.53a4.27,4.27,0,0,0,4.23-4.3V25.83L113.34,11.5H68.73C66.4,11.5,64.5,15,64.5,17.4Z"/><path class="cls-6" d="M75,45.5H90a4.46,4.46,0,0,0,4.48-4.45V22.95A4.46,4.46,0,0,0,90,18.5H75a4.46,4.46,0,0,0-4.48,4.45V41.05A4.46,4.46,0,0,0,75,45.5Z"/><line class="cls-7" x1="73" y1="28.5" x2="92" y2="28.5"/><line class="cls-7" x1="73" y1="34.5" x2="92" y2="34.5"/><line class="cls-7" x1="86.5" y1="29" x2="86.5" y2="21"/><line class="cls-7" x1="78.5" y1="29" x2="78.5" y2="21"/><line class="cls-7" x1="86.5" y1="43" x2="86.5" y2="35"/><line class="cls-7" x1="78.5" y1="43" x2="78.5" y2="35"/><line class="cls-8" x1="102" y1="31.5" x2="116" y2="31.5"/><line class="cls-8" x1="117" y1="31.5" x2="122" y2="31.5"/><line class="cls-8" x1="122" y1="35.5" x2="108" y2="35.5"/><line class="cls-8" x1="106" y1="35.5" x2="102" y2="35.5"/><line class="cls-8" x1="102" y1="40.5" x2="116" y2="40.5"/><line class="cls-8" x1="117" y1="40.5" x2="122" y2="40.5"/><path class="cls-9" d="M128.5,17.4V47.2a4.27,4.27,0,0,0,4.23,4.3h54.53a4.27,4.27,0,0,0,4.23-4.3V25.83L177.34,11.5H132.73C130.4,11.5,128.5,15,128.5,17.4Z"/><path class="cls-10" d="M139,45.5h15a4.46,4.46,0,0,0,4.48-4.45V22.95A4.46,4.46,0,0,0,154,18.5H139a4.46,4.46,0,0,0-4.48,4.45V41.05A4.46,4.46,0,0,0,139,45.5Z"/><line class="cls-11" x1="137" y1="28.5" x2="156" y2="28.5"/><line class="cls-11" x1="137" y1="34.5" x2="156" y2="34.5"/><line class="cls-11" x1="150.5" y1="29" x2="150.5" y2="21"/><line class="cls-11" x1="142.5" y1="29" x2="142.5" y2="21"/><line class="cls-11" x1="150.5" y1="43" x2="150.5" y2="35"/><line class="cls-11" x1="142.5" y1="43" x2="142.5" y2="35"/><line class="cls-11" x1="166" y1="31.5" x2="180" y2="31.5"/><line class="cls-11" x1="181" y1="31.5" x2="186" y2="31.5"/><line class="cls-11" x1="186" y1="35.5" x2="172" y2="35.5"/><line class="cls-11" x1="170" y1="35.5" x2="166" y2="35.5"/><line class="cls-11" x1="166" y1="40.5" x2="180" y2="40.5"/><line class="cls-11" x1="181" y1="40.5" x2="186" y2="40.5"/></svg>
