<svg id="Livello_1" data-name="Livello 1" xmlns="http://www.w3.org/2000/svg" viewBox="0 0 192 64">
    <defs>
        <style>
            .cls-1,
            .cls-2,
            .cls-3,
            .cls-4,
            .cls-5 {
                fill: none;
                stroke-linejoin: round;
            }
            .cls-1 {
                stroke: #54595e;
            }
            .cls-2 {
                stroke: #aab2bd;
            }
            .cls-3 {
                stroke: #0069b2;
            }
            .cls-4 {
                stroke: #f48135;
            }
            .cls-5 {
                stroke: #fff;
            }
        </style>
        <view id="color" viewBox="0 0 64 64"/>
        <view id="grey" viewBox="64 0 64 64"/>
        <view id="white" viewBox="128 0 64 64"/>
    </defs><rect class="cls-1" x="76.5" y="0.5" width="39" height="50" rx="7.01" ry="7.01"/><circle class="cls-1" cx="96" cy="31.33" r="12.48"/><circle class="cls-2" cx="96" cy="31.33" r="4.16"/><ellipse class="cls-2" cx="96" cy="31.33" rx="7.28" ry="6.76"/><circle class="cls-2" cx="96" cy="10" r="3.25"/><path class="cls-1" d="M100.5,50v5.5h8.81a1.26,1.26,0,0,1,.89.37l5.51,5.51a1.24,1.24,0,0,1-.88,2.12H77.17a1.24,1.24,0,0,1-.88-2.12l5.51-5.51a1.25,1.25,0,0,1,.89-.37H91.5V50"/><line class="cls-1" x1="83.16" y1="59.48" x2="108.84" y2="59.48"/><rect class="cls-3" x="12.5" y="0.5" width="39" height="50" rx="7.01" ry="7.01"/><circle class="cls-3" cx="32" cy="31.33" r="12.48"/><circle class="cls-4" cx="32" cy="31.33" r="4.16"/><ellipse class="cls-4" cx="32" cy="31.33" rx="7.28" ry="6.76"/><circle class="cls-4" cx="32" cy="10" r="3.25"/><path class="cls-3" d="M36.5,50v5.5h8.81a1.26,1.26,0,0,1,.89.37l5.51,5.51a1.24,1.24,0,0,1-.88,2.12H13.17a1.24,1.24,0,0,1-.88-2.12l5.51-5.51a1.25,1.25,0,0,1,.89-.37H27.5V50"/><line class="cls-3" x1="19.16" y1="59.48" x2="44.84" y2="59.48"/><rect class="cls-5" x="140.5" y="0.5" width="39" height="50" rx="7.01" ry="7.01"/><circle class="cls-5" cx="160" cy="31.33" r="12.48"/><circle class="cls-5" cx="160" cy="31.33" r="4.16"/><ellipse class="cls-5" cx="160" cy="31.33" rx="7.28" ry="6.76"/><circle class="cls-5" cx="160" cy="10" r="3.25"/><path class="cls-5" d="M164.5,50v5.5h8.81a1.26,1.26,0,0,1,.89.37l5.51,5.51a1.24,1.24,0,0,1-.88,2.12H141.17a1.24,1.24,0,0,1-.88-2.12l5.51-5.51a1.25,1.25,0,0,1,.89-.37h8.81V50"/><line class="cls-5" x1="147.16" y1="59.48" x2="172.84" y2="59.48"/></svg>
