<svg id="Livello_1" data-name="Livello 1" xmlns="http://www.w3.org/2000/svg" viewBox="0 0 192 64">
    <defs>
        <style>
            .cls-1,
            .cls-3 {
                fill: #fff;
            }
            .cls-2 {
                fill: #0069b2;
            }
            .cls-3 {
                stroke: #0069b2;
            }
            .cls-3,
            .cls-6,
            .cls-8 {
                stroke-miterlimit: 10;
            }
            .cls-4,
            .cls-6,
            .cls-7,
            .cls-8,
            .cls-9 {
                fill: none;
            }
            .cls-4 {
                stroke: #f48135;
            }
            .cls-4,
            .cls-7,
            .cls-9 {
                stroke-linejoin: round;
            }
            .cls-5 {
                fill: #54595e;
            }
            .cls-6 {
                stroke: #54595e;
            }
            .cls-7 {
                stroke: #aab2bd;
            }
            .cls-8,
            .cls-9 {
                stroke: #fff;
            }
        </style>
        <view id="color" viewBox="0 0 64 64"/>
        <view id="grey" viewBox="64 0 64 64"/>
        <view id="white" viewBox="128 0 64 64"/>
    </defs><path class="cls-1" d="M2.8,57.5A2.3,2.3,0,0,1,.5,55.2V19.8a2.3,2.3,0,0,1,2.3-2.3H27.5V20A2.5,2.5,0,0,0,30,22.5h4A2.5,2.5,0,0,0,36.5,20V17.5H61.2a2.3,2.3,0,0,1,2.3,2.3V55.2a2.3,2.3,0,0,1-2.3,2.3Z"/><path
        class="cls-2"
        d="M61.2,18A1.8,1.8,0,0,1,63,19.8V55.2A1.8,1.8,0,0,1,61.2,57H2.8A1.8,1.8,0,0,1,1,55.2V19.8A1.8,1.8,0,0,1,2.8,18H27v2a3,3,0,0,0,3,3h4a3,3,0,0,0,3-3V18H61.2m0-1H36v3a2,2,0,0,1-2,2H30a2,2,0,0,1-2-2V17H2.8A2.8,2.8,0,0,0,0,19.8V55.2A2.8,2.8,0,0,0,2.8,58H61.2A2.8,2.8,0,0,0,64,55.2V19.8A2.8,2.8,0,0,0,61.2,17Z"/><path class="cls-3" d="M36.5,19V7.93A2.47,2.47,0,0,0,34,5.5H30a2.47,2.47,0,0,0-2.5,2.43V19"/><line class="cls-4" x1="36" y1="32.5" x2="56" y2="32.5"/><line class="cls-4" x1="36" y1="38.5" x2="56" y2="38.5"/><line class="cls-4" x1="36" y1="44.5" x2="56" y2="44.5"/><path
        class="cls-2"
        d="M28,45.76c0-3.21-3.19-5.69-6.22-6.57,1.25-1.8,3.16-4.49,3.27-6.69a5.52,5.52,0,1,0-11,0c.11,2.21,1.85,4.9,3.11,6.69-3,.88-6.1,3.14-6.12,6.34V47H28Zm-8.51-17a4.12,4.12,0,0,1,3.64,3.71c0,2.16-2.34,6.44-3.71,6.44s-3.64-4.15-3.64-6.31A4.32,4.32,0,0,1,19.49,28.75ZM11.86,46c.6-1.77,2-5,6.67-5h1.67c5,0,6.67,3.33,6.67,5Z"/><path
        class="cls-5"
        d="M125.2,18a1.8,1.8,0,0,1,1.8,1.8V55.2a1.8,1.8,0,0,1-1.8,1.8H66.8A1.8,1.8,0,0,1,65,55.2V19.8A1.8,1.8,0,0,1,66.8,18H91v2a3,3,0,0,0,3,3h4a3,3,0,0,0,3-3V18h24.2m0-1H100v3a2,2,0,0,1-2,2H94a2,2,0,0,1-2-2V17H66.8A2.8,2.8,0,0,0,64,19.8V55.2A2.8,2.8,0,0,0,66.8,58h58.4a2.8,2.8,0,0,0,2.8-2.8V19.8a2.8,2.8,0,0,0-2.8-2.8Z"/><path class="cls-6" d="M100.5,19V7.93A2.47,2.47,0,0,0,98,5.5H94a2.47,2.47,0,0,0-2.5,2.43V19"/><line class="cls-7" x1="100" y1="32.5" x2="120" y2="32.5"/><line class="cls-7" x1="100" y1="38.5" x2="120" y2="38.5"/><line class="cls-7" x1="100" y1="44.5" x2="120" y2="44.5"/><path
        class="cls-5"
        d="M92,45.76c0-3.21-3.19-5.69-6.22-6.57,1.25-1.8,3.16-4.49,3.27-6.69a5.52,5.52,0,1,0-11,0c.11,2.21,1.85,4.9,3.11,6.69-3,.88-6.1,3.14-6.12,6.34V47H92Zm-8.51-17a4.12,4.12,0,0,1,3.64,3.71c0,2.16-2.34,6.44-3.71,6.44s-3.64-4.15-3.64-6.31A4.32,4.32,0,0,1,83.49,28.75ZM75.86,46c.6-1.77,2-5,6.67-5h1.67c5,0,6.67,3.33,6.67,5Z"/><path
        class="cls-1"
        d="M189.2,18a1.8,1.8,0,0,1,1.8,1.8V55.2a1.8,1.8,0,0,1-1.8,1.8H130.8a1.8,1.8,0,0,1-1.8-1.8V19.8a1.8,1.8,0,0,1,1.8-1.8H155v2a3,3,0,0,0,3,3h4a3,3,0,0,0,3-3V18h24.2m0-1H164v3a2,2,0,0,1-2,2h-4a2,2,0,0,1-2-2V17H130.8a2.8,2.8,0,0,0-2.8,2.8V55.2a2.8,2.8,0,0,0,2.8,2.8h58.4a2.8,2.8,0,0,0,2.8-2.8V19.8a2.8,2.8,0,0,0-2.8-2.8Z"/><path class="cls-8" d="M164.5,19V7.93A2.47,2.47,0,0,0,162,5.5h-4a2.47,2.47,0,0,0-2.5,2.43V19"/><line class="cls-9" x1="164" y1="32.5" x2="184" y2="32.5"/><line class="cls-9" x1="164" y1="38.5" x2="184" y2="38.5"/><line class="cls-9" x1="164" y1="44.5" x2="184" y2="44.5"/><path
        class="cls-1"
        d="M156,45.76c0-3.21-3.19-5.69-6.22-6.57,1.25-1.8,3.16-4.49,3.27-6.69a5.52,5.52,0,1,0-11,0c.11,2.21,1.85,4.9,3.11,6.69-3,.88-6.1,3.14-6.12,6.34V47h17Zm-8.51-17a4.12,4.12,0,0,1,3.64,3.71c0,2.16-2.34,6.44-3.71,6.44s-3.64-4.15-3.64-6.31A4.32,4.32,0,0,1,147.49,28.75ZM139.86,46c.6-1.77,2-5,6.67-5h1.67c5,0,6.67,3.33,6.67,5Z"/></svg>
