<svg id="Livello_1" data-name="Livello 1" xmlns="http://www.w3.org/2000/svg" viewBox="0 0 192 64">
    <defs>
        <style>
            .cls-1 {
                fill: #0069b2;
            }
            .cls-2,
            .cls-3,
            .cls-5,
            .cls-6,
            .cls-8,
            .cls-9 {
                fill: none;
                stroke-linejoin: round;
            }
            .cls-2,
            .cls-3 {
                stroke: #f48135;
            }
            .cls-2,
            .cls-5,
            .cls-8 {
                stroke-linecap: round;
            }
            .cls-4 {
                fill: #54595e;
            }
            .cls-5,
            .cls-6 {
                stroke: #aab2bd;
            }
            .cls-7 {
                fill: #fff;
            }
            .cls-8,
            .cls-9 {
                stroke: #fff;
            }
        </style>
        <view id="color" viewBox="0 0 64 64"/>
        <view id="grey" viewBox="64 0 64 64"/>
        <view id="white" viewBox="128 0 64 64"/>
    </defs><path class="cls-1" d="M32,1A31,31,0,1,1,1,32,31,31,0,0,1,32,1m0-1A32,32,0,1,0,64,32,32,32,0,0,0,32,0Z"/><polyline class="cls-2" points="15.15 33.98 32.04 51.2 48.85 34.06"/><line class="cls-3" x1="32" y1="51.51" x2="32" y2="14.05"/><path class="cls-4" d="M96,1A31,31,0,1,1,65,32,31,31,0,0,1,96,1m0-1a32,32,0,1,0,32,32A32,32,0,0,0,96,0Z"/><polyline class="cls-5" points="79.15 33.98 96.04 51.2 112.85 34.06"/><line class="cls-6" x1="96" y1="51.51" x2="96" y2="14.05"/><path class="cls-7" d="M160,1a31,31,0,1,1-31,31A31,31,0,0,1,160,1m0-1a32,32,0,1,0,32,32A32,32,0,0,0,160,0Z"/><polyline class="cls-8" points="143.15 33.98 160.04 51.2 176.85 34.06"/><line class="cls-9" x1="160" y1="51.51" x2="160" y2="14.05"/></svg>
