<svg id="Livello_1" data-name="Livello 1" xmlns="http://www.w3.org/2000/svg" viewBox="0 0 192 64">
    <defs>
        <style>
            .cls-1 {
                fill: #54595e;
            }
            .cls-2,
            .cls-5,
            .cls-8 {
                fill: none;
                stroke-linecap: round;
                stroke-linejoin: round;
            }
            .cls-2 {
                stroke: #54595e;
            }
            .cls-3,
            .cls-6 {
                fill: #aab2bd;
            }
            .cls-4 {
                fill: #0069b2;
            }
            .cls-5 {
                stroke: #0069b2;
            }
            .cls-6 {
                stroke: #f48135;
                stroke-miterlimit: 10;
            }
            .cls-7 {
                fill: #fff;
            }
            .cls-8 {
                stroke: #fff;
            }
        </style>
        <view id="color" viewBox="0 0 64 64"/>
        <view id="grey" viewBox="64 0 64 64"/>
        <view id="white" viewBox="128 0 64 64"/>
    </defs><path
        class="cls-1"
        d="M112.69,1A3.31,3.31,0,0,1,116,4.31V59.69A3.31,3.31,0,0,1,112.69,63H79.31A3.31,3.31,0,0,1,76,59.69V4.31A3.31,3.31,0,0,1,79.31,1h33.38m0-1H79.31A4.31,4.31,0,0,0,75,4.31V59.69A4.31,4.31,0,0,0,79.31,64h33.38A4.31,4.31,0,0,0,117,59.69V4.31A4.31,4.31,0,0,0,112.69,0Z"/><rect class="cls-2" x="80.48" y="4.5" width="31.03" height="47"/><path class="cls-3" d="M96,53.81a3.81,3.81,0,1,0,3.86,3.81A3.83,3.83,0,0,0,96,53.81Zm0,6.1a2.29,2.29,0,1,1,2.31-2.29A2.3,2.3,0,0,1,96,59.9Z"/><path
        class="cls-4"
        d="M48.69,1A3.31,3.31,0,0,1,52,4.31V59.69A3.31,3.31,0,0,1,48.69,63H15.31A3.31,3.31,0,0,1,12,59.69V4.31A3.31,3.31,0,0,1,15.31,1H48.69m0-1H15.31A4.31,4.31,0,0,0,11,4.31V59.69A4.31,4.31,0,0,0,15.31,64H48.69A4.31,4.31,0,0,0,53,59.69V4.31A4.31,4.31,0,0,0,48.69,0Z"/><rect class="cls-5" x="16.48" y="4.5" width="31.03" height="47"/><path class="cls-6" d="M32,53.81a3.81,3.81,0,1,0,3.86,3.81A3.83,3.83,0,0,0,32,53.81Zm0,6.1a2.29,2.29,0,1,1,2.31-2.29A2.3,2.3,0,0,1,32,59.9Z"/><path
        class="cls-7"
        d="M176.69,1A3.31,3.31,0,0,1,180,4.31V59.69A3.31,3.31,0,0,1,176.69,63H143.31A3.31,3.31,0,0,1,140,59.69V4.31A3.31,3.31,0,0,1,143.31,1h33.38m0-1H143.31A4.31,4.31,0,0,0,139,4.31V59.69A4.31,4.31,0,0,0,143.31,64h33.38A4.31,4.31,0,0,0,181,59.69V4.31A4.31,4.31,0,0,0,176.69,0Z"/><rect class="cls-8" x="144.48" y="4.5" width="31.03" height="47"/><path class="cls-7" d="M160,53.81a3.81,3.81,0,1,0,3.86,3.81A3.83,3.83,0,0,0,160,53.81Zm0,6.1a2.29,2.29,0,1,1,2.31-2.29A2.3,2.3,0,0,1,160,59.9Z"/></svg>
