<svg id="Livello_1" data-name="Livello 1" xmlns="http://www.w3.org/2000/svg" viewBox="0 0 192 64">
    <defs>
        <style>
            .cls-1,
            .cls-2,
            .cls-3 {
                fill: none;
                stroke-miterlimit: 10;
            }
            .cls-1 {
                stroke: #0069b2;
            }
            .cls-2 {
                stroke: #54595e;
            }
            .cls-3 {
                stroke: #fff;
            }
            .cls-4 {
                fill: #f48135;
            }
            .cls-5 {
                fill: #aab2bd;
            }
            .cls-6 {
                fill: #fff;
            }
        </style>
        <view id="color" viewBox="0 0 64 64"/>
        <view id="grey" viewBox="64 0 64 64"/>
        <view id="white" viewBox="128 0 64 64"/>
    </defs><path class="cls-1" d="M12.82.5a2.54,2.54,0,0,0-2.49,2.59V60.91a2.54,2.54,0,0,0,2.49,2.59H51.18a2.54,2.54,0,0,0,2.49-2.59V20.15a2.54,2.54,0,0,0-2.49-2.59H39.75A2.54,2.54,0,0,1,37.26,15l0-11.88A2.54,2.54,0,0,0,34.74.5Z"/><path class="cls-1" d="M36.58,1.34,53,18.39Z"/><path class="cls-2" d="M76.82.5a2.54,2.54,0,0,0-2.49,2.59V60.91a2.54,2.54,0,0,0,2.49,2.59h38.36a2.54,2.54,0,0,0,2.49-2.59V20.15a2.54,2.54,0,0,0-2.49-2.59H103.75A2.54,2.54,0,0,1,101.26,15l0-11.88A2.54,2.54,0,0,0,98.74.5Z"/><path class="cls-2" d="M100.58,1.34,117,18.39Z"/><path class="cls-3" d="M140.82.5a2.54,2.54,0,0,0-2.49,2.59V60.91a2.54,2.54,0,0,0,2.49,2.59h38.36a2.54,2.54,0,0,0,2.49-2.59V20.15a2.54,2.54,0,0,0-2.49-2.59H167.75A2.54,2.54,0,0,1,165.26,15l0-11.88A2.54,2.54,0,0,0,162.74.5Z"/><path class="cls-3" d="M164.58,1.34,181,18.39Z"/><path class="cls-4" d="M16.65,57.5v-13h4.54c2.77,0,4,1.58,4,3.64s-1.5,3.57-4.77,3.57h-2.3v5.8Zm1.44-7h2.45c2.39,0,3.19-.83,3.19-2.38s-.92-2.38-2.86-2.38H18.09Z"/><path class="cls-4" d="M27.64,44.5h3.49C34.66,44.5,37,46.73,37,51c0,3.82-2.05,6.5-5.94,6.5H27.64Zm1.44,11.78H31c3,0,4.54-1.78,4.54-5.28,0-3.8-1.8-5.28-4.46-5.28h-2Z"/><path class="cls-4" d="M47.35,44.5v1.22H41.09v4.36h4.65v1.22H41.09V57.5H39.65v-13Z"/><path class="cls-5" d="M80.65,57.5v-13h4.54c2.77,0,4,1.58,4,3.64s-1.5,3.57-4.77,3.57h-2.3v5.8Zm1.44-7h2.45c2.39,0,3.19-.83,3.19-2.38s-.92-2.38-2.86-2.38H82.09Z"/><path class="cls-5" d="M91.64,44.5h3.49c3.53,0,5.87,2.23,5.87,6.5,0,3.82-2.05,6.5-5.94,6.5H91.64Zm1.44,11.78H95c3,0,4.54-1.78,4.54-5.28,0-3.8-1.8-5.28-4.46-5.28h-2Z"/><path class="cls-5" d="M111.35,44.5v1.22h-6.27v4.36h4.65v1.22h-4.65V57.5h-1.44v-13Z"/><path class="cls-6" d="M144.65,57.5v-13h4.54c2.77,0,4,1.58,4,3.64s-1.5,3.57-4.77,3.57h-2.3v5.8Zm1.44-7h2.45c2.39,0,3.19-.83,3.19-2.38s-.92-2.38-2.86-2.38h-2.77Z"/><path class="cls-6" d="M155.64,44.5h3.49c3.53,0,5.87,2.23,5.87,6.5,0,3.82-2.05,6.5-5.94,6.5h-3.42Zm1.44,11.78H159c3,0,4.54-1.78,4.54-5.28,0-3.8-1.8-5.28-4.46-5.28h-2Z"/><path class="cls-6" d="M175.35,44.5v1.22h-6.27v4.36h4.65v1.22h-4.65V57.5h-1.44v-13Z"/></svg>
