<svg id="Livello_1" data-name="Livello 1" xmlns="http://www.w3.org/2000/svg" viewBox="0 0 192 64">
    <defs>
        <style>
            .cls-1,
            .cls-2,
            .cls-3,
            .cls-4,
            .cls-5,
            .cls-6 {
                fill: none;
                stroke-miterlimit: 10;
            }
            .cls-1 {
                stroke: #f48135;
            }
            .cls-1,
            .cls-3,
            .cls-5 {
                stroke-linecap: round;
            }
            .cls-2 {
                stroke: #0069b2;
            }
            .cls-3 {
                stroke: #aab2bd;
            }
            .cls-4 {
                stroke: #54595e;
            }
            .cls-5,
            .cls-6 {
                stroke: #fff;
            }
        </style>
        <view id="color" viewBox="0 0 64 64"/>
        <view id="grey" viewBox="64 0 64 64"/>
        <view id="white" viewBox="128 0 64 64"/>
    </defs><polyline class="cls-1" points="28.6 12.47 14.05 12.47 21.87 12.47"/><polyline class="cls-1" points="26.68 16.47 14.05 16.47 21.87 16.47"/><line class="cls-1" x1="45.92" y1="24.48" x2="15.13" y2="24.48"/><line class="cls-1" x1="15.13" y1="29.48" x2="48.81" y2="29.48"/><line class="cls-1" x1="15.13" y1="35.48" x2="43.04" y2="35.48"/><line class="cls-1" x1="15.13" y1="40.49" x2="47.85" y2="40.49"/><line class="cls-1" x1="15.13" y1="45.49" x2="49.77" y2="45.49"/><line class="cls-1" x1="15.13" y1="51.49" x2="45.92" y2="51.49"/><line class="cls-1" x1="15.13" y1="56.5" x2="39.19" y2="56.5"/><polyline class="cls-1" points="21.87 8.46 14.05 8.46 21.87 8.46"/><path class="cls-2" d="M12.82.5a2.54,2.54,0,0,0-2.49,2.59V60.91a2.54,2.54,0,0,0,2.49,2.59H51.18a2.54,2.54,0,0,0,2.49-2.59V20.15a2.54,2.54,0,0,0-2.49-2.59H39.75A2.54,2.54,0,0,1,37.26,15l0-11.88A2.54,2.54,0,0,0,34.74.5Z"/><path class="cls-2" d="M36.58,1.34,53,18.39Z"/><polyline class="cls-3" points="92.6 12.47 78.06 12.47 85.87 12.47"/><polyline class="cls-3" points="90.68 16.47 78.06 16.47 85.87 16.47"/><line class="cls-3" x1="109.92" y1="24.48" x2="79.13" y2="24.48"/><line class="cls-3" x1="79.13" y1="29.48" x2="112.81" y2="29.48"/><line class="cls-3" x1="79.13" y1="35.48" x2="107.04" y2="35.48"/><line class="cls-3" x1="79.13" y1="40.49" x2="111.85" y2="40.49"/><line class="cls-3" x1="79.13" y1="45.49" x2="113.77" y2="45.49"/><line class="cls-3" x1="79.13" y1="51.49" x2="109.92" y2="51.49"/><line class="cls-3" x1="79.13" y1="56.5" x2="103.19" y2="56.5"/><polyline class="cls-3" points="85.87 8.46 78.06 8.46 85.87 8.46"/><path class="cls-4" d="M76.82.5a2.54,2.54,0,0,0-2.49,2.59V60.91a2.54,2.54,0,0,0,2.49,2.59h38.36a2.54,2.54,0,0,0,2.49-2.59V20.15a2.54,2.54,0,0,0-2.49-2.59H103.75A2.54,2.54,0,0,1,101.26,15l0-11.88A2.54,2.54,0,0,0,98.74.5Z"/><path class="cls-4" d="M100.58,1.34,117,18.39Z"/><polyline class="cls-5" points="156.6 12.47 142.06 12.47 149.87 12.47"/><polyline class="cls-5" points="154.68 16.47 142.06 16.47 149.87 16.47"/><line class="cls-5" x1="173.92" y1="24.48" x2="143.13" y2="24.48"/><line class="cls-5" x1="143.13" y1="29.48" x2="176.81" y2="29.48"/><line class="cls-5" x1="143.13" y1="35.48" x2="171.04" y2="35.48"/><line class="cls-5" x1="143.13" y1="40.49" x2="175.85" y2="40.49"/><line class="cls-5" x1="143.13" y1="45.49" x2="177.77" y2="45.49"/><line class="cls-5" x1="143.13" y1="51.49" x2="173.92" y2="51.49"/><line class="cls-5" x1="143.13" y1="56.5" x2="167.19" y2="56.5"/><polyline class="cls-5" points="149.87 8.46 142.06 8.46 149.87 8.46"/><path class="cls-6" d="M140.82.5a2.54,2.54,0,0,0-2.49,2.59V60.91a2.54,2.54,0,0,0,2.49,2.59h38.36a2.54,2.54,0,0,0,2.49-2.59V20.15a2.54,2.54,0,0,0-2.49-2.59H167.75A2.54,2.54,0,0,1,165.26,15l0-11.88A2.54,2.54,0,0,0,162.74.5Z"/><path class="cls-6" d="M164.58,1.34,181,18.39Z"/></svg>
