<svg id="Livello_1" data-name="Livello 1" xmlns="http://www.w3.org/2000/svg" viewBox="0 0 192 64">
    <defs>
        <style>
            .cls-1,
            .cls-2,
            .cls-3,
            .cls-4,
            .cls-5 {
                fill: none;
                stroke-linecap: round;
                stroke-linejoin: round;
            }
            .cls-1 {
                stroke: #0069b2;
            }
            .cls-2 {
                stroke: #f48135;
            }
            .cls-3 {
                stroke: #54595e;
            }
            .cls-4 {
                stroke: #aab2bd;
            }
            .cls-5 {
                stroke: #fff;
            }
        </style>
        <view id="color" viewBox="0 0 64 64"/>
        <view id="grey" viewBox="64 0 64 64"/>
        <view id="white" viewBox="128 0 64 64"/>
    </defs><path class="cls-1" d="M55.32,3.3H8.51a5.15,5.15,0,0,0-5,5.28V43a5.15,5.15,0,0,0,5,5.28h10V60.7L28,48.3H55.32A5.23,5.23,0,0,0,60.5,43V8.58A5.23,5.23,0,0,0,55.32,3.3Z"/><path
        class="cls-1"
        d="M38.27,41.3H9.83a1.28,1.28,0,0,1-1.15-1.9L22.9,14.54a1.34,1.34,0,0,1,2.3,0L39.42,39.4A1.28,1.28,0,0,1,38.27,41.3Zm16,0H45.58a1.25,1.25,0,0,1-1.09-.62L38.62,30.31a1.2,1.2,0,0,1,0-1.2l4.25-7.28a1.25,1.25,0,0,1,2.15,0L55.32,39.48A1.22,1.22,0,0,1,54.24,41.3Z"/><path class="cls-2" d="M36.19,8.74a4.57,4.57,0,1,1-4.66,4.57A4.62,4.62,0,0,1,36.19,8.74Z"/><path class="cls-3" d="M119.32,3.3H72.51a5.15,5.15,0,0,0-5,5.28V43a5.15,5.15,0,0,0,5,5.28h10V60.7L92,48.3h27.32A5.23,5.23,0,0,0,124.5,43V8.58A5.23,5.23,0,0,0,119.32,3.3Z"/><path
        class="cls-3"
        d="M102.27,41.3H73.83a1.28,1.28,0,0,1-1.15-1.9L86.9,14.54a1.34,1.34,0,0,1,2.3,0L103.42,39.4A1.28,1.28,0,0,1,102.27,41.3Zm16,0h-8.66a1.25,1.25,0,0,1-1.09-.62l-5.87-10.37a1.2,1.2,0,0,1,0-1.2l4.25-7.28a1.25,1.25,0,0,1,2.15,0l10.29,17.65A1.22,1.22,0,0,1,118.24,41.3Z"/><path class="cls-4" d="M100.19,8.74a4.57,4.57,0,1,1-4.66,4.57A4.62,4.62,0,0,1,100.19,8.74Z"/><path class="cls-5" d="M183.32,3.3H136.51a5.15,5.15,0,0,0-5,5.28V43a5.15,5.15,0,0,0,5,5.28h10V60.7L156,48.3h27.32A5.23,5.23,0,0,0,188.5,43V8.58A5.23,5.23,0,0,0,183.32,3.3Z"/><path
        class="cls-5"
        d="M166.27,41.3H137.83a1.28,1.28,0,0,1-1.15-1.9L150.9,14.54a1.34,1.34,0,0,1,2.3,0L167.42,39.4A1.28,1.28,0,0,1,166.27,41.3Zm16,0h-8.66a1.25,1.25,0,0,1-1.09-.62l-5.87-10.37a1.2,1.2,0,0,1,0-1.2l4.25-7.28a1.25,1.25,0,0,1,2.15,0l10.29,17.65A1.22,1.22,0,0,1,182.24,41.3Z"/><path class="cls-5" d="M164.19,8.74a4.57,4.57,0,1,1-4.66,4.57A4.62,4.62,0,0,1,164.19,8.74Z"/></svg>
