<svg id="Livello_1" data-name="Livello 1" xmlns="http://www.w3.org/2000/svg" viewBox="0 0 64 64">
    <defs>
        <style>
            .cls-1 {
                fill: #f9f9f9;
            }
            .cls-2 {
                fill: #0066b2;
            }
            .cls-3 {
                fill: #f9a533;
            }
        </style>
    </defs>
    <rect class="cls-1" y="12" width="64" height="40" rx="2.13" ry="2.13"/>
    <polygon class="cls-2" points="29.45 38.01 26.33 38.01 28.28 26 31.41 26 29.45 38.01"/>
    <path class="cls-2" d="M23.7,26l-3,8.26-.35-1.78h0l-1.05-5.4A1.34,1.34,0,0,0,17.83,26H12.9l-.06.2a11.68,11.68,0,0,1,3.27,1.37L18.83,38h3.26l5-12Z"/>
    <path class="cls-2" d="M48.29,38h2.87l-2.5-12H46.14a1.44,1.44,0,0,0-1.44.89L40,38h3.26l.65-1.78h4Zm-3.44-4.25,1.64-4.49.92,4.49Z"/>
    <path class="cls-2" d="M40.28,28.89l.45-2.58a9,9,0,0,0-2.81-.52c-1.55,0-5.24.68-5.24,4,0,3.1,4.32,3.14,4.32,4.77s-3.88,1.34-5.16.31l-.46,2.7a8.75,8.75,0,0,0,3.53.68c2.13,0,5.35-1.1,5.35-4.11s-4.36-3.41-4.36-4.77S38.94,28.15,40.28,28.89Z"/>
    <path class="cls-3" d="M20.36,32.48l-1.05-5.4A1.34,1.34,0,0,0,17.83,26H12.9l-.06.2a12.12,12.12,0,0,1,4.64,2.33A9.35,9.35,0,0,1,20.36,32.48Z"/>
  </svg>
