<svg id="Livello_1" data-name="Livello 1" xmlns="http://www.w3.org/2000/svg" viewBox="0 0 192 64">
    <defs>
        <style>
            .cls-1,
            .cls-3,
            .cls-5 {
                fill: none;
            }
            .cls-1 {
                stroke: #0069b2;
            }
            .cls-1,
            .cls-2,
            .cls-3,
            .cls-4,
            .cls-5 {
                stroke-linecap: round;
                stroke-linejoin: round;
            }
            .cls-2,
            .cls-4 {
                fill: #fff;
            }
            .cls-2 {
                stroke: #f48135;
            }
            .cls-3 {
                stroke: #54595e;
            }
            .cls-4 {
                stroke: #aab2bd;
            }
            .cls-5 {
                stroke: #fff;
            }
        </style>
        <view id="color" viewBox="0 0 64 64"/>
        <view id="grey" viewBox="64 0 64 64"/>
        <view id="white" viewBox="128 0 64 64"/>
    </defs><rect class="cls-1" x="0.5" y="6.51" width="63" height="50.97" rx="2" ry="2"/><line class="cls-2" x1="21.98" y1="34.01" x2="39.85" y2="41.45"/><line class="cls-2" x1="39.89" y1="22.5" x2="21.98" y2="29.89"/><circle class="cls-1" cx="17.02" cy="31.94" r="5.37" transform="matrix(0.93, -0.38, 0.38, 0.93, -10.75, 8.73)"/><circle class="cls-1" cx="44.83" cy="20.41" r="5.37" transform="translate(-4.38 18.33) rotate(-22.06)"/><circle class="cls-1" cx="44.83" cy="43.47" r="5.37" transform="translate(-13.04 20.02) rotate(-22.06)"/><rect class="cls-3" x="64.5" y="6.51" width="63" height="50.97" rx="2" ry="2"/><line class="cls-4" x1="85.98" y1="34.01" x2="103.85" y2="41.45"/><line class="cls-4" x1="103.89" y1="22.5" x2="85.98" y2="29.89"/><circle class="cls-3" cx="81.02" cy="31.94" r="5.37" transform="translate(-6.06 32.76) rotate(-22.06)"/><circle class="cls-3" cx="108.83" cy="20.41" r="5.37" transform="translate(0.3 42.37) rotate(-22.06)"/><circle class="cls-3" cx="108.83" cy="43.47" r="5.37" transform="translate(-8.36 44.05) rotate(-22.06)"/><rect class="cls-5" x="128.5" y="6.51" width="63" height="50.97" rx="2" ry="2"/><line class="cls-5" x1="149.98" y1="34.01" x2="167.85" y2="41.45"/><line class="cls-5" x1="167.89" y1="22.5" x2="149.98" y2="29.89"/><circle class="cls-5" cx="145.02" cy="31.94" r="5.37" transform="translate(-1.38 56.8) rotate(-22.06)"/><circle class="cls-5" cx="172.83" cy="20.41" r="5.37" transform="translate(4.99 66.4) rotate(-22.06)"/><circle class="cls-5" cx="172.83" cy="43.47" r="5.37" transform="translate(-3.67 68.09) rotate(-22.06)"/></svg>
