<svg id="Livello_1" data-name="Livello 1" xmlns="http://www.w3.org/2000/svg" viewBox="0 0 192 64">
    <defs>
        <style>
            .cls-1,
            .cls-2,
            .cls-3,
            .cls-4,
            .cls-5 {
                fill: none;
                stroke-miterlimit: 10;
            }
            .cls-1 {
                stroke: #0069b2;
            }
            .cls-2 {
                stroke: #f48135;
            }
            .cls-3 {
                stroke: #54595e;
            }
            .cls-4 {
                stroke: #aab2bd;
            }
            .cls-5 {
                stroke: #fff;
            }
        </style>
        <view id="color" viewBox="0 0 64 64"/>
        <view id="grey" viewBox="64 0 64 64"/>
        <view id="white" viewBox="128 0 64 64"/>
    </defs><path class="cls-1" d="M50,32l.11-11.85a2.57,2.57,0,0,0-2.54-2.59H35.9A2.57,2.57,0,0,1,33.36,15l0-11.88A2.57,2.57,0,0,0,30.78.5H8.4A2.57,2.57,0,0,0,5.86,3.09V60.91A2.57,2.57,0,0,0,8.4,63.5H47.57a2.57,2.57,0,0,0,2.54-2.59V53.14"/><path class="cls-1" d="M32.7,1.38,49.27,18.23Z"/><rect class="cls-1" x="25.5" y="32.5" width="33" height="21" rx="2.8" ry="2.8"/><polyline class="cls-1" points="25 40.5 58.5 40.5 58.5 35.5 25 35.5"/><line class="cls-2" x1="34" y1="43.5" x2="27" y2="43.5"/><line class="cls-2" x1="27" y1="46.5" x2="36" y2="46.5"/><line class="cls-2" x1="39" y1="49.5" x2="27" y2="49.5"/><path class="cls-1" d="M52.52,47a3.69,3.69,0,0,1-1.64,3.08,3.55,3.55,0,0,0,3.63.18A3.71,3.71,0,0,0,54.9,44a3.56,3.56,0,0,0-4,0"/><path class="cls-1" d="M50.88,43.95,51,44a3.72,3.72,0,0,1-.07,6.12l-.31.18a3.54,3.54,0,0,1-1.66.41,3.68,3.68,0,0,1,0-7.36A3.55,3.55,0,0,1,50.88,43.95Z"/><path class="cls-3" d="M113.82,32l.11-11.85a2.57,2.57,0,0,0-2.54-2.59H99.72A2.57,2.57,0,0,1,97.18,15l0-11.88A2.57,2.57,0,0,0,94.6.5H72.22a2.57,2.57,0,0,0-2.54,2.59V60.91a2.57,2.57,0,0,0,2.54,2.59h39.17a2.57,2.57,0,0,0,2.54-2.59V53.14"/><path class="cls-3" d="M96.52,1.38l16.57,16.86Z"/><rect class="cls-3" x="89.5" y="32.5" width="33" height="21" rx="2.8" ry="2.8"/><polyline class="cls-3" points="89 40.5 122.5 40.5 122.5 35.5 89 35.5"/><line class="cls-4" x1="98" y1="43.5" x2="91" y2="43.5"/><line class="cls-4" x1="91" y1="46.5" x2="100" y2="46.5"/><line class="cls-4" x1="103" y1="49.5" x2="91" y2="49.5"/><path class="cls-3" d="M116.34,47a3.69,3.69,0,0,1-1.64,3.08,3.55,3.55,0,0,0,3.63.18,3.71,3.71,0,0,0,.38-6.3,3.56,3.56,0,0,0-4,0"/><path class="cls-3" d="M114.7,43.95l.07,0a3.72,3.72,0,0,1-.07,6.12l-.31.18a3.54,3.54,0,0,1-1.66.41,3.68,3.68,0,0,1,0-7.36A3.55,3.55,0,0,1,114.7,43.95Z"/><path class="cls-5" d="M177.82,32l.11-11.85a2.57,2.57,0,0,0-2.54-2.59H163.72A2.57,2.57,0,0,1,161.18,15l0-11.88A2.57,2.57,0,0,0,158.6.5H136.22a2.57,2.57,0,0,0-2.54,2.59V60.91a2.57,2.57,0,0,0,2.54,2.59h39.17a2.57,2.57,0,0,0,2.54-2.59V53.14"/><path class="cls-5" d="M160.52,1.38l16.57,16.86Z"/><rect class="cls-5" x="153.5" y="32.5" width="33" height="21" rx="2.8" ry="2.8"/><polyline class="cls-5" points="153 40.5 186.5 40.5 186.5 35.5 153 35.5"/><line class="cls-5" x1="162" y1="43.5" x2="155" y2="43.5"/><line class="cls-5" x1="155" y1="46.5" x2="164" y2="46.5"/><line class="cls-5" x1="167" y1="49.5" x2="155" y2="49.5"/><path class="cls-5" d="M180.34,47a3.69,3.69,0,0,1-1.64,3.08,3.55,3.55,0,0,0,3.63.18,3.71,3.71,0,0,0,.38-6.3,3.56,3.56,0,0,0-4,0"/><path class="cls-5" d="M178.7,43.95l.07,0a3.72,3.72,0,0,1-.07,6.12l-.31.18a3.54,3.54,0,0,1-1.66.41,3.68,3.68,0,0,1,0-7.36A3.55,3.55,0,0,1,178.7,43.95Z"/></svg>
