<svg id="Livello_1" data-name="Livello 1" xmlns="http://www.w3.org/2000/svg" viewBox="0 0 192 64">
    <defs>
        <style>
            .cls-1,
            .cls-3,
            .cls-4,
            .cls-6,
            .cls-7,
            .cls-9 {
                fill: none;
            }
            .cls-1 {
                stroke: #0069b2;
            }
            .cls-1,
            .cls-4,
            .cls-7 {
                stroke-miterlimit: 10;
            }
            .cls-2 {
                fill: #0069b2;
            }
            .cls-3 {
                stroke: #f48135;
            }
            .cls-3,
            .cls-6,
            .cls-9 {
                stroke-linejoin: round;
            }
            .cls-4 {
                stroke: #54595e;
            }
            .cls-5 {
                fill: #54595e;
            }
            .cls-6 {
                stroke: #aab2bd;
            }
            .cls-7,
            .cls-9 {
                stroke: #fff;
            }
            .cls-8 {
                fill: #fff;
            }
        </style>
        <view id="color" viewBox="0 0 64 64"/>
        <view id="grey" viewBox="64 0 64 64"/>
        <view id="white" viewBox="128 0 64 64"/>
    </defs><path class="cls-1" d="M43.75,13.5a3.5,3.5,0,0,1,.75.08V2.13A1.57,1.57,0,0,0,43,.5H40a1.57,1.57,0,0,0-1.5,1.63V13.5Z"/><path class="cls-1" d="M19.47,13.5H43.53a4,4,0,0,1,4,4V59.53a4,4,0,0,1-4,4H21.06a5.56,5.56,0,0,1-5.56-5.56V17.47A4,4,0,0,1,19.47,13.5Z"/><path
        class="cls-2"
        d="M41.62,23A1.39,1.39,0,0,1,43,24.38v6.23A1.39,1.39,0,0,1,41.62,32H22.38A1.39,1.39,0,0,1,21,30.62V24.38A1.39,1.39,0,0,1,22.38,23H41.62m0-1H22.38A2.38,2.38,0,0,0,20,24.38v6.23A2.38,2.38,0,0,0,22.38,33H41.62A2.38,2.38,0,0,0,44,30.62V24.38A2.38,2.38,0,0,0,41.62,22Z"/><line class="cls-3" x1="22" y1="39.5" x2="26" y2="39.5"/><line class="cls-3" x1="30" y1="39.5" x2="34" y2="39.5"/><line class="cls-3" x1="38" y1="39.5" x2="42" y2="39.5"/><line class="cls-3" x1="22" y1="46.5" x2="26" y2="46.5"/><line class="cls-3" x1="30" y1="46.5" x2="34" y2="46.5"/><line class="cls-3" x1="38" y1="46.5" x2="42" y2="46.5"/><line class="cls-3" x1="22" y1="52.5" x2="26" y2="52.5"/><line class="cls-3" x1="30" y1="52.5" x2="34" y2="52.5"/><line class="cls-3" x1="38" y1="52.5" x2="42" y2="52.5"/><path class="cls-4" d="M107.75,13.5a3.5,3.5,0,0,1,.75.08V2.13A1.57,1.57,0,0,0,107,.5h-3a1.57,1.57,0,0,0-1.5,1.63V13.5Z"/><path class="cls-4" d="M83.47,13.5h24.05a4,4,0,0,1,4,4V59.53a4,4,0,0,1-4,4H85.06a5.56,5.56,0,0,1-5.56-5.56V17.47A4,4,0,0,1,83.47,13.5Z"/><path
        class="cls-5"
        d="M105.62,23A1.39,1.39,0,0,1,107,24.38v6.23A1.39,1.39,0,0,1,105.62,32H86.38A1.39,1.39,0,0,1,85,30.62V24.38A1.39,1.39,0,0,1,86.38,23h19.23m0-1H86.38A2.38,2.38,0,0,0,84,24.38v6.23A2.38,2.38,0,0,0,86.38,33h19.23A2.38,2.38,0,0,0,108,30.62V24.38A2.38,2.38,0,0,0,105.62,22Z"/><line class="cls-6" x1="86" y1="39.5" x2="90" y2="39.5"/><line class="cls-6" x1="94" y1="39.5" x2="98" y2="39.5"/><line class="cls-6" x1="102" y1="39.5" x2="106" y2="39.5"/><line class="cls-6" x1="86" y1="46.5" x2="90" y2="46.5"/><line class="cls-6" x1="94" y1="46.5" x2="98" y2="46.5"/><line class="cls-6" x1="102" y1="46.5" x2="106" y2="46.5"/><line class="cls-6" x1="86" y1="52.5" x2="90" y2="52.5"/><line class="cls-6" x1="94" y1="52.5" x2="98" y2="52.5"/><line class="cls-6" x1="102" y1="52.5" x2="106" y2="52.5"/><path class="cls-7" d="M171.75,13.5a3.5,3.5,0,0,1,.75.08V2.13A1.57,1.57,0,0,0,171,.5h-3a1.57,1.57,0,0,0-1.5,1.63V13.5Z"/><path class="cls-7" d="M147.47,13.5h24.05a4,4,0,0,1,4,4V59.53a4,4,0,0,1-4,4H149.06a5.56,5.56,0,0,1-5.56-5.56V17.47A4,4,0,0,1,147.47,13.5Z"/><path
        class="cls-8"
        d="M169.62,23A1.39,1.39,0,0,1,171,24.38v6.23A1.39,1.39,0,0,1,169.62,32H150.38A1.39,1.39,0,0,1,149,30.62V24.38A1.39,1.39,0,0,1,150.38,23h19.23m0-1H150.38A2.38,2.38,0,0,0,148,24.38v6.23A2.38,2.38,0,0,0,150.38,33h19.23A2.38,2.38,0,0,0,172,30.62V24.38A2.38,2.38,0,0,0,169.62,22Z"/><line class="cls-9" x1="150" y1="39.5" x2="154" y2="39.5"/><line class="cls-9" x1="158" y1="39.5" x2="162" y2="39.5"/><line class="cls-9" x1="166" y1="39.5" x2="170" y2="39.5"/><line class="cls-9" x1="150" y1="46.5" x2="154" y2="46.5"/><line class="cls-9" x1="158" y1="46.5" x2="162" y2="46.5"/><line class="cls-9" x1="166" y1="46.5" x2="170" y2="46.5"/><line class="cls-9" x1="150" y1="52.5" x2="154" y2="52.5"/><line class="cls-9" x1="158" y1="52.5" x2="162" y2="52.5"/><line class="cls-9" x1="166" y1="52.5" x2="170" y2="52.5"/></svg>
