<svg id="Livello_1" data-name="Livello 1" xmlns="http://www.w3.org/2000/svg" viewBox="0 0 192 64"><defs><style>.cls-1,.cls-10,.cls-11,.cls-2,.cls-3,.cls-4,.cls-5,.cls-6,.cls-7,.cls-8,.cls-9{fill:none;}.cls-1,.cls-3{stroke:#54595e;}.cls-1,.cls-2,.cls-5,.cls-6,.cls-8,.cls-9{stroke-linecap:round;stroke-linejoin:round;}.cls-2,.cls-4{stroke:#aab2bd;}.cls-2,.cls-6,.cls-9{stroke-width:0.75px;}.cls-10,.cls-11,.cls-3,.cls-4,.cls-7{stroke-miterlimit:10;}.cls-5,.cls-6,.cls-7{stroke:#fff;}.cls-10,.cls-8{stroke:#0069b2;}.cls-11,.cls-9{stroke:#f48135;}</style></defs><rect class="cls-1" x="57" y="19" width="42" height="27" rx="2.8" ry="2.8" transform="translate(110.5 -45.5) rotate(90)"/><rect class="cls-1" x="67.5" y="14.5" width="21" height="32"/><ellipse class="cls-2" cx="78" cy="50.21" rx="1.85" ry="1.79"/><path class="cls-3" d="M102.69,23.24a78,78,0,0,0-11.33,1.28"/><path class="cls-3" d="M102.41,16.92c-3.47.08-7.62.39-11.05.79"/><path class="cls-3" d="M102.41,16.92A110.12,110.12,0,0,1,121,18.68a8,8,0,0,1,6.52,7.81h0a1.29,1.29,0,0,1-1.3,1.27h-5.83a1.36,1.36,0,0,1-1.26-.77,3.37,3.37,0,0,0-2.3-2,69.22,69.22,0,0,0-14.12-1.8"/><circle class="cls-3" cx="103.5" cy="38.5" r="9"/><circle class="cls-4" cx="103.5" cy="38.5" r="5"/><path class="cls-3" d="M92,49.5h27.9a3.37,3.37,0,0,0,3.35-3.94l-6.18-16.28a3.39,3.39,0,0,0-3.35-2.77H92"/><rect class="cls-5" x="121" y="19" width="42" height="27" rx="2.8" ry="2.8" transform="translate(174.5 -109.5) rotate(90)"/><rect class="cls-5" x="131.5" y="14.5" width="21" height="32"/><ellipse class="cls-6" cx="142" cy="50.21" rx="1.85" ry="1.79"/><path class="cls-7" d="M166.69,23.24a78,78,0,0,0-11.33,1.28"/><path class="cls-7" d="M166.41,16.92c-3.47.08-7.62.39-11.05.79"/><path class="cls-7" d="M166.41,16.92A110.12,110.12,0,0,1,185,18.68a8,8,0,0,1,6.52,7.81h0a1.29,1.29,0,0,1-1.3,1.27h-5.83a1.36,1.36,0,0,1-1.26-.77,3.37,3.37,0,0,0-2.3-2,69.22,69.22,0,0,0-14.12-1.8"/><circle class="cls-7" cx="167.5" cy="38.5" r="9"/><circle class="cls-7" cx="167.5" cy="38.5" r="5"/><path class="cls-7" d="M156,49.5h27.9a3.37,3.37,0,0,0,3.35-3.94l-6.18-16.28a3.39,3.39,0,0,0-3.35-2.77H156"/><rect class="cls-8" x="-7" y="19" width="42" height="27" rx="2.8" ry="2.8" transform="translate(46.5 18.5) rotate(90)"/><rect class="cls-8" x="3.5" y="14.5" width="21" height="32"/><ellipse class="cls-9" cx="14" cy="50.21" rx="1.85" ry="1.79"/><path class="cls-10" d="M38.69,23.24a78,78,0,0,0-11.33,1.28"/><path class="cls-10" d="M38.41,16.92c-3.47.08-7.62.39-11.05.79"/><path class="cls-10" d="M38.41,16.92A110.12,110.12,0,0,1,57,18.68a8,8,0,0,1,6.52,7.81h0a1.29,1.29,0,0,1-1.3,1.27H56.37A1.36,1.36,0,0,1,55.11,27a3.37,3.37,0,0,0-2.3-2,69.22,69.22,0,0,0-14.12-1.8"/><circle class="cls-10" cx="39.5" cy="38.5" r="9"/><circle class="cls-11" cx="39.5" cy="38.5" r="5"/><path class="cls-10" d="M28,49.5H55.9a3.37,3.37,0,0,0,3.35-3.94L53.07,29.27a3.39,3.39,0,0,0-3.35-2.77H28"/></svg>