<svg id="Livello_1" data-name="Livello 1" xmlns="http://www.w3.org/2000/svg" viewBox="0 0 64 64">
    <defs>
        <style>
            .cls-1 {
                fill: #f9f9f9;
            }
            .cls-2 {
                fill: #f79f1a;
            }
            .cls-3 {
                fill: #ea001b;
            }
            .cls-4 {
                fill: #ff5f01;
            }
        </style>
    </defs>
    <rect class="cls-1" y="12" width="64" height="40" rx="2.13" ry="2.13"/>
    <g id="g3125">
        <g id="g3115">
            <g id="g3110">
              <path id="path2997" class="cls-2" d="M51.74,29A12.13,12.13,0,1,1,39.61,16.89,12.14,12.14,0,0,1,51.74,29Z"/>
              <path id="path2995" class="cls-3" d="M36.77,29A12.13,12.13,0,1,1,24.64,16.89,12.14,12.14,0,0,1,36.77,29Z"/>
              <path id="path2999" class="cls-4" d="M32.12,19.47a12.17,12.17,0,0,0,0,19.14,12.17,12.17,0,0,0,0-19.14Z"/>
            </g>
            <g id="g3043">
                <g id="text3045">
                  <path id="path3057" class="cls-2" d="M51.72,35.49v-.43H51.6l-.13.3-.13-.3h-.11v.43h.08v-.33l.12.28h.08l.12-.28v.33Zm-.72,0v-.36h.15v-.07h-.37v.07h.15v.36Z"/>
                </g>
            </g>
        </g>
        <g id="g3093">
            <g id="g3081">
                <path id="path3006" d="M15.21,47.21h-.69V44h.67v.39a2.21,2.21,0,0,1,.94-.47,1.49,1.49,0,0,1,1.09.59,1.27,1.27,0,0,1,1.08-.59,1.24,1.24,0,0,1,1.27,1V47.2h-.66v-2a.63.63,0,0,0-.72-.61.74.74,0,0,0-.81.61v2h-.69v-2a.7.7,0,0,0-.69-.63c-.81,0-.82.65-.82.65Z"/>
                <path id="path3008" d="M36.14,43.92a2.21,2.21,0,0,0-.94.47V44h-.68v3.21h.69v-2s0-.65.82-.65a.68.68,0,0,1,.36.09h0l.22-.63A1.24,1.24,0,0,0,36.14,43.92Z"/>
                <path id="path3013" d="M45.84,43.92a2.21,2.21,0,0,0-.94.47V44h-.68v3.21h.69v-2s0-.65.82-.65a.68.68,0,0,1,.36.09h0L46.3,44a1.24,1.24,0,0,0-.46-.1Z"/>
                <path id="path3015" d="M21.81,43.9a1.64,1.64,0,0,0-1.58,1.7,1.69,1.69,0,0,0,1.61,1.71,1.78,1.78,0,0,0,1-.42v.33h.68V44h-.68v.41a1.6,1.6,0,0,0-1.07-.5Zm.13.65a1.08,1.08,0,1,1-1,1.07A1,1,0,0,1,21.94,44.56Z"/>
                <path id="path3020" d="M41.57,43.9A1.64,1.64,0,0,0,40,45.6a1.69,1.69,0,0,0,1.61,1.71,1.78,1.78,0,0,0,1-.42v.33h.68V44h-.68v.41a1.6,1.6,0,0,0-1.07-.5Zm.13.65a1.08,1.08,0,1,1-1,1.07A1,1,0,0,1,41.7,44.56Z"/>
                <path id="path3022" d="M48.08,43.9a1.64,1.64,0,0,0-1.58,1.7,1.69,1.69,0,0,0,1.61,1.71,1.78,1.78,0,0,0,1-.42v.33h.68V42.73h-.68V44.4a1.6,1.6,0,0,0-1.07-.5Zm.13.65a1.08,1.08,0,1,1-1,1.07A1,1,0,0,1,48.21,44.56Z"/>
                <path id="path3024" d="M25.63,47.32a2.79,2.79,0,0,1-1.35-.43l.3-.46a3.2,3.2,0,0,0,1.05.28c.29,0,.76-.09.77-.38s-.8-.39-.8-.39-1.21,0-1.21-1c0-.63.6-1,1.38-1A4.36,4.36,0,0,1,27,44.3l-.34.53a4.21,4.21,0,0,0-1-.27c-.29,0-.63.13-.63.38,0,.68,2-.05,2,1.32,0,.9-.82,1.07-1.47,1.07Z"/>
                <path id="path3026" d="M28.22,43.07V44h-.6v.68h.6v1.62a1,1,0,0,0,1.12,1.09,3.93,3.93,0,0,0,1-.24l-.27-.7a.92.92,0,0,1-.54.21c-.54,0-.53-.36-.53-.36V44.68h1.12V44H29v-.93Z"/>
                <path id="path3034" d="M32.3,43.94a1.71,1.71,0,0,0,.07,3.43,3.1,3.1,0,0,0,1.25-.46l-.31-.55a2,2,0,0,1-.94.35.92.92,0,0,1-.93-.86h2.35S34,43.94,32.3,43.94Zm-.1.63h.08a.77.77,0,0,1,.82.78H31.43A.75.75,0,0,1,32.2,44.58Z"/>
                <path id="path3037" d="M39.28,46.36l.32.63a2.21,2.21,0,0,1-1.06.32,1.72,1.72,0,0,1-1.8-1.7,1.61,1.61,0,0,1,1.72-1.68,2.39,2.39,0,0,1,1.17.36l-.35.63a1,1,0,0,0-.84-.33,1.06,1.06,0,0,0,0,2.11,1.44,1.44,0,0,0,.84-.34Z"/>
            </g>
            <g id="g3064">
                <g id="text3066">
                    <path id="path3078" d="M51.25,46.77a.33.33,0,0,0-.24.09.32.32,0,0,0,0,.46.33.33,0,0,0,.47,0,.32.32,0,0,0,0-.46A.33.33,0,0,0,51.25,46.77Zm0,.58a.25.25,0,1,1,0-.5.25.25,0,0,1,.18.07.25.25,0,0,1,0,.36A.25.25,0,0,1,51.25,47.35Zm0-.4h-.14v.3h.06v-.11h0l.09.11h.08l-.1-.11.07,0a.08.08,0,0,0,0-.06.09.09,0,0,0,0-.07A.14.14,0,0,0,51.27,46.94Zm0,.06h0a0,0,0,0,1,0,0,0,0,0,0,1,0,0H51.2V47Z"/>
                </g>
            </g>
        </g>
    </g>
</svg>
