<svg id="Livello_1" data-name="Livello 1" xmlns="http://www.w3.org/2000/svg" viewBox="0 0 320 64">
    <defs>
        <style>
            .cls-1 {
                fill: #fff;
            }
            .cls-2 {
                fill: #0069b2;
            }
            .cls-3 {
                fill: #54595e;
            }
            .cls-4 {
                fill: #f48135;
            }
            .cls-5 {
                fill: #aab2bd;
            }
        </style>
        <view id="color" viewBox="0 0 64 64"/>
        <view id="grey" viewBox="64 0 64 64"/>
        <view id="white" viewBox="128 0 64 64"/>
    </defs><rect class="cls-1" x="9.6" y="4.2" width="44.79" height="30.79"/><path class="cls-2" d="M32,63.25a1.85,1.85,0,0,1-1.08-.33L21.19,39.84H9.13a2.77,2.77,0,0,1-3-2.51V3.26a2.77,2.77,0,0,1,3-2.51H54.87a2.77,2.77,0,0,1,3,2.51V37.33a2.77,2.77,0,0,1-3,2.51H42.81L33.08,62.92A1.85,1.85,0,0,1,32,63.25Z"/><path
        class="cls-2"
        d="M54.87,1.5a2,2,0,0,1,2.22,1.76V37.33a2,2,0,0,1-2.22,1.76H42.32l-.39.92L32.49,62.4a1.22,1.22,0,0,1-1,0L22.07,40l-.39-.92H9.13a2,2,0,0,1-2.22-1.76V3.26A2,2,0,0,1,9.13,1.5H54.87m0-1.5H9.13A3.51,3.51,0,0,0,5.41,3.26V37.33a3.51,3.51,0,0,0,3.72,3.26H20.69L30.3,63.38a2.65,2.65,0,0,0,3.4,0l9.61-22.79H54.87a3.51,3.51,0,0,0,3.72-3.26V3.26A3.51,3.51,0,0,0,54.87,0Z"/><path
        class="cls-1"
        d="M21.65,11.59s1.85,2.45,2.5,3.22,1.38,1.75,2.18,1.8,2-1.42,2.36-1.64A2,2,0,0,1,30,14.53c1.09-.07,3.36,1.26,4.79,1.23,3.86-.07,7-2.94,8.45-4.32s2.47-2.18,2.47-2.18.51.07.16.82-4.28,7-11,7.16c-2.92.08-3.42-1.46-5.12-1.32-1.07.07-2.11,2.22-4.15,2.23-1.61,0-4.14-5.1-4.14-5.1s-.73-1.42.15-1.47Z"/><path class="cls-1" d="M28.86,13.27A1.36,1.36,0,0,0,30,11.75a1.36,1.36,0,0,0-1.77-.65,1.36,1.36,0,0,0-1.11,1.52,1.36,1.36,0,0,0,1.77.65Z"/><polygon class="cls-1" points="27.3 21.13 29.76 21.13 29.76 30.08 27.3 30.08 27.3 21.13 27.3 21.13"/><polygon class="cls-1" points="31.78 21.13 34.8 21.13 39.47 27.82 39.5 27.82 39.5 21.13 41.86 21.13 41.86 30.08 38.85 30.08 34.17 23.39 34.13 23.39 34.13 30.08 31.78 30.08 31.78 21.13 31.78 21.13"/><path class="cls-1" d="M43.8,21.13h3.35c3.76,0,7.07.92,7.07,4.47s-3.32,4.47-7.07,4.47H43.8V21.13Zm2.46,7.54h1.37c2.05,0,4-1.12,4-3.06s-2-3.06-4-3.06H46.26v6.13Z"/><polygon class="cls-1" points="23.69 21.13 21.39 28.28 21.35 28.28 19.19 21.13 16.76 21.13 14.67 28.28 14.63 28.28 12.35 21.13 9.77 21.13 13.02 30.08 16.19 30.08 17.94 24.33 19.72 30.08 22.88 30.08 26.07 21.13 23.69 21.13 23.69 21.13"/><rect class="cls-1" x="137.6" y="4.2" width="44.79" height="30.79"/><path class="cls-3" d="M160,63.25a1.85,1.85,0,0,1-1.08-.33l-9.73-23.08H137.13a2.77,2.77,0,0,1-3-2.51V3.26a2.77,2.77,0,0,1,3-2.51h45.74a2.77,2.77,0,0,1,3,2.51V37.33a2.77,2.77,0,0,1-3,2.51H170.81l-9.73,23.08A1.85,1.85,0,0,1,160,63.25Z"/><path
        class="cls-3"
        d="M182.87,1.5a2,2,0,0,1,2.22,1.76V37.33a2,2,0,0,1-2.22,1.76H170.32l-.39.92L160.49,62.4a1.22,1.22,0,0,1-1,0L150.07,40l-.39-.92H137.13a2,2,0,0,1-2.22-1.76V3.26a2,2,0,0,1,2.22-1.76h45.74m0-1.5H137.13a3.51,3.51,0,0,0-3.72,3.26V37.33a3.51,3.51,0,0,0,3.72,3.26h11.56l9.61,22.79a2.65,2.65,0,0,0,3.4,0l9.61-22.79h11.56a3.51,3.51,0,0,0,3.72-3.26V3.26A3.51,3.51,0,0,0,182.87,0Z"/><path
        class="cls-1"
        d="M149.65,11.59s1.85,2.45,2.5,3.22,1.38,1.75,2.18,1.8,2-1.42,2.36-1.64a2,2,0,0,1,1.31-.43c1.09-.07,3.36,1.26,4.79,1.23,3.86-.07,7-2.94,8.45-4.32s2.47-2.18,2.47-2.18.51.07.16.82-4.28,7-11,7.16c-2.92.08-3.42-1.46-5.12-1.32-1.07.07-2.11,2.22-4.15,2.23-1.61,0-4.14-5.1-4.14-5.1s-.73-1.42.15-1.47Z"/><path class="cls-1" d="M156.86,13.27A1.36,1.36,0,0,0,158,11.75a1.57,1.57,0,0,0-2.89.87,1.36,1.36,0,0,0,1.77.65Z"/><polygon class="cls-1" points="155.3 21.13 157.76 21.13 157.76 30.08 155.3 30.08 155.3 21.13 155.3 21.13"/><polygon class="cls-1" points="159.78 21.13 162.8 21.13 167.47 27.82 167.5 27.82 167.5 21.13 169.86 21.13 169.86 30.08 166.85 30.08 162.17 23.39 162.13 23.39 162.13 30.08 159.78 30.08 159.78 21.13 159.78 21.13"/><path class="cls-1" d="M171.8,21.13h3.35c3.76,0,7.07.92,7.07,4.47s-3.32,4.47-7.07,4.47H171.8V21.13Zm2.46,7.54h1.37c2.05,0,4-1.12,4-3.06s-2-3.06-4-3.06h-1.37v6.13Z"/><polygon
        class="cls-1"
        points="151.69 21.13 149.39 28.28 149.35 28.28 147.19 21.13 144.76 21.13 142.67 28.28 142.63 28.28 140.35 21.13 137.77 21.13 141.02 30.08 144.19 30.08 145.94 24.33 147.72 30.08 150.88 30.08 154.07 21.13 151.69 21.13 151.69 21.13"/><rect class="cls-1" x="73.6" y="4.2" width="44.79" height="30.79"/><path class="cls-4" d="M96,63.25a1.85,1.85,0,0,1-1.08-.33L85.19,39.84H73.13a2.77,2.77,0,0,1-3-2.51V3.26a2.77,2.77,0,0,1,3-2.51h45.74a2.77,2.77,0,0,1,3,2.51V37.33a2.77,2.77,0,0,1-3,2.51H106.81L97.08,62.92A1.85,1.85,0,0,1,96,63.25Z"/><path
        class="cls-4"
        d="M118.87,1.5a2,2,0,0,1,2.22,1.76V37.33a2,2,0,0,1-2.22,1.76H106.32l-.39.92L96.49,62.4a1.22,1.22,0,0,1-1,0L86.07,40l-.39-.92H73.13a2,2,0,0,1-2.22-1.76V3.26A2,2,0,0,1,73.13,1.5h45.74m0-1.5H73.13a3.51,3.51,0,0,0-3.72,3.26V37.33a3.51,3.51,0,0,0,3.72,3.26H84.69L94.3,63.38a2.65,2.65,0,0,0,3.4,0l9.61-22.79h11.56a3.51,3.51,0,0,0,3.72-3.26V3.26A3.51,3.51,0,0,0,118.87,0Z"/><path
        class="cls-1"
        d="M85.65,11.59s1.85,2.45,2.5,3.22,1.38,1.75,2.18,1.8,2-1.42,2.36-1.64A2,2,0,0,1,94,14.53c1.09-.07,3.36,1.26,4.79,1.23,3.86-.07,7-2.94,8.45-4.32s2.47-2.18,2.47-2.18.51.07.16.82-4.28,7-11,7.16c-2.92.08-3.42-1.46-5.12-1.32-1.07.07-2.11,2.22-4.15,2.23-1.61,0-4.14-5.1-4.14-5.1s-.73-1.42.15-1.47Z"/><path class="cls-1" d="M92.86,13.27A1.36,1.36,0,0,0,94,11.75a1.57,1.57,0,0,0-2.89.87,1.36,1.36,0,0,0,1.77.65Z"/><polygon class="cls-1" points="91.3 21.13 93.76 21.13 93.76 30.08 91.3 30.08 91.3 21.13 91.3 21.13"/><polygon class="cls-1" points="95.78 21.13 98.8 21.13 103.47 27.82 103.5 27.82 103.5 21.13 105.86 21.13 105.86 30.08 102.86 30.08 98.17 23.39 98.13 23.39 98.13 30.08 95.78 30.08 95.78 21.13 95.78 21.13"/><path class="cls-1" d="M107.8,21.13h3.35c3.76,0,7.07.92,7.07,4.47s-3.32,4.47-7.07,4.47H107.8V21.13Zm2.46,7.54h1.37c2.05,0,4-1.12,4-3.06s-2-3.06-4-3.06h-1.37v6.13Z"/><polygon class="cls-1" points="87.69 21.13 85.39 28.28 85.35 28.28 83.19 21.13 80.76 21.13 78.67 28.28 78.63 28.28 76.35 21.13 73.77 21.13 77.02 30.08 80.19 30.08 81.94 24.33 83.72 30.08 86.88 30.08 90.07 21.13 87.69 21.13 87.69 21.13"/><rect class="cls-1" x="201.6" y="4.2" width="44.79" height="30.79"/><path class="cls-5" d="M224,63.25a1.85,1.85,0,0,1-1.08-.33l-9.73-23.08H201.13a2.77,2.77,0,0,1-3-2.51V3.26a2.77,2.77,0,0,1,3-2.51h45.74a2.77,2.77,0,0,1,3,2.51V37.33a2.77,2.77,0,0,1-3,2.51H234.81l-9.73,23.08A1.85,1.85,0,0,1,224,63.25Z"/><path
        class="cls-5"
        d="M246.87,1.5a2,2,0,0,1,2.22,1.76V37.33a2,2,0,0,1-2.22,1.76H234.32l-.39.92L224.49,62.4a1.22,1.22,0,0,1-1,0L214.07,40l-.39-.92H201.13a2,2,0,0,1-2.22-1.76V3.26a2,2,0,0,1,2.22-1.76h45.74m0-1.5H201.13a3.51,3.51,0,0,0-3.72,3.26V37.33a3.51,3.51,0,0,0,3.72,3.26h11.56l9.61,22.79a2.65,2.65,0,0,0,3.4,0l9.61-22.79h11.56a3.51,3.51,0,0,0,3.72-3.26V3.26A3.51,3.51,0,0,0,246.87,0Z"/><path
        class="cls-1"
        d="M213.65,11.59s1.85,2.45,2.5,3.22,1.38,1.75,2.18,1.8,2-1.42,2.36-1.64a2,2,0,0,1,1.31-.43c1.09-.07,3.36,1.26,4.79,1.23,3.86-.07,7-2.94,8.45-4.32s2.47-2.18,2.47-2.18.51.07.16.82-4.28,7-11,7.16c-2.92.08-3.42-1.46-5.12-1.32-1.07.07-2.11,2.22-4.15,2.23-1.61,0-4.14-5.1-4.14-5.1s-.73-1.42.15-1.47Z"/><path class="cls-1" d="M220.86,13.27A1.36,1.36,0,0,0,222,11.75a1.57,1.57,0,0,0-2.89.87,1.36,1.36,0,0,0,1.77.65Z"/><polygon class="cls-1" points="219.3 21.13 221.76 21.13 221.76 30.08 219.3 30.08 219.3 21.13 219.3 21.13"/><polygon class="cls-1" points="223.78 21.13 226.8 21.13 231.47 27.82 231.5 27.82 231.5 21.13 233.86 21.13 233.86 30.08 230.85 30.08 226.17 23.39 226.13 23.39 226.13 30.08 223.78 30.08 223.78 21.13 223.78 21.13"/><path class="cls-1" d="M235.8,21.13h3.35c3.76,0,7.07.92,7.07,4.47s-3.32,4.47-7.07,4.47H235.8V21.13Zm2.46,7.54h1.37c2.05,0,4-1.12,4-3.06s-2-3.06-4-3.06h-1.37v6.13Z"/><polygon
        class="cls-1"
        points="215.69 21.13 213.39 28.28 213.35 28.28 211.19 21.13 208.76 21.13 206.67 28.28 206.63 28.28 204.35 21.13 201.77 21.13 205.02 30.08 208.19 30.08 209.94 24.33 211.72 30.08 214.88 30.08 218.07 21.13 215.69 21.13 215.69 21.13"/><path class="cls-1" d="M303.63,22.54h-1.37v6.13h1.37c2.05,0,4-1.12,4-3.06S305.68,22.54,303.63,22.54Z"/><path
        class="cls-1"
        d="M310.87,0H265.13a3.51,3.51,0,0,0-3.72,3.26V37.33a3.51,3.51,0,0,0,3.72,3.26h11.56l9.61,22.79a2.65,2.65,0,0,0,3.4,0l9.61-22.79h11.56a3.51,3.51,0,0,0,3.72-3.26V3.26A3.51,3.51,0,0,0,310.87,0ZM284.2,11.09a1.36,1.36,0,0,1,1.77.65,1.57,1.57,0,0,1-2.89.87A1.36,1.36,0,0,1,284.2,11.09Zm-5.32,19h-3.16l-1.78-5.75-1.75,5.75H269l-3.25-8.95h2.58l2.28,7.15h0l2.09-7.15h2.44l2.16,7.15h0l2.3-7.15h2.39Zm6.88,0H283.3V21.13h2.46Zm12.1,0h-3l-4.69-6.69h0v6.69h-2.35V21.13h3l4.67,6.69h0V21.13h2.35Zm-7-12.83c-2.92.08-3.42-1.46-5.12-1.32-1.07.07-2.11,2.22-4.15,2.23-1.61,0-4.14-5.1-4.14-5.1s-.73-1.42.15-1.47c0,0,1.85,2.45,2.5,3.22s1.38,1.75,2.18,1.8,2-1.42,2.36-1.64a2,2,0,0,1,1.31-.44c1.09-.07,3.36,1.26,4.79,1.23,3.86-.07,7-2.94,8.45-4.32s2.47-2.18,2.47-2.18.51.07.16.82S297.58,17.07,290.9,17.25Zm12.25,12.83H299.8V21.13h3.35c3.76,0,7.07.92,7.07,4.47S306.91,30.08,303.16,30.08Z"/></svg>
