<svg id="Livello_1" data-name="Livello 1" xmlns="http://www.w3.org/2000/svg" viewBox="0 0 192 64">
    <defs>
        <style>
            .cls-1,
            .cls-2,
            .cls-3,
            .cls-4,
            .cls-5 {
                fill: none;
                stroke-miterlimit: 10;
            }
            .cls-1 {
                stroke: #0069b2;
            }
            .cls-2 {
                stroke: #f48135;
            }
            .cls-3 {
                stroke: #54595e;
            }
            .cls-4 {
                stroke: #aab2bd;
            }
            .cls-5 {
                stroke: #fff;
            }
        </style>
        <view id="color" viewBox="0 0 64 64"/>
        <view id="grey" viewBox="64 0 64 64"/>
        <view id="white" viewBox="128 0 64 64"/>
    </defs><path class="cls-1" d="M44.34,16.61V4.6A4.08,4.08,0,0,0,40.27.5H7.76A4.08,4.08,0,0,0,3.7,4.6V59.4a4.08,4.08,0,0,0,4.06,4.1H40.27a4.08,4.08,0,0,0,4.06-4.1V41.52"/><polyline class="cls-1" points="38.53 16.62 38.53 6.36 9.5 6.36 9.5 51.78 38.53 51.78 38.53 41.52"/><path class="cls-2" d="M38.53,16.62H25.36a2.81,2.81,0,0,0-2.79,2.82V38.7a2.81,2.81,0,0,0,2.79,2.82H38.53"/><path class="cls-2" d="M38.53,16.62h19a2.81,2.81,0,0,1,2.79,2.82V38.7a2.81,2.81,0,0,1-2.79,2.82H57.4"/><line class="cls-2" x1="38.53" y1="41.52" x2="57.4" y2="41.52"/><line class="cls-2" x1="44.01" y1="31.15" x2="57.4" y2="41.52"/><line class="cls-2" x1="38.53" y1="31.27" x2="24.48" y2="41.1"/><path class="cls-2" d="M24,18.08,39,31.66a2.77,2.77,0,0,0,3.95,0l16.2-14.45"/><ellipse class="cls-2" cx="24.02" cy="57.64" rx="2.9" ry="2.93"/><path class="cls-3" d="M108.34,16.61V4.6A4.08,4.08,0,0,0,104.27.5H71.76A4.08,4.08,0,0,0,67.7,4.6V59.4a4.08,4.08,0,0,0,4.06,4.1h32.51a4.08,4.08,0,0,0,4.06-4.1V41.52"/><polyline class="cls-3" points="102.53 16.62 102.53 6.36 73.5 6.36 73.5 51.78 102.53 51.78 102.53 41.52"/><path class="cls-4" d="M102.53,16.62H89.36a2.81,2.81,0,0,0-2.79,2.82V38.7a2.81,2.81,0,0,0,2.79,2.82h13.17"/><path class="cls-4" d="M102.53,16.62h19a2.81,2.81,0,0,1,2.79,2.82V38.7a2.81,2.81,0,0,1-2.79,2.82h-.11"/><line class="cls-4" x1="102.53" y1="41.52" x2="121.4" y2="41.52"/><line class="cls-4" x1="108.01" y1="31.15" x2="121.4" y2="41.52"/><line class="cls-4" x1="102.53" y1="31.27" x2="88.48" y2="41.1"/><path class="cls-4" d="M88,18.08l15,13.58a2.77,2.77,0,0,0,3.95,0l16.2-14.45"/><ellipse class="cls-4" cx="88.02" cy="57.64" rx="2.9" ry="2.93"/><path class="cls-5" d="M172.34,16.61V4.6A4.08,4.08,0,0,0,168.27.5H135.76a4.08,4.08,0,0,0-4.06,4.1V59.4a4.08,4.08,0,0,0,4.06,4.1h32.51a4.08,4.08,0,0,0,4.06-4.1V41.52"/><polyline class="cls-5" points="166.53 16.62 166.53 6.36 137.5 6.36 137.5 51.78 166.53 51.78 166.53 41.52"/><path class="cls-5" d="M166.53,16.62H153.36a2.81,2.81,0,0,0-2.79,2.82V38.7a2.81,2.81,0,0,0,2.79,2.82h13.17"/><path class="cls-5" d="M166.53,16.62h19a2.81,2.81,0,0,1,2.79,2.82V38.7a2.81,2.81,0,0,1-2.79,2.82h-.11"/><line class="cls-5" x1="166.53" y1="41.52" x2="185.4" y2="41.52"/><line class="cls-5" x1="172.01" y1="31.15" x2="185.4" y2="41.52"/><line class="cls-5" x1="166.53" y1="31.27" x2="152.48" y2="41.1"/><path class="cls-5" d="M152,18.08l15,13.58a2.77,2.77,0,0,0,3.95,0l16.2-14.45"/><ellipse class="cls-5" cx="152.02" cy="57.64" rx="2.9" ry="2.93"/></svg>
