<svg id="Livello_1" data-name="Livello 1" xmlns="http://www.w3.org/2000/svg" viewBox="0 0 192 64">
    <defs>
        <style>
            .cls-1,
            .cls-2,
            .cls-3,
            .cls-4,
            .cls-5,
            .cls-6,
            .cls-7 {
                fill: none;
            }
            .cls-1,
            .cls-2 {
                stroke: #0069b2;
            }
            .cls-1,
            .cls-2,
            .cls-3,
            .cls-5,
            .cls-7 {
                stroke-linejoin: round;
            }
            .cls-2,
            .cls-3 {
                stroke-linecap: round;
            }
            .cls-3 {
                stroke: #f48135;
            }
            .cls-4 {
                stroke: #54595e;
            }
            .cls-4,
            .cls-6 {
                stroke-miterlimit: 10;
            }
            .cls-5 {
                stroke: #aab2bd;
            }
            .cls-6,
            .cls-7 {
                stroke: #fff;
            }
        </style>
        <view id="color" viewBox="0 0 64 64"/>
        <view id="grey" viewBox="64 0 64 64"/>
        <view id="white" viewBox="128 0 64 64"/>
    </defs>
    <path class="cls-1" d="M5.42,13.6V48.24H58.58V13.6a2.76,2.76,0,0,0-2.76-2.76H8.18A2.76,2.76,0,0,0,5.42,13.6Z"/>
    <path class="cls-1" d="M.5,48.24V50.4a2.76,2.76,0,0,0,2.76,2.76H60.74A2.76,2.76,0,0,0,63.5,50.4V48.24Z"/>
    <rect class="cls-2" x="10.34" y="15.76" width="43.31" height="27.55"/>
    <polygon class="cls-3" points="14.35 19.77 17.69 33.15 22.16 29.8 26.62 35.38 29.97 32.03 24.39 27.57 27.73 23.11 14.35 19.77"/>
    <path class="cls-4" d="M69.42,13.6V48.24h53.16V13.6a2.76,2.76,0,0,0-2.76-2.76H72.18A2.76,2.76,0,0,0,69.42,13.6Z"/>
    <path class="cls-4" d="M64.5,48.24V50.4a2.76,2.76,0,0,0,2.76,2.76h57.49a2.76,2.76,0,0,0,2.76-2.76V48.24Z"/>
    <rect class="cls-4" x="74.34" y="15.76" width="43.31" height="27.55"/>
    <polygon class="cls-5" points="78.35 19.77 81.69 33.15 86.16 29.8 90.62 35.38 93.97 32.03 88.39 27.57 91.73 23.11 78.35 19.77"/>
    <path class="cls-6" d="M133.42,13.6V48.24h53.16V13.6a2.76,2.76,0,0,0-2.76-2.76H136.18A2.76,2.76,0,0,0,133.42,13.6Z"/>
    <path class="cls-6" d="M128.5,48.24V50.4a2.76,2.76,0,0,0,2.76,2.76h57.49a2.76,2.76,0,0,0,2.76-2.76V48.24Z"/>
    <rect class="cls-6" x="138.34" y="15.76" width="43.31" height="27.55"/>
    <polygon class="cls-7" points="142.35 19.77 145.69 33.15 150.16 29.8 154.62 35.38 157.97 32.03 152.39 27.57 155.73 23.11 142.35 19.77"/>
  </svg>
