<svg id="Livello_1" data-name="Livello 1" xmlns="http://www.w3.org/2000/svg" viewBox="0 0 192 64">
    <defs>
        <style>
            .cls-1,
            .cls-2,
            .cls-3,
            .cls-4,
            .cls-5,
            .cls-6,
            .cls-7,
            .cls-8 {
                fill: none;
            }
            .cls-1,
            .cls-3 {
                stroke: #0069b2;
            }
            .cls-1,
            .cls-4,
            .cls-7 {
                stroke-miterlimit: 10;
            }
            .cls-2 {
                stroke: #f48135;
            }
            .cls-2,
            .cls-3,
            .cls-5,
            .cls-6,
            .cls-8 {
                stroke-linecap: round;
                stroke-linejoin: round;
            }
            .cls-4,
            .cls-6 {
                stroke: #54595e;
            }
            .cls-5 {
                stroke: #aab2bd;
            }
            .cls-7,
            .cls-8 {
                stroke: #fff;
            }
        </style>
        <view id="color" viewBox="0 0 64 64"/>
        <view id="grey" viewBox="64 0 64 64"/>
        <view id="white" viewBox="128 0 64 64"/>
    </defs><line class="cls-1" x1="8.5" y1="9" x2="8.5" y2="12"/><line class="cls-1" x1="8.5" y1="21" x2="8.5" y2="44"/><rect class="cls-2" x="4.5" y="11.5" width="8" height="9" rx="2.8" ry="2.8"/><path class="cls-3" d="M14.5,46.5H3.29A2.77,2.77,0,0,1,.5,43.75V10.25A2.77,2.77,0,0,1,3.29,7.5H36.71a2.77,2.77,0,0,1,2.79,2.75V33.5"/><line class="cls-1" x1="19.5" y1="9" x2="19.5" y2="28"/><rect class="cls-2" x="15.5" y="28.5" width="8" height="9" rx="2.8" ry="2.8"/><line class="cls-1" x1="30.5" y1="9" x2="30.5" y2="17"/><line class="cls-1" x1="30.5" y1="26" x2="30.5" y2="37"/><rect class="cls-2" x="26.5" y="16.5" width="8" height="9" rx="2.8" ry="2.8"/><path class="cls-3" d="M50.13,43.15s.71-.68.74-.69a8.46,8.46,0,1,1,4.46,16H20.54a8,8,0,0,1-6.35-11.74,7,7,0,0,1,1.92-2.37,8.2,8.2,0,0,1,9.4-.7.63.63,0,0,0,.94-.39C28.77,34.14,40.69,30,48.66,38.89a8.23,8.23,0,0,1,1.61,4"/><line class="cls-1" x1="19.5" y1="38" x2="19.5" y2="43"/><line class="cls-4" x1="72.5" y1="9" x2="72.5" y2="12"/><line class="cls-4" x1="72.5" y1="21" x2="72.5" y2="44"/><rect class="cls-5" x="68.5" y="11.5" width="8" height="9" rx="2.8" ry="2.8"/><path class="cls-6" d="M78.5,46.5H67.29a2.77,2.77,0,0,1-2.79-2.75V10.25A2.77,2.77,0,0,1,67.29,7.5h33.41a2.77,2.77,0,0,1,2.79,2.75V33.5"/><line class="cls-4" x1="83.5" y1="9" x2="83.5" y2="28"/><rect class="cls-5" x="79.5" y="28.5" width="8" height="9" rx="2.8" ry="2.8"/><line class="cls-4" x1="94.5" y1="9" x2="94.5" y2="17"/><line class="cls-4" x1="94.5" y1="26" x2="94.5" y2="37"/><rect class="cls-5" x="90.5" y="16.5" width="8" height="9" rx="2.8" ry="2.8"/><path class="cls-6" d="M114.38,43.15s.71-.68.74-.69a8.46,8.46,0,1,1,4.46,16H84.79a8,8,0,0,1-6.35-11.74,7,7,0,0,1,1.92-2.37,8.2,8.2,0,0,1,9.4-.7.63.63,0,0,0,.94-.39C93,34.14,104.94,30,112.91,38.89a8.23,8.23,0,0,1,1.61,4"/><line class="cls-4" x1="83.5" y1="38" x2="83.5" y2="43"/><line class="cls-7" x1="136.5" y1="9" x2="136.5" y2="12"/><line class="cls-7" x1="136.5" y1="21" x2="136.5" y2="44"/><rect class="cls-8" x="132.5" y="11.5" width="8" height="9" rx="2.8" ry="2.8"/><path class="cls-8" d="M142.5,46.5H131.29a2.77,2.77,0,0,1-2.79-2.75V10.25a2.77,2.77,0,0,1,2.79-2.75h33.41a2.77,2.77,0,0,1,2.79,2.75V33.5"/><line class="cls-7" x1="147.5" y1="9" x2="147.5" y2="28"/><rect class="cls-8" x="143.5" y="28.5" width="8" height="9" rx="2.8" ry="2.8"/><line class="cls-7" x1="158.5" y1="9" x2="158.5" y2="17"/><line class="cls-7" x1="158.5" y1="26" x2="158.5" y2="37"/><rect class="cls-8" x="154.5" y="16.5" width="8" height="9" rx="2.8" ry="2.8"/><path class="cls-8" d="M178.38,43.15s.71-.68.74-.69a8.46,8.46,0,1,1,4.46,16H148.79a8,8,0,0,1-6.35-11.74,7,7,0,0,1,1.92-2.37,8.2,8.2,0,0,1,9.4-.7.63.63,0,0,0,.94-.39C157,34.14,168.94,30,176.91,38.89a8.23,8.23,0,0,1,1.61,4"/><line class="cls-7" x1="147.5" y1="38" x2="147.5" y2="43"/></svg>
