<svg id="Livello_1" data-name="Livello 1" xmlns="http://www.w3.org/2000/svg" viewBox="0 0 192 64">
    <defs>
        <style>
            .cls-1,
            .cls-10,
            .cls-11,
            .cls-13,
            .cls-14,
            .cls-3,
            .cls-5,
            .cls-6,
            .cls-8 {
                fill: none;
            }
            .cls-1,
            .cls-3 {
                stroke: #0069b2;
            }
            .cls-1,
            .cls-11,
            .cls-6 {
                stroke-miterlimit: 10;
            }
            .cls-2 {
                fill: #0069b2;
            }
            .cls-13,
            .cls-3,
            .cls-8 {
                stroke-linecap: round;
            }
            .cls-10,
            .cls-13,
            .cls-14,
            .cls-3,
            .cls-5,
            .cls-8 {
                stroke-linejoin: round;
            }
            .cls-4 {
                fill: #f48135;
            }
            .cls-5 {
                stroke: #f48135;
            }
            .cls-6,
            .cls-8 {
                stroke: #54595e;
            }
            .cls-7 {
                fill: #54595e;
            }
            .cls-9 {
                fill: #aab2bd;
            }
            .cls-10 {
                stroke: #aab2bd;
            }
            .cls-11,
            .cls-13,
            .cls-14 {
                stroke: #fff;
            }
            .cls-12 {
                fill: #fff;
            }
        </style>
        <view id="color" viewBox="0 0 64 64"/>
        <view id="grey" viewBox="64 0 64 64"/>
        <view id="white" viewBox="128 0 64 64"/>
    </defs><path class="cls-1" d="M52.5,21V12.57a1.07,1.07,0,0,0-1.07-1.07H1.57A1.07,1.07,0,0,0,.5,12.57V46.43A1.07,1.07,0,0,0,1.57,47.5H37"/><path class="cls-1" d="M37,42.5H3.8a.3.3,0,0,1-.3-.3V15.8a.3.3,0,0,1,.3-.3H49.2a.3.3,0,0,1,.3.3V20"/><path class="cls-2" d="M57,21a2,2,0,0,1,2,2V50a2,2,0,0,1-2,2H40a2,2,0,0,1-2-2V23a2,2,0,0,1,2-2H57m0-1H40a3,3,0,0,0-3,3V50a3,3,0,0,0,3,3H57a3,3,0,0,0,3-3V23a3,3,0,0,0-3-3Z"/><rect class="cls-3" x="37.5" y="26.5" width="22" height="16" transform="translate(83 -14) rotate(90)"/><path class="cls-4" d="M48.5,46.88a2,2,0,1,0,2,2A2,2,0,0,0,48.5,46.88Zm0,3.25a1.22,1.22,0,1,1,1.2-1.22A1.21,1.21,0,0,1,48.5,50.13Z"/><line class="cls-5" x1="25" y1="13.5" x2="28" y2="13.5"/><polygon class="cls-1" points="20.39 51.03 18.38 52.5 33.09 52.5 31.12 51.15 30.14 47.5 21.29 47.5 20.39 51.03"/><path class="cls-6" d="M118.5,21V12.57a1.07,1.07,0,0,0-1.07-1.07H67.57a1.07,1.07,0,0,0-1.07,1.07V46.43a1.07,1.07,0,0,0,1.07,1.07H103"/><path class="cls-6" d="M103,42.5H69.8a.3.3,0,0,1-.3-.3V15.8a.3.3,0,0,1,.3-.3h45.4a.3.3,0,0,1,.3.3V20"/><path class="cls-7" d="M123,21a2,2,0,0,1,2,2V50a2,2,0,0,1-2,2H106a2,2,0,0,1-2-2V23a2,2,0,0,1,2-2h17m0-1H106a3,3,0,0,0-3,3V50a3,3,0,0,0,3,3h17a3,3,0,0,0,3-3V23a3,3,0,0,0-3-3Z"/><rect class="cls-8" x="103.5" y="26.5" width="22" height="16" transform="translate(149 -80) rotate(90)"/><path class="cls-9" d="M114.5,46.88a2,2,0,1,0,2,2A2,2,0,0,0,114.5,46.88Zm0,3.25a1.22,1.22,0,1,1,1.2-1.22A1.21,1.21,0,0,1,114.5,50.13Z"/><line class="cls-10" x1="91" y1="13.5" x2="94" y2="13.5"/><polygon class="cls-6" points="86.39 51.03 84.38 52.5 99.09 52.5 97.12 51.15 96.14 47.5 87.29 47.5 86.39 51.03"/><path class="cls-11" d="M182.5,21V12.57a1.07,1.07,0,0,0-1.07-1.07H131.57a1.07,1.07,0,0,0-1.07,1.07V46.43a1.07,1.07,0,0,0,1.07,1.07H167"/><path class="cls-11" d="M167,42.5H133.8a.3.3,0,0,1-.3-.3V15.8a.3.3,0,0,1,.3-.3h45.4a.3.3,0,0,1,.3.3V20"/><path class="cls-12" d="M187,21a2,2,0,0,1,2,2V50a2,2,0,0,1-2,2H170a2,2,0,0,1-2-2V23a2,2,0,0,1,2-2h17m0-1H170a3,3,0,0,0-3,3V50a3,3,0,0,0,3,3h17a3,3,0,0,0,3-3V23a3,3,0,0,0-3-3Z"/><rect class="cls-13" x="167.5" y="26.5" width="22" height="16" transform="translate(213 -144) rotate(90)"/><path class="cls-12" d="M178.5,46.88a2,2,0,1,0,2,2A2,2,0,0,0,178.5,46.88Zm0,3.25a1.22,1.22,0,1,1,1.2-1.22A1.21,1.21,0,0,1,178.5,50.13Z"/><line class="cls-14" x1="155" y1="13.5" x2="158" y2="13.5"/><polygon class="cls-11" points="150.39 51.03 148.38 52.5 163.09 52.5 161.12 51.15 160.14 47.5 151.29 47.5 150.39 51.03"/></svg>
