<svg id="Livello_1" data-name="Livello 1" xmlns="http://www.w3.org/2000/svg" viewBox="0 0 192 64">
    <defs>
        <style>
            .cls-1,
            .cls-2,
            .cls-3,
            .cls-4,
            .cls-5,
            .cls-6,
            .cls-7,
            .cls-8 {
                fill: none;
                stroke-linecap: round;
                stroke-linejoin: round;
            }
            .cls-1 {
                stroke: #0069b2;
            }
            .cls-2,
            .cls-3 {
                stroke: #f48135;
            }
            .cls-2,
            .cls-5,
            .cls-8 {
                stroke-width: 0.75px;
            }
            .cls-4,
            .cls-5 {
                stroke: #54595e;
            }
            .cls-6 {
                stroke: #aab2bd;
            }
            .cls-7,
            .cls-8 {
                stroke: #fff;
            }
        </style>
        <view id="color" viewBox="0 0 64 64"/>
        <view id="grey" viewBox="64 0 64 64"/>
        <view id="white" viewBox="128 0 64 64"/>
    </defs><path class="cls-1" d="M13.5,30.5V60.7a2.77,2.77,0,0,0,2.73,2.8H48.77a2.77,2.77,0,0,0,2.73-2.8V40.5"/><path class="cls-1" d="M51.5,20.5V3.3A2.77,2.77,0,0,0,48.77.5H16.23A2.77,2.77,0,0,0,13.5,3.3v7.2"/><circle class="cls-2" cx="32" cy="59" r="2.5"/><polyline class="cls-1" points="17.5 10.5 17.5 3.5 47.5 3.5 47.5 20.5"/><polyline class="cls-1" points="47.5 40.5 47.5 54.5 17.5 54.5 17.5 30.5"/><path class="cls-1" d="M27.85,10.5H9.2a2.75,2.75,0,0,0-2.7,2.8V26.7a2.75,2.75,0,0,0,2.7,2.8H20.52l5,6.58V29.5h2.35a2.73,2.73,0,0,0,2.65-2.8V13.3A2.73,2.73,0,0,0,27.85,10.5Z"/><path class="cls-3" d="M10.47,25.5V17.33c0-1.57.82-2.83,1.83-2.83h.26c1,0,1.83,1.27,1.83,2.83V25.5"/><path class="cls-3" d="M14.4,25.5V17.33c0-1.57.82-2.83,1.83-2.83h.26c1,0,1.83,1.27,1.83,2.83V25.5"/><path class="cls-3" d="M18.32,25.5V17.33c0-1.57.82-2.83,1.83-2.83h.26c1,0,1.83,1.27,1.83,2.83l0,5.3a2.84,2.84,0,0,0,2.81,2.86h2"/><path class="cls-1" d="M36.15,20.5H54.8a2.75,2.75,0,0,1,2.7,2.8V36.7a2.75,2.75,0,0,1-2.7,2.8H43.48l-5,6.58V39.5H36.15a2.73,2.73,0,0,1-2.65-2.8V23.3A2.73,2.73,0,0,1,36.15,20.5Z"/><ellipse class="cls-3" cx="45.24" cy="30.31" rx="3.57" ry="3.63"/><line class="cls-3" x1="45.24" y1="25.46" x2="45.24" y2="23.04"/><line class="cls-3" x1="48.6" y1="26.58" x2="50.13" y2="25.02"/><line class="cls-3" x1="50" y1="30.31" x2="52.38" y2="30.31"/><line class="cls-3" x1="48.6" y1="33.43" x2="50.13" y2="34.99"/><line class="cls-3" x1="45.24" y1="35.16" x2="45.24" y2="36.97"/><line class="cls-3" x1="41.88" y1="33.43" x2="40.35" y2="34.99"/><line class="cls-3" x1="40.48" y1="30.31" x2="38.1" y2="30.31"/><line class="cls-3" x1="41.88" y1="26.58" x2="40.35" y2="25.02"/><path class="cls-4" d="M77.5,30.5V60.7a2.77,2.77,0,0,0,2.73,2.8h32.54a2.77,2.77,0,0,0,2.73-2.8V40.5"/><path class="cls-4" d="M115.5,20.5V3.3A2.77,2.77,0,0,0,112.77.5H80.23A2.77,2.77,0,0,0,77.5,3.3v7.2"/><circle class="cls-5" cx="96" cy="59" r="2.5"/><polyline class="cls-4" points="81.5 10.5 81.5 3.5 111.5 3.5 111.5 20.5"/><polyline class="cls-4" points="111.5 40.5 111.5 54.5 81.5 54.5 81.5 30.5"/><path class="cls-4" d="M91.85,10.5H73.2a2.75,2.75,0,0,0-2.7,2.8V26.7a2.75,2.75,0,0,0,2.7,2.8H84.52l5,6.58V29.5h2.35a2.73,2.73,0,0,0,2.65-2.8V13.3A2.73,2.73,0,0,0,91.85,10.5Z"/><path class="cls-6" d="M74.47,25.5V17.33c0-1.57.82-2.83,1.83-2.83h.26c1,0,1.83,1.27,1.83,2.83V25.5"/><path class="cls-6" d="M78.4,25.5V17.33c0-1.57.82-2.83,1.83-2.83h.26c1,0,1.83,1.27,1.83,2.83V25.5"/><path class="cls-6" d="M82.32,25.5V17.33c0-1.57.82-2.83,1.83-2.83h.26c1,0,1.83,1.27,1.83,2.83l0,5.3a2.84,2.84,0,0,0,2.81,2.86h2"/><path class="cls-4" d="M100.15,20.5H118.8a2.75,2.75,0,0,1,2.7,2.8V36.7a2.75,2.75,0,0,1-2.7,2.8H107.48l-5,6.58V39.5h-2.35a2.73,2.73,0,0,1-2.65-2.8V23.3A2.73,2.73,0,0,1,100.15,20.5Z"/><ellipse class="cls-6" cx="109.24" cy="30.31" rx="3.57" ry="3.63"/><line class="cls-6" x1="109.24" y1="25.46" x2="109.24" y2="23.04"/><line class="cls-6" x1="112.6" y1="26.58" x2="114.13" y2="25.02"/><line class="cls-6" x1="114" y1="30.31" x2="116.38" y2="30.31"/><line class="cls-6" x1="112.6" y1="33.43" x2="114.13" y2="34.99"/><line class="cls-6" x1="109.24" y1="35.16" x2="109.24" y2="36.97"/><line class="cls-6" x1="105.88" y1="33.43" x2="104.35" y2="34.99"/><line class="cls-6" x1="104.48" y1="30.31" x2="102.1" y2="30.31"/><line class="cls-6" x1="105.88" y1="26.58" x2="104.35" y2="25.02"/><path class="cls-7" d="M141.5,30.5V60.7a2.77,2.77,0,0,0,2.73,2.8h32.54a2.77,2.77,0,0,0,2.73-2.8V40.5"/><path class="cls-7" d="M179.5,20.5V3.3A2.77,2.77,0,0,0,176.77.5H144.23a2.77,2.77,0,0,0-2.73,2.8v7.2"/><circle class="cls-8" cx="160" cy="59" r="2.5"/><polyline class="cls-7" points="145.5 10.5 145.5 3.5 175.5 3.5 175.5 20.5"/><polyline class="cls-7" points="175.5 40.5 175.5 54.5 145.5 54.5 145.5 30.5"/><path class="cls-7" d="M155.85,10.5H137.2a2.75,2.75,0,0,0-2.7,2.8V26.7a2.75,2.75,0,0,0,2.7,2.8h11.32l5,6.58V29.5h2.35a2.73,2.73,0,0,0,2.65-2.8V13.3A2.73,2.73,0,0,0,155.85,10.5Z"/><path class="cls-7" d="M138.47,25.5V17.33c0-1.57.82-2.83,1.83-2.83h.26c1,0,1.83,1.27,1.83,2.83V25.5"/><path class="cls-7" d="M142.4,25.5V17.33c0-1.57.82-2.83,1.83-2.83h.26c1,0,1.83,1.27,1.83,2.83V25.5"/><path class="cls-7" d="M146.32,25.5V17.33c0-1.57.82-2.83,1.83-2.83h.26c1,0,1.83,1.27,1.83,2.83l0,5.3a2.84,2.84,0,0,0,2.81,2.86h2"/><path class="cls-7" d="M164.15,20.5H182.8a2.75,2.75,0,0,1,2.7,2.8V36.7a2.75,2.75,0,0,1-2.7,2.8H171.48l-5,6.58V39.5h-2.35a2.73,2.73,0,0,1-2.65-2.8V23.3A2.73,2.73,0,0,1,164.15,20.5Z"/><ellipse class="cls-7" cx="173.24" cy="30.31" rx="3.57" ry="3.63"/><line class="cls-7" x1="173.24" y1="25.46" x2="173.24" y2="23.04"/><line class="cls-7" x1="176.6" y1="26.58" x2="178.13" y2="25.02"/><line class="cls-7" x1="178" y1="30.31" x2="180.38" y2="30.31"/><line class="cls-7" x1="176.6" y1="33.43" x2="178.13" y2="34.99"/><line class="cls-7" x1="173.24" y1="35.16" x2="173.24" y2="36.97"/><line class="cls-7" x1="169.88" y1="33.43" x2="168.35" y2="34.99"/><line class="cls-7" x1="168.48" y1="30.31" x2="166.1" y2="30.31"/><line class="cls-7" x1="169.88" y1="26.58" x2="168.35" y2="25.02"/></svg>
