<svg id="Livello_1" data-name="Livello 1" xmlns="http://www.w3.org/2000/svg" viewBox="0 0 192 64">
    <defs>
        <style>
            .cls-1,
            .cls-2,
            .cls-3,
            .cls-4,
            .cls-5,
            .cls-6,
            .cls-7,
            .cls-8 {
                fill: none;
                stroke-linecap: round;
                stroke-linejoin: round;
            }
            .cls-1 {
                stroke: #0069b2;
            }
            .cls-2,
            .cls-3 {
                stroke: #f48135;
            }
            .cls-2,
            .cls-5,
            .cls-8 {
                stroke-width: 0.75px;
            }
            .cls-4 {
                stroke: #54595e;
            }
            .cls-5,
            .cls-6 {
                stroke: #aab2bd;
            }
            .cls-7,
            .cls-8 {
                stroke: #fff;
            }
        </style>
        <view id="color" viewBox="0 0 64 64"/>
        <view id="grey" viewBox="64 0 64 64"/>
        <view id="white" viewBox="128 0 64 64"/>
    </defs><path class="cls-1" d="M51.42,44.45v-41A2.79,2.79,0,0,0,48.63.63H15.37a2.79,2.79,0,0,0-2.79,2.79V60.59a2.79,2.79,0,0,0,2.79,2.79H48.63a2.79,2.79,0,0,0,2.79-2.79V44.45"/><ellipse class="cls-2" cx="32" cy="58.23" rx="2.71" ry="2.67"/><path class="cls-3" d="M18.52,25a29.19,29.19,0,0,1,26.09,0"/><path class="cls-3" d="M22.13,30.61a22.44,22.44,0,0,1,18.88,0"/><path class="cls-3" d="M37.46,36.09a15.36,15.36,0,0,0-11.8,0"/><rect class="cls-1" x="16.56" y="4.61" width="30.87" height="48.81"/><path class="cls-4" d="M115.42,44.45v-41A2.79,2.79,0,0,0,112.63.63H79.37a2.79,2.79,0,0,0-2.79,2.79V60.59a2.79,2.79,0,0,0,2.79,2.79h33.26a2.79,2.79,0,0,0,2.79-2.79V44.45"/><ellipse class="cls-5" cx="96" cy="58.23" rx="2.71" ry="2.67"/><path class="cls-6" d="M82.52,25a29.19,29.19,0,0,1,26.09,0"/><path class="cls-6" d="M86.13,30.61a22.44,22.44,0,0,1,18.88,0"/><path class="cls-6" d="M101.46,36.09a15.36,15.36,0,0,0-11.8,0"/><rect class="cls-4" x="80.56" y="4.61" width="30.87" height="48.81"/><path class="cls-7" d="M179.42,44.45v-41A2.79,2.79,0,0,0,176.63.63H143.37a2.79,2.79,0,0,0-2.79,2.79V60.59a2.79,2.79,0,0,0,2.79,2.79h33.26a2.79,2.79,0,0,0,2.79-2.79V44.45"/><ellipse class="cls-8" cx="160" cy="58.23" rx="2.71" ry="2.67"/><path class="cls-7" d="M146.52,25a29.19,29.19,0,0,1,26.09,0"/><path class="cls-7" d="M150.13,30.61a22.44,22.44,0,0,1,18.88,0"/><path class="cls-7" d="M165.46,36.09a15.36,15.36,0,0,0-11.8,0"/><rect class="cls-7" x="144.56" y="4.61" width="30.87" height="48.81"/></svg>
