<svg id="Livello_1" data-name="Livello 1" xmlns="http://www.w3.org/2000/svg" viewBox="0 0 192 64">
    <defs>
        <style>
            .cls-1,
            .cls-2,
            .cls-3,
            .cls-4,
            .cls-5 {
                fill: none;
                stroke-linecap: round;
                stroke-linejoin: round;
            }
            .cls-1 {
                stroke: #0069b2;
            }
            .cls-2 {
                stroke: #f48135;
            }
            .cls-3 {
                stroke: #54595e;
            }
            .cls-4 {
                stroke: #aab2bd;
            }
            .cls-5 {
                stroke: #fff;
            }
        </style>
        <view id="color" viewBox="0 0 64 64"/>
        <view id="grey" viewBox="64 0 64 64"/>
        <view id="white" viewBox="128 0 64 64"/>
    </defs><path class="cls-1" d="M37.24,30.87a15.7,15.7,0,0,1-10.49,0C17.54,34.09,10.52,45.82,9.6,63.5H54.4C53.48,45.82,46.46,34.09,37.24,30.87Z"/><ellipse class="cls-2" cx="32" cy="13.84" rx="13.61" ry="13.34"/><path class="cls-3" d="M101.24,30.87a15.7,15.7,0,0,1-10.49,0C81.54,34.09,74.52,45.82,73.6,63.5H118.4C117.48,45.82,110.46,34.09,101.24,30.87Z"/><ellipse class="cls-4" cx="96" cy="13.84" rx="13.61" ry="13.34"/><path class="cls-5" d="M165.24,30.87a15.7,15.7,0,0,1-10.49,0c-9.22,3.21-16.24,14.95-17.16,32.63H182.4C181.48,45.82,174.46,34.09,165.24,30.87Z"/><ellipse class="cls-5" cx="160" cy="13.84" rx="13.61" ry="13.34"/></svg>
