<svg id="Livello_1" data-name="Livello 1" xmlns="http://www.w3.org/2000/svg" viewBox="0 0 192 64">
    <defs>
        <style>
            .cls-1,
            .cls-2,
            .cls-3,
            .cls-4,
            .cls-5,
            .cls-6,
            .cls-7,
            .cls-8,
            .cls-9 {
                fill: none;
            }
            .cls-1,
            .cls-2 {
                stroke: #0069b2;
            }
            .cls-1,
            .cls-4,
            .cls-7 {
                stroke-miterlimit: 10;
            }
            .cls-2,
            .cls-3,
            .cls-5,
            .cls-6,
            .cls-8,
            .cls-9 {
                stroke-linejoin: round;
            }
            .cls-3 {
                stroke: #f48135;
            }
            .cls-3,
            .cls-6,
            .cls-9 {
                stroke-linecap: round;
            }
            .cls-4,
            .cls-5 {
                stroke: #54595e;
            }
            .cls-6 {
                stroke: #aab2bd;
            }
            .cls-7,
            .cls-8,
            .cls-9 {
                stroke: #fff;
            }
        </style>
        <view id="color" viewBox="0 0 64 64"/>
        <view id="grey" viewBox="64 0 64 64"/>
        <view id="white" viewBox="128 0 64 64"/>
    </defs><path class="cls-1" d="M41.93,9.92a9.93,9.93,0,0,0-19.86,0"/><path class="cls-1" d="M32,8.24C47.75,8.24,60.57,20.68,60.57,36S47.75,63.73,32,63.73,3.43,51.28,3.43,36,16.25,8.24,32,8.24"/><line class="cls-2" x1="32" y1="8.19" x2="32" y2="18.05"/><line class="cls-2" x1="32" y1="53.91" x2="32" y2="63.77"/><line class="cls-2" x1="60.62" y1="35.98" x2="50.75" y2="35.98"/><line class="cls-2" x1="13.25" y1="35.98" x2="3.38" y2="35.98"/><line class="cls-2" x1="17.7" y1="21.84" x2="11.77" y2="16.42"/><line class="cls-2" x1="52.35" y1="55.51" x2="46.42" y2="50.09"/><path class="cls-3" d="M39.4,36.13a7.42,7.42,0,0,1-.15,1.47l8.9-17.4L31.32,28.8c.23,0,.45-.07.68-.07A7.4,7.4,0,0,1,39.4,36.13Z"/><path class="cls-3" d="M32,43.53a7.4,7.4,0,0,1-7.4-7.4s0,0,0-.06l-8,15.69,16.27-8.32A7.26,7.26,0,0,1,32,43.53Z"/><path class="cls-3" d="M37.45,41.09h0l0,0Z"/><circle class="cls-2" cx="32" cy="36.13" r="7.4"/><path class="cls-4" d="M105.93,9.92a9.93,9.93,0,0,0-19.86,0"/><path class="cls-4" d="M96,8.24c15.75,0,28.57,12.45,28.57,27.74S111.75,63.73,96,63.73,67.43,51.28,67.43,36,80.25,8.24,96,8.24"/><line class="cls-5" x1="96" y1="8.19" x2="96" y2="18.05"/><line class="cls-5" x1="96" y1="53.91" x2="96" y2="63.77"/><line class="cls-5" x1="124.62" y1="35.98" x2="114.75" y2="35.98"/><line class="cls-5" x1="77.25" y1="35.98" x2="67.38" y2="35.98"/><line class="cls-5" x1="81.7" y1="21.84" x2="75.77" y2="16.42"/><line class="cls-5" x1="116.35" y1="55.51" x2="110.42" y2="50.09"/><path class="cls-6" d="M103.4,36.13a7.42,7.42,0,0,1-.15,1.47l8.9-17.4L95.32,28.8c.23,0,.45-.07.68-.07A7.4,7.4,0,0,1,103.4,36.13Z"/><path class="cls-6" d="M96,43.53a7.4,7.4,0,0,1-7.4-7.4s0,0,0-.06l-8,15.69,16.27-8.32A7.26,7.26,0,0,1,96,43.53Z"/><path class="cls-6" d="M101.45,41.09h0l0,0Z"/><circle class="cls-5" cx="96" cy="36.13" r="7.4"/><path class="cls-7" d="M169.93,9.92a9.93,9.93,0,0,0-19.86,0"/><path class="cls-7" d="M160,8.24c15.75,0,28.57,12.45,28.57,27.74S175.75,63.73,160,63.73,131.43,51.28,131.43,36,144.25,8.24,160,8.24"/><line class="cls-8" x1="160" y1="8.19" x2="160" y2="18.05"/><line class="cls-8" x1="160" y1="53.91" x2="160" y2="63.77"/><line class="cls-8" x1="188.62" y1="35.98" x2="178.75" y2="35.98"/><line class="cls-8" x1="141.25" y1="35.98" x2="131.38" y2="35.98"/><line class="cls-8" x1="145.7" y1="21.84" x2="139.77" y2="16.42"/><line class="cls-8" x1="180.35" y1="55.51" x2="174.42" y2="50.09"/><path class="cls-9" d="M167.4,36.13a7.42,7.42,0,0,1-.15,1.47l8.9-17.4-16.83,8.6c.23,0,.45-.07.68-.07A7.4,7.4,0,0,1,167.4,36.13Z"/><path class="cls-9" d="M160,43.53a7.4,7.4,0,0,1-7.4-7.4s0,0,0-.06l-8,15.69,16.27-8.32A7.26,7.26,0,0,1,160,43.53Z"/><path class="cls-9" d="M165.45,41.09h0l0,0Z"/><circle class="cls-8" cx="160" cy="36.13" r="7.4"/></svg>
