<svg id="Livello_1" data-name="Livello 1" xmlns="http://www.w3.org/2000/svg" viewBox="0 0 192 64">
    <defs>
        <style>
            .cls-1,
            .cls-2,
            .cls-3,
            .cls-4,
            .cls-5,
            .cls-6,
            .cls-7,
            .cls-8,
            .cls-9 {
                fill: none;
            }
            .cls-1,
            .cls-2 {
                stroke: #aab2bd;
            }
            .cls-1,
            .cls-2,
            .cls-4,
            .cls-5,
            .cls-7,
            .cls-8 {
                stroke-linecap: round;
            }
            .cls-1,
            .cls-4,
            .cls-7 {
                stroke-linejoin: round;
            }
            .cls-2,
            .cls-3,
            .cls-5,
            .cls-6,
            .cls-8,
            .cls-9 {
                stroke-miterlimit: 10;
            }
            .cls-3 {
                stroke: #54595e;
            }
            .cls-4,
            .cls-5 {
                stroke: #f48135;
            }
            .cls-6 {
                stroke: #0069b2;
            }
            .cls-7,
            .cls-8,
            .cls-9 {
                stroke: #fff;
            }
        </style>
        <view id="color" viewBox="0 0 64 64"/>
        <view id="grey" viewBox="64 0 64 64"/>
        <view id="white" viewBox="128 0 64 64"/>
    </defs><path class="cls-1" d="M79.79,18.12A18,18,0,0,0,97.64,36.28l26.84.19"/><polyline class="cls-2" points="107.91 46.74 125.03 36.47 107.91 26.2"/><path class="cls-3" d="M100.5,41l.19,12.7a2.8,2.8,0,0,1-2.8,2.8H69.3a2.8,2.8,0,0,1-2.8-2.8V10.3a2.8,2.8,0,0,1,2.8-2.8H97.7a2.8,2.8,0,0,1,2.8,2.8V31"/><path class="cls-4" d="M15.79,18.12A18,18,0,0,0,33.64,36.28l26.84.19"/><polyline class="cls-5" points="43.91 46.74 61.03 36.47 43.91 26.2"/><path class="cls-6" d="M36.5,41l.19,12.7a2.8,2.8,0,0,1-2.8,2.8H5.3a2.8,2.8,0,0,1-2.8-2.8V10.3A2.8,2.8,0,0,1,5.3,7.5H33.7a2.8,2.8,0,0,1,2.8,2.8V31"/><path class="cls-7" d="M143.79,18.12a18,18,0,0,0,17.85,18.16l26.84.19"/><polyline class="cls-8" points="171.91 46.74 189.03 36.47 171.91 26.2"/><path class="cls-9" d="M164.5,41l.19,12.7a2.8,2.8,0,0,1-2.8,2.8H133.3a2.8,2.8,0,0,1-2.8-2.8V10.3a2.8,2.8,0,0,1,2.8-2.8h28.4a2.8,2.8,0,0,1,2.8,2.8V31"/></svg>
