<svg id="Livello_1" data-name="Livello 1" xmlns="http://www.w3.org/2000/svg" viewBox="0 0 192 64">
    <defs>
        <style>
            .cls-1,
            .cls-2,
            .cls-3,
            .cls-4,
            .cls-5 {
                fill: none;
                stroke-miterlimit: 10;
                stroke-width: 1.25px;
            }
            .cls-1 {
                stroke: #0069b2;
            }
            .cls-2 {
                stroke: #f48135;
            }
            .cls-3 {
                stroke: #54595e;
            }
            .cls-4 {
                stroke: #aab2bd;
            }
            .cls-5 {
                stroke: #fff;
            }
        </style>
        <view id="color" viewBox="0 0 64 64"/>
        <view id="grey" viewBox="64 0 64 64"/>
        <view id="white" viewBox="128 0 64 64"/>
    </defs>
        <path class="cls-1" d="M31.51,19.16a89,89,0,0,1,18.15,2.31,4.33,4.33,0,0,1,3,2.5,1.74,1.74,0,0,0,1.62,1H61.7a1.65,1.65,0,0,0,1.67-1.63,10.22,10.22,0,0,0-8.37-10,141.59,141.59,0,0,0-23.84-2.26A141.4,141.4,0,0,0,9,13.29a10.22,10.22,0,0,0-8.37,10A1.65,1.65,0,0,0,2.3,24.94H9.78a1.74,1.74,0,0,0,1.62-1,4.33,4.33,0,0,1,3-2.5,89.19,89.19,0,0,1,17.16-2.28"/><ellipse class="cls-1" cx="32.2" cy="38.28" rx="11.6" ry="11.42"/><ellipse class="cls-2" cx="32.2" cy="38.28" rx="6.22" ry="6.12"/>
        <path class="cls-1" d="M23.34,23H18.61a4.42,4.42,0,0,0-4.37,3.61L6.19,47.82a4.39,4.39,0,0,0,4.37,5.13H53.85a4.39,4.39,0,0,0,4.37-5.13L50.16,26.64A4.42,4.42,0,0,0,45.79,23H23.34Z"/>
        <path class="cls-3" d="M95.51,19.16a89,89,0,0,1,18.15,2.31,4.33,4.33,0,0,1,3,2.5,1.74,1.74,0,0,0,1.62,1h7.48a1.65,1.65,0,0,0,1.67-1.63,10.22,10.22,0,0,0-8.37-10,141.59,141.59,0,0,0-23.84-2.26A141.4,141.4,0,0,0,73,13.29a10.22,10.22,0,0,0-8.37,10,1.65,1.65,0,0,0,1.67,1.63h7.48a1.74,1.74,0,0,0,1.62-1,4.33,4.33,0,0,1,3-2.5,89.19,89.19,0,0,1,17.16-2.28"/><ellipse class="cls-3" cx="96.2" cy="38.28" rx="11.6" ry="11.42"/><ellipse class="cls-4" cx="96.2" cy="38.28" rx="6.22" ry="6.12"/>
        <path class="cls-3" d="M87.34,23H82.61a4.42,4.42,0,0,0-4.37,3.61L70.19,47.82a4.39,4.39,0,0,0,4.37,5.13h43.29a4.39,4.39,0,0,0,4.37-5.13l-8.05-21.17A4.42,4.42,0,0,0,109.79,23H87.34Z"/>
        <path class="cls-5" d="M159.51,19.16a89,89,0,0,1,18.15,2.31,4.33,4.33,0,0,1,3,2.5,1.74,1.74,0,0,0,1.62,1h7.48a1.65,1.65,0,0,0,1.67-1.63,10.22,10.22,0,0,0-8.37-10,141.59,141.59,0,0,0-23.84-2.26A141.4,141.4,0,0,0,137,13.29a10.22,10.22,0,0,0-8.37,10,1.65,1.65,0,0,0,1.67,1.63h7.48a1.74,1.74,0,0,0,1.62-1,4.33,4.33,0,0,1,3-2.5,89.19,89.19,0,0,1,17.16-2.28"/><ellipse class="cls-5" cx="160.2" cy="38.28" rx="11.6" ry="11.42"/><ellipse class="cls-5" cx="160.2" cy="38.28" rx="6.22" ry="6.12"/>
        <path class="cls-5" d="M151.34,23h-4.73a4.42,4.42,0,0,0-4.37,3.61l-8.05,21.17a4.39,4.39,0,0,0,4.37,5.13h43.29a4.39,4.39,0,0,0,4.37-5.13l-8.05-21.17A4.42,4.42,0,0,0,173.79,23H151.34Z"/>
      </svg>
