<svg id="Livello_1" data-name="Livello 1" xmlns="http://www.w3.org/2000/svg" viewBox="0 0 192 64">
    <defs>
        <style>
            .cls-1 {
                fill: #0069b2;
            }
            .cls-2 {
                fill: #f48135;
            }
            .cls-3 {
                fill: #54595e;
            }
            .cls-4 {
                fill: #aab2bd;
                stroke: #aab2bd;
            }
            .cls-4,
            .cls-6 {
                stroke-miterlimit: 10;
            }
            .cls-5,
            .cls-6 {
                fill: #fff;
            }
            .cls-6 {
                stroke: #fff;
            }
        </style>
        <view id="color" viewBox="0 0 64 64"/>
        <view id="grey" viewBox="64 0 64 64"/>
        <view id="white" viewBox="128 0 64 64"/>
    </defs><path class="cls-1" d="M32,1A31,31,0,1,1,1,32,31,31,0,0,1,32,1m0-1A32,32,0,1,0,64,32,32,32,0,0,0,32,0Z"/><path class="cls-2" d="M30,46V26h5V46Z"/><path class="cls-2" d="M30,19V14h5v5Z"/><path class="cls-3" d="M96,1A31,31,0,1,1,65,32,31,31,0,0,1,96,1m0-1a32,32,0,1,0,32,32A32,32,0,0,0,96,0Z"/><path class="cls-4" d="M94.5,46.5v-20h5v20Z"/><path class="cls-4" d="M94.5,19.5v-5h5v5Z"/><path class="cls-5" d="M160,1a31,31,0,1,1-31,31A31,31,0,0,1,160,1m0-1a32,32,0,1,0,32,32A32,32,0,0,0,160,0Z"/><path class="cls-6" d="M158.5,46.5v-20h5v20Z"/><path class="cls-6" d="M158.5,19.5v-5h5v5Z"/></svg>
