<svg id="Livello_1" data-name="Livello 1" xmlns="http://www.w3.org/2000/svg" viewBox="0 0 192 64">
    <defs>
        <style>
            .cls-1 {
                fill: #0069b2;
            }
            .cls-10,
            .cls-11,
            .cls-2,
            .cls-3,
            .cls-4,
            .cls-6,
            .cls-7,
            .cls-8 {
                fill: none;
            }
            .cls-2,
            .cls-3 {
                stroke: #0069b2;
            }
            .cls-10,
            .cls-2,
            .cls-4,
            .cls-6,
            .cls-8 {
                stroke-linejoin: round;
            }
            .cls-11,
            .cls-3,
            .cls-7 {
                stroke-miterlimit: 10;
            }
            .cls-4 {
                stroke: #f48135;
            }
            .cls-5 {
                fill: #54595e;
            }
            .cls-6,
            .cls-7 {
                stroke: #54595e;
            }
            .cls-8 {
                stroke: #aab2bd;
            }
            .cls-9 {
                fill: #fff;
            }
            .cls-10,
            .cls-11 {
                stroke: #fff;
            }
        </style>
        <view id="color" viewBox="0 0 64 64"/>
        <view id="grey" viewBox="64 0 64 64"/>
        <view id="white" viewBox="128 0 64 64"/>
    </defs><path
        class="cls-1"
        d="M61.2,11.93a1.8,1.8,0,0,1,1.8,1.8V50.27a1.8,1.8,0,0,1-1.8,1.8H2.8A1.8,1.8,0,0,1,1,50.27V13.73a1.8,1.8,0,0,1,1.8-1.8H61.2m0-1H2.8A2.8,2.8,0,0,0,0,13.73V50.27a2.8,2.8,0,0,0,2.8,2.8H61.2a2.8,2.8,0,0,0,2.8-2.8V13.73a2.8,2.8,0,0,0-2.8-2.8Z"/><path class="cls-2" d="M21.07,23.41v3.12m0,1.56V40.59"/><circle class="cls-3" cx="21.07" cy="32" r="14.05"/><line class="cls-4" x1="40.59" y1="25.76" x2="57.76" y2="25.76"/><line class="cls-4" x1="40.59" y1="32" x2="57.76" y2="32"/><line class="cls-4" x1="40.59" y1="38.24" x2="57.76" y2="38.24"/><path
        class="cls-5"
        d="M125.2,11.93a1.8,1.8,0,0,1,1.8,1.8V50.27a1.8,1.8,0,0,1-1.8,1.8H66.8a1.8,1.8,0,0,1-1.8-1.8V13.73a1.8,1.8,0,0,1,1.8-1.8h58.4m0-1H66.8a2.8,2.8,0,0,0-2.8,2.8V50.27a2.8,2.8,0,0,0,2.8,2.8h58.4a2.8,2.8,0,0,0,2.8-2.8V13.73a2.8,2.8,0,0,0-2.8-2.8Z"/><path class="cls-6" d="M85.07,23.41v3.12m0,1.56V40.59"/><circle class="cls-7" cx="85.07" cy="32" r="14.05"/><line class="cls-8" x1="104.59" y1="25.76" x2="121.76" y2="25.76"/><line class="cls-8" x1="104.59" y1="32" x2="121.76" y2="32"/><line class="cls-8" x1="104.59" y1="38.24" x2="121.76" y2="38.24"/><path
        class="cls-9"
        d="M189.2,11.93a1.8,1.8,0,0,1,1.8,1.8V50.27a1.8,1.8,0,0,1-1.8,1.8H130.8a1.8,1.8,0,0,1-1.8-1.8V13.73a1.8,1.8,0,0,1,1.8-1.8h58.4m0-1H130.8a2.8,2.8,0,0,0-2.8,2.8V50.27a2.8,2.8,0,0,0,2.8,2.8h58.4a2.8,2.8,0,0,0,2.8-2.8V13.73a2.8,2.8,0,0,0-2.8-2.8Z"/><path class="cls-10" d="M149.07,23.41v3.12m0,1.56V40.59"/><circle class="cls-11" cx="149.07" cy="32" r="14.05"/><line class="cls-10" x1="168.59" y1="25.76" x2="185.76" y2="25.76"/><line class="cls-10" x1="168.59" y1="32" x2="185.76" y2="32"/><line class="cls-10" x1="168.59" y1="38.24" x2="185.76" y2="38.24"/></svg>
