<svg id="Livello_1" data-name="Livello 1" xmlns="http://www.w3.org/2000/svg" viewBox="0 0 192 64">
    <defs>
        <style>
            .cls-1,
            .cls-11,
            .cls-12,
            .cls-13,
            .cls-14,
            .cls-15,
            .cls-16,
            .cls-18,
            .cls-19,
            .cls-2,
            .cls-4,
            .cls-5,
            .cls-6,
            .cls-7,
            .cls-8,
            .cls-9 {
                fill: none;
            }
            .cls-1,
            .cls-3,
            .cls-4,
            .cls-5,
            .cls-6 {
                stroke: #0069b2;
            }
            .cls-1,
            .cls-10,
            .cls-11,
            .cls-15,
            .cls-17,
            .cls-18,
            .cls-3,
            .cls-4,
            .cls-8 {
                stroke-miterlimit: 10;
            }
            .cls-2,
            .cls-7 {
                stroke: #f48135;
            }
            .cls-12,
            .cls-13,
            .cls-14,
            .cls-16,
            .cls-19,
            .cls-2,
            .cls-5,
            .cls-6,
            .cls-7,
            .cls-9 {
                stroke-linejoin: round;
            }
            .cls-3 {
                fill: #0069b2;
            }
            .cls-10,
            .cls-17,
            .cls-3 {
                stroke-width: 2px;
            }
            .cls-11,
            .cls-12,
            .cls-14,
            .cls-18,
            .cls-19,
            .cls-4,
            .cls-5,
            .cls-7 {
                stroke-linecap: round;
            }
            .cls-11,
            .cls-12,
            .cls-13,
            .cls-8 {
                stroke: #54595e;
            }
            .cls-10,
            .cls-14,
            .cls-9 {
                stroke: #aab2bd;
            }
            .cls-10 {
                fill: #aab2bd;
            }
            .cls-15,
            .cls-16,
            .cls-17,
            .cls-18,
            .cls-19 {
                stroke: #fff;
            }
            .cls-17 {
                fill: #fff;
            }
        </style>
        <view id="color" viewBox="0 0 64 64"/>
        <view id="grey" viewBox="64 0 64 64"/>
        <view id="white" viewBox="128 0 64 64"/>
    </defs>
    <path class="cls-1" d="M23,29.32H4.62A4.12,4.12,0,0,0,.5,33.44v2.8a4.08,4.08,0,0,0,4.08,4.08l18.42.1"/><line class="cls-2" x1="5" y1="33.32" x2="19" y2="33.32"/><line class="cls-2" x1="5" y1="36.32" x2="19" y2="36.32"/><circle class="cls-3" cx="11.5" cy="15.32" r="1.5"/><line class="cls-1" x1="11.5" y1="19.82" x2="11.5" y2="28.82"/>
    <path class="cls-4" d="M17.64,9.64a7,7,0,0,1,3.16,5.71,7,7,0,0,1-3.58,6"/>
    <path class="cls-5" d="M4.64,9.64a7,7,0,0,0-3.16,5.71,7,7,0,0,0,3.58,6"/>
    <path class="cls-5" d="M16.35,12.88a4.11,4.11,0,0,1,0,4.95"/>
    <path class="cls-5" d="M6.4,17.83a4.11,4.11,0,0,1,0-5"/>
    <path class="cls-6" d="M23.5,27.24V51.32h37V27.22a1.9,1.9,0,0,0-1.9-1.9H25.41A1.92,1.92,0,0,0,23.5,27.24Z"/>
    <path class="cls-6" d="M19.5,51.32v1.34a1.81,1.81,0,0,0,2.09,1.66H61.52a1.67,1.67,0,0,0,2-1.66V51.32Z"/><rect class="cls-5" x="26.5" y="28.32" width="30" height="19"/><polygon class="cls-7" points="29.29 31.53 31.61 40.76 34.71 38.45 37.81 42.3 40.14 39.99 36.26 36.91 38.59 33.84 29.29 31.53"/>
    <path class="cls-8" d="M87,29.32H68.62a4.12,4.12,0,0,0-4.12,4.12v2.8a4.08,4.08,0,0,0,4.08,4.08l18.42.1"/><line class="cls-9" x1="69" y1="33.32" x2="83" y2="33.32"/><line class="cls-9" x1="69" y1="36.32" x2="83" y2="36.32"/><circle class="cls-10" cx="75.5" cy="15.32" r="1.5"/><line class="cls-8" x1="75.5" y1="19.82" x2="75.5" y2="28.82"/>
    <path class="cls-11" d="M81.64,9.64a7,7,0,0,1,3.16,5.71,7,7,0,0,1-3.58,6"/>
    <path class="cls-12" d="M68.64,9.64a7,7,0,0,0-3.16,5.71,7,7,0,0,0,3.58,6"/>
    <path class="cls-12" d="M80.35,12.88a4.11,4.11,0,0,1,0,4.95"/>
    <path class="cls-12" d="M70.4,17.83a4.11,4.11,0,0,1,0-5"/>
    <path class="cls-13" d="M87.5,27.24V51.32h37V27.22a1.9,1.9,0,0,0-1.9-1.9H89.41A1.92,1.92,0,0,0,87.5,27.24Z"/>
    <path class="cls-13" d="M83.5,51.32v1.34a1.81,1.81,0,0,0,2.09,1.66h39.93a1.67,1.67,0,0,0,2-1.66V51.32Z"/><rect class="cls-12" x="90.5" y="28.32" width="30" height="19"/><polygon class="cls-14" points="93.29 31.53 95.61 40.76 98.71 38.45 101.81 42.3 104.14 39.99 100.26 36.91 102.59 33.84 93.29 31.53"/>
    <path class="cls-15" d="M151,29.32H132.62a4.12,4.12,0,0,0-4.12,4.12v2.8a4.08,4.08,0,0,0,4.08,4.08l18.42.1"/><line class="cls-16" x1="133" y1="33.32" x2="147" y2="33.32"/><line class="cls-16" x1="133" y1="36.32" x2="147" y2="36.32"/><circle class="cls-17" cx="139.5" cy="15.32" r="1.5"/><line class="cls-15" x1="139.5" y1="19.82" x2="139.5" y2="28.82"/>
    <path class="cls-18" d="M145.64,9.64a7,7,0,0,1,3.16,5.71,7,7,0,0,1-3.58,6"/>
    <path class="cls-19" d="M132.64,9.64a7,7,0,0,0-3.16,5.71,7,7,0,0,0,3.58,6"/>
    <path class="cls-19" d="M144.35,12.88a4.11,4.11,0,0,1,0,4.95"/>
    <path class="cls-19" d="M134.4,17.83a4.11,4.11,0,0,1,0-5"/>
    <path class="cls-16" d="M151.5,27.24V51.32h37V27.22a1.9,1.9,0,0,0-1.9-1.9H153.41A1.92,1.92,0,0,0,151.5,27.24Z"/>
    <path class="cls-16" d="M147.5,51.32v1.34a1.81,1.81,0,0,0,2.09,1.66h39.93a1.67,1.67,0,0,0,2-1.66V51.32Z"/><rect class="cls-19" x="154.5" y="28.32" width="30" height="19"/><polygon class="cls-19" points="157.29 31.53 159.61 40.76 162.71 38.45 165.81 42.3 168.14 39.99 164.26 36.91 166.59 33.84 157.29 31.53"/>
  </svg>
