<svg id="Livello_1" data-name="Livello 1" xmlns="http://www.w3.org/2000/svg" viewBox="0 0 192 64">
    <defs>
        <style>
            .cls-1,
            .cls-2,
            .cls-3 {
                fill: none;
                stroke-linecap: round;
                stroke-linejoin: round;
            }
            .cls-1 {
                stroke: #f48135;
            }
            .cls-2 {
                stroke: #fff;
            }
            .cls-3 {
                stroke: #54595e;
            }
        </style>
        <view id="color" viewBox="0 0 64 64"/>
        <view id="grey" viewBox="64 0 64 64"/>
        <view id="white" viewBox="128 0 64 64"/>
    </defs><polygon class="cls-1" points="51.8 61.68 32.24 51.63 12.86 62.03 16.39 40.33 0.5 25.12 22.24 21.77 31.8 1.97 41.71 21.6 63.5 24.57 47.89 40.05 51.8 61.68"/><polygon class="cls-2" points="179.8 61.68 160.24 51.63 140.86 62.03 144.39 40.33 128.5 25.12 150.24 21.77 159.8 1.97 169.71 21.6 191.5 24.57 175.89 40.05 179.8 61.68"/><polygon class="cls-3" points="115.8 61.68 96.24 51.63 76.86 62.03 80.39 40.33 64.5 25.12 86.24 21.77 95.8 1.97 105.71 21.6 127.5 24.57 111.89 40.05 115.8 61.68"/></svg>
