<svg id="Livello_1" data-name="Livello 1" xmlns="http://www.w3.org/2000/svg" viewBox="0 0 192 64">
    <defs>
        <style>
            .cls-1,
            .cls-10,
            .cls-11,
            .cls-12,
            .cls-2,
            .cls-3,
            .cls-6,
            .cls-7,
            .cls-8 {
                fill: none;
            }
            .cls-1,
            .cls-2 {
                stroke: #0069b2;
            }
            .cls-1,
            .cls-10,
            .cls-6 {
                stroke-miterlimit: 10;
            }
            .cls-11,
            .cls-12,
            .cls-2,
            .cls-3,
            .cls-7,
            .cls-8 {
                stroke-linecap: round;
                stroke-linejoin: round;
            }
            .cls-3 {
                stroke: #f48135;
            }
            .cls-12,
            .cls-3,
            .cls-8 {
                stroke-width: 0.75px;
            }
            .cls-4 {
                fill: #f48135;
            }
            .cls-5 {
                fill: #fff;
            }
            .cls-6,
            .cls-7 {
                stroke: #54595e;
            }
            .cls-8 {
                stroke: #aab2bd;
            }
            .cls-9 {
                fill: #aab2bd;
            }
            .cls-10,
            .cls-11,
            .cls-12 {
                stroke: #fff;
            }
        </style>
        <view id="color" viewBox="0 0 64 64"/>
        <view id="grey" viewBox="64 0 64 64"/>
        <view id="white" viewBox="128 0 64 64"/>
    </defs><path class="cls-1" d="M14.67,32.06.5,32.11a26.35,26.35,0,0,0,7,18.06,36,36,0,0,1,9.27-3.26A48.45,48.45,0,0,1,14.67,32.06Z"/><path class="cls-1" d="M16.88,17.33A35.19,35.19,0,0,1,7.59,14.1a26.78,26.78,0,0,0-7.09,18l14.17-.06A48.94,48.94,0,0,1,16.88,17.33Z"/><path class="cls-1" d="M28,5.09a27.75,27.75,0,0,0-20.4,9,35.19,35.19,0,0,0,9.29,3.23C19.27,10,23.36,5.11,28,5.09Z"/><path class="cls-1" d="M16.8,46.91a36,36,0,0,0-9.27,3.26,27.27,27.27,0,0,0,20.23,8.74C23.16,58.93,19.13,54.16,16.8,46.91Z"/><path class="cls-1" d="M44.39,31.93H41.08a48.81,48.81,0,0,1-2.26,14.87,40.27,40.27,0,0,1,5.57,1.57"/><path class="cls-1" d="M44.39,48.39a40.27,40.27,0,0,0-5.57-1.57c-2.4,7.27-6.46,12.08-11.06,12.1A27.76,27.76,0,0,0,44.5,53.24"/><path class="cls-1" d="M53.61,22.6a26.53,26.53,0,0,0-5.3-8.67A35.75,35.75,0,0,1,39,17.24a48.58,48.58,0,0,1,2.08,14.71h3.31"/><path class="cls-1" d="M39,17.24a35.75,35.75,0,0,0,9.32-3.31A27.27,27.27,0,0,0,28,5.09C32.62,5.07,36.67,9.9,39,17.24Z"/><path class="cls-1" d="M27.93,18.41a53.05,53.05,0,0,1-11.05-1.08,48.94,48.94,0,0,0-2.21,14.73L27.87,32Z"/><path class="cls-1" d="M27.87,32l-.06,13.75a53.08,53.08,0,0,1,11,1.07,48.81,48.81,0,0,0,2.26-14.87Z"/><path class="cls-1" d="M14.67,32.06A48.45,48.45,0,0,0,16.8,46.91a53.36,53.36,0,0,1,11-1.16L27.87,32Z"/><path class="cls-1" d="M41.08,31.94A48.58,48.58,0,0,0,39,17.24a53.33,53.33,0,0,1-11.06,1.17L27.87,32Z"/><path class="cls-1" d="M16.8,46.91c2.33,7.25,6.36,12,11,12l.06-13.17A53.36,53.36,0,0,0,16.8,46.91Z"/><path class="cls-1" d="M38.82,46.82a53.08,53.08,0,0,0-11-1.07l-.06,13.17C32.35,58.89,36.42,54.09,38.82,46.82Z"/><path class="cls-1" d="M39,17.24C36.67,9.9,32.62,5.07,28,5.09l-.06,13.32A53.33,53.33,0,0,0,39,17.24Z"/><path class="cls-1" d="M16.88,17.33a53.05,53.05,0,0,0,11.05,1.08L28,5.09C23.36,5.11,19.27,10,16.88,17.33Z"/><path class="cls-2" d="M63.5,44.5V23.92a1.42,1.42,0,0,0-1.42-1.42H45.92a1.42,1.42,0,0,0-1.42,1.42V53.08a1.42,1.42,0,0,0,1.42,1.42H62.08a1.42,1.42,0,0,0,1.42-1.42V44.5"/><circle class="cls-3" cx="54" cy="52" r="1.5"/><rect class="cls-2" x="46.5" y="25.5" width="15" height="24"/><circle class="cls-4" cx="54" cy="37" r="6"/><path class="cls-5" d="M53.09,40,51,36.9l.46-.29L53.09,39l3.38-5.18.46.29Z"/><path class="cls-6" d="M78.67,32.06l-14.17.06a26.35,26.35,0,0,0,7,18.06,36,36,0,0,1,9.27-3.26A48.45,48.45,0,0,1,78.67,32.06Z"/><path class="cls-6" d="M80.88,17.33a35.19,35.19,0,0,1-9.29-3.23,26.78,26.78,0,0,0-7.09,18l14.17-.06A48.94,48.94,0,0,1,80.88,17.33Z"/><path class="cls-6" d="M92,5.09a27.75,27.75,0,0,0-20.4,9,35.19,35.19,0,0,0,9.29,3.23C83.27,10,87.36,5.11,92,5.09Z"/><path class="cls-6" d="M80.8,46.91a36,36,0,0,0-9.27,3.26,27.27,27.27,0,0,0,20.23,8.74C87.16,58.93,83.13,54.16,80.8,46.91Z"/><path class="cls-6" d="M108.39,31.93h-3.31a48.81,48.81,0,0,1-2.26,14.87,40.27,40.27,0,0,1,5.57,1.57"/><path class="cls-6" d="M108.39,48.39a40.27,40.27,0,0,0-5.57-1.57c-2.4,7.27-6.46,12.08-11.06,12.1a27.76,27.76,0,0,0,16.74-5.67"/><path class="cls-6" d="M117.61,22.6a26.53,26.53,0,0,0-5.3-8.67A35.75,35.75,0,0,1,103,17.24a48.58,48.58,0,0,1,2.08,14.71h3.31"/><path class="cls-6" d="M103,17.24a35.75,35.75,0,0,0,9.32-3.31A27.27,27.27,0,0,0,92,5.09C96.62,5.07,100.67,9.9,103,17.24Z"/><path class="cls-6" d="M91.93,18.41a53.05,53.05,0,0,1-11.05-1.08,48.94,48.94,0,0,0-2.21,14.73L91.87,32Z"/><path class="cls-6" d="M91.87,32l-.06,13.75a53.08,53.08,0,0,1,11,1.07,48.81,48.81,0,0,0,2.26-14.87Z"/><path class="cls-6" d="M78.67,32.06A48.45,48.45,0,0,0,80.8,46.91a53.36,53.36,0,0,1,11-1.16L91.87,32Z"/><path class="cls-6" d="M105.08,31.94A48.58,48.58,0,0,0,103,17.24a53.33,53.33,0,0,1-11.06,1.17L91.87,32Z"/><path class="cls-6" d="M80.8,46.91c2.33,7.25,6.36,12,11,12l.06-13.17A53.36,53.36,0,0,0,80.8,46.91Z"/><path class="cls-6" d="M102.82,46.82a53.08,53.08,0,0,0-11-1.07l-.06,13.17C96.35,58.89,100.42,54.09,102.82,46.82Z"/><path class="cls-6" d="M103,17.24C100.67,9.9,96.62,5.07,92,5.09l-.06,13.32A53.33,53.33,0,0,0,103,17.24Z"/><path class="cls-6" d="M80.88,17.33a53.05,53.05,0,0,0,11.05,1.08L92,5.09C87.36,5.11,83.27,10,80.88,17.33Z"/><path class="cls-7" d="M127.5,44.5V23.92a1.42,1.42,0,0,0-1.42-1.42H109.92a1.42,1.42,0,0,0-1.42,1.42V53.08a1.42,1.42,0,0,0,1.42,1.42h16.16a1.42,1.42,0,0,0,1.42-1.42V44.5"/><circle class="cls-8" cx="118" cy="52" r="1.5"/><rect class="cls-7" x="110.5" y="25.5" width="15" height="24"/><circle class="cls-9" cx="118" cy="37" r="6"/><path class="cls-5" d="M117.09,40,115,36.9l.46-.29L117.09,39l3.38-5.18.46.29Z"/><path class="cls-10" d="M142.67,32.06l-14.17.06a26.35,26.35,0,0,0,7,18.06,36,36,0,0,1,9.27-3.26A48.45,48.45,0,0,1,142.67,32.06Z"/><path class="cls-10" d="M144.88,17.33a35.19,35.19,0,0,1-9.29-3.23,26.78,26.78,0,0,0-7.09,18l14.17-.06A48.94,48.94,0,0,1,144.88,17.33Z"/><path class="cls-10" d="M156,5.09a27.75,27.75,0,0,0-20.4,9,35.19,35.19,0,0,0,9.29,3.23C147.27,10,151.36,5.11,156,5.09Z"/><path class="cls-10" d="M144.8,46.91a36,36,0,0,0-9.27,3.26,27.27,27.27,0,0,0,20.23,8.74C151.16,58.93,147.13,54.16,144.8,46.91Z"/><path class="cls-10" d="M172.39,31.93h-3.31a48.81,48.81,0,0,1-2.26,14.87,40.27,40.27,0,0,1,5.57,1.57"/><path class="cls-10" d="M172.39,48.39a40.27,40.27,0,0,0-5.57-1.57c-2.4,7.27-6.46,12.08-11.06,12.1a27.76,27.76,0,0,0,16.74-5.67"/><path class="cls-10" d="M181.61,22.6a26.53,26.53,0,0,0-5.3-8.67A35.75,35.75,0,0,1,167,17.24a48.58,48.58,0,0,1,2.08,14.71h3.31"/><path class="cls-10" d="M167,17.24a35.75,35.75,0,0,0,9.32-3.31A27.27,27.27,0,0,0,156,5.09C160.62,5.07,164.67,9.9,167,17.24Z"/><path class="cls-10" d="M155.93,18.41a53.05,53.05,0,0,1-11.05-1.08,48.94,48.94,0,0,0-2.21,14.73L155.87,32Z"/><path class="cls-10" d="M155.87,32l-.06,13.75a53.08,53.08,0,0,1,11,1.07,48.81,48.81,0,0,0,2.26-14.87Z"/><path class="cls-10" d="M142.67,32.06a48.45,48.45,0,0,0,2.13,14.85,53.36,53.36,0,0,1,11-1.16L155.87,32Z"/><path class="cls-10" d="M169.08,31.94A48.58,48.58,0,0,0,167,17.24a53.33,53.33,0,0,1-11.06,1.17L155.87,32Z"/><path class="cls-10" d="M144.8,46.91c2.33,7.25,6.36,12,11,12l.06-13.17A53.36,53.36,0,0,0,144.8,46.91Z"/><path class="cls-10" d="M166.82,46.82a53.08,53.08,0,0,0-11-1.07l-.06,13.17C160.35,58.89,164.42,54.09,166.82,46.82Z"/><path class="cls-10" d="M167,17.24c-2.33-7.33-6.38-12.17-11-12.15l-.06,13.32A53.33,53.33,0,0,0,167,17.24Z"/><path class="cls-10" d="M144.88,17.33a53.05,53.05,0,0,0,11.05,1.08L156,5.09C151.36,5.11,147.27,10,144.88,17.33Z"/><path class="cls-11" d="M191.5,44.5V23.92a1.42,1.42,0,0,0-1.42-1.42H173.92a1.42,1.42,0,0,0-1.42,1.42V53.08a1.42,1.42,0,0,0,1.42,1.42h16.16a1.42,1.42,0,0,0,1.42-1.42V44.5"/><circle class="cls-12" cx="182" cy="52" r="1.5"/><rect class="cls-11" x="174.5" y="25.5" width="15" height="24"/><path class="cls-5" d="M182,31a6,6,0,1,0,6,6A6,6,0,0,0,182,31Zm-.91,10-2.75-4.21,1.31-.82,1.44,2.2,3.23-5,1.31.83Z"/></svg>
