<svg id="Livello_1" data-name="Livello 1" xmlns="http://www.w3.org/2000/svg" viewBox="0 0 192 64">
    <defs>
        <style>
            .cls-1,
            .cls-10,
            .cls-11,
            .cls-2,
            .cls-3,
            .cls-4,
            .cls-5,
            .cls-6,
            .cls-7,
            .cls-8,
            .cls-9 {
                fill: none;
            }
            .cls-1 {
                stroke: #066ab2;
            }
            .cls-1,
            .cls-11,
            .cls-3,
            .cls-4,
            .cls-5,
            .cls-7,
            .cls-8,
            .cls-9 {
                stroke-linecap: round;
            }
            .cls-1,
            .cls-3,
            .cls-5,
            .cls-7,
            .cls-9 {
                stroke-linejoin: round;
            }
            .cls-2,
            .cls-4 {
                stroke: #0069b2;
            }
            .cls-10,
            .cls-11,
            .cls-2,
            .cls-4,
            .cls-6,
            .cls-8 {
                stroke-miterlimit: 10;
            }
            .cls-3 {
                stroke: #f48135;
            }
            .cls-5,
            .cls-6,
            .cls-8 {
                stroke: #54595e;
            }
            .cls-7 {
                stroke: #aab2bd;
            }
            .cls-10,
            .cls-11,
            .cls-9 {
                stroke: #fff;
            }
        </style>
        <view id="color" viewBox="0 0 64 64"/>
        <view id="grey" viewBox="64 0 64 64"/>
        <view id="white" viewBox="128 0 64 64"/>
    </defs><path class="cls-1" d="M55.35,42.26c0,7.59-9.14,15.79-17.26,17"/><ellipse class="cls-1" cx="33.51" cy="59.71" rx="3.77" ry="3.79"/><path class="cls-2" d="M53.06,20.42a3,3,0,0,1-2.81-1.86,19.81,19.81,0,0,0-36.51,0A3,3,0,0,1,9.8,20.2a3,3,0,0,1-1.67-3.87A25.65,25.65,0,0,1,32,.5,25.64,25.64,0,0,1,55.86,16.33a3,3,0,0,1-1.67,3.87A3.09,3.09,0,0,1,53.06,20.42Z"/><rect class="cls-3" x="47" y="27.89" width="16.69" height="12.05" rx="2.8" ry="2.8" transform="translate(21.43 89.26) rotate(-90)"/><rect class="cls-3" x="0.31" y="27.89" width="16.69" height="12.05" rx="2.8" ry="2.8" transform="translate(-25.26 42.57) rotate(-90)"/><line class="cls-3" x1="56.85" y1="25.57" x2="56.85" y2="42.26"/><line class="cls-3" x1="7.15" y1="25.57" x2="7.15" y2="42.26"/><line class="cls-4" x1="54.14" y1="20.2" x2="54.14" y2="25.54"/><line class="cls-4" x1="9.86" y1="20.23" x2="9.86" y2="25.54"/><path class="cls-5" d="M119.35,42.26c0,7.59-9.14,15.79-17.26,17"/><ellipse class="cls-5" cx="97.51" cy="59.71" rx="3.77" ry="3.79"/><path class="cls-6" d="M117.06,20.42a3,3,0,0,1-2.81-1.86,19.81,19.81,0,0,0-36.51,0A3,3,0,0,1,73.8,20.2a3,3,0,0,1-1.67-3.87,25.91,25.91,0,0,1,47.73,0,3,3,0,0,1-1.67,3.87A3.09,3.09,0,0,1,117.06,20.42Z"/><rect class="cls-7" x="111" y="27.89" width="16.69" height="12.05" rx="2.8" ry="2.8" transform="translate(85.43 153.26) rotate(-90)"/><rect class="cls-7" x="64.31" y="27.89" width="16.69" height="12.05" rx="2.8" ry="2.8" transform="translate(38.74 106.57) rotate(-90)"/><line class="cls-7" x1="120.85" y1="25.57" x2="120.85" y2="42.26"/><line class="cls-7" x1="71.15" y1="25.57" x2="71.15" y2="42.26"/><line class="cls-8" x1="118.14" y1="20.2" x2="118.14" y2="25.54"/><line class="cls-8" x1="73.86" y1="20.23" x2="73.86" y2="25.54"/><path class="cls-9" d="M183.35,42.26c0,7.59-9.14,15.79-17.26,17"/><ellipse class="cls-9" cx="161.51" cy="59.71" rx="3.77" ry="3.79"/><path class="cls-10" d="M181.06,20.42a3,3,0,0,1-2.81-1.86,19.81,19.81,0,0,0-36.51,0,3,3,0,0,1-3.94,1.64,3,3,0,0,1-1.67-3.87,25.91,25.91,0,0,1,47.73,0,3,3,0,0,1-1.67,3.87A3.09,3.09,0,0,1,181.06,20.42Z"/><rect class="cls-9" x="175" y="27.89" width="16.69" height="12.05" rx="2.8" ry="2.8" transform="translate(149.43 217.26) rotate(-90)"/><rect class="cls-9" x="128.31" y="27.89" width="16.69" height="12.05" rx="2.8" ry="2.8" transform="translate(102.74 170.57) rotate(-90)"/><line class="cls-9" x1="184.85" y1="25.57" x2="184.85" y2="42.26"/><line class="cls-9" x1="135.15" y1="25.57" x2="135.15" y2="42.26"/><line class="cls-11" x1="182.14" y1="20.2" x2="182.14" y2="25.54"/><line class="cls-11" x1="137.86" y1="20.23" x2="137.86" y2="25.54"/></svg>
