<svg id="Livello_1" data-name="Livello 1" xmlns="http://www.w3.org/2000/svg" viewBox="0 0 192 64">
    <defs>
        <style>
            .cls-1,
            .cls-2,
            .cls-3,
            .cls-4,
            .cls-5,
            .cls-6 {
                fill: none;
            }
            .cls-1 {
                stroke: #f48135;
            }
            .cls-1,
            .cls-3,
            .cls-5 {
                stroke-linecap: round;
                stroke-linejoin: round;
            }
            .cls-2 {
                stroke: #0069b2;
            }
            .cls-2,
            .cls-4,
            .cls-6 {
                stroke-miterlimit: 10;
            }
            .cls-3 {
                stroke: #aab2bd;
            }
            .cls-4 {
                stroke: #54595e;
            }
            .cls-5,
            .cls-6 {
                stroke: #fff;
            }
        </style>
        <view id="color" viewBox="0 0 64 64"/>
        <view id="grey" viewBox="64 0 64 64"/>
        <view id="white" viewBox="128 0 64 64"/>
    </defs><path class="cls-1" d="M56.71,16.08A14.73,14.73,0,0,1,43.87,32.5"/><ellipse class="cls-2" cx="44.67" cy="19.28" rx="18.83" ry="18.78"/><path class="cls-2" d="M3.67,62.34l-2-2a4,4,0,0,1,0-5.64L19,37.29a4,4,0,0,1,5.65,0l2,2a4,4,0,0,1,0,5.64L9.32,62.32A4,4,0,0,1,3.67,62.34Z"/><line class="cls-2" x1="31.58" y1="32.35" x2="25.68" y2="38.22"/><path class="cls-3" d="M120.81,16.21a14.75,14.75,0,0,1-12.89,16.4"/><circle class="cls-4" cx="108.69" cy="19.31" r="18.81"/><rect class="cls-4" x="61.88" y="44.43" width="32.59" height="10.78" rx="3.99" ry="3.99" transform="translate(-12.33 69.87) rotate(-45)"/><line class="cls-4" x1="95.61" y1="32.39" x2="89.72" y2="38.28"/><path class="cls-5" d="M184.81,16.21a14.75,14.75,0,0,1-12.89,16.4"/><circle class="cls-6" cx="172.69" cy="19.31" r="18.81"/><rect class="cls-6" x="125.88" y="44.43" width="32.59" height="10.78" rx="3.99" ry="3.99" transform="translate(6.42 115.13) rotate(-45)"/><line class="cls-6" x1="159.61" y1="32.39" x2="153.72" y2="38.28"/></svg>
