<svg id="Livello_1" data-name="Livello 1" xmlns="http://www.w3.org/2000/svg" viewBox="0 0 192 64">
    <defs>
        <style>
            .cls-1,
            .cls-3,
            .cls-5 {
                fill: none;
                stroke-miterlimit: 10;
            }
            .cls-1 {
                stroke: #0069b2;
            }
            .cls-2 {
                fill: #f48135;
            }
            .cls-3 {
                stroke: #54595e;
            }
            .cls-4 {
                fill: #aab2bd;
            }
            .cls-5 {
                stroke: #fff;
            }
            .cls-6 {
                fill: #fff;
            }
        </style>
        <view id="color" viewBox="0 0 64 64"/>
        <view id="grey" viewBox="64 0 64 64"/>
        <view id="white" viewBox="128 0 64 64"/>
    </defs><rect class="cls-1" x="1.48" y="1" width="61.03" height="62" rx="2.8" ry="2.8"/><rect class="cls-1" x="39.42" y="-3.86" width="10.16" height="28.02" rx="2.8" ry="2.8" transform="translate(54.65 -34.36) rotate(90)"/><path class="cls-2" d="M56,22.85v5.08H51V22.85h5m0-1H51a1,1,0,0,0-1,1v5.08a1,1,0,0,0,1,1h5a1,1,0,0,0,1-1V22.85a1,1,0,0,0-1-1Z"/><path class="cls-2" d="M47,22.85v5.08H42V22.85h5m0-1H42a1,1,0,0,0-1,1v5.08a1,1,0,0,0,1,1h5a1,1,0,0,0,1-1V22.85a1,1,0,0,0-1-1Z"/><path class="cls-2" d="M37,22.85v5.08H32V22.85h5m0-1H32a1,1,0,0,0-1,1v5.08a1,1,0,0,0,1,1h5a1,1,0,0,0,1-1V22.85a1,1,0,0,0-1-1Z"/><path class="cls-2" d="M56,33V38.1H51V33h5m0-1H51a1,1,0,0,0-1,1V38.1a1,1,0,0,0,1,1h5a1,1,0,0,0,1-1V33a1,1,0,0,0-1-1Z"/><path class="cls-2" d="M47,33V38.1H42V33h5m0-1H42a1,1,0,0,0-1,1V38.1a1,1,0,0,0,1,1h5a1,1,0,0,0,1-1V33a1,1,0,0,0-1-1Z"/><path class="cls-2" d="M37,33V38.1H32V33h5m0-1H32a1,1,0,0,0-1,1V38.1a1,1,0,0,0,1,1h5a1,1,0,0,0,1-1V33a1,1,0,0,0-1-1Z"/><path class="cls-2" d="M56,43.18v5.08H51V43.18h5m0-1H51a1,1,0,0,0-1,1v5.08a1,1,0,0,0,1,1h5a1,1,0,0,0,1-1V43.18a1,1,0,0,0-1-1Z"/><path class="cls-2" d="M47,43.18v5.08H42V43.18h5m0-1H42a1,1,0,0,0-1,1v5.08a1,1,0,0,0,1,1h5a1,1,0,0,0,1-1V43.18a1,1,0,0,0-1-1Z"/><path class="cls-2" d="M37,43.18v5.08H32V43.18h5m0-1H32a1,1,0,0,0-1,1v5.08a1,1,0,0,0,1,1h5a1,1,0,0,0,1-1V43.18a1,1,0,0,0-1-1Z"/><path class="cls-2" d="M56,53.34v5.08H51V53.34h5m0-1H51a1,1,0,0,0-1,1v5.08a1,1,0,0,0,1,1h5a1,1,0,0,0,1-1V53.34a1,1,0,0,0-1-1Z"/><path class="cls-2" d="M47,53.34v5.08H42V53.34h5m0-1H42a1,1,0,0,0-1,1v5.08a1,1,0,0,0,1,1h5a1,1,0,0,0,1-1V53.34a1,1,0,0,0-1-1Z"/><path class="cls-2" d="M37,53.34v5.08H32V53.34h5m0-1H32a1,1,0,0,0-1,1v5.08a1,1,0,0,0,1,1h5a1,1,0,0,0,1-1V53.34a1,1,0,0,0-1-1Z"/><path class="cls-1" d="M11.21,5.07A3,3,0,0,0,8.36,8.12V57.38a1.48,1.48,0,0,0,1.42,1.53"/><path class="cls-1" d="M21.69,42.19V57.38a1.48,1.48,0,0,1-1.42,1.53"/><line class="cls-1" x1="21.69" y1="42.19" x2="21.69" y2="21.81"/><path class="cls-1" d="M21.69,21.81V8.12a3,3,0,0,0-2.85-3.06"/><path class="cls-1" d="M8.32,42.19a3,3,0,0,0-2.84,3V55.89a3,3,0,0,0,2.84,3H10"/><path class="cls-1" d="M21.66,42.19h0"/><path class="cls-1" d="M21.69,42.19a3,3,0,0,1,2.8,3V55.89a3,3,0,0,1-2.84,3H20"/><line class="cls-1" x1="19.99" y1="58.93" x2="9.99" y2="58.93"/><path class="cls-1" d="M21.69,21.81a3,3,0,0,0,2.8-3V8.11a3,3,0,0,0-2.84-3H20"/><path class="cls-1" d="M21.69,21.81h0"/><path class="cls-1" d="M11,5.07H8.32a3,3,0,0,0-2.84,3V18.76a3,3,0,0,0,2.84,3"/><line class="cls-1" x1="10.99" y1="5.07" x2="19.99" y2="5.07"/><rect class="cls-3" x="65.48" y="1" width="61.03" height="62" rx="2.8" ry="2.8"/><rect class="cls-3" x="103.42" y="-3.86" width="10.16" height="28.02" rx="2.8" ry="2.8" transform="translate(118.65 -98.36) rotate(90)"/><path class="cls-4" d="M120,22.85v5.08h-5V22.85h5m0-1h-5a1,1,0,0,0-1,1v5.08a1,1,0,0,0,1,1h5a1,1,0,0,0,1-1V22.85a1,1,0,0,0-1-1Z"/><path class="cls-4" d="M111,22.85v5.08h-5V22.85h5m0-1h-5a1,1,0,0,0-1,1v5.08a1,1,0,0,0,1,1h5a1,1,0,0,0,1-1V22.85a1,1,0,0,0-1-1Z"/><path class="cls-4" d="M101,22.85v5.08H96V22.85h5m0-1H96a1,1,0,0,0-1,1v5.08a1,1,0,0,0,1,1h5a1,1,0,0,0,1-1V22.85a1,1,0,0,0-1-1Z"/><path class="cls-4" d="M120,33V38.1h-5V33h5m0-1h-5a1,1,0,0,0-1,1V38.1a1,1,0,0,0,1,1h5a1,1,0,0,0,1-1V33a1,1,0,0,0-1-1Z"/><path class="cls-4" d="M111,33V38.1h-5V33h5m0-1h-5a1,1,0,0,0-1,1V38.1a1,1,0,0,0,1,1h5a1,1,0,0,0,1-1V33a1,1,0,0,0-1-1Z"/><path class="cls-4" d="M101,33V38.1H96V33h5m0-1H96a1,1,0,0,0-1,1V38.1a1,1,0,0,0,1,1h5a1,1,0,0,0,1-1V33a1,1,0,0,0-1-1Z"/><path class="cls-4" d="M120,43.18v5.08h-5V43.18h5m0-1h-5a1,1,0,0,0-1,1v5.08a1,1,0,0,0,1,1h5a1,1,0,0,0,1-1V43.18a1,1,0,0,0-1-1Z"/><path class="cls-4" d="M111,43.18v5.08h-5V43.18h5m0-1h-5a1,1,0,0,0-1,1v5.08a1,1,0,0,0,1,1h5a1,1,0,0,0,1-1V43.18a1,1,0,0,0-1-1Z"/><path class="cls-4" d="M101,43.18v5.08H96V43.18h5m0-1H96a1,1,0,0,0-1,1v5.08a1,1,0,0,0,1,1h5a1,1,0,0,0,1-1V43.18a1,1,0,0,0-1-1Z"/><path class="cls-4" d="M120,53.34v5.08h-5V53.34h5m0-1h-5a1,1,0,0,0-1,1v5.08a1,1,0,0,0,1,1h5a1,1,0,0,0,1-1V53.34a1,1,0,0,0-1-1Z"/><path class="cls-4" d="M111,53.34v5.08h-5V53.34h5m0-1h-5a1,1,0,0,0-1,1v5.08a1,1,0,0,0,1,1h5a1,1,0,0,0,1-1V53.34a1,1,0,0,0-1-1Z"/><path class="cls-4" d="M101,53.34v5.08H96V53.34h5m0-1H96a1,1,0,0,0-1,1v5.08a1,1,0,0,0,1,1h5a1,1,0,0,0,1-1V53.34a1,1,0,0,0-1-1Z"/><path class="cls-3" d="M75.21,5.07a3,3,0,0,0-2.85,3.06V57.38a1.48,1.48,0,0,0,1.42,1.53"/><path class="cls-3" d="M85.69,42.19V57.38a1.48,1.48,0,0,1-1.42,1.53"/><line class="cls-3" x1="85.69" y1="42.19" x2="85.69" y2="21.81"/><path class="cls-3" d="M85.69,21.81V8.12a3,3,0,0,0-2.85-3.06"/><path class="cls-3" d="M72.32,42.19a3,3,0,0,0-2.84,3V55.89a3,3,0,0,0,2.84,3H74"/><path class="cls-3" d="M85.66,42.19h0"/><path class="cls-3" d="M85.69,42.19a3,3,0,0,1,2.8,3V55.89a3,3,0,0,1-2.84,3H84"/><line class="cls-3" x1="83.99" y1="58.93" x2="73.99" y2="58.93"/><path class="cls-3" d="M85.69,21.81a3,3,0,0,0,2.8-3V8.11a3,3,0,0,0-2.84-3H84"/><path class="cls-3" d="M85.69,21.81h0"/><path class="cls-3" d="M75,5.07H72.32a3,3,0,0,0-2.84,3V18.76a3,3,0,0,0,2.84,3"/><line class="cls-3" x1="74.99" y1="5.07" x2="83.99" y2="5.07"/><rect class="cls-5" x="129.48" y="1" width="61.03" height="62" rx="2.8" ry="2.8"/><rect class="cls-5" x="167.42" y="-3.86" width="10.16" height="28.02" rx="2.8" ry="2.8" transform="translate(182.65 -162.36) rotate(90)"/><path class="cls-6" d="M184,22.85v5.08h-5V22.85h5m0-1h-5a1,1,0,0,0-1,1v5.08a1,1,0,0,0,1,1h5a1,1,0,0,0,1-1V22.85a1,1,0,0,0-1-1Z"/><path class="cls-6" d="M175,22.85v5.08h-5V22.85h5m0-1h-5a1,1,0,0,0-1,1v5.08a1,1,0,0,0,1,1h5a1,1,0,0,0,1-1V22.85a1,1,0,0,0-1-1Z"/><path class="cls-6" d="M165,22.85v5.08h-5V22.85h5m0-1h-5a1,1,0,0,0-1,1v5.08a1,1,0,0,0,1,1h5a1,1,0,0,0,1-1V22.85a1,1,0,0,0-1-1Z"/><path class="cls-6" d="M184,33V38.1h-5V33h5m0-1h-5a1,1,0,0,0-1,1V38.1a1,1,0,0,0,1,1h5a1,1,0,0,0,1-1V33a1,1,0,0,0-1-1Z"/><path class="cls-6" d="M175,33V38.1h-5V33h5m0-1h-5a1,1,0,0,0-1,1V38.1a1,1,0,0,0,1,1h5a1,1,0,0,0,1-1V33a1,1,0,0,0-1-1Z"/><path class="cls-6" d="M165,33V38.1h-5V33h5m0-1h-5a1,1,0,0,0-1,1V38.1a1,1,0,0,0,1,1h5a1,1,0,0,0,1-1V33a1,1,0,0,0-1-1Z"/><path class="cls-6" d="M184,43.18v5.08h-5V43.18h5m0-1h-5a1,1,0,0,0-1,1v5.08a1,1,0,0,0,1,1h5a1,1,0,0,0,1-1V43.18a1,1,0,0,0-1-1Z"/><path class="cls-6" d="M175,43.18v5.08h-5V43.18h5m0-1h-5a1,1,0,0,0-1,1v5.08a1,1,0,0,0,1,1h5a1,1,0,0,0,1-1V43.18a1,1,0,0,0-1-1Z"/><path class="cls-6" d="M165,43.18v5.08h-5V43.18h5m0-1h-5a1,1,0,0,0-1,1v5.08a1,1,0,0,0,1,1h5a1,1,0,0,0,1-1V43.18a1,1,0,0,0-1-1Z"/><path class="cls-6" d="M184,53.34v5.08h-5V53.34h5m0-1h-5a1,1,0,0,0-1,1v5.08a1,1,0,0,0,1,1h5a1,1,0,0,0,1-1V53.34a1,1,0,0,0-1-1Z"/><path class="cls-6" d="M175,53.34v5.08h-5V53.34h5m0-1h-5a1,1,0,0,0-1,1v5.08a1,1,0,0,0,1,1h5a1,1,0,0,0,1-1V53.34a1,1,0,0,0-1-1Z"/><path class="cls-6" d="M165,53.34v5.08h-5V53.34h5m0-1h-5a1,1,0,0,0-1,1v5.08a1,1,0,0,0,1,1h5a1,1,0,0,0,1-1V53.34a1,1,0,0,0-1-1Z"/><path class="cls-5" d="M139.21,5.07a3,3,0,0,0-2.85,3.06V57.38a1.48,1.48,0,0,0,1.42,1.53"/><path class="cls-5" d="M149.69,42.19V57.38a1.48,1.48,0,0,1-1.42,1.53"/><line class="cls-5" x1="149.69" y1="42.19" x2="149.69" y2="21.81"/><path class="cls-5" d="M149.69,21.81V8.12a3,3,0,0,0-2.85-3.06"/><path class="cls-5" d="M136.32,42.19a3,3,0,0,0-2.84,3V55.89a3,3,0,0,0,2.84,3H138"/><path class="cls-5" d="M149.66,42.19h0"/><path class="cls-5" d="M149.69,42.19a3,3,0,0,1,2.8,3V55.89a3,3,0,0,1-2.84,3H148"/><line class="cls-5" x1="147.99" y1="58.93" x2="137.99" y2="58.93"/><path class="cls-5" d="M149.69,21.81a3,3,0,0,0,2.8-3V8.11a3,3,0,0,0-2.84-3H148"/><path class="cls-5" d="M149.69,21.81h0"/><path class="cls-5" d="M139,5.07h-2.67a3,3,0,0,0-2.84,3V18.76a3,3,0,0,0,2.84,3"/><line class="cls-5" x1="138.99" y1="5.07" x2="147.99" y2="5.07"/></svg>
