<svg id="Livello_1" data-name="Livello 1" xmlns="http://www.w3.org/2000/svg" viewBox="0 0 192 64">
    <defs>
        <style>
            .cls-1,
            .cls-10,
            .cls-11,
            .cls-12,
            .cls-13,
            .cls-2,
            .cls-3,
            .cls-4,
            .cls-5,
            .cls-6,
            .cls-7,
            .cls-8,
            .cls-9 {
                fill: none;
            }
            .cls-1,
            .cls-2,
            .cls-4 {
                stroke: #0069b2;
            }
            .cls-1,
            .cls-10,
            .cls-11,
            .cls-5,
            .cls-6 {
                stroke-linecap: round;
            }
            .cls-1,
            .cls-10,
            .cls-11,
            .cls-13,
            .cls-3,
            .cls-4,
            .cls-5,
            .cls-6,
            .cls-8,
            .cls-9 {
                stroke-linejoin: round;
            }
            .cls-12,
            .cls-2,
            .cls-7 {
                stroke-miterlimit: 10;
            }
            .cls-3,
            .cls-5 {
                stroke: #f48135;
            }
            .cls-6,
            .cls-7,
            .cls-9 {
                stroke: #54595e;
            }
            .cls-10,
            .cls-8 {
                stroke: #aab2bd;
            }
            .cls-11,
            .cls-12,
            .cls-13 {
                stroke: #fff;
            }
        </style>
        <view id="color" viewBox="0 0 64 64"/>
        <view id="grey" viewBox="64 0 64 64"/>
        <view id="white" viewBox="128 0 64 64"/>
    </defs>

    <path class="cls-1" d="M20.5,45.5v3.31a2.79,2.79,0,0,0,2.89,2.69H60.61a2.79,2.79,0,0,0,2.89-2.69V35.46l-9.66-9H30"/>
    <path class="cls-2" d="M24.5,38v6.7a2.85,2.85,0,0,0,2.9,2.8H38.6a2.85,2.85,0,0,0,2.9-2.8V33.3a2.85,2.85,0,0,0-2.9-2.8H36"/>
    <line class="cls-3" x1="30" y1="37.5" x2="39" y2="37.5"/>
    <line class="cls-3" x1="27" y1="41.5" x2="39" y2="41.5"/>
    <line class="cls-3" x1="35.5" y1="38" x2="35.5" y2="33"/>
    <line class="cls-3" x1="30.5" y1="38" x2="30.5" y2="33"/>
    <line class="cls-3" x1="35.5" y1="46" x2="35.5" y2="41"/>
    <line class="cls-3" x1="30.5" y1="46" x2="30.5" y2="41"/>
    <line class="cls-4" x1="46" y1="40.5" x2="56" y2="40.5"/>
    <line class="cls-4" x1="57" y1="40.5" x2="60" y2="40.5"/>
    <line class="cls-4" x1="60" y1="43.5" x2="50" y2="43.5"/>
    <line class="cls-4" x1="49" y1="43.5" x2="46" y2="43.5"/>
    <line class="cls-4" x1="46" y1="46.5" x2="56" y2="46.5"/>
    <line class="cls-4" x1="57" y1="46.5" x2="60" y2="46.5"/>
    <path class="cls-1" d="M20.93,18.29l4.32-4.34a1,1,0,0,1,1.75.82l-1.18,5.8A1,1,0,0,0,27,21.68l6.15-1.17a1,1,0,0,1,.89,1.64L29.5,26.26a.93.93,0,0,0,.26,1.57l5.63,2.44a1,1,0,0,1-.32,1.84L28.86,33a1,1,0,0,0-.78,1.43l3,5.12a1,1,0,0,1-1.4,1.33l-5.48-2.73a1.06,1.06,0,0,0-1.52.75l-.84,5.85a1.05,1.05,0,0,1-2,.32l-2.65-5.28a1.06,1.06,0,0,0-1.67-.22l-4.32,4.34a1,1,0,0,1-1.75-.82l1.18-5.8a1,1,0,0,0-1.19-1.11L3.3,37.32a1,1,0,0,1-.89-1.64L7,31.56A.93.93,0,0,0,6.72,30L1.08,27.55a1,1,0,0,1,.32-1.84l6.21-.85a1,1,0,0,0,.78-1.43l-3-5.12A1,1,0,0,1,6.82,17L12.3,19.7A1.06,1.06,0,0,0,13.82,19l.84-5.85a1.05,1.05,0,0,1,2-.32l2.65,5.28A1.06,1.06,0,0,0,20.93,18.29Z"/>
        <path class="cls-5" d="M17.21,25A2.36,2.36,0,0,1,15,27.53a2.4,2.4,0,0,1-2.63-2.12,2.36,2.36,0,0,1,2.21-2.53A2.4,2.4,0,0,1,17.21,25Z"/>
        <path class="cls-5" d="M24.09,32.41a2.36,2.36,0,0,1-2.21,2.53,2.4,2.4,0,0,1-2.63-2.12,2.36,2.36,0,0,1,2.21-2.53A2.4,2.4,0,0,1,24.09,32.41Z"/>
        <path class="cls-5" d="M13.21,34.65l10-11.49-10,11.49"/>
        <path class="cls-6" d="M84.5,45.5v3.31a2.79,2.79,0,0,0,2.89,2.69h37.22a2.79,2.79,0,0,0,2.89-2.69V35.46l-9.66-9H94"/>
        <path class="cls-7" d="M88.5,38v6.7a2.85,2.85,0,0,0,2.9,2.8H102.6a2.85,2.85,0,0,0,2.9-2.8V33.3a2.85,2.85,0,0,0-2.9-2.8H100"/>
        <line class="cls-8" x1="94" y1="37.5" x2="103" y2="37.5"/>
        <line class="cls-8" x1="91" y1="41.5" x2="103" y2="41.5"/>
        <line class="cls-8" x1="99.5" y1="38" x2="99.5" y2="33"/>
        <line class="cls-8" x1="94.5" y1="38" x2="94.5" y2="33"/>
        <line class="cls-8" x1="99.5" y1="46" x2="99.5" y2="41"/>
        <line class="cls-8" x1="94.5" y1="46" x2="94.5" y2="41"/>
        <line class="cls-9" x1="110" y1="40.5" x2="120" y2="40.5"/>
        <line class="cls-9" x1="121" y1="40.5" x2="124" y2="40.5"/>
        <line class="cls-9" x1="124" y1="43.5" x2="114" y2="43.5"/>
        <line class="cls-9" x1="113" y1="43.5" x2="110" y2="43.5"/>
        <line class="cls-9" x1="110" y1="46.5" x2="120" y2="46.5"/>
        <line class="cls-9" x1="121" y1="46.5" x2="124" y2="46.5"/>
        <path class="cls-6" d="M84.93,18.29l4.32-4.34a1,1,0,0,1,1.75.82l-1.18,5.8A1,1,0,0,0,91,21.68l6.15-1.17a1,1,0,0,1,.89,1.64L93.5,26.26a.93.93,0,0,0,.26,1.57l5.63,2.44a1,1,0,0,1-.32,1.84L92.86,33a1,1,0,0,0-.78,1.43l3,5.12a1,1,0,0,1-1.4,1.33l-5.48-2.73a1.06,1.06,0,0,0-1.52.75l-.84,5.85a1.05,1.05,0,0,1-2,.32l-2.65-5.28a1.06,1.06,0,0,0-1.67-.22l-4.32,4.34a1,1,0,0,1-1.75-.82l1.18-5.8a1,1,0,0,0-1.19-1.11L67.3,37.32a1,1,0,0,1-.89-1.64L71,31.56A.93.93,0,0,0,70.72,30l-5.63-2.44a1,1,0,0,1,.32-1.84l6.21-.85a1,1,0,0,0,.78-1.43l-3-5.12A1,1,0,0,1,70.82,17L76.3,19.7A1.06,1.06,0,0,0,77.82,19l.84-5.85a1.05,1.05,0,0,1,2-.32l2.65,5.28A1.06,1.06,0,0,0,84.93,18.29Z"/>
        <path class="cls-10" d="M81.21,25A2.36,2.36,0,0,1,79,27.53a2.4,2.4,0,0,1-2.63-2.12,2.36,2.36,0,0,1,2.21-2.53A2.4,2.4,0,0,1,81.21,25Z"/>
        <path class="cls-10" d="M88.09,32.41a2.36,2.36,0,0,1-2.21,2.53,2.4,2.4,0,0,1-2.63-2.12,2.36,2.36,0,0,1,2.21-2.53A2.4,2.4,0,0,1,88.09,32.41Z"/>
        <path class="cls-10" d="M77.21,34.65l10-11.49-10,11.49"/>
        <path class="cls-11" d="M148.5,45.5v3.31a2.79,2.79,0,0,0,2.89,2.69h37.22a2.79,2.79,0,0,0,2.89-2.69V35.46l-9.66-9H158"/>
        <path class="cls-12" d="M152.5,38v6.7a2.85,2.85,0,0,0,2.9,2.8H166.6a2.85,2.85,0,0,0,2.9-2.8V33.3a2.85,2.85,0,0,0-2.9-2.8H164"/>
        <line class="cls-13" x1="158" y1="37.5" x2="167" y2="37.5"/>
        <line class="cls-13" x1="155" y1="41.5" x2="167" y2="41.5"/>
        <line class="cls-13" x1="163.5" y1="38" x2="163.5" y2="33"/>
        <line class="cls-13" x1="158.5" y1="38" x2="158.5" y2="33"/>
        <line class="cls-13" x1="163.5" y1="46" x2="163.5" y2="41"/>
        <line class="cls-13" x1="158.5" y1="46" x2="158.5" y2="41"/>
        <line class="cls-13" x1="174" y1="40.5" x2="184" y2="40.5"/>
        <line class="cls-13" x1="185" y1="40.5" x2="188" y2="40.5"/>
        <line class="cls-13" x1="188" y1="43.5" x2="178" y2="43.5"/>
        <line class="cls-13" x1="177" y1="43.5" x2="174" y2="43.5"/>
        <line class="cls-13" x1="174" y1="46.5" x2="184" y2="46.5"/>
        <line class="cls-13" x1="185" y1="46.5" x2="188" y2="46.5"/>
        <path class="cls-11" d="M148.93,18.29l4.32-4.34a1,1,0,0,1,1.75.82l-1.18,5.8A1,1,0,0,0,155,21.68l6.15-1.17a1,1,0,0,1,.89,1.64l-4.56,4.11a.93.93,0,0,0,.26,1.57l5.63,2.44a1,1,0,0,1-.32,1.84l-6.21.85a1,1,0,0,0-.78,1.43l3,5.12a1,1,0,0,1-1.4,1.33l-5.48-2.73a1.06,1.06,0,0,0-1.52.75l-.84,5.85a1.05,1.05,0,0,1-2,.32l-2.65-5.28a1.06,1.06,0,0,0-1.67-.22l-4.32,4.34a1,1,0,0,1-1.75-.82l1.18-5.8a1,1,0,0,0-1.19-1.11l-6.15,1.17a1,1,0,0,1-.89-1.64L135,31.56a.93.93,0,0,0-.26-1.57l-5.63-2.44a1,1,0,0,1,.32-1.84l6.21-.85a1,1,0,0,0,.78-1.43l-3-5.12a1,1,0,0,1,1.4-1.33l5.48,2.73a1.06,1.06,0,0,0,1.52-.75l.84-5.85a1.05,1.05,0,0,1,2-.32l2.65,5.28A1.06,1.06,0,0,0,148.93,18.29Z"/>
        <path class="cls-11" d="M145.21,25A2.36,2.36,0,0,1,143,27.53a2.4,2.4,0,0,1-2.63-2.12,2.36,2.36,0,0,1,2.21-2.53A2.4,2.4,0,0,1,145.21,25Z"/>
        <path class="cls-11" d="M152.09,32.41a2.36,2.36,0,0,1-2.21,2.53,2.4,2.4,0,0,1-2.63-2.12,2.36,2.36,0,0,1,2.21-2.53A2.4,2.4,0,0,1,152.09,32.41Z"/>
        <path class="cls-11" d="M141.21,34.65l10-11.49-10,11.49"/></svg>
