<svg id="Livello_1" data-name="Livello 1" xmlns="http://www.w3.org/2000/svg" viewBox="0 0 192 64">
    <defs>
        <style>
            .cls-1 {
                fill: #0069b2;
            }
            .cls-2 {
                fill: #f48135;
            }
            .cls-3 {
                fill: #aab2bd;
            }
            .cls-4 {
                fill: #54595e;
            }
            .cls-5 {
                fill: #fff;
            }
        </style>
        <view id="color" viewBox="0 0 64 64"/>
        <view id="grey" viewBox="64 0 64 64"/>
        <view id="white" viewBox="128 0 64 64"/>
    </defs>
    <path class="cls-1" d="M32,1A31,31,0,1,1,1,32,31,31,0,0,1,32,1m0-1A32,32,0,1,0,64,32,32,32,0,0,0,32,0Z"/>
    <path class="cls-2" d="M24.66,26.91h3.23V23.77c0-1.38,0-3.52,1-4.84a5.74,5.74,0,0,1,5-2.35,20.29,20.29,0,0,1,5.79.58l-.81,4.78a10.9,10.9,0,0,0-2.6-.39c-1.26,0-2.38.45-2.38,1.7v3.65h5.15l-.36,4.67H33.94V47.8h-6V31.58H24.66Z"/>
    <path class="cls-3" d="M96,1A31,31,0,1,1,65,32,31,31,0,0,1,96,1m0-1a32,32,0,1,0,32,32A32,32,0,0,0,96,0Z"/>
    <path class="cls-4" d="M88.66,26.91h3.23V23.77c0-1.38,0-3.52,1-4.84a5.74,5.74,0,0,1,5-2.35,20.29,20.29,0,0,1,5.79.58l-.81,4.78a10.9,10.9,0,0,0-2.6-.39c-1.26,0-2.38.45-2.38,1.7v3.65h5.15l-.36,4.67H97.94V47.8h-6V31.58H88.66Z"/>
    <path class="cls-5" d="M160,1a31,31,0,1,1-31,31A31,31,0,0,1,160,1m0-1a32,32,0,1,0,32,32A32,32,0,0,0,160,0Z"/>
    <path class="cls-5" d="M152.66,26.91h3.23V23.77c0-1.38,0-3.52,1-4.84a5.74,5.74,0,0,1,5-2.35,20.29,20.29,0,0,1,5.79.58l-.81,4.78a10.9,10.9,0,0,0-2.6-.39c-1.26,0-2.38.45-2.38,1.7v3.65h5.15l-.36,4.67h-4.79V47.8h-6V31.58h-3.23Z"/>
  </svg>
