<svg id="Livello_1" data-name="Livello 1" xmlns="http://www.w3.org/2000/svg" viewBox="0 0 192 64">
    <defs>
        <style>
            .cls-1,
            .cls-2,
            .cls-3,
            .cls-4,
            .cls-5,
            .cls-6,
            .cls-7,
            .cls-8 {
                fill: none;
            }
            .cls-1,
            .cls-3 {
                stroke: #f48135;
            }
            .cls-1,
            .cls-2,
            .cls-4,
            .cls-5,
            .cls-7 {
                stroke-miterlimit: 10;
            }
            .cls-2 {
                stroke: #0069b2;
            }
            .cls-3,
            .cls-6,
            .cls-8 {
                stroke-linecap: round;
                stroke-linejoin: round;
            }
            .cls-4,
            .cls-6 {
                stroke: #aab2bd;
            }
            .cls-5 {
                stroke: #54595e;
            }
            .cls-7,
            .cls-8 {
                stroke: #fff;
            }
        </style>
        <view id="color" viewBox="0 0 64 64"/>
        <view id="grey" viewBox="64 0 64 64"/>
        <view id="white" viewBox="128 0 64 64"/>
    </defs><line class="cls-1" x1="14" y1="46" x2="5.79" y2="45.61"/><path class="cls-1" d="M59,39.3a3.12,3.12,0,0,0,3.11-3.14v-.94A3.11,3.11,0,0,0,59,32.09h0"/><path class="cls-1" d="M55,46.52h4a3.12,3.12,0,0,0,3.11-3.14v-.94A3.11,3.11,0,0,0,59,39.3h0"/><line class="cls-1" x1="55" y1="39.3" x2="59.02" y2="39.3"/><path class="cls-1" d="M59,24.88h0A3.11,3.11,0,0,1,62.13,28v.94A3.12,3.12,0,0,1,59,32.09"/><line class="cls-1" x1="55" y1="32.09" x2="59.02" y2="32.09"/><path class="cls-1" d="M59,24.88a3.12,3.12,0,0,0,3.11-3.14V20.8A3.11,3.11,0,0,0,59,17.66H55"/><line class="cls-1" x1="59.02" y1="24.88" x2="55" y2="24.88"/><path class="cls-2" d="M14.5,17V4.6A4.1,4.1,0,0,1,18.6.5H51.4a4.1,4.1,0,0,1,4.1,4.1V59.4a4.1,4.1,0,0,1-4.1,4.1H18.6a4.1,4.1,0,0,1-4.1-4.1V38"/><polyline class="cls-2" points="20.5 17 20.5 6.5 49.5 6.5 49.5 51.5 20.5 51.5 20.5 33"/><circle class="cls-3" cx="34.5" cy="57.5" r="3"/><path class="cls-1" d="M6.9,40.11C22.48,40.11,23,24,23,24h.58"/><path class="cls-1" d="M23.59,24h12a3.17,3.17,0,0,0,3.16-3.19V20a3.17,3.17,0,0,0-3.16-3.19H14.53a3.17,3.17,0,0,0-2.05.76l-12,8.1v14.5s-.07,5.5,6,5.5"/><line class="cls-4" x1="78.06" y1="46" x2="69.85" y2="45.61"/><path class="cls-4" d="M123.08,39.3a3.12,3.12,0,0,0,3.11-3.14v-.94a3.11,3.11,0,0,0-3.1-3.13h0"/><path class="cls-4" d="M119.06,46.52h4a3.12,3.12,0,0,0,3.11-3.14v-.94a3.11,3.11,0,0,0-3.1-3.13h0"/><line class="cls-4" x1="119.06" y1="39.3" x2="123.08" y2="39.3"/><path class="cls-4" d="M123.08,24.88h0a3.11,3.11,0,0,1,3.1,3.13v.94a3.12,3.12,0,0,1-3.11,3.14"/><line class="cls-4" x1="119.06" y1="32.09" x2="123.08" y2="32.09"/><path class="cls-4" d="M123.08,24.88a3.12,3.12,0,0,0,3.11-3.14V20.8a3.11,3.11,0,0,0-3.1-3.13h-4"/><line class="cls-4" x1="123.08" y1="24.88" x2="119.06" y2="24.88"/><path class="cls-5" d="M78.56,17V4.6A4.1,4.1,0,0,1,82.66.5h32.8a4.1,4.1,0,0,1,4.1,4.1V59.4a4.1,4.1,0,0,1-4.1,4.1H82.66a4.1,4.1,0,0,1-4.1-4.1V38"/><polyline class="cls-5" points="84.56 17 84.56 6.5 113.56 6.5 113.56 51.5 84.56 51.5 84.56 33"/><circle class="cls-6" cx="98.56" cy="57.5" r="3"/><path class="cls-4" d="M71,40.11C86.54,40.11,87.06,24,87.06,24h.58"/><path class="cls-4" d="M87.64,24h12a3.17,3.17,0,0,0,3.16-3.19V20a3.17,3.17,0,0,0-3.16-3.19H78.59a3.17,3.17,0,0,0-2.05.76l-12,8.1v14.5s-.07,5.5,6,5.5"/><line class="cls-7" x1="142.06" y1="46" x2="133.85" y2="45.61"/><path class="cls-7" d="M187.08,39.3a3.12,3.12,0,0,0,3.11-3.14v-.94a3.11,3.11,0,0,0-3.1-3.13h0"/><path class="cls-7" d="M183.06,46.52h4a3.12,3.12,0,0,0,3.11-3.14v-.94a3.11,3.11,0,0,0-3.1-3.13h0"/><line class="cls-7" x1="183.06" y1="39.3" x2="187.08" y2="39.3"/><path class="cls-7" d="M187.08,24.88h0a3.11,3.11,0,0,1,3.1,3.13v.94a3.12,3.12,0,0,1-3.11,3.14"/><line class="cls-7" x1="183.06" y1="32.09" x2="187.08" y2="32.09"/><path class="cls-7" d="M187.08,24.88a3.12,3.12,0,0,0,3.11-3.14V20.8a3.11,3.11,0,0,0-3.1-3.13h-4"/><line class="cls-7" x1="187.08" y1="24.88" x2="183.06" y2="24.88"/><path class="cls-7" d="M142.56,17V4.6a4.1,4.1,0,0,1,4.1-4.1h32.8a4.1,4.1,0,0,1,4.1,4.1V59.4a4.1,4.1,0,0,1-4.1,4.1h-32.8a4.1,4.1,0,0,1-4.1-4.1V38"/><polyline class="cls-7" points="148.56 17 148.56 6.5 177.56 6.5 177.56 51.5 148.56 51.5 148.56 33"/><circle class="cls-8" cx="162.56" cy="57.5" r="3"/><path class="cls-7" d="M135,40.11c15.58,0,16.11-16.14,16.11-16.14h.58"/><path class="cls-7" d="M151.64,24h12a3.17,3.17,0,0,0,3.16-3.19V20a3.17,3.17,0,0,0-3.16-3.19H142.59a3.17,3.17,0,0,0-2.05.76l-12,8.1v14.5s-.07,5.5,6,5.5"/></svg>
