<svg id="Livello_1" data-name="Livello 1" xmlns="http://www.w3.org/2000/svg" viewBox="0 0 192 64">
    <defs>
        <style>
            .cls-1 {
                fill: #f48135;
            }
            .cls-2 {
                fill: #54595e;
            }
            .cls-3 {
                fill: #fff;
            }
        </style>
        <view id="color" viewBox="0 0 64 64"/>
        <view id="grey" viewBox="64 0 64 64"/>
        <view id="white" viewBox="128 0 64 64"/>
    </defs><path class="cls-1" d="M63,33H1A1,1,0,0,1,1,31H63A1,1,0,0,1,63,33Z"/><path class="cls-1" d="M63,16.48H1a1,1,0,1,1,0-1.94H63a1,1,0,1,1,0,1.94Z"/><path class="cls-1" d="M63,49.45H1a1,1,0,1,1,0-1.94H63a1,1,0,1,1,0,1.94Z"/><path class="cls-2" d="M127,33H65A1,1,0,0,1,65,31H127A1,1,0,1,1,127,33Z"/><path class="cls-2" d="M127,16.48H65a1,1,0,1,1,0-1.94H127a1,1,0,1,1,0,1.94Z"/><path class="cls-2" d="M127,49.45H65a1,1,0,1,1,0-1.94H127a1,1,0,1,1,0,1.94Z"/><path class="cls-3" d="M191,33H129A1,1,0,1,1,129,31H191A1,1,0,1,1,191,33Z"/><path class="cls-3" d="M191,16.48H129a1,1,0,1,1,0-1.94H191a1,1,0,1,1,0,1.94Z"/><path class="cls-3" d="M191,49.45H129a1,1,0,1,1,0-1.94H191a1,1,0,1,1,0,1.94Z"/></svg>
