<svg id="Livello_1" data-name="Livello 1" xmlns="http://www.w3.org/2000/svg" viewBox="0 0 192 64">
    <defs>
        <style>
            .cls-1,
            .cls-3,
            .cls-4,
            .cls-5,
            .cls-6 {
                fill: none;
            }
            .cls-1,
            .cls-2 {
                stroke: #0069b2;
            }
            .cls-1,
            .cls-2,
            .cls-3,
            .cls-4,
            .cls-5,
            .cls-6 {
                stroke-miterlimit: 10;
            }
            .cls-2 {
                fill: #fff;
            }
            .cls-3 {
                stroke: #f48135;
            }
            .cls-4 {
                stroke: #54595e;
            }
            .cls-5 {
                stroke: #aab2bd;
            }
            .cls-6 {
                stroke: #fff;
            }
        </style>
        <view id="color" viewBox="0 0 64 64"/>
        <view id="grey" viewBox="64 0 64 64"/>
        <view id="white" viewBox="128 0 64 64"/>
    </defs><path class="cls-1" d="M13.29,23.14V4.09A3.11,3.11,0,0,1,16.41,1H47.59a3.11,3.11,0,0,1,3.12,3.1V23.14"/><path class="cls-1" d="M52.18,54.15H59.1a4.41,4.41,0,0,0,4.41-4.41V27.06a4.41,4.41,0,0,0-4.41-4.41H4.9A4.41,4.41,0,0,0,.49,27.06V49.74A4.41,4.41,0,0,0,4.9,54.15h6.91"/><line class="cls-1" x1="56.12" y1="41.35" x2="8.86" y2="41.35"/><circle class="cls-1" cx="53.66" cy="31.51" r="3.94"/><line class="cls-2" x1="6.89" y1="32.49" x2="17.72" y2="32.49"/><line class="cls-1" x1="11.82" y1="42.34" x2="8.86" y2="42.34"/><line class="cls-1" x1="56.12" y1="42.34" x2="53.17" y2="42.34"/><path class="cls-1" d="M49.16,63H15.83a3.45,3.45,0,0,1-3.52-3.38V41.35H52.68V59.64A3.45,3.45,0,0,1,49.16,63Z"/><polyline class="cls-3" points="36.43 52.19 48.92 52.19 42.34 52.19"/><polyline class="cls-3" points="15.75 47.26 48.92 47.26 15.75 47.26"/><polyline class="cls-3" points="42.34 57.11 48.92 57.11 42.34 57.11"/><path class="cls-4" d="M77.29,23.14V4.09A3.11,3.11,0,0,1,80.41,1h31.18a3.11,3.11,0,0,1,3.12,3.1V23.14"/><path class="cls-4" d="M116.18,54.15h6.91a4.41,4.41,0,0,0,4.41-4.41V27.06a4.41,4.41,0,0,0-4.41-4.41H68.9a4.41,4.41,0,0,0-4.41,4.41V49.74a4.41,4.41,0,0,0,4.41,4.41h6.91"/><line class="cls-4" x1="120.12" y1="41.35" x2="72.86" y2="41.35"/><circle class="cls-4" cx="117.66" cy="31.51" r="3.94"/><line class="cls-4" x1="70.89" y1="32.49" x2="81.72" y2="32.49"/><line class="cls-4" x1="75.82" y1="42.34" x2="72.86" y2="42.34"/><line class="cls-4" x1="120.12" y1="42.34" x2="117.17" y2="42.34"/><path class="cls-4" d="M113.16,63H79.83a3.45,3.45,0,0,1-3.52-3.38V41.35h40.37V59.64A3.45,3.45,0,0,1,113.16,63Z"/><polyline class="cls-5" points="100.43 52.19 112.92 52.19 106.34 52.19"/><polyline class="cls-5" points="79.75 47.26 112.92 47.26 79.75 47.26"/><polyline class="cls-5" points="106.34 57.11 112.92 57.11 106.34 57.11"/><path class="cls-6" d="M141.29,23.14V4.09A3.11,3.11,0,0,1,144.41,1h31.18a3.11,3.11,0,0,1,3.12,3.1V23.14"/><path class="cls-6" d="M180.18,54.15h6.91a4.41,4.41,0,0,0,4.41-4.41V27.06a4.41,4.41,0,0,0-4.41-4.41H132.9a4.41,4.41,0,0,0-4.41,4.41V49.74a4.41,4.41,0,0,0,4.41,4.41h6.91"/><line class="cls-6" x1="184.12" y1="41.35" x2="136.86" y2="41.35"/><circle class="cls-6" cx="181.66" cy="31.51" r="3.94"/><line class="cls-6" x1="134.89" y1="32.49" x2="145.72" y2="32.49"/><line class="cls-6" x1="139.82" y1="42.34" x2="136.86" y2="42.34"/><line class="cls-6" x1="184.12" y1="42.34" x2="181.17" y2="42.34"/><path class="cls-6" d="M177.16,63H143.83a3.45,3.45,0,0,1-3.52-3.38V41.35h40.37V59.64A3.45,3.45,0,0,1,177.16,63Z"/><polyline class="cls-6" points="164.43 52.19 176.92 52.19 170.34 52.19"/><polyline class="cls-6" points="143.75 47.26 176.92 47.26 143.75 47.26"/><polyline class="cls-6" points="170.34 57.11 176.92 57.11 170.34 57.11"/></svg>
