<svg id="Livello_1" data-name="Livello 1" xmlns="http://www.w3.org/2000/svg" viewBox="0 0 192 64">
    <defs>
        <style>
            .cls-1 {
                fill: #0369b2;
            }
            .cls-10,
            .cls-11,
            .cls-2,
            .cls-4,
            .cls-6,
            .cls-8 {
                fill: none;
            }
            .cls-2 {
                stroke: #0369b2;
            }
            .cls-10,
            .cls-2,
            .cls-6 {
                stroke-linecap: round;
                stroke-linejoin: round;
            }
            .cls-3 {
                fill: #ef8038;
            }
            .cls-4 {
                stroke: #ef8038;
            }
            .cls-11,
            .cls-4,
            .cls-8 {
                stroke-miterlimit: 10;
            }
            .cls-5 {
                fill: #54595e;
            }
            .cls-6 {
                stroke: #54595e;
            }
            .cls-7 {
                fill: #aab2bd;
            }
            .cls-8 {
                stroke: #aab2bd;
            }
            .cls-9 {
                fill: #fff;
            }
            .cls-10,
            .cls-11 {
                stroke: #fff;
            }
        </style>
        <view id="color" viewBox="0 0 64 64"/>
        <view id="grey" viewBox="64 0 64 64"/>
        <view id="white" viewBox="128 0 64 64"/>
    </defs><path
        class="cls-1"
        d="M42.2,12A1.8,1.8,0,0,1,44,13.8V50.2A1.8,1.8,0,0,1,42.2,52H20.8A1.8,1.8,0,0,1,19,50.2V13.8A1.8,1.8,0,0,1,20.8,12H42.2m0-1H20.8A2.8,2.8,0,0,0,18,13.8V50.2A2.8,2.8,0,0,0,20.8,53H42.2A2.8,2.8,0,0,0,45,50.2V13.8A2.8,2.8,0,0,0,42.2,11Z"/><rect class="cls-2" x="22.5" y="15.5" width="18" height="27"/><path class="cls-3" d="M31.5,45A2.5,2.5,0,1,0,34,47.5,2.5,2.5,0,0,0,31.5,45Zm0,4A1.5,1.5,0,1,1,33,47.5,1.5,1.5,0,0,1,31.5,49Z"/><rect class="cls-4" x="49.5" y="16.5" width="11" height="11" rx="2.25" ry="2.25"/><rect class="cls-4" x="29.5" y="19.5" width="7" height="7" rx="1.65" ry="1.65"/><rect class="cls-4" x="51.5" y="19.5" width="4" height="4" rx="0.92" ry="0.92"/><rect class="cls-4" x="3.5" y="36.5" width="11" height="11" rx="2.25" ry="2.25" transform="translate(51 33) rotate(90)"/><rect class="cls-4" x="7.5" y="38.5" width="4" height="4" rx="0.92" ry="0.92" transform="translate(50 31) rotate(90)"/><rect class="cls-4" x="27.5" y="28.5" width="4" height="4" rx="0.92" ry="0.92"/><rect class="cls-4" x="3.5" y="29.5" width="4" height="4" rx="0.92" ry="0.92"/><rect class="cls-4" x="49.5" y="31.5" width="6" height="6" rx="1.36" ry="1.36"/><path
        class="cls-5"
        d="M105.2,12a1.8,1.8,0,0,1,1.8,1.8V50.2a1.8,1.8,0,0,1-1.8,1.8H83.8A1.8,1.8,0,0,1,82,50.2V13.8A1.8,1.8,0,0,1,83.8,12h21.4m0-1H83.8A2.8,2.8,0,0,0,81,13.8V50.2A2.8,2.8,0,0,0,83.8,53h21.4a2.8,2.8,0,0,0,2.8-2.8V13.8a2.8,2.8,0,0,0-2.8-2.8Z"/><rect class="cls-6" x="85.5" y="15.5" width="18" height="27"/><path class="cls-7" d="M94.5,45A2.5,2.5,0,1,0,97,47.5,2.5,2.5,0,0,0,94.5,45Zm0,4A1.5,1.5,0,1,1,96,47.5,1.5,1.5,0,0,1,94.5,49Z"/><rect class="cls-8" x="112.5" y="16.5" width="11" height="11" rx="2.25" ry="2.25"/><rect class="cls-8" x="92.5" y="19.5" width="7" height="7" rx="1.65" ry="1.65"/><rect class="cls-8" x="114.5" y="19.5" width="4" height="4" rx="0.92" ry="0.92"/><rect class="cls-8" x="66.5" y="36.5" width="11" height="11" rx="2.25" ry="2.25" transform="translate(114 -30) rotate(90)"/><rect class="cls-8" x="70.5" y="38.5" width="4" height="4" rx="0.92" ry="0.92" transform="translate(113 -32) rotate(90)"/><rect class="cls-8" x="90.5" y="28.5" width="4" height="4" rx="0.92" ry="0.92"/><rect class="cls-8" x="66.5" y="29.5" width="4" height="4" rx="0.92" ry="0.92"/><rect class="cls-8" x="112.5" y="31.5" width="6" height="6" rx="1.36" ry="1.36"/><path
        class="cls-9"
        d="M170.2,12a1.8,1.8,0,0,1,1.8,1.8V50.2a1.8,1.8,0,0,1-1.8,1.8H148.8a1.8,1.8,0,0,1-1.8-1.8V13.8a1.8,1.8,0,0,1,1.8-1.8h21.4m0-1H148.8a2.8,2.8,0,0,0-2.8,2.8V50.2a2.8,2.8,0,0,0,2.8,2.8h21.4a2.8,2.8,0,0,0,2.8-2.8V13.8a2.8,2.8,0,0,0-2.8-2.8Z"/><rect class="cls-10" x="150.5" y="15.5" width="18" height="27"/><path class="cls-9" d="M159.5,45a2.5,2.5,0,1,0,2.5,2.5A2.5,2.5,0,0,0,159.5,45Zm0,4a1.5,1.5,0,1,1,1.5-1.5A1.5,1.5,0,0,1,159.5,49Z"/><rect class="cls-11" x="177.5" y="16.5" width="11" height="11" rx="2.25" ry="2.25"/><rect class="cls-11" x="157.5" y="19.5" width="7" height="7" rx="1.65" ry="1.65"/><rect class="cls-11" x="179.5" y="19.5" width="4" height="4" rx="0.92" ry="0.92"/><rect class="cls-11" x="131.5" y="36.5" width="11" height="11" rx="2.25" ry="2.25" transform="translate(179 -95) rotate(90)"/><rect class="cls-11" x="135.5" y="38.5" width="4" height="4" rx="0.92" ry="0.92" transform="translate(178 -97) rotate(90)"/><rect class="cls-11" x="155.5" y="28.5" width="4" height="4" rx="0.92" ry="0.92"/><rect class="cls-11" x="131.5" y="29.5" width="4" height="4" rx="0.92" ry="0.92"/><rect class="cls-11" x="177.5" y="31.5" width="6" height="6" rx="1.36" ry="1.36"/></svg>
