<svg id="Livello_1" data-name="Livello 1" xmlns="http://www.w3.org/2000/svg" viewBox="0 0 192 64">
    <defs>
        <style>
            .cls-1 {
                fill: #0369b2;
            }
            .cls-2 {
                fill: #ef8038;
            }
            .cls-3 {
                fill: #54595e;
            }
            .cls-4 {
                fill: #aab2bd;
            }
            .cls-5 {
                fill: #fff;
            }
        </style>
        <view id="color" viewBox="0 0 64 64"/>
        <view id="grey" viewBox="64 0 64 64"/>
        <view id="white" viewBox="128 0 64 64"/>
    </defs><path class="cls-1" d="M32,1A31,31,0,1,1,1,32,31,31,0,0,1,32,1m0-1A32,32,0,1,0,64,32,32,32,0,0,0,32,0Z"/><path
        class="cls-2"
        d="M40.1,25.44c-1.28-2.8-4-5.32-7.28-5.32-4.76,0-7,5-7.2,9.52h13L38,31.56H25.54c0,.48,0,1,0,1.48,0,.8,0,1.64.08,2.44H36.66L36,37.4H25.82c.56,4.16,2.92,8.08,7.16,8.08,3.16,0,5.44-1.64,7.12-4.32v3.08a8.94,8.94,0,0,1-7.16,3.4c-6.12,0-9-5.12-9.76-10.24H20.42l.64-1.92h1.88c0-.76-.08-1.52-.08-2.36,0-.52,0-1,0-1.56H20.42l.68-1.92H23C23.54,23.2,26.82,18,32.9,18a9.17,9.17,0,0,1,8.16,4.56Z"/><path class="cls-3" d="M96,1A31,31,0,1,1,65,32,31,31,0,0,1,96,1m0-1a32,32,0,1,0,32,32A32,32,0,0,0,96,0Z"/><path
        class="cls-4"
        d="M104.1,25.44c-1.28-2.8-4-5.32-7.28-5.32-4.76,0-7,5-7.2,9.52h13L102,31.56H89.54c0,.48,0,1,0,1.48,0,.8,0,1.64.08,2.44h11.08L100,37.4H89.82c.56,4.16,2.92,8.08,7.16,8.08,3.16,0,5.44-1.64,7.12-4.32v3.08a8.94,8.94,0,0,1-7.16,3.4c-6.12,0-9-5.12-9.76-10.24H84.42l.64-1.92h1.88c0-.76-.08-1.52-.08-2.36,0-.52,0-1,0-1.56H84.42l.68-1.92H87C87.54,23.2,90.82,18,96.9,18a9.17,9.17,0,0,1,8.16,4.56Z"/><path class="cls-5" d="M160,1a31,31,0,1,1-31,31A31,31,0,0,1,160,1m0-1a32,32,0,1,0,32,32A32,32,0,0,0,160,0Z"/><path
        class="cls-5"
        d="M168.1,25.44c-1.28-2.8-4-5.32-7.28-5.32-4.76,0-7,5-7.2,9.52h13L166,31.56H153.54c0,.48,0,1,0,1.48,0,.8,0,1.64.08,2.44h11.08L164,37.4h-10.2c.56,4.16,2.92,8.08,7.16,8.08,3.16,0,5.44-1.64,7.12-4.32v3.08a8.94,8.94,0,0,1-7.16,3.4c-6.12,0-9-5.12-9.76-10.24h-2.76l.64-1.92h1.88c0-.76-.08-1.52-.08-2.36,0-.52,0-1,0-1.56h-2.48l.68-1.92H151c.52-6.44,3.8-11.68,9.88-11.68a9.17,9.17,0,0,1,8.16,4.56Z"/></svg>
