<svg id="Livello_1" data-name="Livello 1" xmlns="http://www.w3.org/2000/svg" viewBox="0 0 192 64">
    <defs>
        <style>
            .cls-1,
            .cls-2,
            .cls-3,
            .cls-4,
            .cls-5 {
                fill: none;
                stroke-linejoin: round;
            }
            .cls-1 {
                stroke: #f48135;
            }
            .cls-2 {
                stroke: #0069b2;
            }
            .cls-3 {
                stroke: #aab2bd;
            }
            .cls-4 {
                stroke: #54595e;
            }
            .cls-5 {
                stroke: #fff;
            }
        </style>
        <view id="color" viewBox="0 0 64 64"/>
        <view id="grey" viewBox="64 0 64 64"/>
        <view id="white" viewBox="128 0 64 64"/>
    </defs><polyline class="cls-1" points="41.31 45.72 51.14 31.11 32.48 36.6"/><path class="cls-2" d="M41.39,45.5H23.93a8.73,8.73,0,0,1,17.46,0Z"/><line class="cls-2" x1="4" y1="43.5" x2="14" y2="43.5"/><line class="cls-2" x1="51" y1="43.5" x2="61" y2="43.5"/><line class="cls-2" x1="45.75" y1="29.79" x2="52.83" y2="22.73"/><line class="cls-2" x1="32.5" y1="25" x2="32.5" y2="14"/><line class="cls-2" x1="19.13" y1="29.79" x2="12.05" y2="22.73"/><path class="cls-2" d="M1.28,42.94a31.1,31.1,0,0,1,33-31c16.07,1,29.18,15.5,29.18,31.59v.29a1.7,1.7,0,0,1-1.7,1.7H2.87a1.7,1.7,0,0,1-1.68-2Z"/><path class="cls-2" d="M.5,48.5h63a0,0,0,0,1,0,0v1.2a2.8,2.8,0,0,1-2.8,2.8H2.5a2,2,0,0,1-2-2v-2A0,0,0,0,1,.5,48.5Z"/><polyline class="cls-3" points="105.31 45.72 115.14 31.11 96.48 36.6"/><path class="cls-4" d="M105.39,45.5H87.93a8.73,8.73,0,0,1,17.46,0Z"/><line class="cls-4" x1="68" y1="43.5" x2="78" y2="43.5"/><line class="cls-4" x1="115" y1="43.5" x2="125" y2="43.5"/><line class="cls-4" x1="109.75" y1="29.79" x2="116.83" y2="22.73"/><line class="cls-4" x1="96.5" y1="25" x2="96.5" y2="14"/><line class="cls-4" x1="83.13" y1="29.79" x2="76.05" y2="22.73"/><path class="cls-4" d="M65.28,42.94a31.1,31.1,0,0,1,33-31c16.07,1,29.18,15.5,29.18,31.59v.29a1.7,1.7,0,0,1-1.7,1.7H66.87a1.7,1.7,0,0,1-1.68-2Z"/><path class="cls-4" d="M64.5,48.5h63a0,0,0,0,1,0,0v1.2a2.8,2.8,0,0,1-2.8,2.8H66.5a2,2,0,0,1-2-2v-2A0,0,0,0,1,64.5,48.5Z"/><polyline class="cls-5" points="169.31 45.72 179.14 31.11 160.48 36.6"/><path class="cls-5" d="M169.39,45.5H151.93a8.73,8.73,0,0,1,17.46,0Z"/><line class="cls-5" x1="132" y1="43.5" x2="142" y2="43.5"/><line class="cls-5" x1="179" y1="43.5" x2="189" y2="43.5"/><line class="cls-5" x1="173.75" y1="29.79" x2="180.83" y2="22.73"/><line class="cls-5" x1="160.5" y1="25" x2="160.5" y2="14"/><line class="cls-5" x1="147.13" y1="29.79" x2="140.05" y2="22.73"/><path class="cls-5" d="M129.28,42.94a31.1,31.1,0,0,1,33-31c16.07,1,29.18,15.5,29.18,31.59v.29a1.7,1.7,0,0,1-1.7,1.7H130.87a1.7,1.7,0,0,1-1.68-2Z"/><path class="cls-5" d="M128.5,48.5h63a0,0,0,0,1,0,0v1.2a2.8,2.8,0,0,1-2.8,2.8H130.5a2,2,0,0,1-2-2v-2A0,0,0,0,1,128.5,48.5Z"/></svg>
