<svg id="Livello_1" data-name="Livello 1" xmlns="http://www.w3.org/2000/svg" viewBox="0 0 192 64">
    <defs>
        <style>
            .cls-1 {
                fill: #0069b2;
            }
            .cls-2 {
                fill: #f48135;
            }
            .cls-3 {
                fill: #aab2bd;
            }
            .cls-4 {
                fill: #54595e;
            }
            .cls-5 {
                fill: #fff;
            }
        </style>
        <view id="color" viewBox="0 0 64 64"/>
        <view id="grey" viewBox="64 0 64 64"/>
        <view id="white" viewBox="128 0 64 64"/>
    </defs><path class="cls-1" d="M32,1A31,31,0,1,1,1,32,31,31,0,0,1,32,1m0-1A32,32,0,1,0,64,32,32,32,0,0,0,32,0Z"/><path
        class="cls-2"
        d="M27,46.18c-3.71,0-6.39-2.35-6.39-5.17s3.33-5.07,7-5a8.11,8.11,0,0,1,2.41.39c2,1.4,3.46,2.19,3.87,3.79a4.29,4.29,0,0,1,.12,1c0,2.82-1.82,5-7,5m1-16.55c-2.49-.07-4.86-2.79-5.29-6.06s1.24-5.77,3.73-5.7,4.86,2.7,5.29,6S30.5,29.7,28,29.63m5.16,4.84c-.87-.62-2.54-2.12-2.54-3,0-1,.3-1.55,1.86-2.77a6.49,6.49,0,0,0,2.73-5c0-2.43-1.08-4.8-3.12-5.59h3.07l2.16-1.56H27.66c-4.33,0-8.41,3.28-8.41,7.09a7,7,0,0,0,7.36,7c.31,0,.6,0,.9,0a3.94,3.94,0,0,0-.49,1.8,3.76,3.76,0,0,0,1.32,2.67l-1.67,0c-5.37,0-9.5,3.42-9.5,7s4.53,5.68,9.9,5.68c6.12,0,9.5-3.47,9.5-7,0-2.8-.83-4.48-3.38-6.28"/><polygon class="cls-2" points="49.95 29.66 45.27 29.66 45.27 24.98 42.15 24.98 42.15 29.66 37.46 29.66 37.46 32.78 42.15 32.78 42.15 37.46 45.27 37.46 45.27 32.78 49.95 32.78 49.95 29.66"/><path class="cls-3" d="M96,1A31,31,0,1,1,65,32,31,31,0,0,1,96,1m0-1a32,32,0,1,0,32,32A32,32,0,0,0,96,0Z"/><path
        class="cls-4"
        d="M91,46.18c-3.71,0-6.39-2.35-6.39-5.17s3.33-5.07,7-5a8.11,8.11,0,0,1,2.41.39c2,1.4,3.46,2.19,3.87,3.79a4.29,4.29,0,0,1,.12,1c0,2.82-1.82,5-7,5m1-16.55c-2.49-.07-4.86-2.79-5.29-6.06s1.24-5.77,3.73-5.7,4.86,2.7,5.29,6S94.5,29.7,92,29.63m5.16,4.84c-.87-.62-2.54-2.12-2.54-3,0-1,.3-1.55,1.86-2.77a6.49,6.49,0,0,0,2.73-5c0-2.43-1.08-4.8-3.12-5.59h3.07l2.16-1.56H91.66c-4.33,0-8.41,3.28-8.41,7.09a7,7,0,0,0,7.36,7c.31,0,.6,0,.9,0a3.94,3.94,0,0,0-.49,1.8,3.76,3.76,0,0,0,1.32,2.67l-1.67,0c-5.37,0-9.5,3.42-9.5,7s4.53,5.68,9.9,5.68c6.12,0,9.5-3.47,9.5-7,0-2.8-.83-4.48-3.38-6.28"/><polygon class="cls-4" points="113.95 29.66 109.27 29.66 109.27 24.98 106.15 24.98 106.15 29.66 101.46 29.66 101.46 32.78 106.15 32.78 106.15 37.46 109.27 37.46 109.27 32.78 113.95 32.78 113.95 29.66"/><path class="cls-5" d="M160,1a31,31,0,1,1-31,31A31,31,0,0,1,160,1m0-1a32,32,0,1,0,32,32A32,32,0,0,0,160,0Z"/><path
        class="cls-5"
        d="M155,46.18c-3.71,0-6.39-2.35-6.39-5.17s3.33-5.07,7-5a8.11,8.11,0,0,1,2.41.39c2,1.4,3.46,2.19,3.87,3.79a4.29,4.29,0,0,1,.12,1c0,2.82-1.82,5-7,5m1-16.55c-2.49-.07-4.86-2.79-5.29-6.06s1.24-5.77,3.73-5.7,4.86,2.7,5.29,6S158.5,29.7,156,29.63m5.16,4.84c-.87-.62-2.54-2.12-2.54-3,0-1,.3-1.55,1.86-2.77a6.49,6.49,0,0,0,2.73-5c0-2.43-1.08-4.8-3.12-5.59h3.07l2.16-1.56h-9.67c-4.33,0-8.41,3.28-8.41,7.09a7,7,0,0,0,7.36,7c.31,0,.6,0,.9,0a3.94,3.94,0,0,0-.49,1.8,3.76,3.76,0,0,0,1.32,2.67l-1.67,0c-5.37,0-9.5,3.42-9.5,7s4.53,5.68,9.9,5.68c6.12,0,9.5-3.47,9.5-7,0-2.8-.83-4.48-3.38-6.28"/><polygon class="cls-5" points="177.95 29.66 173.27 29.66 173.27 24.98 170.15 24.98 170.15 29.66 165.46 29.66 165.46 32.78 170.15 32.78 170.15 37.46 173.27 37.46 173.27 32.78 177.95 32.78 177.95 29.66"/></svg>
