<svg id="Livello_1" data-name="Livello 1" xmlns="http://www.w3.org/2000/svg" viewBox="0 0 192 64">
    <defs>
        <style>
            .cls-1,
            .cls-2,
            .cls-3,
            .cls-4,
            .cls-5,
            .cls-6,
            .cls-7,
            .cls-8 {
                fill: none;
            }
            .cls-1,
            .cls-2 {
                stroke: #0069b2;
            }
            .cls-1,
            .cls-4,
            .cls-7 {
                stroke-linecap: round;
                stroke-linejoin: round;
            }
            .cls-2,
            .cls-3,
            .cls-5,
            .cls-6,
            .cls-8 {
                stroke-miterlimit: 10;
            }
            .cls-3 {
                stroke: #f48135;
            }
            .cls-4,
            .cls-5 {
                stroke: #54595e;
            }
            .cls-6 {
                stroke: #aab2bd;
            }
            .cls-7,
            .cls-8 {
                stroke: #fff;
            }
        </style>
        <view id="color" viewBox="0 0 64 64"/>
        <view id="grey" viewBox="64 0 64 64"/>
        <view id="white" viewBox="128 0 64 64"/>
    </defs><path class="cls-1" d="M53.91,42a27.55,27.55,0,0,1-38.75-.11,27.05,27.05,0,0,1-.11-38.46"/><line class="cls-2" x1="33.96" y1="50.2" x2="33.96" y2="58.8"/><path class="cls-2" d="M55.6,63.36l-42.21.13.07-2a2.85,2.85,0,0,1,2.86-2.85H52.74a2.85,2.85,0,0,1,2.86,2.85Z"/><path class="cls-3" d="M36.4,37.66A28.7,28.7,0,0,0,33,44.85a21.83,21.83,0,0,1-14.49-6.47l8.05-8.12A40.4,40.4,0,0,0,36.4,37.66Z"/><path class="cls-3" d="M19.27,20.45a28.09,28.09,0,0,1-7.18,3.43,22.19,22.19,0,0,0,6.41,14.5l8.05-8.12A40.8,40.8,0,0,1,19.27,20.45Z"/><path class="cls-3" d="M18.51,7a22.24,22.24,0,0,0-6.41,16.88,28.09,28.09,0,0,0,7.18-3.43C16.37,14.81,15.88,9.65,18.51,7Z"/><path class="cls-3" d="M36.4,37.66A28.7,28.7,0,0,0,33,44.85a21.84,21.84,0,0,0,16.62-6.47C47,41,41.94,40.54,36.4,37.66Z"/><path class="cls-3" d="M41.57,15.12A40.7,40.7,0,0,1,48.91,25,28.24,28.24,0,0,1,56,21.61,22.2,22.2,0,0,0,49.62,7Z"/><path class="cls-3" d="M49.62,38.38A22.24,22.24,0,0,0,56,21.61,28.24,28.24,0,0,0,48.91,25C51.76,30.63,52.23,35.74,49.62,38.38Z"/><path class="cls-3" d="M41.57,15.12,49.62,7A21.83,21.83,0,0,0,35.24.53a28.54,28.54,0,0,1-3.4,7.24A40.51,40.51,0,0,1,41.57,15.12Z"/><path class="cls-3" d="M31.84,7.77A28.54,28.54,0,0,0,35.24.53,21.84,21.84,0,0,0,18.51,7C21.14,4.34,26.25,4.84,31.84,7.77Z"/><path class="cls-3" d="M26.21,14.76a42.13,42.13,0,0,1-6.93,5.68,40.8,40.8,0,0,0,7.29,9.81l7.51-7.57Z"/><path class="cls-3" d="M42,30.7A42.15,42.15,0,0,1,48.91,25a40.7,40.7,0,0,0-7.34-9.92l-7.51,7.57Z"/><path class="cls-3" d="M26.56,30.26a40.4,40.4,0,0,0,9.84,7.41,42.38,42.38,0,0,1,5.61-7l-7.95-8Z"/><path class="cls-3" d="M26.21,14.76l7.86,7.92,7.51-7.57a40.51,40.51,0,0,0-9.73-7.35A42.35,42.35,0,0,1,26.21,14.76Z"/><path class="cls-3" d="M36.4,37.66C41.94,40.54,47,41,49.62,38.38L42,30.7A42.38,42.38,0,0,0,36.4,37.66Z"/><path class="cls-3" d="M48.91,25A42.15,42.15,0,0,0,42,30.7l7.61,7.68C52.23,35.74,51.76,30.63,48.91,25Z"/><path class="cls-3" d="M31.84,7.77C26.25,4.84,21.14,4.34,18.51,7l7.7,7.77A42.35,42.35,0,0,0,31.84,7.77Z"/><path class="cls-3" d="M19.27,20.45a42.13,42.13,0,0,0,6.93-5.68L18.51,7C15.88,9.65,16.37,14.81,19.27,20.45Z"/><path class="cls-4" d="M118.34,42a27.55,27.55,0,0,1-38.75-.11,27.05,27.05,0,0,1-.11-38.46"/><line class="cls-5" x1="98.39" y1="50.2" x2="98.39" y2="58.8"/><path class="cls-5" d="M120,63.36l-42.21.13.07-2a2.85,2.85,0,0,1,2.86-2.85h36.42A2.85,2.85,0,0,1,120,61.54Z"/><path class="cls-6" d="M100.83,37.66a28.7,28.7,0,0,0-3.4,7.19,21.83,21.83,0,0,1-14.49-6.47L91,30.26A40.4,40.4,0,0,0,100.83,37.66Z"/><path class="cls-6" d="M83.7,20.45a28.09,28.09,0,0,1-7.18,3.43,22.19,22.19,0,0,0,6.41,14.5L91,30.26A40.8,40.8,0,0,1,83.7,20.45Z"/><path class="cls-6" d="M82.93,7a22.24,22.24,0,0,0-6.41,16.88,28.09,28.09,0,0,0,7.18-3.43C80.8,14.81,80.3,9.65,82.93,7Z"/><path class="cls-6" d="M100.83,37.66a28.7,28.7,0,0,0-3.4,7.19A21.84,21.84,0,0,0,114,38.38C111.44,41,106.37,40.54,100.83,37.66Z"/><path class="cls-6" d="M106,15.12A40.7,40.7,0,0,1,113.34,25a28.24,28.24,0,0,1,7.13-3.43A22.2,22.2,0,0,0,114,7Z"/><path class="cls-6" d="M114,38.38a22.24,22.24,0,0,0,6.42-16.76A28.24,28.24,0,0,0,113.34,25C116.19,30.63,116.66,35.74,114,38.38Z"/><path class="cls-6" d="M106,15.12,114,7A21.83,21.83,0,0,0,99.67.53a28.54,28.54,0,0,1-3.4,7.24A40.51,40.51,0,0,1,106,15.12Z"/><path class="cls-6" d="M96.27,7.77A28.54,28.54,0,0,0,99.67.53,21.84,21.84,0,0,0,82.93,7C85.56,4.34,90.68,4.84,96.27,7.77Z"/><path class="cls-6" d="M90.64,14.76a42.13,42.13,0,0,1-6.93,5.68A40.8,40.8,0,0,0,91,30.26l7.51-7.57Z"/><path class="cls-6" d="M106.44,30.7a42.15,42.15,0,0,1,6.9-5.66A40.7,40.7,0,0,0,106,15.12l-7.51,7.57Z"/><path class="cls-6" d="M91,30.26a40.4,40.4,0,0,0,9.84,7.41,42.38,42.38,0,0,1,5.61-7l-7.95-8Z"/><path class="cls-6" d="M90.64,14.76l7.86,7.92L106,15.12a40.51,40.51,0,0,0-9.73-7.35A42.35,42.35,0,0,1,90.64,14.76Z"/><path class="cls-6" d="M100.83,37.66c5.54,2.88,10.61,3.35,13.22.71l-7.61-7.68A42.38,42.38,0,0,0,100.83,37.66Z"/><path class="cls-6" d="M113.34,25a42.15,42.15,0,0,0-6.9,5.66L114,38.38C116.66,35.74,116.19,30.63,113.34,25Z"/><path class="cls-6" d="M96.27,7.77C90.68,4.84,85.56,4.34,82.93,7l7.7,7.77A42.35,42.35,0,0,0,96.27,7.77Z"/><path class="cls-6" d="M83.7,20.45a42.13,42.13,0,0,0,6.93-5.68L82.93,7C80.3,9.65,80.8,14.81,83.7,20.45Z"/><path class="cls-7" d="M182.34,42a27.55,27.55,0,0,1-38.75-.11,27.05,27.05,0,0,1-.11-38.46"/><line class="cls-8" x1="162.39" y1="50.2" x2="162.39" y2="58.8"/><path class="cls-8" d="M184,63.36l-42.21.13.07-2a2.85,2.85,0,0,1,2.86-2.85h36.42A2.85,2.85,0,0,1,184,61.54Z"/><path class="cls-8" d="M164.83,37.66a28.7,28.7,0,0,0-3.4,7.19,21.83,21.83,0,0,1-14.49-6.47L155,30.26A40.4,40.4,0,0,0,164.83,37.66Z"/><path class="cls-8" d="M147.7,20.45a28.09,28.09,0,0,1-7.18,3.43,22.19,22.19,0,0,0,6.41,14.5L155,30.26A40.8,40.8,0,0,1,147.7,20.45Z"/><path class="cls-8" d="M146.93,7a22.24,22.24,0,0,0-6.41,16.88,28.09,28.09,0,0,0,7.18-3.43C144.8,14.81,144.3,9.65,146.93,7Z"/><path class="cls-8" d="M164.83,37.66a28.7,28.7,0,0,0-3.4,7.19A21.84,21.84,0,0,0,178,38.38C175.44,41,170.37,40.54,164.83,37.66Z"/><path class="cls-8" d="M170,15.12A40.7,40.7,0,0,1,177.34,25a28.24,28.24,0,0,1,7.13-3.43A22.2,22.2,0,0,0,178,7Z"/><path class="cls-8" d="M178,38.38a22.24,22.24,0,0,0,6.42-16.76A28.24,28.24,0,0,0,177.34,25C180.19,30.63,180.66,35.74,178,38.38Z"/><path class="cls-8" d="M170,15.12,178,7A21.83,21.83,0,0,0,163.67.53a28.54,28.54,0,0,1-3.4,7.24A40.51,40.51,0,0,1,170,15.12Z"/><path class="cls-8" d="M160.27,7.77a28.54,28.54,0,0,0,3.4-7.24A21.84,21.84,0,0,0,146.93,7C149.56,4.34,154.68,4.84,160.27,7.77Z"/><path class="cls-8" d="M154.64,14.76a42.13,42.13,0,0,1-6.93,5.68A40.8,40.8,0,0,0,155,30.26l7.51-7.57Z"/><path class="cls-8" d="M170.44,30.7a42.15,42.15,0,0,1,6.9-5.66A40.7,40.7,0,0,0,170,15.12l-7.51,7.57Z"/><path class="cls-8" d="M155,30.26a40.4,40.4,0,0,0,9.84,7.41,42.38,42.38,0,0,1,5.61-7l-7.95-8Z"/><path class="cls-8" d="M154.64,14.76l7.86,7.92L170,15.12a40.51,40.51,0,0,0-9.73-7.35A42.35,42.35,0,0,1,154.64,14.76Z"/><path class="cls-8" d="M164.83,37.66c5.54,2.88,10.61,3.35,13.22.71l-7.61-7.68A42.38,42.38,0,0,0,164.83,37.66Z"/><path class="cls-8" d="M177.34,25a42.15,42.15,0,0,0-6.9,5.66L178,38.38C180.66,35.74,180.19,30.63,177.34,25Z"/><path class="cls-8" d="M160.27,7.77c-5.59-2.93-10.7-3.43-13.33-.77l7.7,7.77A42.35,42.35,0,0,0,160.27,7.77Z"/><path class="cls-8" d="M147.7,20.45a42.13,42.13,0,0,0,6.93-5.68L146.93,7C144.3,9.65,144.8,14.81,147.7,20.45Z"/></svg>
