<svg id="Livello_1" data-name="Livello 1" xmlns="http://www.w3.org/2000/svg" viewBox="0 0 192 64">
    <defs>
        <style>
            .cls-1,
            .cls-2,
            .cls-3,
            .cls-4,
            .cls-5,
            .cls-6 {
                fill: none;
            }
            .cls-1 {
                stroke: #0069b2;
            }
            .cls-1,
            .cls-3,
            .cls-5 {
                stroke-miterlimit: 10;
            }
            .cls-2 {
                stroke: #f48135;
            }
            .cls-2,
            .cls-4,
            .cls-6 {
                stroke-linecap: round;
                stroke-linejoin: round;
            }
            .cls-3 {
                stroke: #54595e;
            }
            .cls-4 {
                stroke: #aab2bd;
            }
            .cls-5,
            .cls-6 {
                stroke: #fff;
            }
        </style>
        <view id="color" viewBox="0 0 64 64"/>
        <view id="grey" viewBox="64 0 64 64"/>
        <view id="white" viewBox="128 0 64 64"/>
    </defs><path class="cls-1" d="M14.26,35V45.77c0,3.59,7.77,7.53,17.76,7.53s18.24-3.94,18.24-7.53V34.69"/><path class="cls-1" d="M14.26,42.81c0,3.6,7.8,6.95,17.83,6.95S50.26,46,50.26,42.41"/><path class="cls-1" d="M31.08,44.52.88,27.47a1.23,1.23,0,0,1,0-1.77L31.08,11.06a1.32,1.32,0,0,1,1.83,0L63.12,25.7a1.23,1.23,0,0,1,0,1.77l-30.21,17A1.32,1.32,0,0,1,31.08,44.52Z"/><line class="cls-1" x1="57.22" y1="30.79" x2="57.22" y2="44.48"/><ellipse class="cls-2" cx="57.22" cy="46.9" rx="2.5" ry="2.42"/><path class="cls-3" d="M78.26,35V45.77c0,3.59,7.77,7.53,17.76,7.53s18.24-3.94,18.24-7.53V34.69"/><path class="cls-3" d="M78.26,42.81c0,3.6,7.8,6.95,17.83,6.95s18.16-3.74,18.16-7.35"/><path class="cls-3" d="M95.08,44.52l-30.21-17a1.23,1.23,0,0,1,0-1.77L95.08,11.06a1.32,1.32,0,0,1,1.83,0L127.12,25.7a1.23,1.23,0,0,1,0,1.77l-30.21,17A1.32,1.32,0,0,1,95.08,44.52Z"/><line class="cls-3" x1="121.22" y1="30.79" x2="121.22" y2="44.48"/><ellipse class="cls-4" cx="121.22" cy="46.9" rx="2.5" ry="2.42"/><path class="cls-5" d="M142.26,35V45.77c0,3.59,7.77,7.53,17.76,7.53s18.24-3.94,18.24-7.53V34.69"/><path class="cls-5" d="M142.26,42.81c0,3.6,7.8,6.95,17.83,6.95s18.16-3.74,18.16-7.35"/><path class="cls-5" d="M159.08,44.52l-30.21-17a1.23,1.23,0,0,1,0-1.77l30.21-14.64a1.32,1.32,0,0,1,1.83,0L191.12,25.7a1.23,1.23,0,0,1,0,1.77l-30.21,17A1.32,1.32,0,0,1,159.08,44.52Z"/><line class="cls-5" x1="185.22" y1="30.79" x2="185.22" y2="44.48"/><ellipse class="cls-6" cx="185.22" cy="46.9" rx="2.5" ry="2.42"/></svg>
