<svg id="Livello_1" data-name="Livello 1" xmlns="http://www.w3.org/2000/svg" viewBox="0 0 192 64">
    <defs>
        <style>
            .cls-1 {
                fill: #0069b2;
            }
            .cls-2 {
                fill: #f48135;
            }
            .cls-3 {
                fill: #aab2bd;
            }
            .cls-4 {
                fill: #54595e;
            }
            .cls-5 {
                fill: #fff;
            }
        </style>
        <view id="color" viewBox="0 0 64 64"/>
        <view id="grey" viewBox="64 0 64 64"/>
        <view id="white" viewBox="128 0 64 64"/>
    </defs><path class="cls-1" d="M32,1A31,31,0,1,1,1,32,31,31,0,0,1,32,1m0-1A32,32,0,1,0,64,32,32,32,0,0,0,32,0Z"/><path
        class="cls-2"
        d="M47.86,24a12.83,12.83,0,0,1-3.68,1A6.42,6.42,0,0,0,47,21.48,12.82,12.82,0,0,1,42.92,23,6.42,6.42,0,0,0,32,28.88a18.21,18.21,0,0,1-13.22-6.7,6.43,6.43,0,0,0,2,8.57,6.42,6.42,0,0,1-2.91-.8V30A6.42,6.42,0,0,0,23,36.32a6.26,6.26,0,0,1-1.69.23,6.36,6.36,0,0,1-1.21-.11,6.42,6.42,0,0,0,6,4.45,13,13,0,0,1-9.5,2.66,18.18,18.18,0,0,0,9.83,2.88c11.8,0,18.25-9.77,18.25-18.25,0-.28,0-.56,0-.83A13,13,0,0,0,47.86,24"/><path class="cls-3" d="M96,1A31,31,0,1,1,65,32,31,31,0,0,1,96,1m0-1a32,32,0,1,0,32,32A32,32,0,0,0,96,0Z"/><path
        class="cls-4"
        d="M111.86,24a12.83,12.83,0,0,1-3.68,1A6.42,6.42,0,0,0,111,21.48,12.82,12.82,0,0,1,106.92,23,6.42,6.42,0,0,0,96,28.88a18.21,18.21,0,0,1-13.22-6.7,6.43,6.43,0,0,0,2,8.57,6.42,6.42,0,0,1-2.91-.8V30A6.42,6.42,0,0,0,87,36.32a6.26,6.26,0,0,1-1.69.23,6.36,6.36,0,0,1-1.21-.11,6.42,6.42,0,0,0,6,4.45,13,13,0,0,1-9.5,2.66,18.18,18.18,0,0,0,9.83,2.88c11.8,0,18.25-9.77,18.25-18.25,0-.28,0-.56,0-.83a13,13,0,0,0,3.2-3.32"/><path class="cls-5" d="M160,1a31,31,0,1,1-31,31A31,31,0,0,1,160,1m0-1a32,32,0,1,0,32,32A32,32,0,0,0,160,0Z"/><path
        class="cls-5"
        d="M176,24a12.86,12.86,0,0,1-3.68,1,6.41,6.41,0,0,0,2.82-3.54A12.84,12.84,0,0,1,171.08,23,6.41,6.41,0,0,0,160,27.36a6.33,6.33,0,0,0,.17,1.45,18.23,18.23,0,0,1-13.22-6.69,6.4,6.4,0,0,0,2,8.55,6.43,6.43,0,0,1-2.91-.8v.08a6.4,6.4,0,0,0,5.15,6.27,6.28,6.28,0,0,1-1.69.23,6.38,6.38,0,0,1-1.21-.11,6.41,6.41,0,0,0,6,4.44,13,13,0,0,1-9.5,2.65,18.21,18.21,0,0,0,9.83,2.87c11.8,0,18.25-9.75,18.25-18.21,0-.28,0-.56,0-.83A13,13,0,0,0,176,24"/></svg>
