<svg xmlns="http://www.w3.org/2000/svg">
    <symbol id="icon_cancel--color" viewBox="0 0 16 16">
        <path fill="#F48135" d="M14.4,0.5l1.3,1.3L9.5,8l6.2,6.2l-1.3,1.3L8.2,9.3L2,15.5l-1.3-1.3L6.9,8L0.7,1.8L2,0.5l6.2,6.3L14.4,0.5z"/>
    </symbol>
    <symbol id="icon_cancel--grey" viewBox="16 0 16 16">
        <path fill="#AAB2BD" d="M30.5,0.5l1.3,1.3L25.5,8l6.2,6.2l-1.3,1.3l-6.2-6.2L18,15.5l-1.3-1.3L23,8l-6.2-6.2L18,0.5l6.2,6.3 L30.5,0.5z"/>
    </symbol>
    <symbol id="icon_cancel--white" viewBox="32 0 16 16">
        <path fill="#FFFFFF" d="M46.5,0.5l1.3,1.3L41.5,8l6.2,6.2l-1.3,1.3l-6.2-6.2L34,15.5l-1.3-1.3L39,8l-6.2-6.2L34,0.5l6.2,6.3 L46.5,0.5z"/>
    </symbol>
    <symbol id="icon_confirm--color" viewBox="0 16 16 16">
        <path fill="#F48135" d="M6.1,31.5l-4.9-7.6l1.1-0.7l3.8,5.9l8-12.6l1.1,0.7L6.1,31.5z"/>
    </symbol>
    <symbol id="icon_confirm--grey" viewBox="16 16 16 16">
        <path fill="#AAB2BD" d="M22.1,31.5l-4.9-7.6l1.1-0.7l3.8,5.9l8-12.6l1.1,0.7L22.1,31.5z"/>
    </symbol>
    <symbol id="icon_confirm--white" viewBox="32 16 16 16">
        <path fill="#FFFFFF" d="M38.1,31.5l-4.9-7.6l1.1-0.7l3.8,5.9l8-12.6l1.1,0.7L38.1,31.5z"/>
    </symbol>
    <symbol id="icon_search--color" viewBox="0 32 16 16">
        <path fill="#F69A5D" d="M13.6,39.3c-0.6,0.8-1.5,1.3-2.5,1.4l0,0c-0.2,0-0.3-0.1-0.3-0.3s0.1-0.3,0.3-0.3c1.7-0.2,2.9-1.8,2.7-3.5 c0-0.2,0.1-0.3,0.2-0.3c0.2,0,0.3,0.1,0.3,0.2C14.5,37.6,14.2,38.6,13.6,39.3z"/>
        <path fill="#F48135" d="M11,32.5c-2.6,0-4.7,2.1-4.7,4.7c0,1.2,0.4,2.3,1.2,3.2L6.8,41H6.7c-0.5-0.4-1.2-0.4-1.7,0L1,45 c-0.5,0.5-0.5,1.2,0,1.6l0.5,0.5l0,0c0.5,0.5,1.2,0.5,1.6,0c0,0,0,0,0,0l4.1-4c0.5-0.5,0.5-1.2,0-1.6v-0.1l0.7-0.7 c1.9,1.7,4.9,1.6,6.7-0.3c1.7-1.9,1.6-4.9-0.3-6.7C13.3,32.9,12.2,32.5,11,32.5z M6.9,42.8l-4.1,4.1c-0.3,0.3-0.7,0.3-1,0l-0.5-0.5 c-0.3-0.3-0.3-0.7,0-1c0,0,0,0,0,0l4.1-4c0.3-0.3,0.7-0.3,1,0c0,0,0,0,0,0l0.5,0.5C7.1,42.1,7.1,42.5,6.9,42.8 C6.9,42.8,6.9,42.8,6.9,42.8z M11,41.5c-2.3,0-4.2-1.9-4.3-4.2c0-2.3,1.9-4.2,4.2-4.3c2.3,0,4.2,1.9,4.3,4.2c0,0,0,0,0,0 C15.2,39.6,13.3,41.5,11,41.5z"/>
    </symbol>
    <symbol id="icon_search--grey" viewBox="16 32 16 16">
        <path fill="#AAB2BD" d="M29.6,39.3c-0.6,0.8-1.5,1.3-2.5,1.4l0,0c-0.2,0-0.3-0.1-0.3-0.3s0.1-0.3,0.3-0.3c1.7-0.2,2.9-1.8,2.7-3.5 c0-0.2,0.1-0.3,0.2-0.3c0.2,0,0.3,0.1,0.3,0.2C30.5,37.6,30.2,38.6,29.6,39.3z"/>
        <path fill="#54595E" d="M27,32.5c-2.6,0-4.7,2.1-4.7,4.7c0,1.2,0.4,2.3,1.2,3.2L22.8,41h-0.1c-0.5-0.4-1.2-0.4-1.6,0l-4.1,4 c-0.5,0.5-0.5,1.2,0,1.6l0.5,0.5l0,0c0.5,0.5,1.2,0.5,1.6,0c0,0,0,0,0,0l4.1-4c0.5-0.5,0.5-1.2,0-1.6v-0.1l0.7-0.7 c1.9,1.7,4.9,1.6,6.7-0.3c1.7-1.9,1.6-4.9-0.3-6.7C29.4,32.9,28.2,32.5,27,32.5z M22.9,42.8l-4.1,4.1c-0.3,0.3-0.7,0.3-1,0 l-0.5-0.5c-0.3-0.3-0.3-0.7,0-1c0,0,0,0,0,0l4.1-4c0.3-0.3,0.7-0.3,1,0c0,0,0,0,0,0l0.5,0.5C23.2,42.1,23.2,42.5,22.9,42.8 C22.9,42.8,22.9,42.8,22.9,42.8z M27,41.5c-2.3,0-4.2-1.9-4.3-4.2c0-2.3,1.9-4.2,4.2-4.3c2.3,0,4.2,1.9,4.3,4.2c0,0,0,0,0,0 C31.2,39.6,29.3,41.5,27,41.5z"/>
    </symbol>
    <symbol id="icon_search--white" viewBox="32 32 16 16">
        <path fill="#EEEEEE" d="M45.6,39.3c-0.6,0.8-1.5,1.3-2.5,1.4l0,0c-0.2,0-0.3-0.1-0.3-0.3s0.1-0.3,0.3-0.3c1.7-0.2,2.9-1.8,2.7-3.5 c0-0.2,0.1-0.3,0.2-0.3c0.2,0,0.3,0.1,0.3,0.2C46.5,37.6,46.2,38.6,45.6,39.3z"/>
        <path fill="#FFFFFF" d="M43,32.5c-2.6,0-4.7,2.1-4.7,4.7c0,1.2,0.4,2.3,1.2,3.2L38.8,41h-0.1c-0.5-0.4-1.2-0.4-1.7,0l-4.1,4 c-0.5,0.5-0.5,1.2,0,1.6l0.5,0.5l0,0c0.5,0.5,1.2,0.5,1.6,0c0,0,0,0,0,0l4.1-4c0.5-0.5,0.5-1.2,0-1.6v-0.1l0.7-0.7 c1.9,1.7,4.9,1.6,6.7-0.3c1.7-1.9,1.6-4.9-0.3-6.7C45.3,32.9,44.2,32.5,43,32.5z M38.9,42.8l-4.1,4.1c-0.3,0.3-0.7,0.3-1,0 l-0.5-0.5c-0.3-0.3-0.3-0.7,0-1c0,0,0,0,0,0l4.1-4c0.3-0.3,0.7-0.3,1,0c0,0,0,0,0,0l0.5,0.5C39.2,42.1,39.2,42.5,38.9,42.8 C38.9,42.8,38.9,42.8,38.9,42.8z M43,41.5c-2.3,0-4.2-1.9-4.3-4.2c0-2.3,1.9-4.2,4.2-4.3c2.3,0,4.2,1.9,4.3,4.2c0,0,0,0,0,0 C47.2,39.6,45.3,41.5,43,41.5z"/>
    </symbol>
    <symbol id="icon_spinner--color" viewBox="0 48 16 16">
        <path fill="#F48135" d="M3.8,56.5h-3v-1h3c0,0.2,0,0.3,0,0.5C3.7,56.2,3.7,56.3,3.8,56.5z M5.4,52.5l-2.2-2.2L2.6,51l2.2,2.2 C4.9,52.9,5.2,52.7,5.4,52.5z M7.7,51.5c0.2,0,0.3,0,0.5,0c0.2,0,0.3,0,0.5,0v-3h-1V51.5z M2.6,61l0.7,0.7l2.2-2.2 c-0.3-0.2-0.5-0.4-0.7-0.7L2.6,61z M12.7,55.5c0,0.2,0,0.3,0.1,0.5c0,0.2,0,0.3-0.1,0.5h3.1v-1H12.7z M11,59.5l2.2,2.2l0.7-0.7 l-2.2-2.2C11.5,59.1,11.3,59.3,11,59.5z M7.7,60.5v3h1v-3c-0.2,0-0.3,0-0.5,0C8,60.5,7.9,60.5,7.7,60.5z"/>
    </symbol>
    <symbol id="icon_spinner--grey" viewBox="16 48 16 16">
        <path fill="#AAB2BD" d="M19.8,56.5h-3.1v-1h3.1c0,0.2,0,0.3-0.1,0.5C19.8,56.2,19.8,56.3,19.8,56.5z M21.5,52.5l-2.2-2.2L18.6,51 l2.2,2.2C21,52.9,21.2,52.7,21.5,52.5z M23.8,51.5c0.2,0,0.3,0,0.5,0c0.2,0,0.3,0,0.5,0v-3h-1V51.5z M18.6,61l0.7,0.7l2.2-2.2 c-0.3-0.2-0.5-0.4-0.7-0.7L18.6,61z M28.7,55.5c0,0.2,0,0.3,0,0.5c0,0.2,0,0.3,0,0.5h3v-1H28.7z M27,59.5l2.2,2.2L30,61l-2.2-2.2 C27.5,59.1,27.3,59.3,27,59.5z M23.8,60.5v3h1v-3c-0.2,0-0.3,0-0.5,0C24.1,60.5,23.9,60.5,23.8,60.5z"/>
    </symbol>
    <symbol id="icon_spinner--white" viewBox="32 48 16 16">
        <path fill="#FFFFFF" d="M35.8,56.5h-3.1v-1h3.1c0,0.2,0,0.3-0.1,0.5C35.8,56.2,35.8,56.3,35.8,56.5z M37.5,52.5l-2.2-2.2L34.6,51 l2.2,2.2C37,52.9,37.2,52.7,37.5,52.5z M39.8,51.5c0.2,0,0.3,0,0.5,0c0.2,0,0.3,0,0.5,0v-3h-1V51.5z M34.6,61l0.7,0.7l2.2-2.2 c-0.3-0.2-0.5-0.4-0.7-0.7L34.6,61z M44.7,55.5c0,0.2,0,0.3,0,0.5c0,0.2,0,0.3,0,0.5h3v-1H44.7z M43,59.5l2.2,2.2L46,61l-2.2-2.2 C43.5,59.1,43.3,59.3,43,59.5z M39.8,60.5v3h1v-3c-0.2,0-0.3,0-0.5,0C40.1,60.5,39.9,60.5,39.8,60.5z"/>
    </symbol>
    <symbol id="icon_caret_right--color" viewBox="0 64 16 16">
        <path fill="#F48135" d="M12.7,72l-9,5V67L12.7,72z"/>
    </symbol>
    <symbol id="icon_caret_right--grey" viewBox="16 64 16 16">
        <path fill="#AAB2BD" d="M28.8,72l-9,5V67L28.8,72z"/>
    </symbol>
    <symbol id="icon_caret_right--white" viewBox="32 64 16 16">
        <path fill="#FFFFFF" d="M44.8,72l-9,5V67L44.8,72z"/>
    </symbol>
    <symbol id="icon_caret_right_outline--color" viewBox="0 80 16 16">
        <path fill="#F48135" d="M4.7,84.7l5.9,3.3l-5.9,3.3V84.7 M3.7,83v10l9-5L3.7,83z"/>
    </symbol>
    <symbol id="icon_caret_right_outline--grey" viewBox="16 80 16 16">
        <path fill="#AAB2BD" d="M20.8,84.7l5.9,3.3l-5.9,3.3V84.7 M19.8,83v10l9-5L19.8,83z"/>
    </symbol>
    <symbol id="icon_caret_right_outline--white" viewBox="32 80 16 16">
        <path fill="#FFFFFF" d="M36.8,84.7l5.9,3.3l-5.9,3.3V84.7 M35.8,83v10l9-5L35.8,83z"/>
    </symbol>
</svg>
