<svg id="icon-close" data-name="Livello 1" xmlns="http://www.w3.org/2000/svg" viewBox="0 0 64 64">
    <defs>
        <style>
            .cls-1 {
                fill: #0069b2;
            }
            .cls-2,
            .cls-4,
            .cls-6 {
                fill: none;
                stroke-linecap: round;
                stroke-linejoin: round;
            }
            .cls-2 {
                stroke: #f48135;
            }
            .cls-3 {
                fill: #54595e;
            }
            .cls-4 {
                stroke: #aab2bd;
            }
            .cls-5 {
                fill: #fff;
            }
            .cls-6 {
                stroke: #fff;
            }
        </style>
        <view id='color' viewBox='0 0 64 64' />
        <view id='grey' viewBox='64 0 64 64' />
        <view id='white' viewBox='128 0 64 64' />
    </defs>
    <path class="cls-1" d="M32,1A31,31,0,1,1,1,32,31,31,0,0,1,32,1m0-1A32,32,0,1,0,64,32,32,32,0,0,0,32,0Z"/>
    <path class="cls-2" d="M16,48,48,16,16,48"/>
    <path class="cls-2" d="M48,48,16,16,48,48"/>
    <path class="cls-3" d="M96,1A31,31,0,1,1,65,32,31,31,0,0,1,96,1m0-1a32,32,0,1,0,32,32A32,32,0,0,0,96,0Z"/>
    <path class="cls-4" d="M80,48,112,16,80,48"/>
    <path class="cls-4" d="M112,48,80,16,112,48"/>
    <path class="cls-5" d="M160,1a31,31,0,1,1-31,31A31,31,0,0,1,160,1m0-1a32,32,0,1,0,32,32A32,32,0,0,0,160,0Z"/>
    <path class="cls-6" d="M144,48,176,16,144,48"/>
    <path class="cls-6" d="M176,48,144,16,176,48"/>
  </svg>
