
<svg xmlns="http://www.w3.org/2000/svg" xmlns:xlink="http://www.w3.org/1999/xlink" style="display:none">
  <defs></defs>
  <symbol id="icon_cancel--color" viewBox="0 0 16 16">
    <g>
      <path fill="#F48135" d="M14.4,0.5l1.3,1.3L9.5,8l6.2,6.2l-1.3,1.3L8.2,9.3L2,15.5l-1.3-1.3L6.9,8L0.7,1.8L2,0.5l6.2,6.3L14.4,0.5z"/>
    </g>
  </symbol>
  <symbol id="icon_cancel--grey" viewBox="16 0 16 16">
    <g>
      <path fill="#AAB2BD" d="M30.5,0.5l1.3,1.3L25.5,8l6.2,6.2l-1.3,1.3l-6.2-6.2L18,15.5l-1.3-1.3L23,8l-6.2-6.2L18,0.5l6.2,6.3 L30.5,0.5z"/>
    </g>
  </symbol>
  <symbol id="icon_cancel--white" viewBox="32 0 16 16">
    <g>
      <path fill="#FFFFFF" d="M46.5,0.5l1.3,1.3L41.5,8l6.2,6.2l-1.3,1.3l-6.2-6.2L34,15.5l-1.3-1.3L39,8l-6.2-6.2L34,0.5l6.2,6.3 L46.5,0.5z"/>
    </g>
  </symbol>
</svg>
