<svg id="spinner_orange" data-name="Livello 1" xmlns="http://www.w3.org/2000/svg" viewBox="0 0 16 16">
    <defs>
        <style>
            .cls-1 {
                fill: #f48135;
            }
        </style>
    </defs>
    <path class="cls-1" d="M3.55,8.5H.5v-1H3.55A4.43,4.43,0,0,0,3.5,8,4.43,4.43,0,0,0,3.55,8.5Zm1.66-4L3.05,2.34l-.71.71L4.5,5.21A4.5,4.5,0,0,1,5.21,4.5ZM7.5,3.55A4.43,4.43,0,0,1,8,3.5a4.43,4.43,0,0,1,.5.05V.5h-1ZM2.34,13l.71.71L5.21,11.5a4.5,4.5,0,0,1-.71-.71ZM12.45,7.5a4.43,4.43,0,0,1,.05.5,4.43,4.43,0,0,1-.05.5H15.5v-1Zm-1.66,4L13,13.66l.71-.71L11.5,10.79A4.5,4.5,0,0,1,10.79,11.5Zm-3.29.95V15.5h1V12.45a4.43,4.43,0,0,1-.5.05A4.43,4.43,0,0,1,7.5,12.45Z"/>
</svg>
