<?xml version="1.0" encoding="iso-8859-1"?>
<!-- Generator: Adobe Illustrator 16.0.0, SVG Export Plug-In . SVG Version: 6.00 Build 0)  -->
<!DOCTYPE svg PUBLIC "-//W3C//DTD SVG 1.1//EN" "http://www.w3.org/Graphics/SVG/1.1/DTD/svg11.dtd">
<svg version="1.1" id="Capa_1" xmlns="http://www.w3.org/2000/svg" xmlns:xlink="http://www.w3.org/1999/xlink" x="0px" y="0px"
	 width="362.737px" height="362.737px" viewBox="0 0 362.737 362.737" style="enable-background:new 0 0 362.737 362.737;"
	 xml:space="preserve">
<g>
	<g>
		<path d="M188.629,15.753v2.021c1.033-0.09,2.042-0.231,3.074-0.312c1.024-0.072,2.045-0.117,3.078-0.171
			c3.854-0.216,7.722-0.381,11.655-0.381c2.521,0,5.038,0.102,7.56,0.271c1.021,0.066,2.042,0.165,3.074,0.264
			c1.021,0.094,2.042,0.178,3.075,0.301v-1.991C220.146,7.064,213.078,0,204.389,0C195.7,0,188.629,7.064,188.629,15.753z"/>
		<path d="M1.727,273.878c0,44.784,36.431,81.215,81.215,81.215c44.784,0,81.215-36.431,81.215-81.215
			c0-44.783-36.431-81.215-81.215-81.215C38.165,192.663,1.727,229.095,1.727,273.878z M82.948,287.665
			c30.664-12.52,59.36-52.211,59.36-52.211c18.78,25.904,10.361,58.931,10.361,58.931c-15.76,21.396-64.759,13.601-64.759,13.601
			C93.739,296.979,82.948,287.665,82.948,287.665z M87.695,347.269c0,0-22.437,1.964-44.039-11.229l10.793-20.26
			c0,0,9.929,8.604,19.861,3.854L87.695,347.269z M60.499,282.514c0,0-14.679,0.426-15.546,15.54c0,0-20.719-8.635-33.239-35.398
			c0,0,5.182-37.127,33.456-48.356C45.169,214.299,44.094,259.629,60.499,282.514z M79.159,308.73
			c-3.276,6.148-11.625,8.095-18.654,4.347c-7.029-3.746-10.067-11.763-6.789-17.912c3.276-6.148,11.628-8.1,18.654-4.348
			C79.399,294.56,82.438,302.581,79.159,308.73z"/>
		<path d="M214.339,127.977c-4.233-0.093-8.455-0.222-12.73-0.222c-2.396,0-4.737,0.057-7.104,0.087
			c-1.165,0.012-2.345,0.024-3.51,0.042c-1.075,0.018-2.177,0.012-3.246,0.036c-0.633,1.819-1.045,3.741-1.045,5.768V345.06
			c0,9.752,7.933,17.678,17.679,17.678s17.678-7.926,17.678-17.678V133.693c0-1.966-0.402-3.828-0.997-5.6
			c-1.062-0.039-2.155-0.023-3.212-0.057C216.687,128.001,215.51,128.001,214.339,127.977z"/>
		<path d="M357.416,144.349c3.753,0,4.798-2.871,2.029-7.464C342.368,108.51,290.594,32.822,220.013,23.929
			c-1.009-0.126-2.029-0.201-3.044-0.3c-1.015-0.1-2.023-0.234-3.045-0.301c-2.474-0.174-4.972-0.27-7.487-0.27
			c-3.958,0-7.753,0.252-11.571,0.48c-1.009,0.06-2.06,0.048-3.062,0.126c-1.021,0.081-2.042,0.156-3.051,0.247
			C110.348,31.081,61.625,85.298,29.466,137.053c-2.879,4.636-1.847,7.518,2.066,7.518c0.958,0,2.083-0.171,3.369-0.534
			c24.166-6.795,83.311-21.053,156.551-22.296c1.54-0.024,3.102-0.042,4.663-0.054c1.837-0.018,3.639-0.069,5.494-0.069
			c3.681,0,7.44,0.099,11.175,0.171c1.549,0.033,3.074,0.033,4.63,0.069c43,1.155,89.718,7.199,136.447,21.872
			C355.217,144.148,356.418,144.349,357.416,144.349z"/>
	</g>
</g>
<g>
</g>
<g>
</g>
<g>
</g>
<g>
</g>
<g>
</g>
<g>
</g>
<g>
</g>
<g>
</g>
<g>
</g>
<g>
</g>
<g>
</g>
<g>
</g>
<g>
</g>
<g>
</g>
<g>
</g>
</svg>
