<?xml version="1.0" encoding="utf-8"?>
<!-- Generator: Adobe Illustrator 19.2.1, SVG Export Plug-In . SVG Version: 6.00 Build 0)  -->
<svg version="1.1" id="Layer_1" xmlns="http://www.w3.org/2000/svg" xmlns:xlink="http://www.w3.org/1999/xlink" x="0px" y="0px"
	 viewBox="0 0 26 27" style="enable-background:new 0 0 26 27;" xml:space="preserve">
<style type="text/css">
	.st0{fill:#FFFFFF;}
	.st1{fill:#3BA6C7;}
	.st2{fill:none;stroke:#000000;stroke-width:0.6707;stroke-miterlimit:10;}
</style>
<path class="st0" d="M22.9,27.1H3.1C1.4,27.1,0,25.7,0,24V3.3c0-1.7,1.4-3.1,3.1-3.1h19.7c1.7,0,3.1,1.4,3.1,3.1V24
	C26,25.7,24.6,27.1,22.9,27.1z"/>
<g>
	<ellipse class="st2" cx="13" cy="13.5" rx="4.8" ry="4.7"/>
	<ellipse cx="13" cy="13.5" rx="2.6" ry="2.5"/>
	<path d="M12.3,18.8c-0.1-0.4,0.2-0.8,0.6-0.9c0.4-0.1,0.8,0.2,0.9,0.6s-0.2,0.8-0.6,0.9C12.8,19.5,12.3,19.2,12.3,18.8z"/>
	<path d="M12.3,8.5c-0.1-0.4,0.2-0.8,0.6-0.9c0.4-0.1,0.8,0.2,0.9,0.6c0.1,0.4-0.2,0.8-0.6,0.9C12.8,9.1,12.3,8.9,12.3,8.5z"/>
	<ellipse transform="matrix(0.9997 -2.590139e-02 2.590139e-02 0.9997 -0.3472 0.2059)" cx="7.8" cy="13.5" rx="0.8" ry="0.8"/>
	<ellipse transform="matrix(0.9997 -2.590139e-02 2.590139e-02 0.9997 -0.3437 0.4766)" cx="18.2" cy="13.5" rx="0.8" ry="0.8"/>
</g>
</svg>
