<?xml version="1.0" encoding="utf-8"?>
<!-- Generator: Adobe Illustrator 19.2.1, SVG Export Plug-In . SVG Version: 6.00 Build 0)  -->
<svg version="1.1" id="Layer_1" xmlns="http://www.w3.org/2000/svg" xmlns:xlink="http://www.w3.org/1999/xlink" x="0px" y="0px"
	 viewBox="0 0 26 27" style="enable-background:new 0 0 26 27;" xml:space="preserve">
<style type="text/css">
	.st0{fill:#FFFFFF;}
	.st1{fill:#3BA6C7;}
	.st2{fill:none;stroke:#000000;stroke-width:0.6707;stroke-miterlimit:10;}
</style>
<path class="st0" d="M22.9,27H3.1C1.4,27,0,25.6,0,23.9V3.1C0,1.4,1.4,0,3.1,0h19.7C24.6,0,26,1.4,26,3.1v20.7
	C26,25.6,24.6,27,22.9,27z"/>
<path d="M18.3,14.1H7.7c-0.3,0-0.6-0.3-0.6-0.6v0c0-0.3,0.3-0.6,0.6-0.6h10.7c0.3,0,0.6,0.3,0.6,0.6v0C19,13.8,18.7,14.1,18.3,14.1z
	"/>
</svg>
