<?xml version="1.0" encoding="utf-8"?>
<!-- Generator: Adobe Illustrator 19.2.1, SVG Export Plug-In . SVG Version: 6.00 Build 0)  -->
<svg version="1.1" id="Layer_1" xmlns="http://www.w3.org/2000/svg" xmlns:xlink="http://www.w3.org/1999/xlink" x="0px" y="0px"
	 viewBox="0 0 26 27" style="enable-background:new 0 0 26 27;" xml:space="preserve">
<style type="text/css">
	.st0{fill:#FFFFFF;}
	.st1{fill:#3BA6C7;}
	.st2{fill:none;stroke:#000000;stroke-width:0.6707;stroke-miterlimit:10;}
</style>
<path class="st1" d="M22.9,27.1H3.1C1.4,27.1,0,25.7,0,24V3.3c0-1.7,1.4-3.1,3.1-3.1h19.7c1.7,0,3.1,1.4,3.1,3.1V24
	C26,25.7,24.6,27.1,22.9,27.1z"/>
<g>
	<path class="st0" d="M13,19.1L13,19.1c-0.3,0-0.5-0.2-0.5-0.5V8.5c0-0.3,0.2-0.5,0.5-0.5h0c0.3,0,0.5,0.2,0.5,0.5v10.1
		C13.5,18.8,13.3,19.1,13,19.1z"/>
	<path class="st0" d="M7.4,13.5L7.4,13.5C7.4,13.2,7.7,13,8,13H18c0.3,0,0.5,0.2,0.5,0.5v0c0,0.3-0.2,0.5-0.5,0.5H8
		C7.7,14,7.4,13.8,7.4,13.5z"/>
</g>
</svg>
